<svg width="131" height="116" viewBox="0 0 131 116" fill="none" xmlns="http://www.w3.org/2000/svg">
<g filter="url(#filter0_i_1_1970)">
<path d="M7 57.7243C7 25.8441 32.8441 0 64.7243 0C96.6045 0 122.449 25.8441 122.449 57.7243C122.449 89.6045 96.6045 115.449 64.7243 115.449C32.8441 115.449 7 89.6045 7 57.7243Z" fill="url(#paint0_linear_1_1970)"/>
</g>
<g filter="url(#filter1_bd_1_1970)">
<path fill-rule="evenodd" clip-rule="evenodd" d="M99.3502 51.6598C97.7628 49.6816 94.6 48.4922 92.4443 48.274C88.7348 37.5723 75.6592 32.4697 61.1761 32.4697C44.8322 32.4697 28.1047 38.7976 29.5242 54.7219C30.9126 70.2073 48.1005 83.4963 61.0634 83.4963C69.3672 83.4963 79.6924 78.8444 86.4616 71.7275C89.1496 71.1497 93.9526 69.2338 97.0938 66.1429C99.072 64.2006 101.422 61.8268 101.585 58.182C101.75 54.7339 99.8465 52.2641 99.3502 51.6598ZM96.8996 57.9878C96.6214 61.0427 93.6984 62.7475 93.4298 62.8866C92.9831 63.121 92.514 63.3097 92.0295 63.4501C93.0734 61.0132 93.6189 58.392 93.6337 55.741C93.6337 55.2062 93.6145 54.6739 93.5809 54.1464C95.6766 55.036 97.0434 56.4124 96.8996 57.9878ZM34.5361 50.7319C34.5361 42.7278 46.2784 36.2392 60.7664 36.2392L60.7616 36.2464C73.9618 36.2464 84.8793 41.6272 86.7089 48.6338C87.083 50.0254 87.083 51.4911 86.7089 52.8828C84.8338 59.8726 73.9307 65.2342 60.7616 65.2342C58.3042 65.2357 55.8506 65.0417 53.4241 64.6539L40.9552 69.4113L42.9286 61.3616C37.7684 58.7168 34.5361 54.9354 34.5361 50.7319Z" fill="white"/>
</g>
<defs>
<filter id="filter0_i_1_1970" x="7" y="0" width="115.449" height="115.449" filterUnits="userSpaceOnUse" color-interpolation-filters="sRGB">
<feFlood flood-opacity="0" result="BackgroundImageFix"/>
<feBlend mode="normal" in="SourceGraphic" in2="BackgroundImageFix" result="shape"/>
<feColorMatrix in="SourceAlpha" type="matrix" values="0 0 0 0 0 0 0 0 0 0 0 0 0 0 0 0 0 0 127 0" result="hardAlpha"/>
<feOffset/>
<feGaussianBlur stdDeviation="1.58702"/>
<feComposite in2="hardAlpha" operator="arithmetic" k2="-1" k3="1"/>
<feColorMatrix type="matrix" values="0 0 0 0 0.754167 0 0 0 0 0.218117 0 0 0 0 0 0 0 0 0.5 0"/>
<feBlend mode="normal" in2="shape" result="effect1_innerShadow_1_1970"/>
</filter>
<filter id="filter1_bd_1_1970" x="0.577646" y="3.60752" width="129.88" height="108.751" filterUnits="userSpaceOnUse" color-interpolation-filters="sRGB">
<feFlood flood-opacity="0" result="BackgroundImageFix"/>
<feGaussianBlur in="BackgroundImageFix" stdDeviation="3.60777"/>
<feComposite in2="SourceAlpha" operator="in" result="effect1_backgroundBlur_1_1970"/>
<feColorMatrix in="SourceAlpha" type="matrix" values="0 0 0 0 0 0 0 0 0 0 0 0 0 0 0 0 0 0 127 0" result="hardAlpha"/>
<feOffset/>
<feGaussianBlur stdDeviation="14.4311"/>
<feColorMatrix type="matrix" values="0 0 0 0 0 0 0 0 0 0 0 0 0 0 0 0 0 0 0.16 0"/>
<feBlend mode="normal" in2="effect1_backgroundBlur_1_1970" result="effect2_dropShadow_1_1970"/>
<feBlend mode="normal" in="SourceGraphic" in2="effect2_dropShadow_1_1970" result="shape"/>
</filter>
<linearGradient id="paint0_linear_1_1970" x1="64.7243" y1="0" x2="64.7243" y2="115.449" gradientUnits="userSpaceOnUse">
<stop stop-color="#FF8350"/>
<stop offset="1" stop-color="#E34200"/>
</linearGradient>
</defs>
</svg>
