<svg width="167" height="65" viewBox="0 0 167 65" fill="none" xmlns="http://www.w3.org/2000/svg">
<path d="M0.244873 44.9961C0.244873 41.3423 1.06077 38.0787 2.69256 35.2053C4.35983 32.2965 6.61241 30.0439 9.45031 28.4476C12.3237 26.8158 15.5341 25.9999 19.0814 25.9999C23.2319 25.9999 26.8679 27.0641 29.9896 29.1925C33.1113 31.3209 35.2929 34.2653 36.5345 38.0255H27.9676C27.1162 36.2518 25.9101 34.9215 24.3493 34.0347C22.8239 33.1478 21.0502 32.7044 19.0282 32.7044C16.8643 32.7044 14.931 33.2188 13.2283 34.2475C11.561 35.2408 10.2485 36.6597 9.29068 38.5044C8.36836 40.349 7.9072 42.5129 7.9072 44.9961C7.9072 47.4438 8.36836 49.6077 9.29068 51.4878C10.2485 53.3324 11.561 54.7691 13.2283 55.7978C14.931 56.7911 16.8643 57.2877 19.0282 57.2877C21.0502 57.2877 22.8239 56.8443 24.3493 55.9575C25.9101 55.0351 27.1162 53.6871 27.9676 51.9135H36.5345C35.2929 55.7091 33.1113 58.6712 29.9896 60.7996C26.9034 62.8926 23.2673 63.9391 19.0814 63.9391C15.5341 63.9391 12.3237 63.1409 9.45031 61.5446C6.61241 59.9128 4.35983 57.6602 2.69256 54.7868C1.06077 51.9135 0.244873 48.6499 0.244873 44.9961Z" fill="#2A2A2B"/>
<path d="M53.9918 64.0987C51.1539 64.0987 48.5998 63.4779 46.3294 62.2363C44.0591 60.9593 42.2677 59.1678 40.9552 56.862C39.6781 54.5563 39.0396 51.8957 39.0396 48.8805C39.0396 45.8652 39.6958 43.2047 41.0084 40.8989C42.3564 38.5931 44.1833 36.8194 46.4891 35.5778C48.7949 34.3007 51.3667 33.6622 54.2046 33.6622C57.0425 33.6622 59.6143 34.3007 61.9201 35.5778C64.2259 36.8194 66.0351 38.5931 67.3476 40.8989C68.6956 43.2047 69.3696 45.8652 69.3696 48.8805C69.3696 51.8957 68.6779 54.5563 67.2944 56.862C65.9464 59.1678 64.1018 60.9593 61.7605 62.2363C59.4547 63.4779 56.8651 64.0987 53.9918 64.0987ZM53.9918 57.607C55.3398 57.607 56.5991 57.2877 57.7697 56.6492C58.9758 55.9752 59.9336 54.9819 60.6431 53.6694C61.3526 52.3569 61.7073 50.7606 61.7073 48.8805C61.7073 46.078 60.9624 43.9319 59.4725 42.442C58.018 40.9166 56.2266 40.1539 54.0982 40.1539C51.9698 40.1539 50.1783 40.9166 48.7239 42.442C47.305 43.9319 46.5955 46.078 46.5955 48.8805C46.5955 51.6829 47.2872 53.8468 48.6707 55.3721C50.0897 56.862 51.8633 57.607 53.9918 57.607Z" fill="#2A2A2B"/>
<path d="M85.6891 40.2603H80.5277V63.6198H72.9717V40.2603H69.6195V34.1411H72.9717V32.6512C72.9717 29.0329 74.0005 26.3724 76.058 24.6696C78.1154 22.9669 81.2194 22.1687 85.3698 22.2751V28.554C83.5607 28.5185 82.3013 28.82 81.5919 29.4586C80.8824 30.0971 80.5277 31.25 80.5277 32.9173V34.1411H85.6891V40.2603Z" fill="#2A2A2B"/>
<path d="M104.032 40.2603H98.8708V63.6198H91.3149V40.2603H87.9626V34.1411H91.3149V32.6512C91.3149 29.0329 92.3436 26.3724 94.4011 24.6696C96.4586 22.9669 99.5625 22.1687 103.713 22.2751V28.554C101.904 28.5185 100.644 28.82 99.935 29.4586C99.2255 30.0971 98.8708 31.25 98.8708 32.9173V34.1411H104.032V40.2603Z" fill="#2A2A2B"/>
<path d="M134.268 48.2419C134.268 49.3061 134.197 50.2639 134.055 51.1153H112.505C112.682 53.2437 113.427 54.911 114.74 56.1171C116.052 57.3232 117.666 57.9263 119.582 57.9263C122.349 57.9263 124.318 56.7379 125.488 54.3611H133.523C132.672 57.199 131.04 59.5403 128.628 61.3849C126.215 63.1941 123.253 64.0987 119.741 64.0987C116.903 64.0987 114.349 63.4779 112.079 62.2363C109.844 60.9593 108.088 59.1678 106.811 56.862C105.57 54.5563 104.949 51.8957 104.949 48.8805C104.949 45.8297 105.57 43.1514 106.811 40.8456C108.053 38.5399 109.791 36.7662 112.026 35.5246C114.261 34.283 116.833 33.6622 119.741 33.6622C122.544 33.6622 125.045 34.2653 127.244 35.4714C129.479 36.6775 131.199 38.398 132.406 40.6328C133.647 42.8322 134.268 45.3685 134.268 48.2419ZM126.552 46.1135C126.517 44.1979 125.825 42.6725 124.477 41.5374C123.129 40.3667 121.48 39.7814 119.529 39.7814C117.684 39.7814 116.123 40.349 114.846 41.4842C113.604 42.5839 112.842 44.127 112.558 46.1135H126.552Z" fill="#2A2A2B"/>
<path d="M166.444 48.2419C166.444 49.3061 166.373 50.2639 166.231 51.1153H144.681C144.858 53.2437 145.603 54.911 146.915 56.1171C148.228 57.3232 149.842 57.9263 151.758 57.9263C154.525 57.9263 156.493 56.7379 157.664 54.3611H165.699C164.847 57.199 163.216 59.5403 160.803 61.3849C158.391 63.1941 155.429 64.0987 151.917 64.0987C149.079 64.0987 146.525 63.4779 144.255 62.2363C142.02 60.9593 140.264 59.1678 138.987 56.862C137.745 54.5563 137.125 51.8957 137.125 48.8805C137.125 45.8297 137.745 43.1514 138.987 40.8456C140.229 38.5399 141.967 36.7662 144.202 35.5246C146.437 34.283 149.008 33.6622 151.917 33.6622C154.72 33.6622 157.221 34.2653 159.42 35.4714C161.655 36.6775 163.375 38.398 164.581 40.6328C165.823 42.8322 166.444 45.3685 166.444 48.2419ZM158.728 46.1135C158.693 44.1979 158.001 42.6725 156.653 41.5374C155.305 40.3667 153.655 39.7814 151.704 39.7814C149.86 39.7814 148.299 40.349 147.022 41.4842C145.78 42.5839 145.018 44.127 144.734 46.1135H158.728Z" fill="#2A2A2B"/>
<path fill-rule="evenodd" clip-rule="evenodd" d="M124.003 -0.000366211C122.77 -0.000366211 121.771 0.999123 121.771 2.23205V20.0914C121.771 21.3243 122.77 22.3238 124.003 22.3238H164.187C165.42 22.3238 166.419 21.3243 166.419 20.0914V11.1617V2.23205C166.419 0.999121 165.42 -0.000366211 164.187 -0.000366211H124.003ZM131.477 8.74361L131.836 6.69105H129.325L128.967 8.74361H127.944L127.639 10.5291H128.662L127.99 14.6266C127.919 15.3947 128.077 16.0026 128.463 16.4503C128.85 16.8979 129.432 17.1268 130.21 17.137C130.689 17.1472 131.139 17.0836 131.561 16.9462L131.744 15.0844C131.414 15.1149 131.195 15.1277 131.088 15.1226C130.813 15.1124 130.64 15.0412 130.569 14.9089C130.503 14.7767 130.488 14.5808 130.523 14.3214L131.164 10.5291H132.484L132.797 8.74361H131.477ZM139.273 9.14802C138.734 8.78685 138.096 8.60118 137.358 8.59101C136.168 8.57066 135.171 8.96235 134.367 9.76608C133.568 10.5698 133.106 11.6482 132.978 13.0013C132.907 13.7796 132.999 14.4867 133.253 15.1226C133.513 15.7584 133.909 16.2544 134.443 16.6105C134.978 16.9615 135.611 17.1421 136.343 17.1522C137.518 17.1726 138.505 16.7936 139.304 16.0153C140.103 15.237 140.573 14.2146 140.716 12.9479L140.731 12.7801C140.802 11.9967 140.71 11.2845 140.456 10.6436C140.207 10.0026 139.813 9.5041 139.273 9.14802ZM135.466 13.4515L135.489 13.0013C135.57 12.1518 135.758 11.5312 136.053 11.1395C136.354 10.7428 136.735 10.552 137.198 10.5673C137.549 10.5774 137.813 10.7199 137.992 10.9946C138.175 11.2642 138.261 11.6279 138.251 12.0857L138.22 12.7801C138.063 14.413 137.49 15.2141 136.504 15.1836C135.741 15.1633 135.395 14.5859 135.466 13.4515ZM149 16.7707C149.799 16.5011 150.407 16.1221 150.824 15.6338L151.541 11.0632H147.123L146.803 12.9021H148.611L148.268 14.6342C147.8 14.9445 147.255 15.0946 146.635 15.0844C145.607 15.0692 145.055 14.4486 144.979 13.2226C144.938 12.7139 144.989 12.0018 145.132 11.0861C145.3 10.0128 145.612 9.18872 146.07 8.6139C146.528 8.03399 147.108 7.75676 147.81 7.78219C148.283 7.79745 148.647 7.94243 148.901 8.21712C149.16 8.49181 149.308 8.92674 149.344 9.52191L151.846 9.52954C151.77 8.30868 151.399 7.37524 150.732 6.72921C150.066 6.08317 149.112 5.74998 147.871 5.72963C146.452 5.7042 145.251 6.19508 144.269 7.20229C143.293 8.20949 142.687 9.57532 142.453 11.2998L142.392 11.7576C142.265 12.7851 142.339 13.7084 142.614 14.5274C142.888 15.3464 143.346 15.9848 143.987 16.4426C144.628 16.9004 145.414 17.1344 146.345 17.1446C147.316 17.1599 148.202 17.0352 149 16.7707ZM159.002 9.14802C158.463 8.78685 157.824 8.60118 157.087 8.59101C155.896 8.57066 154.899 8.96235 154.095 9.76608C153.297 10.5698 152.834 11.6482 152.707 13.0013C152.635 13.7796 152.727 14.4867 152.981 15.1226C153.241 15.7584 153.638 16.2544 154.172 16.6105C154.706 16.9615 155.339 17.1421 156.072 17.1522C157.247 17.1726 158.234 16.7936 159.032 16.0153C159.831 15.237 160.301 14.2146 160.444 12.9479L160.459 12.7801C160.53 11.9967 160.439 11.2845 160.184 10.6436C159.935 10.0026 159.541 9.5041 159.002 9.14802ZM155.194 13.4515L155.217 13.0013C155.298 12.1518 155.487 11.5312 155.782 11.1395C156.082 10.7428 156.463 10.552 156.926 10.5673C157.277 10.5774 157.542 10.7199 157.72 10.9946C157.903 11.2642 157.989 11.6279 157.979 12.0857L157.949 12.7801C157.791 14.413 157.219 15.2141 156.232 15.1836C155.469 15.1633 155.123 14.5859 155.194 13.4515Z" fill="#FF5712"/>
</svg>
