<svg width="375" height="667" viewBox="0 0 375 667" fill="none" xmlns="http://www.w3.org/2000/svg">
<g clip-path="url(#clip0_4_915)">
<rect width="375" height="667" fill="white"/>
<path d="M290.487 256.998C318.288 204.586 259.237 131.147 202.62 114.173C146.003 97.1979 145.643 175.034 93.4608 214.93C48.1261 249.591 91.7183 319.817 154.736 330.402C213.785 340.32 262.686 309.41 290.487 256.998Z" fill="url(#paint0_linear_4_915)"/>
<path d="M95.1808 128.139C105.185 132.858 119.055 122.89 122.632 110.621C126.209 98.3519 117.956 92.3847 106.696 88.3348C95.4359 84.2849 84.8942 94.8288 82.5216 108.306C80.2985 120.935 85.1765 123.42 95.1808 128.139Z" fill="url(#paint1_linear_4_915)"/>
<g clip-path="url(#clip1_4_915)">
<path d="M147.019 232.706C146.775 232.759 146.49 232.831 146.19 232.928C146.387 232.704 146.678 232.646 147.019 232.706ZM132.84 251.696C132.825 251.706 132.811 251.715 132.796 251.725C132.797 251.726 132.799 251.726 132.8 251.728C132.813 251.717 132.827 251.707 132.84 251.696ZM192.838 207.289C192.357 203.971 191.459 200.63 188.777 198.514C181.422 205.454 171.573 197.095 166.535 190.535C165.389 190.641 164.22 190.755 163.039 190.888C161.639 191.054 159.943 191.283 158.149 191.58C155.311 192.088 152.526 192.811 149.989 193.931C148.238 194.704 146.689 195.783 145.296 197.065C145.296 197.072 145.296 197.079 145.296 197.087C145.296 197.296 145.065 197.462 144.795 197.541C143.718 198.599 142.737 199.779 141.832 201.034C139.168 205.694 135.61 212.618 132.61 218.596C132.615 218.618 132.6 218.645 132.57 218.676C131.911 219.99 131.28 221.255 130.692 222.441C128.113 228.215 125.75 234.071 123.458 240.004C122.088 243.549 119.648 249.337 121.91 253.016C123.853 256.176 128.42 259.874 132.414 258.736C132.428 258.732 132.44 258.731 132.454 258.728C133.599 257.99 134.796 257.352 136.034 256.804C134.58 255.252 133.379 253.343 131.469 252.318C131.241 252.195 131.234 252.032 131.341 251.881C131.254 251.765 131.286 251.609 131.552 251.435C134.436 249.539 137.84 248.625 141.347 248.336C140.264 246.805 138.955 245.423 138.479 243.557C138.384 243.182 139.724 242.83 139.818 243.199C139.824 243.22 139.833 243.239 139.838 243.26C144.411 242.763 149.009 242.408 153.501 242.898C152.868 241.925 152.34 240.923 151.865 239.869C149.87 240.305 147.175 239.117 145.65 237.358C139.523 240.142 133.621 243.406 127.211 245.528C126.421 245.79 126.276 245.182 127.05 244.926C133.37 242.833 139.194 239.569 145.24 236.826C144.585 235.872 144.282 234.797 144.593 233.74C144.986 232.406 146.1 231.995 147.271 232.072C147.404 230.734 147.97 229.268 149.315 229.115C149.281 229.052 149.263 228.976 149.267 228.886C149.516 222.318 150.422 215.8 150.254 209.217C150.237 208.574 151.597 208.396 151.615 209.131C151.784 215.714 150.878 222.232 150.628 228.8C150.621 228.985 150.503 229.129 150.34 229.226C150.559 229.291 150.773 229.375 150.981 229.478C151.876 228.348 153.165 228.2 154.359 228.677C156.555 227.531 158.836 228.731 159.982 230.929C161.202 233.267 160.869 235.772 157.997 236.314C157.845 236.343 157.736 236.346 157.656 236.332C157.569 236.355 157.505 236.371 157.465 236.381C157.406 236.477 157.34 236.57 157.269 236.662L157.216 236.759C165.599 238.605 172.797 247.202 175.098 255.514C175.43 256.251 175.683 257.026 175.84 257.842C183.058 252.774 192.103 250.944 201.059 250.293C196.994 240.378 195.36 229.302 193.944 218.746C193.433 214.941 193.389 211.083 192.838 207.289ZM219.052 239.533C218.191 235.693 217.455 231.798 217.247 227.86C217.079 224.665 217.136 221.461 216.983 218.265C216.934 218.264 216.887 218.268 216.838 218.265C216.449 218.246 216.652 218.052 216.966 217.887C216.941 217.415 216.911 216.942 216.874 216.471C216.153 207.187 213.777 193.297 202.88 191.18C202.904 193.076 202.319 194.816 201.486 196.572C200.263 199.147 199.433 201.915 200.339 204.748C201.227 207.524 202.955 209.755 204.57 212.139C210.323 220.63 213.668 231.079 215.39 241.119C215.461 241.528 214.113 241.839 214.051 241.477C212.11 230.166 207.987 219.71 201.612 210.199C200.959 209.225 200.418 208.275 199.985 207.333C198.142 208.362 196.44 208.407 194.428 207.971C194.807 211.272 194.788 214.692 195.169 217.53C196.631 228.43 198.237 239.869 202.463 250.099C202.478 250.133 202.485 250.166 202.49 250.199C205.901 249.996 209.283 249.948 212.532 249.942C212.85 249.589 213.817 249.492 213.777 250.009C213.704 250.94 212.897 251.909 212.376 252.632C211.84 253.376 211.283 254.127 210.661 254.807C211.866 254.813 213.071 254.819 214.275 254.819C214.478 254.819 214.796 254.901 214.624 255.158C214.263 255.695 213.333 257.439 212.51 258.541C216.736 258.864 219.274 254.596 219.952 250.825C220.643 246.973 219.894 243.29 219.052 239.533Z" fill="#2A2A2B"/>
<path d="M288.253 260.467C283.767 260.467 279.281 260.467 274.794 260.467C275.988 259.538 276.584 258.183 276.34 256.603C276.325 256.508 276.258 256.446 276.162 256.411C276.169 256.28 276.059 256.183 275.759 256.185C274.951 256.19 274.146 256.207 273.342 256.226C274.265 255.3 274.971 254.296 275.494 253.233C276.213 254.229 277.497 254.572 278.964 254.236C281.134 253.739 283.068 252.251 283.844 250.13C284.754 247.642 283.711 244.142 281.354 242.847C279.691 241.932 277.796 242.529 276.469 243.709C276.33 242.822 276.151 241.931 275.94 241.041C275.931 240.999 275.915 240.962 275.896 240.928C275.954 240.787 275.872 240.675 275.528 240.675C266.474 240.689 257.421 241.104 248.367 240.835C248.524 240.306 247.183 240.478 247.019 240.981C245.432 245.834 246.466 253.151 250.809 256.355C249.774 256.468 248.742 256.622 247.714 256.835C247.67 256.845 247.642 256.861 247.605 256.873C247.239 256.933 246.837 257.14 246.846 257.423C246.888 258.802 247.792 259.86 248.954 260.467C238.835 260.467 228.715 260.467 218.595 260.467C218.763 260.307 218.785 260.134 218.454 260.051C216.89 259.654 215.272 259.43 213.643 259.286C218.362 258.655 220.946 253.87 221.539 249.061C222.052 244.898 220.687 240.693 219.85 236.668C218.801 231.621 218.541 226.632 218.442 221.492C218.422 220.45 218.389 219.336 218.334 218.172C219.727 218.029 222.883 217.385 226.213 214.514C230.681 210.662 232.684 202.804 230.835 197.72C230.687 197.314 230.505 196.885 230.3 196.442C229.075 192.511 226.095 188.935 223.607 185.629C221.469 182.789 219.495 179.727 219.067 176.125C218.459 171.012 221.999 166.229 222.191 161.131C222.371 156.325 220.297 150.961 216.75 147.629C214.715 145.718 212.001 145.009 209.27 144.752C207.82 144.3 206.954 144.103 206.954 144.103L206.822 144.011C206.81 143.985 206.8 143.959 206.782 143.933C203.603 139.214 196.603 138.805 191.637 140.416C188.267 141.509 185.272 144.124 182.585 146.331C178.982 149.291 175.432 152.249 171.724 155.076C166.533 159.034 163.391 163.797 161.953 170.174C160.429 176.936 160.342 184.156 165.804 188.987C165.65 189.092 165.569 189.217 165.652 189.336C165.675 189.367 165.698 189.4 165.721 189.432C165.604 189.462 165.487 189.493 165.368 189.518C165.192 189.555 165.074 189.628 164.99 189.715C160.209 190.196 155.168 190.907 150.681 192.618C150.695 179.823 151.126 167.032 151.141 154.237C151.484 154.084 151.751 153.902 151.37 153.902C129.799 153.908 108.232 154.357 86.6604 154.364C86.3863 154.364 85.1365 154.901 85.7891 154.901C85.8769 154.901 85.9652 154.9 86.0535 154.9C86.01 154.969 85.9832 155.048 85.9832 155.137C85.9832 190.246 85.9832 225.357 85.9832 260.467C82.9959 260.467 80.0086 260.467 77.0209 260.467C76.267 260.467 75.9837 261.417 76.8942 261.417C79.9241 261.417 82.9534 261.417 85.9832 261.417C85.9832 261.427 85.9832 261.436 85.9832 261.446C85.9832 262.163 87.2627 262.019 87.338 261.417C101.331 261.417 115.325 261.417 129.318 261.417C129.476 261.483 129.784 261.476 130.043 261.417C166.782 261.417 203.52 261.417 240.26 261.417C256.215 261.417 272.171 261.417 288.127 261.417C288.88 261.416 289.164 260.467 288.253 260.467ZM137.315 256.273C135.857 254.733 134.636 252.842 132.801 251.728C132.799 251.726 132.797 251.725 132.796 251.724C132.811 251.715 132.826 251.706 132.84 251.696C138.981 247.953 147.542 248.853 154.179 250.583C160.273 252.172 167.099 253.924 172.516 257.404C169.376 256.506 166.129 255.945 162.931 255.349C158.552 254.533 154.21 253.98 149.75 254.037C145.501 254.091 141.236 254.761 137.315 256.273ZM156.484 230.361C156.095 229.829 155.61 229.378 155.082 229.043C157.814 227.519 161.3 235.064 158.202 235.65C158.021 235.684 157.847 235.775 157.716 235.879C158.407 234.147 157.632 231.929 156.484 230.361ZM202.462 250.098C198.236 239.869 196.63 228.43 195.168 217.53C194.787 214.692 194.806 211.271 194.428 207.971C196.439 208.406 198.141 208.362 199.984 207.333C200.418 208.275 200.958 209.225 201.611 210.198C207.986 219.71 212.109 230.166 214.051 241.477C214.112 241.838 215.46 241.527 215.39 241.118C213.667 231.079 210.322 220.63 204.569 212.138C202.954 209.755 201.226 207.524 200.338 204.748C199.432 201.914 200.262 199.147 201.485 196.571C202.318 194.816 202.903 193.076 202.879 191.18C213.776 193.297 216.152 207.187 216.873 216.47C216.91 216.942 216.94 217.415 216.965 217.887C216.651 218.052 216.448 218.246 216.837 218.265C216.886 218.268 216.933 218.264 216.982 218.265C217.135 221.461 217.078 224.664 217.246 227.86C217.454 231.798 218.191 235.692 219.051 239.532C219.893 243.29 220.643 246.973 219.95 250.825C219.272 254.596 216.735 258.865 212.508 258.541C213.331 257.439 214.261 255.695 214.622 255.159C214.794 254.901 214.476 254.819 214.273 254.819C213.069 254.819 211.864 254.813 210.659 254.807C211.281 254.127 211.838 253.376 212.375 252.632C212.895 251.91 213.703 250.94 213.775 250.009C213.816 249.493 212.848 249.59 212.53 249.942C209.281 249.948 205.899 249.996 202.488 250.199C202.485 250.166 202.477 250.132 202.462 250.098ZM189.796 197.696C187.712 195.4 188.67 192.296 189.525 189.601C193.396 189.935 197.139 188.268 200.405 185.553C200.483 186.826 200.933 188.125 201.226 189.313C201.891 192 201.303 194.33 200.157 196.776C198.503 200.303 198.424 203.327 199.587 206.387C197.81 207.519 196.257 207.347 194.277 206.816C193.742 203.213 192.607 199.858 189.796 197.696ZM205.168 175.039C205.203 175.055 205.25 175.064 205.301 175.067C205.255 175.127 205.251 175.181 205.313 175.219C207.146 176.345 206.69 178.41 205.681 179.969C204.26 182.166 201.535 183.661 199.097 182.161C194.519 179.344 201.427 173.252 205.168 175.039ZM206.381 169.444C207.075 170.714 207.712 172.054 208.171 173.4C207.77 173.942 207.447 174.547 207.063 175.101C206.916 174.967 206.754 174.838 206.564 174.721C206.505 174.685 206.424 174.669 206.332 174.668C206.39 174.584 206.378 174.502 206.247 174.44C203.621 173.186 200.441 174.479 198.385 176.248C198.291 176.328 198.204 176.413 198.115 176.497C197.274 174.852 195.629 173.867 193.814 173.76C195.192 172.023 196.086 169.39 193.853 168.019C193.794 167.982 193.712 167.967 193.621 167.966C193.679 167.882 193.667 167.8 193.536 167.738C191.163 166.605 188.341 167.554 186.301 169.051C185.549 168.021 184.648 167.121 183.739 166.229C184.271 166.053 184.875 165.906 185.538 165.828C188.157 165.52 194.782 166.444 198.172 163.671C199.668 162.447 200.653 161.403 201.34 160.446C202.295 159.347 202.941 158.032 203.119 156.488C203.25 156.062 203.344 155.758 203.409 155.547C203.296 160.481 203.973 165.04 206.381 169.444ZM192.457 168.337C192.492 168.353 192.539 168.361 192.59 168.365C192.544 168.425 192.54 168.479 192.602 168.517C194.435 169.643 193.979 171.708 192.97 173.267C192.803 173.525 192.618 173.772 192.418 174.007C192.229 174.115 192.099 174.229 192.16 174.29C190.65 175.875 188.42 176.71 186.387 175.459C181.808 172.642 188.717 166.55 192.457 168.337ZM174.137 186.627C176.919 182.674 178.306 174.413 176.058 170.824C176.004 170.661 175.944 170.501 175.874 170.34C174.893 168.093 172.161 167.04 173.474 164.184C174.468 162.019 176.982 161.269 179.151 161.824C179.889 162.013 180.479 162.38 180.937 162.858C181.851 164.577 181.224 167.523 181.224 167.523C181.224 167.523 181.574 167.238 182.197 166.898C182.297 167.052 182.567 167.085 182.836 167.036C183.68 167.869 184.503 168.722 185.176 169.705C185.218 169.766 185.295 169.797 185.392 169.806C183.427 171.69 182.77 174.502 185.437 176.144C187.946 177.688 191.183 176.362 193.122 174.522C193.179 174.468 193.236 174.407 193.292 174.35C194.913 174.553 196.32 175.712 196.948 177.229C196.993 177.338 197.158 177.367 197.358 177.349C196.02 179.157 195.855 181.435 198.148 182.846C198.954 183.342 199.835 183.539 200.724 183.521C200.692 183.553 200.665 183.587 200.651 183.624C200.577 183.822 200.525 184.022 200.484 184.224C198.75 185.876 196.86 187.286 194.624 188.237C191.111 189.731 187.518 188.693 184.509 186.637C184.094 186.355 182.876 186.943 183.457 187.339C185.08 188.447 186.711 189.12 188.327 189.434C187.503 192.059 186.475 195.074 188.005 197.471C187.857 197.644 187.837 197.85 188.083 198.015C181.583 204.879 172.166 195.813 167.709 189.946C169.099 189.993 171.99 189.677 174.137 186.627ZM142.871 248.247C141.897 246.813 140.676 245.525 140.049 243.907C147.519 243.117 154.738 242.894 161.74 246.067C166.169 248.074 171.632 251.218 173.767 255.914C173.869 256.278 173.958 256.641 174.039 257.003C171.145 255.094 167.863 253.816 164.599 252.683C160.736 251.342 156.742 250.079 152.741 249.222C149.646 248.559 146.237 248.14 142.871 248.247ZM154.931 242.684C154.212 241.598 153.629 240.479 153.106 239.293C153.293 239.146 153.463 238.97 153.615 238.767C154.753 239.044 156.138 238.967 156.345 237.645C162.921 238.918 168.755 244.773 171.947 251.219C169.187 248.585 165.484 246.656 162.323 245.223C159.793 244.076 157.194 243.399 154.555 243.029C154.808 242.922 154.993 242.778 154.931 242.684ZM149.867 230.274C151.146 230.783 152.17 232.085 152.969 233.149C153.803 234.258 154.58 235.517 154.925 236.874C155.003 237.177 155.081 237.649 154.917 237.896C154.897 237.899 154.845 237.911 154.737 237.902C154.528 237.885 154.326 237.831 154.128 237.764C154.132 237.752 154.137 237.741 154.141 237.728C154.17 237.637 154.108 237.58 153.996 237.553C153.312 235.453 151.128 233.564 149.283 232.636C149.066 232.527 148.832 232.43 148.59 232.346C148.6 232.313 148.608 232.279 148.61 232.242C148.668 231.299 148.75 229.831 149.867 230.274ZM155.658 231.506C156.509 232.836 157.103 234.905 156.245 236.287C155.901 234.922 154.942 233.562 154.191 232.542C153.578 231.71 152.803 230.749 151.894 230.051C152.334 229.244 152.812 228.981 153.719 229.473C154.541 229.92 155.163 230.733 155.658 231.506ZM176.061 258.735C176.072 258.709 176.075 258.683 176.069 258.659C186.033 251.158 200.176 250.698 212.147 250.681C212.197 250.681 212.252 250.671 212.309 250.657C212.063 251.342 211.493 252.02 211.115 252.554C210.567 253.33 209.985 254.106 209.322 254.789C209.317 254.793 209.316 254.797 209.312 254.801C206.072 254.789 202.831 254.799 199.598 254.964C191.643 255.373 183.79 256.874 176.061 258.735ZM149.982 234.455C151.095 235.373 152.26 236.617 152.692 238.044C152.651 238.13 152.64 238.217 152.666 238.299C152.509 238.63 152.307 238.857 152.074 239.009C151.97 239.049 151.875 239.097 151.801 239.148C150.644 239.577 148.947 238.504 147.944 237.721C146.546 236.63 145.461 235.099 145.997 233.277C146.041 233.127 146.11 233.018 146.19 232.928C146.387 232.704 146.677 232.646 147.019 232.706C148.052 232.886 149.509 234.064 149.982 234.455ZM199.917 255.612C204.318 255.386 208.748 255.498 213.156 255.507C212.35 256.688 211.487 257.862 210.749 259.091C210.015 259.053 209.284 259.018 208.561 258.982C203.699 258.731 198.827 258.664 193.959 258.639C189.656 258.617 185.352 258.648 181.049 258.735C180.465 258.747 179.756 258.7 179.019 258.671C185.903 257.122 192.854 255.973 199.917 255.612ZM163.039 190.888C164.22 190.755 165.389 190.641 166.535 190.535C171.573 197.094 181.422 205.453 188.778 198.514C191.459 200.63 192.357 203.971 192.839 207.288C193.389 211.083 193.434 214.94 193.944 218.746C195.36 229.302 196.994 240.378 201.059 250.293C192.103 250.945 183.058 252.774 175.84 257.842C175.683 257.025 175.43 256.251 175.098 255.514C172.797 247.202 165.599 238.605 157.216 236.759C157.209 236.758 157.203 236.756 157.196 236.755C157.222 236.725 157.246 236.694 157.27 236.663C157.34 236.571 157.407 236.478 157.466 236.381C157.487 236.346 157.507 236.31 157.527 236.274C157.552 236.302 157.594 236.322 157.656 236.333C157.735 236.346 157.845 236.343 157.997 236.314C160.869 235.771 161.202 233.267 159.982 230.929C158.836 228.731 156.555 227.531 154.359 228.677C153.165 228.201 151.876 228.348 150.981 229.478C150.773 229.375 150.559 229.291 150.34 229.226C150.503 229.129 150.621 228.985 150.628 228.8C150.878 222.232 151.784 215.714 151.615 209.131C151.597 208.395 150.238 208.575 150.254 209.217C150.422 215.8 149.517 222.318 149.267 228.886C149.264 228.976 149.282 229.052 149.315 229.115C147.97 229.268 147.404 230.734 147.271 232.072C146.1 231.995 144.985 232.406 144.593 233.74C144.282 234.797 144.584 235.872 145.24 236.827C139.195 239.57 133.37 242.834 127.05 244.926C126.276 245.183 126.421 245.79 127.211 245.528C133.621 243.406 139.523 240.143 145.65 237.358C147.175 239.117 149.87 240.305 151.865 239.869C152.34 240.922 152.868 241.924 153.501 242.898C149.01 242.408 144.411 242.763 139.838 243.26C139.832 243.239 139.823 243.22 139.818 243.199C139.725 242.83 138.384 243.183 138.479 243.557C138.955 245.423 140.264 246.805 141.347 248.336C137.84 248.625 134.436 249.539 131.552 251.435C131.286 251.61 131.254 251.765 131.341 251.881C131.235 252.032 131.241 252.196 131.469 252.318C133.379 253.343 134.581 255.252 136.034 256.804C134.796 257.352 133.599 257.991 132.454 258.728C132.44 258.731 132.428 258.732 132.415 258.736C128.42 259.874 123.853 256.176 121.91 253.016C119.648 249.337 122.087 243.55 123.458 240.004C125.75 234.071 128.113 228.215 130.692 222.442C131.231 221.234 131.781 220.031 132.341 218.831C132.44 218.777 132.523 218.723 132.57 218.676C132.6 218.646 132.615 218.619 132.61 218.596C132.603 218.569 132.559 218.551 132.477 218.545C133.375 216.626 134.296 214.714 135.256 212.815C135.439 212.453 135.624 212.084 135.81 211.712C135.937 211.623 136.017 211.514 135.997 211.396C135.995 211.381 135.992 211.366 135.99 211.351C137.681 207.96 139.51 204.252 141.831 201.034C142.737 199.779 143.718 198.599 144.795 197.542C145.064 197.462 145.295 197.296 145.296 197.087C145.296 197.079 145.296 197.072 145.296 197.066C146.689 195.783 148.238 194.705 149.989 193.931C152.526 192.811 155.311 192.088 158.149 191.58C159.774 191.289 161.416 191.07 163.039 190.888ZM92.4408 213.711C92.4408 196.077 92.4408 178.441 92.4408 160.808C109.738 160.787 127.033 160.43 144.331 160.415C144.319 172.537 143.967 184.656 143.951 196.778C143.63 197.085 143.316 197.402 143.01 197.731C141.945 191.208 140.881 184.686 139.817 178.164C139.803 178.079 139.699 178.038 139.556 178.03C139.541 177.763 139.174 177.658 138.95 177.695C137.706 177.898 136.461 178.101 135.217 178.304C135.21 178.257 135.202 178.21 135.194 178.163C135.163 177.969 135.02 177.865 134.838 177.83C134.709 177.712 134.483 177.669 134.328 177.695C133.083 177.897 131.839 178.101 130.595 178.304C130.587 178.257 130.58 178.21 130.572 178.163C130.555 178.058 130.452 178.002 130.311 177.983C130.26 177.748 129.916 177.66 129.706 177.694C128.461 177.897 127.217 178.1 125.973 178.303C125.965 178.256 125.958 178.209 125.95 178.162C125.925 178.008 125.805 177.923 125.649 177.89C125.541 177.725 125.264 177.664 125.083 177.694C123.839 177.897 122.595 178.1 121.351 178.303C121.343 178.256 121.336 178.209 121.328 178.162C121.312 178.063 121.208 178.011 121.066 177.995C121.026 177.752 120.676 177.658 120.461 177.694C119.217 177.897 117.973 178.1 116.729 178.303C116.721 178.256 116.714 178.209 116.706 178.162C116.681 178.012 116.563 177.928 116.408 177.896C116.302 177.726 116.021 177.664 115.839 177.693C114.595 177.896 113.351 178.099 112.107 178.302C112.099 178.255 112.091 178.209 112.084 178.161C112.073 178.097 111.969 178.072 111.824 178.073C111.852 177.771 111.453 177.655 111.217 177.693C109.973 177.896 108.728 178.099 107.485 178.302C107.477 178.255 107.469 178.209 107.461 178.161C107.44 178.027 107.326 177.953 107.176 177.925C107.086 177.734 106.787 177.661 106.595 177.693C105.351 177.896 104.106 178.099 102.862 178.302C102.855 178.255 102.847 178.208 102.839 178.161C102.83 178.101 102.725 178.078 102.58 178.081C102.618 177.773 102.211 177.653 101.973 177.692C100.74 177.893 99.5086 178.094 98.2768 178.295C98.2569 178.173 98.237 178.052 98.2171 177.93C98.2028 177.842 98.0993 177.799 97.9565 177.788C97.9357 177.527 97.5724 177.425 97.3505 177.461C96.0581 177.672 94.7653 177.883 93.473 178.094C93.1906 178.14 92.7787 178.273 92.7288 178.611C92.7136 178.713 92.7491 178.792 92.8083 178.854C92.781 178.888 92.7667 178.923 92.7723 178.959C94.6669 190.563 96.561 202.167 98.4552 213.772C98.4589 213.795 98.4788 213.813 98.5056 213.827C96.4663 213.839 94.4265 213.849 92.3872 213.85C92.421 213.808 92.4408 213.761 92.4408 213.711ZM135.958 208.66C134.35 198.809 132.742 188.959 131.133 179.108C132.048 178.959 132.963 178.81 133.877 178.66C135.29 187.313 136.703 195.966 138.115 204.619C137.352 205.954 136.637 207.316 135.958 208.66ZM139.537 202.271C138.276 194.55 137.016 186.829 135.755 179.108C136.67 178.959 137.585 178.81 138.5 178.66C139.611 185.468 140.722 192.276 141.834 199.084C141.015 200.089 140.253 201.16 139.537 202.271ZM94.1561 178.877C95.0708 178.728 95.9856 178.579 96.9003 178.429C98.8217 190.2 100.743 201.97 102.665 213.74C102.668 213.763 102.678 213.782 102.692 213.798C101.475 213.809 100.259 213.817 99.0422 213.825C99.4152 213.754 99.8224 213.587 99.7947 213.415C97.9149 201.903 96.036 190.39 94.1561 178.877ZM104.365 213.329C102.503 201.921 100.641 190.515 98.7787 179.108C99.6935 178.959 100.608 178.81 101.523 178.66C103.427 190.324 105.331 201.989 107.235 213.653C107.249 213.734 107.434 213.748 107.661 213.72C107.665 213.729 107.667 213.739 107.672 213.747C106.447 213.761 105.222 213.773 103.998 213.785C104.226 213.68 104.396 213.517 104.365 213.329ZM103.4 179.108C104.315 178.959 105.23 178.81 106.145 178.66C108.048 190.324 109.953 201.989 111.857 213.653C111.86 213.669 111.867 213.683 111.873 213.698C110.786 213.711 109.699 213.724 108.613 213.736C108.842 213.638 109.014 213.493 108.987 213.329C107.125 201.922 105.263 190.515 103.4 179.108ZM108.023 179.108C108.937 178.959 109.852 178.81 110.767 178.66C112.67 190.321 114.574 201.983 116.477 213.644C115.399 213.656 114.321 213.669 113.243 213.682C113.465 213.592 113.631 213.465 113.609 213.329C111.747 201.922 109.885 190.515 108.023 179.108ZM112.645 179.108C113.559 178.959 114.474 178.81 115.389 178.66C117.29 190.304 119.191 201.949 121.092 213.593C120.12 213.603 119.149 213.612 118.178 213.623C118.226 213.535 118.249 213.437 118.232 213.328C116.369 201.922 114.507 190.515 112.645 179.108ZM117.267 179.108C118.182 178.959 119.096 178.81 120.011 178.66C121.909 190.29 123.808 201.921 125.707 213.55C124.723 213.558 123.739 213.566 122.755 213.576C122.828 213.501 122.868 213.418 122.854 213.329C120.991 201.922 119.129 190.515 117.267 179.108ZM121.889 179.108C122.804 178.959 123.718 178.81 124.633 178.66C126.53 190.281 128.427 201.901 130.324 213.522C129.356 213.526 128.388 213.531 127.42 213.538C127.464 213.473 127.488 213.403 127.476 213.329C125.614 201.922 123.751 190.515 121.889 179.108ZM126.511 179.108C127.426 178.959 128.341 178.81 129.255 178.66C131.036 189.57 132.818 200.481 134.599 211.392C134.241 212.115 133.89 212.825 133.544 213.512C133.043 213.512 132.541 213.515 132.04 213.516C132.085 213.457 132.109 213.395 132.098 213.329C130.236 201.922 128.373 190.515 126.511 179.108ZM87.3186 154.897C108.147 154.871 128.974 154.456 149.803 154.441C149.791 167.352 149.351 180.259 149.341 193.172C149.079 193.287 148.816 193.402 148.558 193.526C147.39 194.086 146.309 194.784 145.302 195.591C145.336 183.781 145.668 171.974 145.678 160.164C145.984 160.009 146.184 159.839 145.819 159.839C145.746 159.839 145.673 159.84 145.599 159.84C145.407 159.621 144.906 159.661 144.594 159.843C127.129 159.866 109.667 160.23 92.2019 160.237C91.9042 160.237 90.6719 160.81 91.3394 160.811C91.1989 160.888 91.1018 160.986 91.1018 161.1C91.1018 178.757 91.1018 196.413 91.1018 214.07C91.1018 214.142 91.1906 214.18 91.3218 214.191C91.1198 214.317 91.045 214.428 91.3408 214.428C105.314 214.424 119.285 214.095 133.26 214.085C132.512 215.568 131.786 217.054 131.075 218.546C118.116 218.575 105.161 218.933 92.2019 218.938C91.9042 218.938 90.6701 219.513 91.3408 219.513C91.546 219.513 91.7512 219.511 91.9564 219.51C91.5728 219.549 91.1018 219.753 91.1018 220.048C91.1018 233.52 91.1018 246.995 91.1018 260.468C89.8497 260.468 88.5975 260.468 87.3454 260.468C87.3454 225.329 87.3454 190.191 87.3454 155.053C87.3449 154.994 87.3338 154.944 87.3186 154.897ZM99.222 260.467C99.5345 260.383 99.8183 260.243 99.7947 260.099C97.9153 248.586 96.036 237.074 94.1561 225.561C95.0708 225.411 95.9856 225.262 96.9003 225.113C98.8217 236.883 100.743 248.654 102.665 260.424C102.667 260.44 102.675 260.454 102.684 260.467C101.53 260.467 100.376 260.467 99.222 260.467ZM104.001 260.467C104.227 260.362 104.396 260.2 104.365 260.013C102.503 248.605 100.641 237.199 98.7787 225.793C99.6935 225.643 100.608 225.494 101.523 225.344C103.427 237.008 105.331 248.673 107.235 260.337C107.249 260.418 107.434 260.432 107.661 260.404C107.671 260.428 107.687 260.45 107.707 260.468C106.472 260.467 105.236 260.467 104.001 260.467ZM108.489 260.467C108.776 260.373 109.018 260.205 108.987 260.013C107.124 248.605 105.262 237.199 103.4 225.793C104.315 225.643 105.23 225.494 106.145 225.344C108.048 237.008 109.953 248.673 111.857 260.337C111.866 260.39 111.891 260.431 111.925 260.467C110.779 260.467 109.634 260.467 108.489 260.467ZM112.902 260.467C113.265 260.394 113.642 260.214 113.609 260.013C111.747 248.605 109.884 237.199 108.023 225.793C108.937 225.643 109.852 225.494 110.767 225.344C112.671 237.008 114.575 248.673 116.479 260.337C116.519 260.578 117.869 260.287 117.818 259.979C115.907 248.268 113.995 236.558 112.083 224.847C112.073 224.783 111.969 224.758 111.823 224.759C111.852 224.457 111.452 224.341 111.216 224.379C109.972 224.582 108.728 224.785 107.484 224.988C107.476 224.941 107.469 224.895 107.461 224.847C107.439 224.713 107.326 224.639 107.176 224.611C107.086 224.42 106.787 224.347 106.594 224.379C105.35 224.582 104.106 224.785 102.862 224.988C102.854 224.941 102.847 224.894 102.839 224.847C102.829 224.787 102.725 224.764 102.58 224.767C102.618 224.459 102.211 224.339 101.972 224.378C100.74 224.579 99.5081 224.78 98.2763 224.981C98.2564 224.859 98.2366 224.738 98.2167 224.616C98.2024 224.528 98.0988 224.485 97.956 224.474C97.9352 224.213 97.5719 224.111 97.35 224.147C96.0577 224.358 94.7649 224.569 93.4725 224.78C93.1901 224.826 92.7783 224.959 92.7283 225.297C92.7131 225.399 92.7487 225.478 92.8078 225.54C92.7806 225.574 92.7662 225.609 92.7718 225.645C94.6664 237.249 96.5606 248.853 98.4547 260.458C98.4552 260.461 98.4584 260.463 98.4598 260.467C96.4353 260.467 94.4108 260.467 92.3863 260.467C92.4205 260.415 92.4404 260.36 92.4404 260.3C92.4404 246.762 92.4404 233.226 92.4404 219.688C92.4404 219.582 92.3355 219.526 92.1862 219.508C105.061 219.488 117.932 219.136 130.806 219.117C129.085 222.753 127.464 226.425 125.975 230.187C124.123 234.867 122.043 239.555 120.617 244.387C119.406 248.492 119.269 252.551 122.338 255.82C124.352 257.965 127.665 259.895 130.794 259.897C130.553 260.082 130.315 260.272 130.08 260.466C128.165 260.466 126.25 260.466 124.334 260.466C120.524 260.467 116.713 260.467 112.902 260.467ZM132.328 259.728C132.439 259.703 132.551 259.685 132.66 259.654C132.991 259.559 133.147 259.355 133.164 259.159C134.366 258.373 135.621 257.71 136.921 257.16C137.086 257.126 137.244 257.058 137.363 256.97C141.496 255.312 146.043 254.73 150.624 254.734C154.793 254.738 158.878 255.432 162.963 256.193C166.978 256.941 171.061 257.664 174.873 259.17C174.967 259.207 175.115 259.199 175.276 259.164C175.272 259.194 175.27 259.224 175.28 259.251C175.271 259.263 175.266 259.275 175.259 259.286C167.537 260.261 159.476 259.9 151.726 260.01C147.362 260.073 142.998 260.117 138.634 260.178C137.059 260.199 134.581 259.773 133.078 260.416C133.04 260.432 133.009 260.449 132.977 260.466C132.435 260.466 131.894 260.466 131.353 260.466C131.673 260.21 131.999 259.966 132.328 259.728ZM170.867 260.467C172.596 260.35 174.316 260.185 176.016 259.944C176.249 259.911 176.453 259.788 176.581 259.648C176.93 259.63 177.279 259.616 177.629 259.603C179.08 259.554 180.531 259.526 181.983 259.5C186.145 259.427 190.309 259.411 194.473 259.437C198.999 259.465 203.527 259.552 208.049 259.773C208.791 259.81 209.542 259.843 210.296 259.881C210.292 259.888 210.288 259.895 210.284 259.902C210.203 260.054 210.448 260.121 210.533 260.143C210.536 260.144 210.539 260.144 210.542 260.145C210.723 260.193 211.085 260.086 211.338 259.941C212.919 260.038 214.503 260.186 216.05 260.467C200.988 260.467 185.928 260.467 170.867 260.467ZM276.901 244.539C278.276 242.686 280.044 242.804 281.482 244.475C282.724 245.918 282.989 248.25 282.599 250.04C281.934 253.09 276.712 255.658 276.253 251.239C276.827 249.188 276.873 246.978 276.607 244.717C276.74 244.668 276.85 244.608 276.901 244.539ZM252.069 255.812C247.985 253 246.955 246.285 248.144 241.624C256.968 241.873 265.791 241.486 274.616 241.461C275.88 246.842 276.161 252.416 271.687 256.269C268.65 256.357 265.624 256.461 262.558 256.316C259.088 256.152 255.607 255.976 252.152 256.231C252.256 256.096 252.26 255.944 252.069 255.812ZM250.822 260.157C249.564 259.752 248.512 258.873 248.249 257.593C253.332 256.601 258.555 257.048 263.692 257.278C266.185 257.39 268.647 257.285 271.115 257.188C271.31 257.431 271.842 257.528 272.177 257.263C272.228 257.223 272.275 257.182 272.325 257.141C273.218 257.11 274.113 257.085 275.011 257.075C275.188 258.474 274.641 259.697 273.403 260.424C273.383 260.436 273.362 260.451 273.342 260.467C265.864 260.467 258.387 260.467 250.91 260.467C250.985 260.347 251.004 260.216 250.822 260.157ZM189.6 180.652C189.839 180.772 190.079 180.892 190.318 181.011C191.003 180.091 191.658 179.15 192.458 178.323C192.77 178.001 194.084 177.983 193.534 178.55C192.608 179.506 191.899 180.646 191.078 181.689C190.843 181.987 190.279 182.177 189.922 181.998C189.46 181.767 188.998 181.536 188.535 181.305C187.974 181.025 189.204 180.454 189.6 180.652ZM181.234 180.927C180.709 180.084 180.568 179.047 180.778 178.082C180.858 177.716 182.185 177.497 182.105 177.866C181.905 178.781 182.078 179.774 182.573 180.569C182.715 180.796 181.463 181.295 181.234 180.927ZM255.123 217.352C253.6 215.415 253.256 212.349 253.944 210.018C254.615 207.749 256.165 206.628 258.115 205.446C258.367 205.293 259.721 205.158 259.146 205.506C256.084 207.361 254.41 209.862 255.093 213.618C255.671 216.797 257.778 218.227 260.071 220.188C261.717 221.596 263.147 223.782 262.465 226.063C261.802 228.28 259.765 229.485 258.315 231.162C258.1 231.412 256.81 231.583 257.098 231.249C258.99 229.06 262.248 227.217 261.031 223.781C259.977 220.807 256.979 219.712 255.123 217.352ZM261.397 210.13C261.038 207.003 261.092 201.485 264.888 200.475C265.672 200.266 265.792 200.715 265.008 200.924C263.06 201.442 262.686 205.344 262.631 206.889C262.572 208.559 262.507 210.827 263.462 212.301C265.811 215.927 270.963 217.628 269.77 222.772C269.689 223.119 268.371 223.326 268.446 222.999C269.833 217.02 262.016 215.533 261.397 210.13Z" fill="#2A2A2B"/>
<rect x="24.5" y="48.5" width="318" height="302" stroke="#3ABB37"/>
</g>
<path d="M29.3438 416H30.8203L31.9531 412.773H36.4375L37.5703 416H39.0469L34.8906 404.727H33.5L29.3438 416ZM34.1328 406.547H34.2578L36.0234 411.578H32.3672L34.1328 406.547ZM43.375 416.062C43.6406 416.062 43.8984 416.031 44.1641 415.984V414.828C43.9141 414.852 43.7812 414.859 43.5391 414.859C42.6641 414.859 42.3203 414.461 42.3203 413.469V408.703H44.1641V407.578H42.3203V405.398H40.9141V407.578H39.5859V408.703H40.9141V413.812C40.9141 415.422 41.6406 416.062 43.375 416.062ZM53.6875 416.062C53.9531 416.062 54.2109 416.031 54.4766 415.984V414.828C54.2266 414.852 54.0938 414.859 53.8516 414.859C52.9766 414.859 52.6328 414.461 52.6328 413.469V408.703H54.4766V407.578H52.6328V405.398H51.2266V407.578H49.8984V408.703H51.2266V413.812C51.2266 415.422 51.9531 416.062 53.6875 416.062ZM56.5859 416H57.9453V411.016C57.9453 409.539 58.7969 408.633 60.1406 408.633C61.4844 408.633 62.1094 409.359 62.1094 410.875V416H63.4688V410.547C63.4688 408.547 62.4141 407.43 60.5234 407.43C59.2812 407.43 58.4922 407.953 58.0703 408.844H57.9453V404.234H56.5859V416ZM69.3672 416.148C71.3516 416.148 72.5547 415.023 72.8438 413.883L72.8594 413.82H71.5L71.4688 413.891C71.2422 414.398 70.5391 414.938 69.3984 414.938C67.8984 414.938 66.9375 413.922 66.8984 412.18H72.9609V411.648C72.9609 409.133 71.5703 407.43 69.2812 407.43C66.9922 407.43 65.5078 409.211 65.5078 411.812V411.82C65.5078 414.461 66.9609 416.148 69.3672 416.148ZM69.2734 408.641C70.5156 408.641 71.4375 409.43 71.5781 411.094H66.9219C67.0703 409.492 68.0234 408.641 69.2734 408.641ZM82.4609 416.148C84.375 416.148 85.8359 415.109 85.8359 413.609V413.594C85.8359 412.391 85.0703 411.703 83.4844 411.32L82.1875 411.008C81.1953 410.766 80.7734 410.406 80.7734 409.836V409.82C80.7734 409.078 81.5078 408.562 82.5078 408.562C83.5234 408.562 84.1797 409.023 84.3594 409.688H85.6953C85.5078 408.312 84.2812 407.43 82.5156 407.43C80.7266 407.43 79.3828 408.484 79.3828 409.883V409.891C79.3828 411.102 80.0938 411.789 81.6719 412.164L82.9766 412.477C84.0156 412.727 84.4453 413.125 84.4453 413.695V413.711C84.4453 414.477 83.6406 415.016 82.5078 415.016C81.4297 415.016 80.7578 414.555 80.5312 413.852H79.1406C79.2969 415.242 80.5859 416.148 82.4609 416.148ZM87.9453 418.812H89.3047V414.672H89.4297C89.8906 415.57 90.8984 416.148 92.0547 416.148C94.1953 416.148 95.5859 414.438 95.5859 411.797V411.781C95.5859 409.156 94.1875 407.43 92.0547 407.43C90.8828 407.43 89.9453 407.984 89.4297 408.922H89.3047V407.578H87.9453V418.812ZM91.7422 414.945C90.2109 414.945 89.2734 413.742 89.2734 411.797V411.781C89.2734 409.836 90.2109 408.633 91.7422 408.633C93.2812 408.633 94.1953 409.82 94.1953 411.781V411.797C94.1953 413.758 93.2812 414.945 91.7422 414.945ZM101.148 416.148C103.133 416.148 104.336 415.023 104.625 413.883L104.641 413.82H103.281L103.25 413.891C103.023 414.398 102.32 414.938 101.18 414.938C99.6797 414.938 98.7188 413.922 98.6797 412.18H104.742V411.648C104.742 409.133 103.352 407.43 101.062 407.43C98.7734 407.43 97.2891 409.211 97.2891 411.812V411.82C97.2891 414.461 98.7422 416.148 101.148 416.148ZM101.055 408.641C102.297 408.641 103.219 409.43 103.359 411.094H98.7031C98.8516 409.492 99.8047 408.641 101.055 408.641ZM110.297 416.148C112.32 416.148 113.453 415.062 113.797 413.539L113.812 413.453L112.469 413.461L112.453 413.508C112.141 414.445 111.422 414.945 110.289 414.945C108.789 414.945 107.82 413.703 107.82 411.766V411.75C107.82 409.852 108.773 408.633 110.289 408.633C111.5 408.633 112.25 409.305 112.461 410.133L112.469 410.156H113.82L113.812 410.109C113.562 408.609 112.336 407.43 110.289 407.43C107.93 407.43 106.43 409.133 106.43 411.75V411.766C106.43 414.438 107.938 416.148 110.297 416.148ZM116.523 405.953C117.039 405.953 117.461 405.531 117.461 405.016C117.461 404.5 117.039 404.078 116.523 404.078C116.008 404.078 115.586 404.5 115.586 405.016C115.586 405.531 116.008 405.953 116.523 405.953ZM115.836 416H117.195V407.578H115.836V416ZM120.32 416H121.68V408.703H123.594V407.578H121.68V406.68C121.68 405.758 122.07 405.281 123.039 405.281C123.281 405.281 123.508 405.289 123.672 405.32V404.234C123.391 404.18 123.094 404.156 122.766 404.156C121.164 404.156 120.32 404.961 120.32 406.641V407.578H118.922V408.703H120.32V416ZM126.273 405.953C126.789 405.953 127.211 405.531 127.211 405.016C127.211 404.5 126.789 404.078 126.273 404.078C125.758 404.078 125.336 404.5 125.336 405.016C125.336 405.531 125.758 405.953 126.273 405.953ZM125.586 416H126.945V407.578H125.586V416ZM132.945 416.148C134.93 416.148 136.133 415.023 136.422 413.883L136.438 413.82H135.078L135.047 413.891C134.82 414.398 134.117 414.938 132.977 414.938C131.477 414.938 130.516 413.922 130.477 412.18H136.539V411.648C136.539 409.133 135.148 407.43 132.859 407.43C130.57 407.43 129.086 409.211 129.086 411.812V411.82C129.086 414.461 130.539 416.148 132.945 416.148ZM132.852 408.641C134.094 408.641 135.016 409.43 135.156 411.094H130.5C130.648 409.492 131.602 408.641 132.852 408.641ZM141.758 416.148C142.93 416.148 143.867 415.594 144.383 414.656H144.508V416H145.867V404.234H144.508V408.906H144.383C143.922 408.008 142.914 407.43 141.758 407.43C139.617 407.43 138.227 409.141 138.227 411.781V411.797C138.227 414.422 139.625 416.148 141.758 416.148ZM142.07 414.945C140.531 414.945 139.617 413.758 139.617 411.797V411.781C139.617 409.82 140.531 408.633 142.07 408.633C143.602 408.633 144.539 409.836 144.539 411.781V411.797C144.539 413.742 143.602 414.945 142.07 414.945ZM155.969 416.062C156.234 416.062 156.492 416.031 156.758 415.984V414.828C156.508 414.852 156.375 414.859 156.133 414.859C155.258 414.859 154.914 414.461 154.914 413.469V408.703H156.758V407.578H154.914V405.398H153.508V407.578H152.18V408.703H153.508V413.812C153.508 415.422 154.234 416.062 155.969 416.062ZM159.508 405.953C160.023 405.953 160.445 405.531 160.445 405.016C160.445 404.5 160.023 404.078 159.508 404.078C158.992 404.078 158.57 404.5 158.57 405.016C158.57 405.531 158.992 405.953 159.508 405.953ZM158.82 416H160.18V407.578H158.82V416ZM162.742 416H164.102V410.781C164.102 409.594 164.938 408.633 166.039 408.633C167.102 408.633 167.789 409.281 167.789 410.281V416H169.148V410.586C169.148 409.516 169.922 408.633 171.094 408.633C172.281 408.633 172.852 409.25 172.852 410.492V416H174.211V410.18C174.211 408.414 173.25 407.43 171.531 407.43C170.367 407.43 169.406 408.016 168.953 408.906H168.828C168.438 408.031 167.641 407.43 166.5 407.43C165.398 407.43 164.602 407.953 164.227 408.859H164.102V407.578H162.742V416ZM180.102 416.148C182.086 416.148 183.289 415.023 183.578 413.883L183.594 413.82H182.234L182.203 413.891C181.977 414.398 181.273 414.938 180.133 414.938C178.633 414.938 177.672 413.922 177.633 412.18H183.695V411.648C183.695 409.133 182.305 407.43 180.016 407.43C177.727 407.43 176.242 409.211 176.242 411.812V411.82C176.242 414.461 177.695 416.148 180.102 416.148ZM180.008 408.641C181.25 408.641 182.172 409.43 182.312 411.094H177.656C177.805 409.492 178.758 408.641 180.008 408.641ZM185.461 418.867H186.469L187.695 414.422H186.141L185.461 418.867ZM198.5 416.148C200.523 416.148 201.656 415.062 202 413.539L202.016 413.453L200.672 413.461L200.656 413.508C200.344 414.445 199.625 414.945 198.492 414.945C196.992 414.945 196.023 413.703 196.023 411.766V411.75C196.023 409.852 196.977 408.633 198.492 408.633C199.703 408.633 200.453 409.305 200.664 410.133L200.672 410.156H202.023L202.016 410.109C201.766 408.609 200.539 407.43 198.492 407.43C196.133 407.43 194.633 409.133 194.633 411.75V411.766C194.633 414.438 196.141 416.148 198.5 416.148ZM207.469 416.148C209.867 416.148 211.352 414.492 211.352 411.797V411.781C211.352 409.078 209.867 407.43 207.469 407.43C205.07 407.43 203.586 409.078 203.586 411.781V411.797C203.586 414.492 205.07 416.148 207.469 416.148ZM207.469 414.945C205.875 414.945 204.977 413.781 204.977 411.797V411.781C204.977 409.789 205.875 408.633 207.469 408.633C209.062 408.633 209.961 409.789 209.961 411.781V411.797C209.961 413.781 209.062 414.945 207.469 414.945ZM213.461 416H214.82V410.781C214.82 409.594 215.656 408.633 216.758 408.633C217.82 408.633 218.508 409.281 218.508 410.281V416H219.867V410.586C219.867 409.516 220.641 408.633 221.812 408.633C223 408.633 223.57 409.25 223.57 410.492V416H224.93V410.18C224.93 408.414 223.969 407.43 222.25 407.43C221.086 407.43 220.125 408.016 219.672 408.906H219.547C219.156 408.031 218.359 407.43 217.219 407.43C216.117 407.43 215.32 407.953 214.945 408.859H214.82V407.578H213.461V416ZM230.82 416.148C232.805 416.148 234.008 415.023 234.297 413.883L234.312 413.82H232.953L232.922 413.891C232.695 414.398 231.992 414.938 230.852 414.938C229.352 414.938 228.391 413.922 228.352 412.18H234.414V411.648C234.414 409.133 233.023 407.43 230.734 407.43C228.445 407.43 226.961 409.211 226.961 411.812V411.82C226.961 414.461 228.414 416.148 230.82 416.148ZM230.727 408.641C231.969 408.641 232.891 409.43 233.031 411.094H228.375C228.523 409.492 229.477 408.641 230.727 408.641ZM244.016 416.062C244.281 416.062 244.539 416.031 244.805 415.984V414.828C244.555 414.852 244.422 414.859 244.18 414.859C243.305 414.859 242.961 414.461 242.961 413.469V408.703H244.805V407.578H242.961V405.398H241.555V407.578H240.227V408.703H241.555V413.812C241.555 415.422 242.281 416.062 244.016 416.062ZM250.172 416.148C252.57 416.148 254.055 414.492 254.055 411.797V411.781C254.055 409.078 252.57 407.43 250.172 407.43C247.773 407.43 246.289 409.078 246.289 411.781V411.797C246.289 414.492 247.773 416.148 250.172 416.148ZM250.172 414.945C248.578 414.945 247.68 413.781 247.68 411.797V411.781C247.68 409.789 248.578 408.633 250.172 408.633C251.766 408.633 252.664 409.789 252.664 411.781V411.797C252.664 413.781 251.766 414.945 250.172 414.945ZM263.656 416.062C263.922 416.062 264.18 416.031 264.445 415.984V414.828C264.195 414.852 264.062 414.859 263.82 414.859C262.945 414.859 262.602 414.461 262.602 413.469V408.703H264.445V407.578H262.602V405.398H261.195V407.578H259.867V408.703H261.195V413.812C261.195 415.422 261.922 416.062 263.656 416.062ZM266.555 416H267.914V411.016C267.914 409.539 268.766 408.633 270.109 408.633C271.453 408.633 272.078 409.359 272.078 410.875V416H273.438V410.547C273.438 408.547 272.383 407.43 270.492 407.43C269.25 407.43 268.461 407.953 268.039 408.844H267.914V404.234H266.555V416ZM279.336 416.148C281.32 416.148 282.523 415.023 282.812 413.883L282.828 413.82H281.469L281.438 413.891C281.211 414.398 280.508 414.938 279.367 414.938C277.867 414.938 276.906 413.922 276.867 412.18H282.93V411.648C282.93 409.133 281.539 407.43 279.25 407.43C276.961 407.43 275.477 409.211 275.477 411.812V411.82C275.477 414.461 276.93 416.148 279.336 416.148ZM279.242 408.641C280.484 408.641 281.406 409.43 281.547 411.094H276.891C277.039 409.492 277.992 408.641 279.242 408.641ZM292.984 416.148C295.008 416.148 296.141 415.062 296.484 413.539L296.5 413.453L295.156 413.461L295.141 413.508C294.828 414.445 294.109 414.945 292.977 414.945C291.477 414.945 290.508 413.703 290.508 411.766V411.75C290.508 409.852 291.461 408.633 292.977 408.633C294.188 408.633 294.938 409.305 295.148 410.133L295.156 410.156H296.508L296.5 410.109C296.25 408.609 295.023 407.43 292.977 407.43C290.617 407.43 289.117 409.133 289.117 411.75V411.766C289.117 414.438 290.625 416.148 292.984 416.148ZM301.953 416.148C304.352 416.148 305.836 414.492 305.836 411.797V411.781C305.836 409.078 304.352 407.43 301.953 407.43C299.555 407.43 298.07 409.078 298.07 411.781V411.797C298.07 414.492 299.555 416.148 301.953 416.148ZM301.953 414.945C300.359 414.945 299.461 413.781 299.461 411.797V411.781C299.461 409.789 300.359 408.633 301.953 408.633C303.547 408.633 304.445 409.789 304.445 411.781V411.797C304.445 413.781 303.547 414.945 301.953 414.945ZM308.508 416H309.867V408.703H311.781V407.578H309.867V406.68C309.867 405.758 310.258 405.281 311.227 405.281C311.469 405.281 311.695 405.289 311.859 405.32V404.234C311.578 404.18 311.281 404.156 310.953 404.156C309.352 404.156 308.508 404.961 308.508 406.641V407.578H307.109V408.703H308.508V416ZM314.305 416H315.664V408.703H317.578V407.578H315.664V406.68C315.664 405.758 316.055 405.281 317.023 405.281C317.266 405.281 317.492 405.289 317.656 405.32V404.234C317.375 404.18 317.078 404.156 316.75 404.156C315.148 404.156 314.305 404.961 314.305 406.641V407.578H312.906V408.703H314.305V416ZM322.617 416.148C324.602 416.148 325.805 415.023 326.094 413.883L326.109 413.82H324.75L324.719 413.891C324.492 414.398 323.789 414.938 322.648 414.938C321.148 414.938 320.188 413.922 320.148 412.18H326.211V411.648C326.211 409.133 324.82 407.43 322.531 407.43C320.242 407.43 318.758 409.211 318.758 411.812V411.82C318.758 414.461 320.211 416.148 322.617 416.148ZM322.523 408.641C323.766 408.641 324.688 409.43 324.828 411.094H320.172C320.32 409.492 321.273 408.641 322.523 408.641ZM331.758 416.148C333.742 416.148 334.945 415.023 335.234 413.883L335.25 413.82H333.891L333.859 413.891C333.633 414.398 332.93 414.938 331.789 414.938C330.289 414.938 329.328 413.922 329.289 412.18H335.352V411.648C335.352 409.133 333.961 407.43 331.672 407.43C329.383 407.43 327.898 409.211 327.898 411.812V411.82C327.898 414.461 329.352 416.148 331.758 416.148ZM331.664 408.641C332.906 408.641 333.828 409.43 333.969 411.094H329.312C329.461 409.492 330.414 408.641 331.664 408.641ZM55.4844 440.148C57.3984 440.148 58.8594 439.109 58.8594 437.609V437.594C58.8594 436.391 58.0938 435.703 56.5078 435.32L55.2109 435.008C54.2188 434.766 53.7969 434.406 53.7969 433.836V433.82C53.7969 433.078 54.5312 432.562 55.5312 432.562C56.5469 432.562 57.2031 433.023 57.3828 433.688H58.7188C58.5312 432.312 57.3047 431.43 55.5391 431.43C53.75 431.43 52.4062 432.484 52.4062 433.883V433.891C52.4062 435.102 53.1172 435.789 54.6953 436.164L56 436.477C57.0391 436.727 57.4688 437.125 57.4688 437.695V437.711C57.4688 438.477 56.6641 439.016 55.5312 439.016C54.4531 439.016 53.7812 438.555 53.5547 437.852H52.1641C52.3203 439.242 53.6094 440.148 55.4844 440.148ZM61.0469 440H62.4062V435.016C62.4062 433.539 63.2578 432.633 64.6016 432.633C65.9453 432.633 66.5703 433.359 66.5703 434.875V440H67.9297V434.547C67.9297 432.547 66.875 431.43 64.9844 431.43C63.7422 431.43 62.9531 431.953 62.5312 432.844H62.4062V428.234H61.0469V440ZM73.8516 440.148C76.25 440.148 77.7344 438.492 77.7344 435.797V435.781C77.7344 433.078 76.25 431.43 73.8516 431.43C71.4531 431.43 69.9688 433.078 69.9688 435.781V435.797C69.9688 438.492 71.4531 440.148 73.8516 440.148ZM73.8516 438.945C72.2578 438.945 71.3594 437.781 71.3594 435.797V435.781C71.3594 433.789 72.2578 432.633 73.8516 432.633C75.4453 432.633 76.3438 433.789 76.3438 435.781V435.797C76.3438 437.781 75.4453 438.945 73.8516 438.945ZM79.8438 442.812H81.2031V438.672H81.3281C81.7891 439.57 82.7969 440.148 83.9531 440.148C86.0938 440.148 87.4844 438.438 87.4844 435.797V435.781C87.4844 433.156 86.0859 431.43 83.9531 431.43C82.7812 431.43 81.8438 431.984 81.3281 432.922H81.2031V431.578H79.8438V442.812ZM83.6406 438.945C82.1094 438.945 81.1719 437.742 81.1719 435.797V435.781C81.1719 433.836 82.1094 432.633 83.6406 432.633C85.1797 432.633 86.0938 433.82 86.0938 435.781V435.797C86.0938 437.758 85.1797 438.945 83.6406 438.945ZM96.4219 440.148C97.5547 440.148 98.4375 439.656 98.9688 438.758H99.0938V440H100.453V434.234C100.453 432.484 99.3047 431.43 97.25 431.43C95.4531 431.43 94.1719 432.32 93.9531 433.641L93.9453 433.688H95.3047L95.3125 433.664C95.5312 433.008 96.1953 432.633 97.2031 432.633C98.4609 432.633 99.0938 433.195 99.0938 434.234V435L96.6797 435.148C94.7188 435.266 93.6094 436.133 93.6094 437.633V437.648C93.6094 439.18 94.8203 440.148 96.4219 440.148ZM95 437.617V437.602C95 436.766 95.5625 436.312 96.8438 436.234L99.0938 436.094V436.859C99.0938 438.062 98.0859 438.969 96.7031 438.969C95.7266 438.969 95 438.469 95 437.617ZM102.938 440H104.297V435.016C104.297 433.539 105.148 432.633 106.492 432.633C107.836 432.633 108.461 433.359 108.461 434.875V440H109.82V434.547C109.82 432.547 108.766 431.43 106.875 431.43C105.633 431.43 104.844 431.953 104.422 432.844H104.297V431.578H102.938V440ZM115.391 440.148C116.562 440.148 117.5 439.594 118.016 438.656H118.141V440H119.5V428.234H118.141V432.906H118.016C117.555 432.008 116.547 431.43 115.391 431.43C113.25 431.43 111.859 433.141 111.859 435.781V435.797C111.859 438.422 113.258 440.148 115.391 440.148ZM115.703 438.945C114.164 438.945 113.25 437.758 113.25 435.797V435.781C113.25 433.82 114.164 432.633 115.703 432.633C117.234 432.633 118.172 433.836 118.172 435.781V435.797C118.172 437.742 117.234 438.945 115.703 438.945ZM130.047 440.148C132.031 440.148 133.234 439.023 133.523 437.883L133.539 437.82H132.18L132.148 437.891C131.922 438.398 131.219 438.938 130.078 438.938C128.578 438.938 127.617 437.922 127.578 436.18H133.641V435.648C133.641 433.133 132.25 431.43 129.961 431.43C127.672 431.43 126.188 433.211 126.188 435.812V435.82C126.188 438.461 127.641 440.148 130.047 440.148ZM129.953 432.641C131.195 432.641 132.117 433.43 132.258 435.094H127.602C127.75 433.492 128.703 432.641 129.953 432.641ZM135.75 440H137.109V435.016C137.109 433.539 137.961 432.633 139.305 432.633C140.648 432.633 141.273 433.359 141.273 434.875V440H142.633V434.547C142.633 432.547 141.578 431.43 139.688 431.43C138.445 431.43 137.656 431.953 137.234 432.844H137.109V431.578H135.75V440ZM145.797 429.953C146.312 429.953 146.734 429.531 146.734 429.016C146.734 428.5 146.312 428.078 145.797 428.078C145.281 428.078 144.859 428.5 144.859 429.016C144.859 429.531 145.281 429.953 145.797 429.953ZM143.891 442.891C145.656 442.891 146.477 442.148 146.477 440.414V431.578H145.117V440.438C145.117 441.367 144.773 441.688 143.859 441.688H143.656V442.891H143.891ZM152.508 440.148C154.906 440.148 156.391 438.492 156.391 435.797V435.781C156.391 433.078 154.906 431.43 152.508 431.43C150.109 431.43 148.625 433.078 148.625 435.781V435.797C148.625 438.492 150.109 440.148 152.508 440.148ZM152.508 438.945C150.914 438.945 150.016 437.781 150.016 435.797V435.781C150.016 433.789 150.914 432.633 152.508 432.633C154.102 432.633 155 433.789 155 435.781V435.797C155 437.781 154.102 438.945 152.508 438.945ZM158.906 442.953C160.398 442.953 161.094 442.406 161.789 440.516L165.078 431.578H163.648L161.344 438.508H161.219L158.906 431.578H157.453L160.57 440.008L160.414 440.508C160.109 441.477 159.641 441.828 158.867 441.828C158.68 441.828 158.469 441.82 158.305 441.789V442.906C158.492 442.938 158.727 442.953 158.906 442.953ZM174.367 440.062C174.633 440.062 174.891 440.031 175.156 439.984V438.828C174.906 438.852 174.773 438.859 174.531 438.859C173.656 438.859 173.312 438.461 173.312 437.469V432.703H175.156V431.578H173.312V429.398H171.906V431.578H170.578V432.703H171.906V437.812C171.906 439.422 172.633 440.062 174.367 440.062ZM177.266 440H178.625V435.016C178.625 433.539 179.477 432.633 180.82 432.633C182.164 432.633 182.789 433.359 182.789 434.875V440H184.148V434.547C184.148 432.547 183.094 431.43 181.203 431.43C179.961 431.43 179.172 431.953 178.75 432.844H178.625V428.234H177.266V440ZM190.047 440.148C192.031 440.148 193.234 439.023 193.523 437.883L193.539 437.82H192.18L192.148 437.891C191.922 438.398 191.219 438.938 190.078 438.938C188.578 438.938 187.617 437.922 187.578 436.18H193.641V435.648C193.641 433.133 192.25 431.43 189.961 431.43C187.672 431.43 186.188 433.211 186.188 435.812V435.82C186.188 438.461 187.641 440.148 190.047 440.148ZM189.953 432.641C191.195 432.641 192.117 433.43 192.258 435.094H187.602C187.75 433.492 188.703 432.641 189.953 432.641ZM203.242 440.062C203.508 440.062 203.766 440.031 204.031 439.984V438.828C203.781 438.852 203.648 438.859 203.406 438.859C202.531 438.859 202.188 438.461 202.188 437.469V432.703H204.031V431.578H202.188V429.398H200.781V431.578H199.453V432.703H200.781V437.812C200.781 439.422 201.508 440.062 203.242 440.062ZM208.375 440.148C209.508 440.148 210.391 439.656 210.922 438.758H211.047V440H212.406V434.234C212.406 432.484 211.258 431.43 209.203 431.43C207.406 431.43 206.125 432.32 205.906 433.641L205.898 433.688H207.258L207.266 433.664C207.484 433.008 208.148 432.633 209.156 432.633C210.414 432.633 211.047 433.195 211.047 434.234V435L208.633 435.148C206.672 435.266 205.562 436.133 205.562 437.633V437.648C205.562 439.18 206.773 440.148 208.375 440.148ZM206.953 437.617V437.602C206.953 436.766 207.516 436.312 208.797 436.234L211.047 436.094V436.859C211.047 438.062 210.039 438.969 208.656 438.969C207.68 438.969 206.953 438.469 206.953 437.617ZM217.781 440.148C219.695 440.148 221.156 439.109 221.156 437.609V437.594C221.156 436.391 220.391 435.703 218.805 435.32L217.508 435.008C216.516 434.766 216.094 434.406 216.094 433.836V433.82C216.094 433.078 216.828 432.562 217.828 432.562C218.844 432.562 219.5 433.023 219.68 433.688H221.016C220.828 432.312 219.602 431.43 217.836 431.43C216.047 431.43 214.703 432.484 214.703 433.883V433.891C214.703 435.102 215.414 435.789 216.992 436.164L218.297 436.477C219.336 436.727 219.766 437.125 219.766 437.695V437.711C219.766 438.477 218.961 439.016 217.828 439.016C216.75 439.016 216.078 438.555 215.852 437.852H214.461C214.617 439.242 215.906 440.148 217.781 440.148ZM226.18 440.062C226.445 440.062 226.703 440.031 226.969 439.984V438.828C226.719 438.852 226.586 438.859 226.344 438.859C225.469 438.859 225.125 438.461 225.125 437.469V432.703H226.969V431.578H225.125V429.398H223.719V431.578H222.391V432.703H223.719V437.812C223.719 439.422 224.445 440.062 226.18 440.062ZM232.312 440.148C234.297 440.148 235.5 439.023 235.789 437.883L235.805 437.82H234.445L234.414 437.891C234.188 438.398 233.484 438.938 232.344 438.938C230.844 438.938 229.883 437.922 229.844 436.18H235.906V435.648C235.906 433.133 234.516 431.43 232.227 431.43C229.938 431.43 228.453 433.211 228.453 435.812V435.82C228.453 438.461 229.906 440.148 232.312 440.148ZM232.219 432.641C233.461 432.641 234.383 433.43 234.523 435.094H229.867C230.016 433.492 230.969 432.641 232.219 432.641ZM245.977 440.148C248.375 440.148 249.859 438.492 249.859 435.797V435.781C249.859 433.078 248.375 431.43 245.977 431.43C243.578 431.43 242.094 433.078 242.094 435.781V435.797C242.094 438.492 243.578 440.148 245.977 440.148ZM245.977 438.945C244.383 438.945 243.484 437.781 243.484 435.797V435.781C243.484 433.789 244.383 432.633 245.977 432.633C247.57 432.633 248.469 433.789 248.469 435.781V435.797C248.469 437.781 247.57 438.945 245.977 438.945ZM252.531 440H253.891V432.703H255.805V431.578H253.891V430.68C253.891 429.758 254.281 429.281 255.25 429.281C255.492 429.281 255.719 429.289 255.883 429.32V428.234C255.602 428.18 255.305 428.156 254.977 428.156C253.375 428.156 252.531 428.961 252.531 430.641V431.578H251.133V432.703H252.531V440ZM265.711 440.148C267.734 440.148 268.867 439.062 269.211 437.539L269.227 437.453L267.883 437.461L267.867 437.508C267.555 438.445 266.836 438.945 265.703 438.945C264.203 438.945 263.234 437.703 263.234 435.766V435.75C263.234 433.852 264.188 432.633 265.703 432.633C266.914 432.633 267.664 433.305 267.875 434.133L267.883 434.156H269.234L269.227 434.109C268.977 432.609 267.75 431.43 265.703 431.43C263.344 431.43 261.844 433.133 261.844 435.75V435.766C261.844 438.438 263.352 440.148 265.711 440.148ZM274.68 440.148C277.078 440.148 278.562 438.492 278.562 435.797V435.781C278.562 433.078 277.078 431.43 274.68 431.43C272.281 431.43 270.797 433.078 270.797 435.781V435.797C270.797 438.492 272.281 440.148 274.68 440.148ZM274.68 438.945C273.086 438.945 272.188 437.781 272.188 435.797V435.781C272.188 433.789 273.086 432.633 274.68 432.633C276.273 432.633 277.172 433.789 277.172 435.781V435.797C277.172 437.781 276.273 438.945 274.68 438.945ZM281.234 440H282.594V432.703H284.508V431.578H282.594V430.68C282.594 429.758 282.984 429.281 283.953 429.281C284.195 429.281 284.422 429.289 284.586 429.32V428.234C284.305 428.18 284.008 428.156 283.68 428.156C282.078 428.156 281.234 428.961 281.234 430.641V431.578H279.836V432.703H281.234V440ZM287.031 440H288.391V432.703H290.305V431.578H288.391V430.68C288.391 429.758 288.781 429.281 289.75 429.281C289.992 429.281 290.219 429.289 290.383 429.32V428.234C290.102 428.18 289.805 428.156 289.477 428.156C287.875 428.156 287.031 428.961 287.031 430.641V431.578H285.633V432.703H287.031V440ZM295.344 440.148C297.328 440.148 298.531 439.023 298.82 437.883L298.836 437.82H297.477L297.445 437.891C297.219 438.398 296.516 438.938 295.375 438.938C293.875 438.938 292.914 437.922 292.875 436.18H298.938V435.648C298.938 433.133 297.547 431.43 295.258 431.43C292.969 431.43 291.484 433.211 291.484 435.812V435.82C291.484 438.461 292.938 440.148 295.344 440.148ZM295.25 432.641C296.492 432.641 297.414 433.43 297.555 435.094H292.898C293.047 433.492 294 432.641 295.25 432.641ZM304.484 440.148C306.469 440.148 307.672 439.023 307.961 437.883L307.977 437.82H306.617L306.586 437.891C306.359 438.398 305.656 438.938 304.516 438.938C303.016 438.938 302.055 437.922 302.016 436.18H308.078V435.648C308.078 433.133 306.688 431.43 304.398 431.43C302.109 431.43 300.625 433.211 300.625 435.812V435.82C300.625 438.461 302.078 440.148 304.484 440.148ZM304.391 432.641C305.633 432.641 306.555 433.43 306.695 435.094H302.039C302.188 433.492 303.141 432.641 304.391 432.641ZM309.844 442.867H310.852L312.078 438.422H310.523L309.844 442.867ZM76.9609 464H78.3203L80.1953 457.484H80.3203L82.2031 464H83.5703L85.9297 455.578H84.5781L82.9219 462.312H82.7969L80.9141 455.578H79.625L77.7422 462.312H77.6172L75.9609 455.578H74.6016L76.9609 464ZM88.4453 453.953C88.9609 453.953 89.3828 453.531 89.3828 453.016C89.3828 452.5 88.9609 452.078 88.4453 452.078C87.9297 452.078 87.5078 452.5 87.5078 453.016C87.5078 453.531 87.9297 453.953 88.4453 453.953ZM87.7578 464H89.1172V455.578H87.7578V464ZM94.6719 464.062C94.9375 464.062 95.1953 464.031 95.4609 463.984V462.828C95.2109 462.852 95.0781 462.859 94.8359 462.859C93.9609 462.859 93.6172 462.461 93.6172 461.469V456.703H95.4609V455.578H93.6172V453.398H92.2109V455.578H90.8828V456.703H92.2109V461.812C92.2109 463.422 92.9375 464.062 94.6719 464.062ZM97.5703 464H98.9297V459.016C98.9297 457.539 99.7812 456.633 101.125 456.633C102.469 456.633 103.094 457.359 103.094 458.875V464H104.453V458.547C104.453 456.547 103.398 455.43 101.508 455.43C100.266 455.43 99.4766 455.953 99.0547 456.844H98.9297V452.234H97.5703V464ZM110.375 464.148C112.773 464.148 114.258 462.492 114.258 459.797V459.781C114.258 457.078 112.773 455.43 110.375 455.43C107.977 455.43 106.492 457.078 106.492 459.781V459.797C106.492 462.492 107.977 464.148 110.375 464.148ZM110.375 462.945C108.781 462.945 107.883 461.781 107.883 459.797V459.781C107.883 457.789 108.781 456.633 110.375 456.633C111.969 456.633 112.867 457.789 112.867 459.781V459.797C112.867 461.781 111.969 462.945 110.375 462.945ZM119.188 464.148C120.422 464.148 121.273 463.641 121.688 462.742H121.812V464H123.172V455.578H121.812V460.562C121.812 462.039 121.023 462.945 119.539 462.945C118.195 462.945 117.648 462.219 117.648 460.703V455.578H116.289V461.031C116.289 463.023 117.273 464.148 119.188 464.148ZM128.703 464.062C128.969 464.062 129.227 464.031 129.492 463.984V462.828C129.242 462.852 129.109 462.859 128.867 462.859C127.992 462.859 127.648 462.461 127.648 461.469V456.703H129.492V455.578H127.648V453.398H126.242V455.578H124.914V456.703H126.242V461.812C126.242 463.422 126.969 464.062 128.703 464.062ZM141.898 466.812H143.258V455.578H141.898V456.984H141.805C141.266 456.023 140.273 455.43 139.141 455.43C136.992 455.43 135.602 457.141 135.602 459.781V459.797C135.602 462.422 137 464.148 139.141 464.148C140.344 464.148 141.312 463.625 141.773 462.734H141.898V466.812ZM139.461 462.945C137.914 462.945 136.992 461.758 136.992 459.797V459.781C136.992 457.82 137.914 456.633 139.453 456.633C140.977 456.633 141.938 457.844 141.938 459.781V459.797C141.938 461.727 140.977 462.945 139.461 462.945ZM148.594 464.148C149.828 464.148 150.68 463.641 151.094 462.742H151.219V464H152.578V455.578H151.219V460.562C151.219 462.039 150.43 462.945 148.945 462.945C147.602 462.945 147.055 462.219 147.055 460.703V455.578H145.695V461.031C145.695 463.023 146.68 464.148 148.594 464.148ZM158.555 464.148C160.539 464.148 161.742 463.023 162.031 461.883L162.047 461.82H160.688L160.656 461.891C160.43 462.398 159.727 462.938 158.586 462.938C157.086 462.938 156.125 461.922 156.086 460.18H162.148V459.648C162.148 457.133 160.758 455.43 158.469 455.43C156.18 455.43 154.695 457.211 154.695 459.812V459.82C154.695 462.461 156.148 464.148 158.555 464.148ZM158.461 456.641C159.703 456.641 160.625 457.43 160.766 459.094H156.109C156.258 457.492 157.211 456.641 158.461 456.641ZM167.078 464.148C168.312 464.148 169.164 463.641 169.578 462.742H169.703V464H171.062V455.578H169.703V460.562C169.703 462.039 168.914 462.945 167.43 462.945C166.086 462.945 165.539 462.219 165.539 460.703V455.578H164.18V461.031C164.18 463.023 165.164 464.148 167.078 464.148ZM174.32 453.953C174.836 453.953 175.258 453.531 175.258 453.016C175.258 452.5 174.836 452.078 174.32 452.078C173.805 452.078 173.383 452.5 173.383 453.016C173.383 453.531 173.805 453.953 174.32 453.953ZM173.633 464H174.992V455.578H173.633V464ZM177.555 464H178.914V459.016C178.914 457.539 179.766 456.633 181.109 456.633C182.453 456.633 183.078 457.359 183.078 458.875V464H184.438V458.547C184.438 456.547 183.383 455.43 181.492 455.43C180.25 455.43 179.461 455.953 179.039 456.844H178.914V455.578H177.555V464ZM190.367 466.969C192.664 466.969 194.117 465.766 194.117 463.883V455.578H192.758V456.969H192.664C192.148 456.016 191.227 455.43 190.039 455.43C187.836 455.43 186.477 457.141 186.477 459.5V459.516C186.477 461.875 187.828 463.562 190.008 463.562C191.164 463.562 192.117 463.039 192.648 462.109H192.773V463.812C192.773 465.055 191.875 465.766 190.367 465.766C189.156 465.766 188.406 465.312 188.258 464.672L188.25 464.664H186.844L186.828 464.672C187.039 466.055 188.336 466.969 190.367 466.969ZM190.305 462.359C188.742 462.359 187.867 461.188 187.867 459.516V459.5C187.867 457.828 188.742 456.633 190.305 456.633C191.859 456.633 192.805 457.828 192.805 459.5V459.516C192.805 461.188 191.867 462.359 190.305 462.359ZM203.461 464.148C204.594 464.148 205.477 463.656 206.008 462.758H206.133V464H207.492V458.234C207.492 456.484 206.344 455.43 204.289 455.43C202.492 455.43 201.211 456.32 200.992 457.641L200.984 457.688H202.344L202.352 457.664C202.57 457.008 203.234 456.633 204.242 456.633C205.5 456.633 206.133 457.195 206.133 458.234V459L203.719 459.148C201.758 459.266 200.648 460.133 200.648 461.633V461.648C200.648 463.18 201.859 464.148 203.461 464.148ZM202.039 461.617V461.602C202.039 460.766 202.602 460.312 203.883 460.234L206.133 460.094V460.859C206.133 462.062 205.125 462.969 203.742 462.969C202.766 462.969 202.039 462.469 202.039 461.617ZM209.977 464H211.336V459.016C211.336 457.539 212.188 456.633 213.531 456.633C214.875 456.633 215.5 457.359 215.5 458.875V464H216.859V458.547C216.859 456.547 215.805 455.43 213.914 455.43C212.672 455.43 211.883 455.953 211.461 456.844H211.336V455.578H209.977V464ZM222.43 464.148C223.602 464.148 224.539 463.594 225.055 462.656H225.18V464H226.539V452.234H225.18V456.906H225.055C224.594 456.008 223.586 455.43 222.43 455.43C220.289 455.43 218.898 457.141 218.898 459.781V459.797C218.898 462.422 220.297 464.148 222.43 464.148ZM222.742 462.945C221.203 462.945 220.289 461.758 220.289 459.797V459.781C220.289 457.82 221.203 456.633 222.742 456.633C224.273 456.633 225.211 457.836 225.211 459.781V459.797C225.211 461.742 224.273 462.945 222.742 462.945ZM235.273 464H236.633L238.508 457.484H238.633L240.516 464H241.883L244.242 455.578H242.891L241.234 462.312H241.109L239.227 455.578H237.938L236.055 462.312H235.93L234.273 455.578H232.914L235.273 464ZM248.117 464.148C249.25 464.148 250.133 463.656 250.664 462.758H250.789V464H252.148V458.234C252.148 456.484 251 455.43 248.945 455.43C247.148 455.43 245.867 456.32 245.648 457.641L245.641 457.688H247L247.008 457.664C247.227 457.008 247.891 456.633 248.898 456.633C250.156 456.633 250.789 457.195 250.789 458.234V459L248.375 459.148C246.414 459.266 245.305 460.133 245.305 461.633V461.648C245.305 463.18 246.516 464.148 248.117 464.148ZM246.695 461.617V461.602C246.695 460.766 247.258 460.312 248.539 460.234L250.789 460.094V460.859C250.789 462.062 249.781 462.969 248.398 462.969C247.422 462.969 246.695 462.469 246.695 461.617ZM255.352 453.953C255.867 453.953 256.289 453.531 256.289 453.016C256.289 452.5 255.867 452.078 255.352 452.078C254.836 452.078 254.414 452.5 254.414 453.016C254.414 453.531 254.836 453.953 255.352 453.953ZM254.664 464H256.023V455.578H254.664V464ZM261.578 464.062C261.844 464.062 262.102 464.031 262.367 463.984V462.828C262.117 462.852 261.984 462.859 261.742 462.859C260.867 462.859 260.523 462.461 260.523 461.469V456.703H262.367V455.578H260.523V453.398H259.117V455.578H257.789V456.703H259.117V461.812C259.117 463.422 259.844 464.062 261.578 464.062ZM265.117 453.953C265.633 453.953 266.055 453.531 266.055 453.016C266.055 452.5 265.633 452.078 265.117 452.078C264.602 452.078 264.18 452.5 264.18 453.016C264.18 453.531 264.602 453.953 265.117 453.953ZM264.43 464H265.789V455.578H264.43V464ZM268.352 464H269.711V459.016C269.711 457.539 270.562 456.633 271.906 456.633C273.25 456.633 273.875 457.359 273.875 458.875V464H275.234V458.547C275.234 456.547 274.18 455.43 272.289 455.43C271.047 455.43 270.258 455.953 269.836 456.844H269.711V455.578H268.352V464ZM281.164 466.969C283.461 466.969 284.914 465.766 284.914 463.883V455.578H283.555V456.969H283.461C282.945 456.016 282.023 455.43 280.836 455.43C278.633 455.43 277.273 457.141 277.273 459.5V459.516C277.273 461.875 278.625 463.562 280.805 463.562C281.961 463.562 282.914 463.039 283.445 462.109H283.57V463.812C283.57 465.055 282.672 465.766 281.164 465.766C279.953 465.766 279.203 465.312 279.055 464.672L279.047 464.664H277.641L277.625 464.672C277.836 466.055 279.133 466.969 281.164 466.969ZM281.102 462.359C279.539 462.359 278.664 461.188 278.664 459.516V459.5C278.664 457.828 279.539 456.633 281.102 456.633C282.656 456.633 283.602 457.828 283.602 459.5V459.516C283.602 461.188 282.664 462.359 281.102 462.359ZM288.555 464.078C289.117 464.078 289.57 463.617 289.57 463.062C289.57 462.5 289.117 462.047 288.555 462.047C288 462.047 287.539 462.5 287.539 463.062C287.539 463.617 288 464.078 288.555 464.078Z" fill="#636466"/>
<path d="M96.6099 384H99.5592V378.893H101.922L104.549 384H107.889L104.92 378.453C106.483 377.838 107.469 376.295 107.469 374.439V374.42C107.469 371.588 105.594 369.908 102.43 369.908H96.6099V384ZM99.5592 376.656V372.213H102.069C103.524 372.213 104.452 373.072 104.452 374.42V374.439C104.452 375.826 103.573 376.656 102.108 376.656H99.5592ZM114.173 384.215C117.161 384.215 118.606 382.447 118.929 380.904L118.958 380.797H116.341L116.321 380.855C116.116 381.441 115.403 382.086 114.231 382.086C112.776 382.086 111.868 381.109 111.839 379.439H119.046V378.561C119.046 375.396 117.122 373.316 114.056 373.316C110.989 373.316 109.026 375.445 109.026 378.775V378.785C109.026 382.135 110.97 384.215 114.173 384.215ZM114.104 375.445C115.286 375.445 116.136 376.197 116.311 377.643H111.868C112.054 376.227 112.932 375.445 114.104 375.445ZM125.632 384.215C128.425 384.215 130.232 382.477 130.368 380.191V380.133H127.712L127.702 380.221C127.507 381.275 126.794 381.979 125.652 381.979C124.245 381.979 123.366 380.816 123.366 378.766V378.756C123.366 376.754 124.245 375.553 125.642 375.553C126.823 375.553 127.517 376.314 127.693 377.311L127.712 377.398H130.359V377.33C130.251 375.064 128.444 373.316 125.603 373.316C122.468 373.316 120.466 375.396 120.466 378.746V378.756C120.466 382.135 122.439 384.215 125.632 384.215ZM136.837 384.215C139.826 384.215 141.271 382.447 141.593 380.904L141.622 380.797H139.005L138.986 380.855C138.781 381.441 138.068 382.086 136.896 382.086C135.441 382.086 134.533 381.109 134.503 379.439H141.71V378.561C141.71 375.396 139.787 373.316 136.72 373.316C133.654 373.316 131.691 375.445 131.691 378.775V378.785C131.691 382.135 133.634 384.215 136.837 384.215ZM136.769 375.445C137.951 375.445 138.8 376.197 138.976 377.643H134.533C134.718 376.227 135.597 375.445 136.769 375.445ZM144.996 372.184C145.855 372.184 146.519 371.51 146.519 370.699C146.519 369.889 145.855 369.215 144.996 369.215C144.136 369.215 143.472 369.889 143.472 370.699C143.472 371.51 144.136 372.184 144.996 372.184ZM143.57 384H146.422V373.531H143.57V384ZM151.426 384H154.639L158.232 373.531H155.254L153.096 381.48H153.037L150.85 373.531H147.803L151.426 384ZM161.039 372.184C161.899 372.184 162.563 371.51 162.563 370.699C162.563 369.889 161.899 369.215 161.039 369.215C160.18 369.215 159.516 369.889 159.516 370.699C159.516 371.51 160.18 372.184 161.039 372.184ZM159.614 384H162.465V373.531H159.614V384ZM164.706 384H167.557V377.984C167.557 376.617 168.368 375.68 169.647 375.68C170.926 375.68 171.571 376.461 171.571 377.828V384H174.422V377.242C174.422 374.791 173.114 373.316 170.809 373.316C169.227 373.316 168.153 374.049 167.616 375.25H167.557V373.531H164.706V384ZM181.448 387.633C184.593 387.633 186.556 386.041 186.556 383.707V373.531H183.704V375.318H183.645C183.079 374.098 181.936 373.316 180.462 373.316C177.815 373.316 176.175 375.299 176.175 378.639V378.648C176.175 381.9 177.796 383.854 180.413 383.854C181.927 383.854 183.098 383.16 183.645 382.066H183.704V383.668C183.704 384.84 182.923 385.602 181.448 385.602C180.257 385.602 179.495 385.152 179.27 384.635L179.241 384.566H176.468L176.477 384.654C176.751 386.334 178.567 387.633 181.448 387.633ZM181.399 381.764C179.973 381.764 179.075 380.602 179.075 378.717V378.707C179.075 376.832 179.983 375.68 181.399 375.68C182.786 375.68 183.714 376.842 183.714 378.707V378.717C183.714 380.592 182.796 381.764 181.399 381.764ZM196.164 384.166C197.54 384.166 198.654 383.512 199.249 382.438H199.308V384H202.16V376.822C202.16 374.713 200.412 373.316 197.706 373.316C194.943 373.316 193.283 374.703 193.126 376.637L193.117 376.754H195.724L195.744 376.666C195.88 375.992 196.525 375.494 197.589 375.494C198.703 375.494 199.308 376.07 199.308 376.998V377.643L196.72 377.799C194.122 377.965 192.648 379.078 192.648 380.982V381.002C192.648 382.848 194.064 384.166 196.164 384.166ZM195.47 380.855V380.836C195.47 380.094 196.046 379.625 197.15 379.557L199.308 379.42V380.172C199.308 381.266 198.371 382.086 197.091 382.086C196.105 382.086 195.47 381.627 195.47 380.855ZM204.332 384H207.183V377.984C207.183 376.617 207.994 375.68 209.273 375.68C210.552 375.68 211.197 376.461 211.197 377.828V384H214.049V377.242C214.049 374.791 212.74 373.316 210.435 373.316C208.853 373.316 207.779 374.049 207.242 375.25H207.183V373.531H204.332V384ZM225.278 384.215C228.442 384.215 230.463 382.184 230.463 378.766V378.746C230.463 375.357 228.403 373.316 225.268 373.316C222.143 373.316 220.092 375.377 220.092 378.746V378.766C220.092 382.174 222.094 384.215 225.278 384.215ZM225.287 381.979C223.881 381.979 222.992 380.816 222.992 378.766V378.746C222.992 376.725 223.891 375.553 225.268 375.553C226.655 375.553 227.563 376.725 227.563 378.746V378.766C227.563 380.807 226.674 381.979 225.287 381.979ZM232.264 384H235.116V378.141C235.116 376.617 235.936 375.777 237.342 375.777C237.753 375.777 238.143 375.836 238.378 375.934V373.424C238.163 373.365 237.87 373.316 237.557 373.316C236.336 373.316 235.487 374.068 235.174 375.357H235.116V373.531H232.264V384ZM243.401 384.215C244.915 384.215 246.067 383.453 246.624 382.213H246.682V384H249.534V369.908H246.682V375.348H246.624C246.057 374.078 244.886 373.316 243.401 373.316C240.764 373.316 239.143 375.348 239.143 378.756V378.766C239.143 382.164 240.764 384.215 243.401 384.215ZM244.358 381.852C242.932 381.852 242.044 380.67 242.044 378.766V378.756C242.044 376.842 242.942 375.68 244.358 375.68C245.735 375.68 246.692 376.871 246.692 378.756V378.766C246.692 380.66 245.745 381.852 244.358 381.852ZM256.53 384.215C259.519 384.215 260.964 382.447 261.286 380.904L261.316 380.797H258.698L258.679 380.855C258.474 381.441 257.761 382.086 256.589 382.086C255.134 382.086 254.226 381.109 254.196 379.439H261.403V378.561C261.403 375.396 259.48 373.316 256.413 373.316C253.347 373.316 251.384 375.445 251.384 378.775V378.785C251.384 382.135 253.327 384.215 256.53 384.215ZM256.462 375.445C257.644 375.445 258.493 376.197 258.669 377.643H254.226C254.411 376.227 255.29 375.445 256.462 375.445ZM263.205 384H266.056V378.141C266.056 376.617 266.876 375.777 268.283 375.777C268.693 375.777 269.083 375.836 269.318 375.934V373.424C269.103 373.365 268.81 373.316 268.497 373.316C267.277 373.316 266.427 374.068 266.115 375.357H266.056V373.531H263.205V384Z" fill="#2A2A2B"/>
<rect opacity="0.1" x="165" y="513" width="6" height="6" rx="3" fill="#FF5712"/>
<rect opacity="0.15" x="177" y="513" width="6" height="6" rx="3" fill="#FF5712"/>
<rect opacity="0.15" x="189" y="513" width="6" height="6" rx="3" fill="#FF5712"/>
<rect x="201" y="511" width="10" height="10" rx="5" fill="#FF5712"/>
<rect x="110" y="560" width="155" height="48" rx="12" fill="#FF5712"/>
<path d="M170.391 590H172.336V582.234H172.461L178 590H179.742V578.727H177.805V586.492H177.68L172.141 578.727H170.391V590ZM185.984 590.172C188.305 590.172 189.445 588.836 189.719 587.734L189.742 587.664H187.891L187.867 587.719C187.68 588.109 187.078 588.641 186.023 588.641C184.703 588.641 183.875 587.75 183.852 586.219H189.82V585.578C189.82 583 188.32 581.297 185.891 581.297C183.461 581.297 181.906 583.055 181.906 585.742V585.75C181.906 588.469 183.445 590.172 185.984 590.172ZM185.914 582.82C187 582.82 187.789 583.516 187.922 584.914H183.867C184.016 583.555 184.828 582.82 185.914 582.82ZM190.773 590H192.867L194.609 587.031H194.742L196.492 590H198.68L195.891 585.68L198.648 581.461H196.516L194.828 584.422H194.695L193 581.461H190.75L193.539 585.766L190.773 590ZM203.75 590.039C204.125 590.039 204.484 590.008 204.766 589.953V588.453C204.531 588.477 204.383 588.484 204.109 588.484C203.297 588.484 202.961 588.125 202.961 587.273V582.969H204.766V581.461H202.961V579.367H200.984V581.461H199.656V582.969H200.984V587.734C200.984 589.383 201.789 590.039 203.75 590.039Z" fill="white"/>
</g>
<defs>
<linearGradient id="paint0_linear_4_915" x1="146.389" y1="410.371" x2="202.382" y2="124.957" gradientUnits="userSpaceOnUse">
<stop stop-color="#FAC7FF"/>
<stop offset="1" stop-color="#FFD2BE"/>
</linearGradient>
<linearGradient id="paint1_linear_4_915" x1="67.0823" y1="108.27" x2="121.005" y2="119.109" gradientUnits="userSpaceOnUse">
<stop stop-color="#FAC7FF"/>
<stop offset="1" stop-color="#FFD2BE"/>
</linearGradient>
<clipPath id="clip0_4_915">
<rect width="375" height="667" fill="white"/>
</clipPath>
<clipPath id="clip1_4_915">
<rect width="275.147" height="275.147" fill="white" transform="translate(45 63.1731)"/>
</clipPath>
</defs>
</svg>
