<svg width="375" height="667" viewBox="0 0 375 667" fill="none" xmlns="http://www.w3.org/2000/svg">
<rect width="375" height="667" fill="white"/>
<rect x="164" y="511" width="10" height="10" rx="5" fill="#FF5712"/>
<rect opacity="0.1" x="180" y="513" width="6" height="6" rx="3" fill="#FF5712"/>
<rect opacity="0.1" x="192" y="513" width="6" height="6" rx="3" fill="#FF5712"/>
<rect opacity="0.1" x="204" y="513" width="6" height="6" rx="3" fill="#FF5712"/>
<path d="M207.921 182.468C206.05 125.142 126.082 106.832 78.849 120.129C31.6162 133.425 26.2382 185.738 32.5515 247.205C38.8648 308.673 99.8143 347.851 141.748 309.763C178.225 276.632 209.791 239.794 207.921 182.468Z" fill="url(#paint0_linear_4_853)"/>
<path d="M245.994 198.865L246.708 194.638L243.736 194.741L241.041 192.898L237.896 192.717L237.619 197.282C238.194 199.351 244.277 199.947 245.994 198.865Z" fill="white"/>
<path d="M238.508 171.275L237.832 174.19L236.327 176.455L238.018 176.69L238.047 180.81C237.664 180.712 237.125 180.591 236.298 180.445L239.646 183.717L241.967 187.955C241.687 188.462 241.67 189.13 242.009 189.839C242.121 190.07 240.539 191.086 241.164 192.444C241.443 193.046 241.993 193.178 243.869 194.165C245.433 194.992 249.503 194.427 249.327 191.954C249.29 191.419 249.536 191.046 249.834 190.645C249.971 190.511 250.087 190.358 250.181 190.19C250.586 189.649 250.809 188.992 250.815 188.315C250.816 187.631 250.93 186.951 251.153 186.303C251.205 186.167 251.246 186.027 251.274 185.884C251.322 185.715 251.369 185.536 251.416 185.323C251.771 183.749 250.718 182.65 249.124 181.941L249.8 178.325L251.814 178.604L250.98 175.814L251.087 172.927L238.508 171.275ZM242.956 187.188C242.625 187.281 242.33 187.474 242.111 187.74C242.202 187.591 242.325 187.464 242.471 187.368C242.617 187.273 242.783 187.211 242.956 187.188Z" fill="white"/>
<path d="M219.658 154.75C219.584 154.691 219.504 154.639 219.42 154.595L219.658 154.75Z" fill="white"/>
<path d="M228.807 160.743L232.036 162.857C231.647 161.269 231.326 159.656 228.807 160.743Z" fill="white"/>
<path d="M235.294 164.987L232.041 162.857C232.415 164.363 232.864 165.848 235.294 164.987Z" fill="white"/>
<path d="M170.276 200.116L175.427 200.256L182.942 200.454C178.726 200.285 174.582 200.089 170.276 200.116Z" fill="white"/>
<path d="M146.027 154.014C144.336 153.654 144.556 153.156 143.57 154.539C142.218 156.435 139.979 160.471 139.979 160.471C140.05 160.809 141.215 160.655 141.562 160.919L146.027 154.014Z" fill="white"/>
<path d="M238.241 170.889L237.502 174.049L235.725 176.724L237.671 176.993L237.695 180.374C237.419 180.311 237.083 180.24 236.667 180.164C236.702 179.743 236.733 179.319 236.75 178.898C236.768 178.421 236.772 178.308 225.422 175.723C220.871 174.685 216.166 173.613 215.187 173.206C214.784 173.036 213.484 170.734 211.581 166.091C211.05 164.798 210.546 163.498 210.117 162.329L209.812 162.51L209.511 162.691L207.68 163.785L207.278 164.025L206.876 164.265L203.717 179.843L203.699 179.936L203.729 180.026C204.478 182.186 208.463 187.11 214.688 189.243L235.027 193.668V193.237C235.027 192.941 235.027 192.645 235.044 192.349C235.856 192.591 236.699 192.717 237.548 192.723L237.27 197.328L237.286 197.384C237.475 198.06 238.148 198.645 239.23 199.066C240.507 199.522 241.854 199.751 243.21 199.742C244.444 199.742 245.556 199.551 246.177 199.162L246.309 199.079L247.049 194.706C247.564 194.594 248.056 194.394 248.503 194.114C249.326 193.578 249.727 192.822 249.665 191.931C249.636 191.527 249.82 191.238 250.092 190.88C250.246 190.725 250.378 190.549 250.483 190.357C250.914 189.768 251.151 189.059 251.159 188.329C251.153 187.68 251.256 187.036 251.462 186.421L251.472 186.386C251.522 186.253 251.562 186.117 251.592 185.979C251.639 185.809 251.688 185.617 251.737 185.397C251.847 184.963 251.847 184.508 251.737 184.074C251.628 183.64 251.412 183.24 251.11 182.91C250.657 182.412 250.11 182.009 249.499 181.726L250.069 178.702L252.288 179.01L251.323 175.77L251.44 172.624L238.241 170.889ZM250.204 178.029L247.724 177.691L240.05 176.616L238.359 176.381L238.021 176.333L237.673 176.284L236.92 176.181L238.072 174.448L250.714 176.119L251.328 178.176L250.204 178.029ZM250.723 173.226L250.643 175.424L238.275 173.784L238.772 171.659L250.723 173.226ZM235.079 191.625C235.209 189.558 235.559 187.52 235.901 185.539C236.166 184.007 236.433 182.437 236.601 180.856C237.062 180.942 237.417 181.025 237.7 181.086V181.316C237.772 182.45 239.585 183.344 243.086 183.962C243.732 184.077 244.383 184.168 245.003 184.242C245.935 184.538 247.519 185.392 248.123 186.398C248.41 186.878 248.441 187.324 248.214 187.76C248.157 187.898 248.072 188.022 247.965 188.126C247.859 188.229 247.732 188.31 247.593 188.364C247.017 188.543 246.172 188.09 245.353 187.652C244.589 187.245 243.805 186.826 243.091 186.836V186.802C243.017 186.817 242.946 186.834 242.877 186.854C242.8 186.865 242.724 186.882 242.65 186.905C242.314 187.017 242.026 187.241 241.835 187.539C241.756 187.638 241.686 187.744 241.629 187.857C241.333 188.442 241.336 189.147 241.629 189.854C241.592 189.903 241.541 189.963 241.495 190.023C241.157 190.432 240.572 191.132 240.677 192.014C240.22 191.988 239.763 191.988 239.306 192.014C238.078 192.051 236.364 192.109 235.079 191.625ZM240.789 192.435C240.8 192.471 240.816 192.506 240.831 192.542H240.77L240.789 192.435ZM248.973 191.977C249.017 192.611 248.731 193.133 248.128 193.529C246.944 194.307 244.944 194.344 244.026 193.867C243.576 193.629 243.196 193.438 242.892 193.284C241.901 192.785 241.637 192.641 241.483 192.308C241.159 191.607 241.58 191.013 242.036 190.466L242.112 190.376C243.519 191.48 245.139 192.067 246.721 192.067C247.099 192.067 247.477 192.033 247.849 191.965C248.24 191.896 248.621 191.783 248.987 191.627C248.97 191.743 248.965 191.86 248.973 191.977ZM250.459 188.307C250.439 189.282 250.035 189.81 249.643 190.322L249.566 190.42C249.156 190.821 248.493 191.135 247.719 191.279C246.858 191.438 244.615 191.59 242.295 189.625C242.057 189.093 242.036 188.577 242.244 188.166C242.244 188.151 242.263 188.136 242.271 188.119H242.285C242.315 188.061 242.349 188.004 242.386 187.95C242.553 187.751 242.774 187.606 243.022 187.531C243.561 187.478 244.305 187.869 245.027 188.261C245.796 188.672 246.586 189.093 247.313 189.093C247.478 189.094 247.642 189.07 247.8 189.022C248.211 188.884 248.554 188.592 248.757 188.208V188.23C249.375 188.148 249.968 187.933 250.496 187.602C250.479 187.808 250.466 188.038 250.459 188.307ZM250.591 183.365C250.821 183.614 250.985 183.916 251.068 184.244C251.151 184.573 251.15 184.917 251.066 185.245C251.029 185.414 250.992 185.556 250.955 185.693C250.955 185.725 250.943 185.759 250.938 185.793C250.894 185.948 250.851 186.088 250.811 186.22C250.606 186.707 250.143 187.211 249.039 187.471C249.111 186.972 249.001 186.464 248.728 186.039C248.359 185.426 247.714 184.871 247.015 184.432C247.834 184.491 248.441 184.513 248.654 184.513H248.725L248.992 184.494L249.379 182.447C249.836 182.676 250.247 182.987 250.591 183.365Z" fill="#2A2A2B"/>
<path d="M230.804 293.471V293.422L230.296 291.645C230.332 291.45 230.296 291.097 229.945 290.433L229.93 290.382H229.918C229.852 290.255 229.776 290.118 229.686 289.968C229.243 289.224 225.136 282.754 217.545 284.534C211.307 285.998 209.581 283.77 208.438 282.295C208.203 281.962 207.93 281.657 207.625 281.388L185.007 210.718C186.409 210.686 187.809 210.58 189.2 210.4C189.21 212.324 189.218 214.15 189.218 215.923H189.911C189.911 214.118 189.911 212.26 189.893 210.298C191.147 210.108 192.38 209.795 193.573 209.363L190.243 219.864L190.904 220.072L197.939 197.85H198.468L198.571 197.747C198.644 197.674 198.678 197.64 200.059 191.985C200.816 188.893 201.957 184.135 203.102 179.033C204.369 173.397 205.358 168.632 206.069 164.737L205.67 164.975L205.271 165.213L190.917 173.79C184.831 177.171 180.219 178.849 176.978 178.849C175.599 178.849 174.466 178.546 173.578 177.941C169.989 175.51 170.844 168.811 171.671 162.326C172.022 159.572 172.347 156.971 172.347 154.733H173.04C173.04 157.015 172.702 159.636 172.352 162.414C171.552 168.688 170.724 175.175 173.96 177.366C176.712 179.226 182.143 177.865 190.564 173.188L205.139 164.48L205.43 164.311L205.457 164.295L205.829 164.074L206.226 163.835L207.056 163.34L207.459 163.098L207.861 162.858L209.264 162.021L209.567 161.84L209.87 161.658L215.762 158.138L213.356 153.718L213.545 154.025L213.741 153.901L214.036 153.715L214.117 153.664L221.622 148.931L221.647 148.914C222.869 147.994 224.036 147.005 225.143 145.95L229.121 146.821H229.148L229.361 146.837C229.842 146.876 230.099 146.895 230.173 146.895C232.012 146.895 232.332 145.204 232.503 144.298L234.822 127.537C234.859 127.155 234.903 126.8 234.942 126.47C235.111 125.067 235.23 124.054 234.68 123.366C234.297 122.887 233.637 122.622 232.543 122.51L224.335 121.171C222.633 120.965 221.901 122.661 221.753 123.586C221.753 123.595 221.753 123.605 221.753 123.614L220.332 132.621C218.212 132.604 215.26 133.804 214.571 135.892C213.846 138.114 213.714 139.228 213.708 141.512L209.312 144.815L209.236 144.873L208.955 145.083L208.751 145.236L208.735 145.208L206.663 146.56L206.36 146.76L206.056 146.958L202.725 149.135L202.411 149.341L188.04 158.745C187.993 158.796 187.929 158.828 187.861 158.836L185.964 159.274L187.473 158.287V158.295L187.758 158.14C188.878 157.519 189.575 157.047 190.045 156.601L205.888 146.241L206.187 146.045L206.485 145.85C205.78 143.287 204.686 141.679 203.21 141.054C200.755 140.012 197.898 141.913 196.133 143.383C196.175 143.214 196.216 143.054 196.258 142.888C196.818 140.658 197.349 138.543 197.423 137.495L197.68 137.404C199.283 136.835 204.157 135.108 204.089 131.615C203.968 125.214 202.034 120.404 199.477 117.665C201.782 115.751 203.345 113.587 202.899 111.355C202.586 109.797 201.626 108.84 200.121 108.584C196.432 107.961 189.839 111.856 187.293 116.165C186.192 118.025 185.637 122.769 187.453 124.208C187.313 125.265 187.23 126.329 187.203 127.395C187.09 131.547 186.843 135.153 186.567 137.04C185.833 136.651 185.038 136.389 184.216 136.266C180.053 135.635 175.931 138.475 172.665 144.029C172.645 143.989 172.621 143.948 172.597 143.906C171.634 142.237 167.694 139.143 162.526 139.143H162.443C158.736 139.167 153.363 140.893 148.82 148.986C148.629 149.324 147.467 151.133 145.868 153.62C145.582 153.549 145.361 153.478 145.178 153.419C144.25 153.115 144.04 153.279 143.288 154.336C141.935 156.227 139.768 160.136 139.677 160.302L139.614 160.414L139.639 160.54C139.729 160.975 140.238 161.027 140.73 161.078C140.809 161.086 140.918 161.097 141.022 161.112C137.311 166.847 133.678 172.468 133.053 173.538C130.107 178.585 130.621 181.665 131.57 183.361C132.701 185.39 135.039 186.534 138.152 186.604L155.782 186.998C154.073 191.923 152.942 195.684 152.972 196.973V197.311L155.253 197.338C152.526 208.682 157.861 218.654 160.616 223.682L142.503 276.092C141.979 277.218 140.632 279.23 139.207 281.361C137.115 284.483 135.604 286.793 135.092 288.142C134.78 288.136 134.474 288.23 134.219 288.411C133.269 289.056 132.669 290.777 132.934 292.105C133.103 292.96 133.611 293.515 134.365 293.667C134.854 293.775 135.352 293.845 135.852 293.875C135.808 294.213 135.852 294.69 136.065 295.385C136.294 296.113 137.6 296.369 140.424 296.23C140.179 297.178 140.267 297.921 140.683 298.458C141.536 299.544 143.449 299.363 144.591 299.255L144.906 299.227C144.651 300.379 144.771 301.204 145.266 301.741C146.138 302.688 147.903 302.354 149.07 302.134C149.288 302.093 149.537 302.046 149.726 302.02C149.251 303.204 149.597 303.948 149.991 304.364C150.862 305.285 152.653 305.361 153.298 305.096C154.191 304.727 154.517 304.682 154.637 304.688C154.634 304.789 154.624 304.889 154.607 304.988C154.546 305.425 154.438 306.161 155.192 306.541C156.287 307.098 157.309 307.373 158.235 307.373C158.864 307.38 159.485 307.237 160.048 306.955C160.61 306.673 161.097 306.261 161.468 305.753C161.779 306.234 162.263 306.575 162.82 306.705C163.519 306.872 164.25 306.851 164.938 306.646C165.627 306.441 166.25 306.059 166.744 305.537C167.566 304.624 167.748 303.403 167.267 302.091C167.679 299.589 167.343 297.559 166.266 296.057C164.585 293.712 161.545 293.229 159.911 292.97C159.606 292.932 159.304 292.873 159.008 292.791C157.643 291.195 156.336 287.149 157.681 283.066L157.777 282.774L157.062 282.436L172.873 247.961L191.808 285.697C191.54 286.252 191.905 286.923 192.238 287.413C193.083 289.848 193.555 292.384 193.969 294.625C194.422 297.075 194.814 299.204 195.589 300.457C195.251 301.346 195.533 303.623 195.798 304.568C195.993 305.245 196.219 305.583 196.537 305.66C196.724 305.702 196.915 305.723 197.107 305.723C198.24 305.723 198.982 304.942 199.45 304.448C199.574 304.308 199.709 304.179 199.854 304.061C199.933 304.189 199.994 304.327 200.033 304.472C200.082 304.642 200.174 304.797 200.3 304.921C200.426 305.046 200.581 305.136 200.752 305.184C201.734 305.463 203.161 304.507 203.457 304.247C203.982 303.836 204.412 303.317 204.72 302.725L204.889 302.867C205.591 303.481 206.309 303.713 207.023 303.571C208.169 303.336 208.98 302.168 209.427 301.326C209.615 301.453 209.786 301.606 209.934 301.779C210.404 302.286 210.653 302.306 212.582 301.948C214.541 301.589 215.493 300.257 215.917 299.628C216.209 299.887 216.552 300.083 216.924 300.203C217.295 300.323 217.688 300.364 218.076 300.325C219.157 300.252 220.135 299.708 220.57 298.94C220.768 298.588 220.908 298.33 220.996 298.142C222.714 298.818 223.015 298.703 224.704 297.728C225.272 297.4 225.656 296.742 225.887 296.281C226.592 296.734 227.887 296.759 228.327 296.649C229.038 296.478 229.671 296.071 230.121 295.493C230.571 294.916 230.812 294.203 230.804 293.471ZM209.29 145.706L209.571 145.497L209.647 145.439L214.409 141.869V141.7C214.409 139.38 214.522 138.308 215.238 136.12C215.792 134.43 218.379 133.353 220.23 133.326C220.35 133.326 220.465 133.326 220.578 133.334C220.656 133.334 220.732 133.341 220.807 133.354C220.731 133.486 220.624 133.652 220.499 133.838C220.374 134.024 220.212 134.262 220.044 134.499C219.272 135.593 218.254 136.932 218.075 137.148L217.288 138.1L218.457 137.696C218.769 137.588 219.001 137.3 219.187 137.07C219.251 136.991 219.312 136.915 219.356 136.864C219.478 136.744 219.603 136.604 219.73 136.455C219.857 136.306 220.019 136.105 220.168 135.909C220.316 135.713 220.465 135.507 220.617 135.287C221.444 134.103 222.323 132.592 223.131 131.207C224.031 129.67 225.148 127.757 225.498 127.594C225.926 127.447 226.487 127.325 226.736 127.594C227.037 127.912 226.984 128.79 226.623 129.931C226.318 130.284 225.911 131.079 225.29 132.298C224.552 133.758 223.54 135.759 222.976 136.075L223.314 136.68C224.009 136.291 224.827 134.748 225.907 132.611C226.131 132.169 226.357 131.721 226.562 131.339L226.754 131.43L226.912 131.141C228.384 128.428 229.279 127.909 229.766 127.953C229.845 127.949 229.925 127.967 229.995 128.004C230.066 128.042 230.125 128.098 230.166 128.166C230.633 129.011 229.235 131.785 228.645 132.972C228.418 133.424 228.251 133.755 228.183 133.95C227.363 135.581 225.71 138.724 225.371 139.022C225.401 139.001 225.434 138.986 225.47 138.978L225.627 139.654C225.796 139.615 225.953 139.576 226.912 137.855L226.646 138.67L228.812 134.242C229.476 132.889 229.84 132.695 229.913 132.67C230.094 132.839 230.307 133.975 229.833 136.453C229.284 139.328 228.142 142.024 224.93 145.208C224.834 145.304 224.736 145.4 224.634 145.497L224.33 145.786C223.346 146.698 222.317 147.559 221.246 148.368L213.79 153.063L213.774 153.073L213.07 151.931L209.814 146.677L209.241 145.749L209.29 145.706ZM226.068 125.418C225.96 125.633 225.706 125.965 225.481 126.01C224.528 126.205 224.961 125.111 225.077 124.773C225.5 123.557 226.655 124.243 226.068 125.423V125.418ZM226.119 295.557L226 295.232L225.676 295.349C225.527 295.401 225.481 295.508 225.402 295.687C225.262 296 224.895 296.832 224.364 297.134C222.797 298.039 222.726 298.081 221.221 297.488C221.203 297.419 221.164 297.357 221.11 297.311C221.056 297.265 220.989 297.236 220.918 297.229C220.835 297.222 220.752 297.244 220.683 297.291C220.614 297.339 220.564 297.409 220.541 297.489C220.376 297.873 220.186 298.246 219.973 298.605C219.655 299.167 218.878 299.583 218.036 299.64C217.26 299.692 216.592 299.427 216.201 298.911C216.166 298.864 216.119 298.825 216.066 298.8C216.012 298.774 215.953 298.762 215.894 298.764C215.672 298.764 215.555 298.933 215.386 299.195C214.999 299.767 214.194 300.955 212.467 301.271C210.739 301.588 210.675 301.549 210.456 301.31C210.173 300.993 209.835 300.729 209.459 300.531L209.302 300.445L209.133 300.523C209.045 300.567 208.977 300.644 208.943 300.737C208.355 301.958 207.603 302.744 206.879 302.891C206.389 302.993 205.865 302.808 205.34 302.345C204.987 302.037 204.808 301.883 204.554 301.933C204.301 301.982 204.216 302.168 204.13 302.354C203.863 302.886 203.48 303.352 203.009 303.718C202.59 304.07 201.477 304.671 200.936 304.516C200.874 304.501 200.818 304.468 200.774 304.423C200.73 304.377 200.699 304.319 200.686 304.257C200.558 303.862 200.375 303.447 200.001 303.361C199.628 303.275 199.296 303.596 198.941 303.97C198.419 304.521 197.768 305.202 196.711 304.984C196.351 304.634 196.023 302.171 196.121 301.113C196.128 300.984 196.154 300.857 196.197 300.736H196.219L196.605 300.626L229.448 291.242L229.534 291.538L229.64 291.903L229.744 292.262L230.11 293.525C230.105 294.092 229.91 294.642 229.557 295.086C229.204 295.53 228.713 295.843 228.161 295.976C227.579 296.128 226.24 295.899 226.119 295.562V295.557ZM203.295 282.333C203.269 278.527 203.266 273.915 203.295 270.18L206.872 281.357L203.295 282.333ZM202.603 282.52L201.278 282.882C199.442 282.257 196.924 282.417 194.806 282.554C194.086 282.6 193.401 282.644 192.801 282.654C192.228 280.554 192.255 276.388 192.309 271.925C193.381 271.996 194.485 272.094 195.58 272.184C197.707 272.366 199.907 272.554 201.731 272.554V271.861C199.935 271.861 197.842 271.681 195.644 271.494C194.534 271.399 193.411 271.303 192.322 271.232C192.376 266.697 192.424 262.04 191.857 259.076C193.21 259.123 194.562 259.159 196.006 259.159C197.19 259.159 198.426 259.135 199.753 259.079L202.637 268.09C202.571 272.138 202.571 277.944 202.602 282.525L202.603 282.52ZM162.766 238.806C162.56 236.651 162.399 234.945 162.357 234.311C163.491 234.377 164.764 234.444 166.125 234.512L171.41 245.045C168.367 244.896 165.644 244.751 163.307 244.612C163.135 242.72 162.952 240.766 162.766 238.806ZM162.041 213.839C162.058 212.473 162.073 211.079 162.086 209.658C165.326 209.688 168.831 209.943 172.269 210.194L175.03 210.391C175.083 213.287 175.16 216.417 175.258 219.414C175.277 219.974 175.297 220.566 175.319 221.183C170.301 220.914 165.067 221.247 161.983 222.704C161.97 219.736 162.004 216.824 162.041 213.839ZM162.107 205.593C162.107 204.809 162.157 204.046 162.208 203.309C162.283 202.21 162.343 201.299 162.208 200.635C162.754 200.68 163.302 200.69 163.85 200.665C167.738 200.423 171.397 200.418 175.027 200.508C174.971 201.113 174.934 202.575 174.966 206.297C174.976 207.367 174.991 208.508 175.01 209.695L172.305 209.502C168.854 209.25 165.339 208.995 162.078 208.963C162.097 207.86 162.107 206.737 162.107 205.593ZM175.382 200.594L175.394 200.516H175.646C175.61 200.547 175.567 200.57 175.522 200.583C175.477 200.596 175.429 200.6 175.382 200.594ZM176.007 234.223C172.768 234.106 169.475 233.969 166.567 233.831L162.279 225.306C162.196 225.137 162.11 224.96 162.002 224.77C162.002 224.341 161.992 223.913 161.988 223.487C164.879 221.966 170.23 221.628 175.345 221.901C175.488 225.741 175.703 230.392 176.001 234.223H176.007ZM162.026 226.341L165.764 233.792C164.518 233.731 163.356 233.668 162.313 233.609C162.164 231.08 162.075 228.676 162.026 226.341ZM166.928 234.549C169.767 234.685 172.942 234.816 176.058 234.928C176.312 237.983 176.624 240.418 177.001 241.332C177.237 241.9 177.34 243.545 177.411 245.324L175.72 245.248C174.505 245.194 173.331 245.137 172.198 245.079L166.928 234.549ZM189.719 237.855C189.8 240.221 189.898 243.014 190.023 245.813C186.877 245.711 182.713 245.554 178.105 245.354C178.036 243.457 177.92 241.738 177.642 241.067C177.329 240.308 177.029 238.193 176.756 234.952C181.636 235.121 186.315 235.236 189.299 235.236H189.626C189.654 236.029 189.687 236.921 189.719 237.855ZM177.434 246.029C177.451 246.597 177.465 247.167 177.478 247.708C177.551 250.629 177.597 251.458 177.783 251.732L178.357 251.341L178.371 251.366C178.256 251.089 178.212 249.283 178.171 247.691C178.158 247.155 178.144 246.604 178.129 246.059C182.564 246.254 186.804 246.414 190.055 246.516C190.27 251.153 190.562 255.722 191.01 258.351L189.235 258.276C186.97 258.178 184.625 258.077 181.975 258.077V258.77C184.611 258.77 186.946 258.871 189.205 258.968L191.141 259.049C191.726 261.923 191.678 266.618 191.624 271.189C189.205 271.053 186.993 271.066 185.467 271.511L172.567 245.797C174.183 245.882 175.818 245.958 177.434 246.029ZM191.719 258.383C191.269 255.823 190.968 251.224 190.75 246.538C192.725 246.595 194.273 246.629 195.193 246.629C195.423 246.629 195.612 246.629 195.759 246.629L199.528 258.405C196.623 258.516 194.148 258.472 191.719 258.383ZM190.718 245.835C190.591 243.023 190.495 240.215 190.412 237.831C190.376 236.816 190.346 235.951 190.319 235.231C191.103 235.222 191.71 235.2 192.094 235.166L195.541 245.941C194.797 245.946 193.093 245.909 190.718 245.835ZM191.878 234.49C191.512 234.517 190.975 234.532 190.292 234.539C190.224 232.827 190.179 232.096 190.123 231.903L189.462 232.111C189.504 232.28 189.553 233.214 189.605 234.543C186.669 234.543 181.795 234.424 176.706 234.247C176.455 231.068 176.232 226.909 176.048 221.935C179.767 222.179 183.281 222.737 185.563 223.384L185.752 222.718C183.374 222.042 179.789 221.469 176.021 221.223C176.004 220.748 175.987 220.268 175.972 219.78C175.859 216.414 175.781 213.223 175.732 210.437C178.339 210.606 180.926 210.745 183.379 210.745C183.683 210.745 183.982 210.745 184.282 210.745L191.878 234.49ZM184.777 210.036L184.238 208.346L183.578 208.569L184.055 210.057C181.404 210.085 178.572 209.942 175.713 209.751C175.632 204.863 175.644 201.348 175.713 200.535C177.911 200.596 180.109 200.69 182.341 200.787C184.572 200.883 186.841 200.979 189.171 201.044C189.152 203.854 189.171 206.814 189.181 209.717C187.721 209.907 186.251 210.013 184.779 210.036H184.777ZM193.834 208.515C192.563 209.033 191.236 209.399 189.879 209.604C189.864 206.74 189.851 203.823 189.869 201.055C191.347 201.091 192.848 201.115 194.378 201.115V200.421C192.857 200.421 191.352 200.398 189.874 200.361C189.874 199.473 189.893 198.602 189.908 197.754L197.213 197.842L193.834 208.515ZM138.167 185.914C135.31 185.851 133.181 184.825 132.175 183.025C130.941 180.827 131.452 177.662 133.651 173.895C134.272 172.833 137.928 167.178 141.65 161.425L141.927 160.997L142.348 160.348C143.082 159.211 143.809 158.091 144.498 157.022C144.683 157.022 144.872 157.031 145.073 157.031C146.534 157.031 148.444 156.916 150.448 156.794C152.516 156.67 154.654 156.542 156.345 156.542H157.292C159.791 156.542 164.345 156.53 167.267 156.711L167.628 156.735L167.875 156.753C166.589 160.197 165.17 163.955 163.764 167.602C163.425 168.486 163.087 169.364 162.749 170.228C160.889 175.05 159.129 179.483 157.877 182.489L157.758 182.516L157.539 182.57L157.378 182.607L157.305 182.752V182.768C156.044 185.304 155.865 186.039 155.905 186.318L138.167 185.914ZM146.59 153.791C148.128 151.404 149.232 149.679 149.423 149.338C153.804 141.536 158.925 139.87 162.441 139.848H162.533C167.361 139.848 171.138 142.766 172 144.264C172.212 144.629 172.208 144.827 172.17 144.888L172.139 144.952C172.137 144.961 172.134 144.97 172.131 144.978C171.887 145.701 171.571 146.609 171.196 147.664C170.396 149.903 169.324 152.834 168.112 156.069L167.879 156.05L167.517 156.023C164.616 155.828 160.031 155.837 157.28 155.842H156.345C154.634 155.842 152.485 155.97 150.407 156.096C148.329 156.221 146.395 156.339 144.95 156.327L146.302 154.221L146.586 153.781L146.59 153.791ZM167.339 181.461C165.096 182.967 161.569 184.883 157.195 185.763L156.937 185.814L156.768 185.846L156.664 185.868C157.014 184.959 157.409 184.067 157.848 183.197H157.873L157.954 183.178L158.375 183.074C163.566 181.74 167.902 179.029 170.692 175.374C170.99 176.184 171.328 176.979 171.706 177.755C171.324 178.255 169.779 179.827 167.339 181.461ZM200.005 109.269C201.219 109.475 201.964 110.224 202.219 111.494C202.607 113.427 201.136 115.383 198.978 117.173L198.696 117.401C198.607 117.474 198.514 117.547 198.421 117.618C195.398 119.956 191.32 121.946 188.987 123.087L188.275 123.437L187.898 123.623L187.856 123.645C187.755 123.559 187.665 123.461 187.587 123.354C186.508 121.88 187.01 118.01 187.889 116.52C190.109 112.764 195.768 109.212 199.274 109.212C199.519 109.21 199.763 109.23 200.005 109.269ZM187.524 134.629C187.693 132.651 187.825 130.024 187.896 127.424C187.923 126.373 188.006 125.324 188.145 124.282C188.466 124.113 188.851 123.932 189.291 123.718C191.849 122.468 195.896 120.492 198.928 118.123C199.44 118.672 199.902 119.267 200.306 119.9C201.658 121.995 203.285 125.731 203.396 131.643C203.454 134.636 198.935 136.239 197.448 136.764C196.889 136.964 196.738 137.016 196.738 137.285C196.738 138.144 196.152 140.479 195.585 142.734C195.46 143.241 195.335 143.728 195.218 144.202C195.093 144.317 194.978 144.423 194.88 144.515C194.737 144.648 194.588 144.787 194.542 144.815C194.385 144.924 193.712 144.829 193.144 144.731C193.126 144.656 193.104 144.582 193.078 144.509C193.032 144.391 192.97 144.227 191.277 143.302L190.988 143.145L190.98 143.159C190.439 140.697 189.068 138.65 187.2 137.426C187.309 136.792 187.418 135.899 187.524 134.622V134.629ZM189.257 152.315C189.803 150.456 190.39 148.466 190.779 146.817C190.807 146.702 190.833 146.589 190.858 146.479C190.884 146.369 190.912 146.239 190.938 146.122C191.014 145.767 191.078 145.434 191.127 145.132C191.147 145.012 191.164 144.897 191.178 144.785C191.191 144.673 191.206 144.55 191.217 144.447C191.227 144.344 191.235 144.193 191.237 144.08C191.406 144.178 191.585 144.278 191.744 144.374L192.016 144.543C192.165 144.631 192.31 144.726 192.449 144.829C192.464 144.876 192.477 144.927 192.49 144.981C192.517 145.101 192.536 145.222 192.547 145.345C192.583 145.833 192.575 146.324 192.524 146.81C192.512 146.927 192.5 147.045 192.486 147.167C192.473 147.289 192.459 147.395 192.444 147.505C192.192 149.404 191.599 151.708 191.058 153.027C190.855 153.516 190.72 153.92 190.584 154.276C190.167 155.443 189.982 155.967 188.662 156.812C188.447 156.953 188.204 157.102 187.923 157.264C188.087 156.29 188.726 154.119 189.257 152.308V152.315ZM140.799 160.385C140.699 160.375 140.561 160.359 140.446 160.341C140.987 159.381 142.737 156.3 143.853 154.735C144.11 154.373 144.36 154.043 144.488 153.975C144.553 153.945 144.669 153.975 144.963 154.075C145.1 154.119 145.268 154.173 145.471 154.231L141.428 160.486C141.222 160.435 141.011 160.401 140.799 160.385ZM155.971 197.339L189.217 197.749C189.2 198.594 189.19 199.461 189.183 200.345C186.861 200.279 184.598 200.176 182.378 200.088C176.193 199.823 170.352 199.571 163.816 199.975C163.188 200.003 162.559 199.985 161.934 199.921C161.865 199.826 161.781 199.743 161.686 199.676C161.31 199.414 160.791 199.431 160.107 199.72L159.845 199.688C158.729 199.524 157.604 199.426 156.477 199.392V200.085C157.576 200.119 158.672 200.216 159.76 200.376C160.337 200.447 160.922 200.518 161.49 200.575C161.659 201.132 161.588 202.212 161.517 203.265C161.468 203.98 161.414 204.787 161.414 205.597C161.414 206.74 161.408 207.862 161.398 208.964C159.506 208.947 157.614 209.064 155.738 209.314C155.043 205.639 154.925 201.585 155.971 197.344V197.339ZM155.875 209.987C157.704 209.747 159.548 209.634 161.393 209.649C161.382 211.069 161.367 212.461 161.348 213.825C161.309 216.936 161.273 219.967 161.292 223.07C161.239 223.102 161.187 223.134 161.136 223.168C159.51 220.199 157.052 215.565 155.875 209.992V209.987ZM161.074 224.497L161.309 224.933C161.348 227.695 161.439 230.539 161.618 233.555C160.044 233.459 158.796 233.369 158.032 233.29L161.074 224.497ZM157.801 233.964C158.583 234.052 159.933 234.152 161.659 234.259V234.318C161.698 234.942 161.853 236.587 162.07 238.861C162.22 240.446 162.408 242.431 162.602 244.558C158.387 244.299 155.528 244.068 154.369 243.882L157.801 233.964ZM154.144 244.545C155.366 244.754 158.558 245.004 162.671 245.256C163.067 249.652 163.468 254.513 163.598 257.683C160.132 257.206 155.395 256.727 152.238 256.678C151.998 254.917 151.672 253.593 151.239 252.947L154.144 244.545ZM150.931 253.843C151.185 254.477 151.391 255.454 151.555 256.678C151.01 256.676 150.464 256.704 149.922 256.763L150.931 253.843ZM149.665 257.505C150.318 257.398 150.98 257.352 151.641 257.368C152.008 260.581 152.127 265.184 152.09 269.71C149.396 269.5 146.551 269.265 145.665 269.091L149.665 257.505ZM145.438 269.737C146.135 269.906 147.805 270.063 152.083 270.397C152.04 273.905 151.905 277.318 151.719 279.95L143.266 276.032L145.438 269.737ZM163.021 306.026C162.589 305.909 162.046 305.627 161.907 304.954L161.836 304.605L161.49 304.687C161.341 304.72 161.277 304.82 161.189 304.957C159.96 306.876 158.053 307.197 155.522 305.912C155.244 305.77 155.244 305.549 155.31 305.067C155.358 304.729 155.41 304.352 155.109 304.117C154.975 304.02 154.812 303.972 154.647 303.98C154.309 303.98 153.802 304.127 153.052 304.436C152.681 304.59 151.18 304.575 150.516 303.87C150.117 303.449 150.11 302.829 150.494 302.026C150.541 301.943 150.564 301.849 150.559 301.754C150.554 301.659 150.521 301.568 150.465 301.491C150.237 301.194 149.789 301.28 148.962 301.435C147.947 301.627 146.407 301.917 145.797 301.255C145.427 300.856 145.391 300.1 145.69 299.011C145.707 298.951 145.709 298.888 145.696 298.828C145.683 298.767 145.655 298.711 145.616 298.663C145.447 298.463 145.202 298.494 144.547 298.548C143.611 298.636 141.868 298.8 141.249 298.012C140.941 297.621 140.911 296.997 141.183 296.152L141.317 296.123L141.276 295.804C141.234 295.481 140.953 295.496 140.657 295.513C136.965 295.721 136.755 295.19 136.748 295.175C136.402 294.069 136.613 293.78 136.61 293.78L136.862 293.611L136.596 293.072L136.309 293.163C136.309 293.163 135.93 293.275 134.523 292.994C134.05 292.898 133.751 292.554 133.634 291.98C133.425 290.935 133.908 289.484 134.628 288.996C134.718 288.933 134.819 288.888 134.926 288.862C135.04 288.836 135.16 288.839 135.272 288.872C135.367 288.899 135.456 288.941 135.538 288.996C135.646 289.065 135.759 289.134 135.876 289.203C136.66 289.672 137.621 290.127 138.63 290.603C140.182 291.337 141.942 292.169 143.533 293.268C144.532 293.959 145.635 294.803 146.801 295.696C148.431 296.943 150.221 298.313 152.068 299.511C154.068 300.808 156.135 301.902 158.142 302.423C158.914 302.631 159.709 302.741 160.509 302.749C160.722 302.749 161.141 302.776 161.628 302.807C163.032 302.898 164.164 302.947 165.033 302.927C165.803 302.908 166.372 302.834 166.751 302.683C167.001 303.616 166.832 304.44 166.254 305.084C165.481 305.914 164.095 306.328 163.013 306.034L163.021 306.026ZM156.446 282.148L152.389 280.27C152.587 277.612 152.737 274.096 152.783 270.464L153.303 270.505C156.629 270.76 160.053 271.024 161.434 271.255L156.446 282.148ZM161.738 270.601C160.424 270.353 156.987 270.094 153.363 269.81L152.796 269.766C152.837 265.284 152.717 260.699 152.33 257.382C155.429 257.441 160.174 257.908 163.627 258.396C163.669 259.799 163.642 260.763 163.515 261.051L164.147 261.336C164.301 260.998 164.349 259.984 164.316 258.493C165.463 258.662 166.425 258.831 167.074 258.974L161.738 270.601ZM167.365 258.323C166.707 258.171 165.62 257.985 164.293 257.793C164.186 254.815 163.824 250.303 163.375 245.31C165.934 245.464 168.814 245.618 171.776 245.765L172.479 247.167L167.365 258.323ZM185.793 272.146C187.228 271.761 189.325 271.756 191.626 271.888C191.568 276.601 191.54 280.995 192.223 283.115L192.561 283.009V283.347C193.237 283.347 194.032 283.296 194.87 283.242C196.492 283.139 198.36 283.019 199.908 283.256L192.403 285.298L185.793 272.146Z" fill="#2A2A2B"/>
<path d="M243.367 170.084C243.675 167.394 242.892 165.212 241.222 164.096C240.551 163.656 239.772 163.41 238.97 163.386C238.169 163.362 237.376 163.56 236.681 163.959C235.189 164.789 234.109 165.068 233.468 164.789C232.802 164.498 232.581 163.606 232.346 162.645C232.092 161.617 231.83 160.554 230.922 160.173C230.131 159.844 229.039 160.119 227.482 161.042C226.934 161.369 226.525 161.484 226.266 161.381C225.918 161.247 225.733 160.664 225.537 160.045C225.179 158.909 224.692 157.353 222.638 157.791C221.858 157.96 221.324 157.938 221.049 157.736C220.773 157.533 220.71 157.036 220.656 156.479C220.587 155.712 220.501 154.758 219.578 154.281L219.26 154.897C219.804 155.179 219.891 155.707 219.967 156.542C220.026 157.205 220.088 157.894 220.643 158.293C221.098 158.632 221.779 158.684 222.788 158.463C224.151 158.172 224.479 158.951 224.881 160.248C225.118 160.995 225.362 161.769 226.024 162.021C226.503 162.204 227.081 162.079 227.842 161.627C229.155 160.846 230.106 160.569 230.658 160.802C231.245 161.048 231.455 161.898 231.673 162.799C231.926 163.824 232.212 164.985 233.194 165.413C234.067 165.793 235.282 165.519 237.019 164.554C237.603 164.218 238.269 164.049 238.943 164.068C239.617 164.087 240.273 164.292 240.838 164.66C242.285 165.628 242.956 167.572 242.679 169.995L243.367 170.084Z" fill="#2A2A2B"/>
<path d="M246.168 169.743L246.862 169.728C246.806 167.276 245.847 163.733 243.325 161.81C241.847 160.684 240.041 160.346 238.104 160.835L238.058 160.85C235.487 161.895 235.015 161.019 234.3 159.695C233.566 158.334 232.652 156.642 229.157 157.083L229.243 157.771C232.269 157.389 232.99 158.73 233.69 160.025C234.417 161.377 235.167 162.764 238.297 161.501C240.036 161.07 241.588 161.359 242.905 162.363C245.083 164.02 246.113 167.264 246.168 169.743Z" fill="#2A2A2B"/>
<path d="M269.989 137.068C266.131 153.438 285.794 164.265 299.239 163.831C312.683 163.397 318.069 148.958 321.072 131.101C324.075 113.245 311.661 102.985 297.072 105.679C283.402 108.202 273.848 120.698 269.989 137.068Z" fill="url(#paint1_linear_4_853)"/>
<path d="M161.264 384H164.213V378.062H170.561V384H173.51V369.908H170.561V375.631H164.213V369.908H161.264V384ZM180.702 384.215C183.69 384.215 185.135 382.447 185.458 380.904L185.487 380.797H182.87L182.85 380.855C182.645 381.441 181.932 382.086 180.76 382.086C179.305 382.086 178.397 381.109 178.368 379.439H185.575V378.561C185.575 375.396 183.651 373.316 180.585 373.316C177.518 373.316 175.555 375.445 175.555 378.775V378.785C175.555 382.135 177.499 384.215 180.702 384.215ZM180.633 375.445C181.815 375.445 182.665 376.197 182.84 377.643H178.397C178.583 376.227 179.461 375.445 180.633 375.445ZM187.444 384H190.296V369.908H187.444V384ZM192.614 384H195.466V369.908H192.614V384ZM202.521 384.215C205.685 384.215 207.706 382.184 207.706 378.766V378.746C207.706 375.357 205.646 373.316 202.511 373.316C199.386 373.316 197.335 375.377 197.335 378.746V378.766C197.335 382.174 199.337 384.215 202.521 384.215ZM202.531 381.979C201.124 381.979 200.236 380.816 200.236 378.766V378.746C200.236 376.725 201.134 375.553 202.511 375.553C203.898 375.553 204.806 376.725 204.806 378.746V378.766C204.806 380.807 203.917 381.979 202.531 381.979ZM210.513 379.264H212.974L213.209 369.908H210.279L210.513 379.264ZM211.744 384.117C212.633 384.117 213.336 383.443 213.336 382.584C213.336 381.725 212.633 381.051 211.744 381.051C210.855 381.051 210.152 381.725 210.152 382.584C210.152 383.443 210.855 384.117 211.744 384.117Z" fill="#2A2A2B"/>
<path d="M334.151 64.2393C336.448 64.2393 337.918 63.0635 337.918 61.1768V61.1699C337.918 59.707 337.07 58.873 334.999 58.4287L333.926 58.1895C332.647 57.916 332.128 57.4375 332.128 56.7061V56.6992C332.128 55.7695 332.982 55.2295 334.138 55.2295C335.334 55.2227 336.106 55.8105 336.236 56.6172L336.25 56.7061H337.733L337.727 56.6104C337.617 55.0791 336.25 53.8965 334.158 53.8965C332.066 53.8965 330.59 55.0723 330.583 56.7744V56.7812C330.583 58.2373 331.444 59.167 333.447 59.5908L334.527 59.8232C335.833 60.1035 336.366 60.5957 336.366 61.3545V61.3613C336.366 62.2773 335.471 62.9062 334.213 62.9062C332.894 62.9062 331.943 62.332 331.861 61.4365L331.854 61.3613H330.351L330.357 61.4502C330.494 63.1113 331.923 64.2393 334.151 64.2393ZM339.832 64H341.315V61.2998L341.951 60.6641L344.508 64H346.312L343.011 59.707L346.107 56.5762H344.371L341.425 59.707H341.315V53.6641H339.832V64ZM348.438 55.25C348.944 55.25 349.368 54.833 349.368 54.3271C349.368 53.8145 348.944 53.3975 348.438 53.3975C347.926 53.3975 347.509 53.8145 347.509 54.3271C347.509 54.833 347.926 55.25 348.438 55.25ZM347.693 64H349.17V56.5762H347.693V64ZM351.33 66.4746H352.813V62.8242H352.923C353.319 63.624 354.188 64.123 355.206 64.123C357.093 64.123 358.282 62.6465 358.282 60.2949V60.2812C358.282 57.9434 357.079 56.4463 355.206 56.4463C354.167 56.4463 353.354 56.9316 352.923 57.7451H352.813V56.5762H351.33V66.4746ZM354.789 62.8584C353.552 62.8584 352.786 61.8809 352.786 60.2949V60.2812C352.786 58.6953 353.552 57.7178 354.789 57.7178C356.026 57.7178 356.771 58.6816 356.771 60.2812V60.2949C356.771 61.8877 356.026 62.8584 354.789 62.8584Z" fill="#FF5712"/>
<path d="M33.0859 416.266C35.4844 416.266 37.2656 414.93 37.6406 412.867V412.852H36.2188L36.2031 412.867C35.8516 414.164 34.6562 414.969 33.0859 414.969C30.9141 414.969 29.5547 413.195 29.5547 410.375V410.359C29.5547 407.539 30.9141 405.758 33.0781 405.758C34.6328 405.758 35.8359 406.672 36.2109 408.117L36.2188 408.133H37.6328L37.6406 408.117C37.3047 405.953 35.4531 404.461 33.0781 404.461C30.0156 404.461 28.1094 406.727 28.1094 410.359V410.375C28.1094 414 30.0234 416.266 33.0859 416.266ZM43.2891 416.148C45.6875 416.148 47.1719 414.492 47.1719 411.797V411.781C47.1719 409.078 45.6875 407.43 43.2891 407.43C40.8906 407.43 39.4062 409.078 39.4062 411.781V411.797C39.4062 414.492 40.8906 416.148 43.2891 416.148ZM43.2891 414.945C41.6953 414.945 40.7969 413.781 40.7969 411.797V411.781C40.7969 409.789 41.6953 408.633 43.2891 408.633C44.8828 408.633 45.7812 409.789 45.7812 411.781V411.797C45.7812 413.781 44.8828 414.945 43.2891 414.945ZM49.8438 416H51.2031V408.703H53.1172V407.578H51.2031V406.68C51.2031 405.758 51.5938 405.281 52.5625 405.281C52.8047 405.281 53.0312 405.289 53.1953 405.32V404.234C52.9141 404.18 52.6172 404.156 52.2891 404.156C50.6875 404.156 49.8438 404.961 49.8438 406.641V407.578H48.4453V408.703H49.8438V416ZM55.6406 416H57V408.703H58.9141V407.578H57V406.68C57 405.758 57.3906 405.281 58.3594 405.281C58.6016 405.281 58.8281 405.289 58.9922 405.32V404.234C58.7109 404.18 58.4141 404.156 58.0859 404.156C56.4844 404.156 55.6406 404.961 55.6406 406.641V407.578H54.2422V408.703H55.6406V416ZM63.9531 416.148C65.9375 416.148 67.1406 415.023 67.4297 413.883L67.4453 413.82H66.0859L66.0547 413.891C65.8281 414.398 65.125 414.938 63.9844 414.938C62.4844 414.938 61.5234 413.922 61.4844 412.18H67.5469V411.648C67.5469 409.133 66.1562 407.43 63.8672 407.43C61.5781 407.43 60.0938 409.211 60.0938 411.812V411.82C60.0938 414.461 61.5469 416.148 63.9531 416.148ZM63.8594 408.641C65.1016 408.641 66.0234 409.43 66.1641 411.094H61.5078C61.6562 409.492 62.6094 408.641 63.8594 408.641ZM73.0938 416.148C75.0781 416.148 76.2812 415.023 76.5703 413.883L76.5859 413.82H75.2266L75.1953 413.891C74.9688 414.398 74.2656 414.938 73.125 414.938C71.625 414.938 70.6641 413.922 70.625 412.18H76.6875V411.648C76.6875 409.133 75.2969 407.43 73.0078 407.43C70.7188 407.43 69.2344 409.211 69.2344 411.812V411.82C69.2344 414.461 70.6875 416.148 73.0938 416.148ZM73 408.641C74.2422 408.641 75.1641 409.43 75.3047 411.094H70.6484C70.7969 409.492 71.75 408.641 73 408.641ZM86.2891 416.062C86.5547 416.062 86.8125 416.031 87.0781 415.984V414.828C86.8281 414.852 86.6953 414.859 86.4531 414.859C85.5781 414.859 85.2344 414.461 85.2344 413.469V408.703H87.0781V407.578H85.2344V405.398H83.8281V407.578H82.5V408.703H83.8281V413.812C83.8281 415.422 84.5547 416.062 86.2891 416.062ZM92.4453 416.148C94.8438 416.148 96.3281 414.492 96.3281 411.797V411.781C96.3281 409.078 94.8438 407.43 92.4453 407.43C90.0469 407.43 88.5625 409.078 88.5625 411.781V411.797C88.5625 414.492 90.0469 416.148 92.4453 416.148ZM92.4453 414.945C90.8516 414.945 89.9531 413.781 89.9531 411.797V411.781C89.9531 409.789 90.8516 408.633 92.4453 408.633C94.0391 408.633 94.9375 409.789 94.9375 411.781V411.797C94.9375 413.781 94.0391 414.945 92.4453 414.945ZM107.781 416.266C110.664 416.266 112.57 414.422 112.57 411.641V410.266H108V411.5H111.164V411.773C111.164 413.68 109.805 414.969 107.789 414.969C105.523 414.969 104.109 413.203 104.109 410.367V410.352C104.109 407.555 105.547 405.758 107.781 405.758C109.461 405.758 110.594 406.555 111.055 408.008L111.078 408.086H112.5L112.484 408.008C112.039 405.867 110.281 404.461 107.781 404.461C104.695 404.461 102.672 406.797 102.672 410.352V410.367C102.672 413.969 104.664 416.266 107.781 416.266ZM118.352 416.148C120.75 416.148 122.234 414.492 122.234 411.797V411.781C122.234 409.078 120.75 407.43 118.352 407.43C115.953 407.43 114.469 409.078 114.469 411.781V411.797C114.469 414.492 115.953 416.148 118.352 416.148ZM118.352 414.945C116.758 414.945 115.859 413.781 115.859 411.797V411.781C115.859 409.789 116.758 408.633 118.352 408.633C119.945 408.633 120.844 409.789 120.844 411.781V411.797C120.844 413.781 119.945 414.945 118.352 414.945ZM129.562 405.953C130.078 405.953 130.5 405.531 130.5 405.016C130.5 404.5 130.078 404.078 129.562 404.078C129.047 404.078 128.625 404.5 128.625 405.016C128.625 405.531 129.047 405.953 129.562 405.953ZM128.875 416H130.234V407.578H128.875V416ZM135.688 416.148C137.602 416.148 139.062 415.109 139.062 413.609V413.594C139.062 412.391 138.297 411.703 136.711 411.32L135.414 411.008C134.422 410.766 134 410.406 134 409.836V409.82C134 409.078 134.734 408.562 135.734 408.562C136.75 408.562 137.406 409.023 137.586 409.688H138.922C138.734 408.312 137.508 407.43 135.742 407.43C133.953 407.43 132.609 408.484 132.609 409.883V409.891C132.609 411.102 133.32 411.789 134.898 412.164L136.203 412.477C137.242 412.727 137.672 413.125 137.672 413.695V413.711C137.672 414.477 136.867 415.016 135.734 415.016C134.656 415.016 133.984 414.555 133.758 413.852H132.367C132.523 415.242 133.812 416.148 135.688 416.148ZM147.984 416.148C149.117 416.148 150 415.656 150.531 414.758H150.656V416H152.016V410.234C152.016 408.484 150.867 407.43 148.812 407.43C147.016 407.43 145.734 408.32 145.516 409.641L145.508 409.688H146.867L146.875 409.664C147.094 409.008 147.758 408.633 148.766 408.633C150.023 408.633 150.656 409.195 150.656 410.234V411L148.242 411.148C146.281 411.266 145.172 412.133 145.172 413.633V413.648C145.172 415.18 146.383 416.148 147.984 416.148ZM146.562 413.617V413.602C146.562 412.766 147.125 412.312 148.406 412.234L150.656 412.094V412.859C150.656 414.062 149.648 414.969 148.266 414.969C147.289 414.969 146.562 414.469 146.562 413.617ZM154.5 416H155.859V411.016C155.859 409.539 156.711 408.633 158.055 408.633C159.398 408.633 160.023 409.359 160.023 410.875V416H161.383V410.547C161.383 408.547 160.328 407.43 158.438 407.43C157.195 407.43 156.406 407.953 155.984 408.844H155.859V407.578H154.5V416ZM170.656 416.148C171.789 416.148 172.672 415.656 173.203 414.758H173.328V416H174.688V410.234C174.688 408.484 173.539 407.43 171.484 407.43C169.688 407.43 168.406 408.32 168.188 409.641L168.18 409.688H169.539L169.547 409.664C169.766 409.008 170.43 408.633 171.438 408.633C172.695 408.633 173.328 409.195 173.328 410.234V411L170.914 411.148C168.953 411.266 167.844 412.133 167.844 413.633V413.648C167.844 415.18 169.055 416.148 170.656 416.148ZM169.234 413.617V413.602C169.234 412.766 169.797 412.312 171.078 412.234L173.328 412.094V412.859C173.328 414.062 172.32 414.969 170.938 414.969C169.961 414.969 169.234 414.469 169.234 413.617ZM177.172 418.812H178.531V414.672H178.656C179.117 415.57 180.125 416.148 181.281 416.148C183.422 416.148 184.812 414.438 184.812 411.797V411.781C184.812 409.156 183.414 407.43 181.281 407.43C180.109 407.43 179.172 407.984 178.656 408.922H178.531V407.578H177.172V418.812ZM180.969 414.945C179.438 414.945 178.5 413.742 178.5 411.797V411.781C178.5 409.836 179.438 408.633 180.969 408.633C182.508 408.633 183.422 409.82 183.422 411.781V411.797C183.422 413.758 182.508 414.945 180.969 414.945ZM186.938 418.812H188.297V414.672H188.422C188.883 415.57 189.891 416.148 191.047 416.148C193.188 416.148 194.578 414.438 194.578 411.797V411.781C194.578 409.156 193.18 407.43 191.047 407.43C189.875 407.43 188.938 407.984 188.422 408.922H188.297V407.578H186.938V418.812ZM190.734 414.945C189.203 414.945 188.266 413.742 188.266 411.797V411.781C188.266 409.836 189.203 408.633 190.734 408.633C192.273 408.633 193.188 409.82 193.188 411.781V411.797C193.188 413.758 192.273 414.945 190.734 414.945ZM196.781 416H198.141V404.234H196.781V416ZM201.469 405.953C201.984 405.953 202.406 405.531 202.406 405.016C202.406 404.5 201.984 404.078 201.469 404.078C200.953 404.078 200.531 404.5 200.531 405.016C200.531 405.531 200.953 405.953 201.469 405.953ZM200.781 416H202.141V407.578H200.781V416ZM208.148 416.148C210.172 416.148 211.305 415.062 211.648 413.539L211.664 413.453L210.32 413.461L210.305 413.508C209.992 414.445 209.273 414.945 208.141 414.945C206.641 414.945 205.672 413.703 205.672 411.766V411.75C205.672 409.852 206.625 408.633 208.141 408.633C209.352 408.633 210.102 409.305 210.312 410.133L210.32 410.156H211.672L211.664 410.109C211.414 408.609 210.188 407.43 208.141 407.43C205.781 407.43 204.281 409.133 204.281 411.75V411.766C204.281 414.438 205.789 416.148 208.148 416.148ZM215.969 416.148C217.102 416.148 217.984 415.656 218.516 414.758H218.641V416H220V410.234C220 408.484 218.852 407.43 216.797 407.43C215 407.43 213.719 408.32 213.5 409.641L213.492 409.688H214.852L214.859 409.664C215.078 409.008 215.742 408.633 216.75 408.633C218.008 408.633 218.641 409.195 218.641 410.234V411L216.227 411.148C214.266 411.266 213.156 412.133 213.156 413.633V413.648C213.156 415.18 214.367 416.148 215.969 416.148ZM214.547 413.617V413.602C214.547 412.766 215.109 412.312 216.391 412.234L218.641 412.094V412.859C218.641 414.062 217.633 414.969 216.25 414.969C215.273 414.969 214.547 414.469 214.547 413.617ZM225.477 416.062C225.742 416.062 226 416.031 226.266 415.984V414.828C226.016 414.852 225.883 414.859 225.641 414.859C224.766 414.859 224.422 414.461 224.422 413.469V408.703H226.266V407.578H224.422V405.398H223.016V407.578H221.688V408.703H223.016V413.812C223.016 415.422 223.742 416.062 225.477 416.062ZM229.016 405.953C229.531 405.953 229.953 405.531 229.953 405.016C229.953 404.5 229.531 404.078 229.016 404.078C228.5 404.078 228.078 404.5 228.078 405.016C228.078 405.531 228.5 405.953 229.016 405.953ZM228.328 416H229.688V407.578H228.328V416ZM235.711 416.148C238.109 416.148 239.594 414.492 239.594 411.797V411.781C239.594 409.078 238.109 407.43 235.711 407.43C233.312 407.43 231.828 409.078 231.828 411.781V411.797C231.828 414.492 233.312 416.148 235.711 416.148ZM235.711 414.945C234.117 414.945 233.219 413.781 233.219 411.797V411.781C233.219 409.789 234.117 408.633 235.711 408.633C237.305 408.633 238.203 409.789 238.203 411.781V411.797C238.203 413.781 237.305 414.945 235.711 414.945ZM241.703 416H243.062V411.016C243.062 409.539 243.914 408.633 245.258 408.633C246.602 408.633 247.227 409.359 247.227 410.875V416H248.586V410.547C248.586 408.547 247.531 407.43 245.641 407.43C244.398 407.43 243.609 407.953 243.188 408.844H243.062V407.578H241.703V416ZM256.266 405.953C256.781 405.953 257.203 405.531 257.203 405.016C257.203 404.5 256.781 404.078 256.266 404.078C255.75 404.078 255.328 404.5 255.328 405.016C255.328 405.531 255.75 405.953 256.266 405.953ZM255.578 416H256.938V407.578H255.578V416ZM259.5 416H260.859V411.016C260.859 409.539 261.711 408.633 263.055 408.633C264.398 408.633 265.023 409.359 265.023 410.875V416H266.383V410.547C266.383 408.547 265.328 407.43 263.438 407.43C262.195 407.43 261.406 407.953 260.984 408.844H260.859V407.578H259.5V416ZM274.969 416H276.328L278.203 409.484H278.328L280.211 416H281.578L283.938 407.578H282.586L280.93 414.312H280.805L278.922 407.578H277.633L275.75 414.312H275.625L273.969 407.578H272.609L274.969 416ZM285.812 416H287.172V411.016C287.172 409.539 288.023 408.633 289.367 408.633C290.711 408.633 291.336 409.359 291.336 410.875V416H292.695V410.547C292.695 408.547 291.641 407.43 289.75 407.43C288.508 407.43 287.719 407.953 287.297 408.844H287.172V404.234H285.812V416ZM295.875 405.953C296.391 405.953 296.812 405.531 296.812 405.016C296.812 404.5 296.391 404.078 295.875 404.078C295.359 404.078 294.938 404.5 294.938 405.016C294.938 405.531 295.359 405.953 295.875 405.953ZM295.188 416H296.547V407.578H295.188V416ZM302.555 416.148C304.578 416.148 305.711 415.062 306.055 413.539L306.07 413.453L304.727 413.461L304.711 413.508C304.398 414.445 303.68 414.945 302.547 414.945C301.047 414.945 300.078 413.703 300.078 411.766V411.75C300.078 409.852 301.031 408.633 302.547 408.633C303.758 408.633 304.508 409.305 304.719 410.133L304.727 410.156H306.078L306.07 410.109C305.82 408.609 304.594 407.43 302.547 407.43C300.188 407.43 298.688 409.133 298.688 411.75V411.766C298.688 414.438 300.195 416.148 302.555 416.148ZM308.141 416H309.5V411.016C309.5 409.539 310.352 408.633 311.695 408.633C313.039 408.633 313.664 409.359 313.664 410.875V416H315.023V410.547C315.023 408.547 313.969 407.43 312.078 407.43C310.836 407.43 310.047 407.953 309.625 408.844H309.5V404.234H308.141V416ZM322.703 418.953C324.195 418.953 324.891 418.406 325.586 416.516L328.875 407.578H327.445L325.141 414.508H325.016L322.703 407.578H321.25L324.367 416.008L324.211 416.508C323.906 417.477 323.438 417.828 322.664 417.828C322.477 417.828 322.266 417.82 322.102 417.789V418.906C322.289 418.938 322.523 418.953 322.703 418.953ZM333.82 416.148C336.219 416.148 337.703 414.492 337.703 411.797V411.781C337.703 409.078 336.219 407.43 333.82 407.43C331.422 407.43 329.938 409.078 329.938 411.781V411.797C329.938 414.492 331.422 416.148 333.82 416.148ZM333.82 414.945C332.227 414.945 331.328 413.781 331.328 411.797V411.781C331.328 409.789 332.227 408.633 333.82 408.633C335.414 408.633 336.312 409.789 336.312 411.781V411.797C336.312 413.781 335.414 414.945 333.82 414.945ZM342.633 416.148C343.867 416.148 344.719 415.641 345.133 414.742H345.258V416H346.617V407.578H345.258V412.562C345.258 414.039 344.469 414.945 342.984 414.945C341.641 414.945 341.094 414.219 341.094 412.703V407.578H339.734V413.031C339.734 415.023 340.719 416.148 342.633 416.148ZM27.9844 440.148C30.0078 440.148 31.1406 439.062 31.4844 437.539L31.5 437.453L30.1562 437.461L30.1406 437.508C29.8281 438.445 29.1094 438.945 27.9766 438.945C26.4766 438.945 25.5078 437.703 25.5078 435.766V435.75C25.5078 433.852 26.4609 432.633 27.9766 432.633C29.1875 432.633 29.9375 433.305 30.1484 434.133L30.1562 434.156H31.5078L31.5 434.109C31.25 432.609 30.0234 431.43 27.9766 431.43C25.6172 431.43 24.1172 433.133 24.1172 435.75V435.766C24.1172 438.438 25.625 440.148 27.9844 440.148ZM35.8047 440.148C36.9375 440.148 37.8203 439.656 38.3516 438.758H38.4766V440H39.8359V434.234C39.8359 432.484 38.6875 431.43 36.6328 431.43C34.8359 431.43 33.5547 432.32 33.3359 433.641L33.3281 433.688H34.6875L34.6953 433.664C34.9141 433.008 35.5781 432.633 36.5859 432.633C37.8438 432.633 38.4766 433.195 38.4766 434.234V435L36.0625 435.148C34.1016 435.266 32.9922 436.133 32.9922 437.633V437.648C32.9922 439.18 34.2031 440.148 35.8047 440.148ZM34.3828 437.617V437.602C34.3828 436.766 34.9453 436.312 36.2266 436.234L38.4766 436.094V436.859C38.4766 438.062 37.4688 438.969 36.0859 438.969C35.1094 438.969 34.3828 438.469 34.3828 437.617ZM42.3203 440H43.6797V435.016C43.6797 433.539 44.5312 432.633 45.875 432.633C47.2188 432.633 47.8438 433.359 47.8438 434.875V440H49.2031V434.547C49.2031 432.547 48.1484 431.43 46.2578 431.43C45.0156 431.43 44.2266 431.953 43.8047 432.844H43.6797V431.578H42.3203V440ZM59.625 440.148C62.0234 440.148 63.5078 438.492 63.5078 435.797V435.781C63.5078 433.078 62.0234 431.43 59.625 431.43C57.2266 431.43 55.7422 433.078 55.7422 435.781V435.797C55.7422 438.492 57.2266 440.148 59.625 440.148ZM59.625 438.945C58.0312 438.945 57.1328 437.781 57.1328 435.797V435.781C57.1328 433.789 58.0312 432.633 59.625 432.633C61.2188 432.633 62.1172 433.789 62.1172 435.781V435.797C62.1172 437.781 61.2188 438.945 59.625 438.945ZM65.6172 440H66.9766V434.781C66.9766 433.547 67.8984 432.727 69.1953 432.727C69.4922 432.727 69.75 432.758 70.0312 432.805V431.484C69.8984 431.461 69.6094 431.43 69.3516 431.43C68.2109 431.43 67.4219 431.945 67.1016 432.828H66.9766V431.578H65.6172V440ZM74.5859 440.148C75.7578 440.148 76.6953 439.594 77.2109 438.656H77.3359V440H78.6953V428.234H77.3359V432.906H77.2109C76.75 432.008 75.7422 431.43 74.5859 431.43C72.4453 431.43 71.0547 433.141 71.0547 435.781V435.797C71.0547 438.422 72.4531 440.148 74.5859 440.148ZM74.8984 438.945C73.3594 438.945 72.4453 437.758 72.4453 435.797V435.781C72.4453 433.82 73.3594 432.633 74.8984 432.633C76.4297 432.633 77.3672 433.836 77.3672 435.781V435.797C77.3672 437.742 76.4297 438.945 74.8984 438.945ZM84.7422 440.148C86.7266 440.148 87.9297 439.023 88.2188 437.883L88.2344 437.82H86.875L86.8438 437.891C86.6172 438.398 85.9141 438.938 84.7734 438.938C83.2734 438.938 82.3125 437.922 82.2734 436.18H88.3359V435.648C88.3359 433.133 86.9453 431.43 84.6562 431.43C82.3672 431.43 80.8828 433.211 80.8828 435.812V435.82C80.8828 438.461 82.3359 440.148 84.7422 440.148ZM84.6484 432.641C85.8906 432.641 86.8125 433.43 86.9531 435.094H82.2969C82.4453 433.492 83.3984 432.641 84.6484 432.641ZM90.4453 440H91.8047V434.781C91.8047 433.547 92.7266 432.727 94.0234 432.727C94.3203 432.727 94.5781 432.758 94.8594 432.805V431.484C94.7266 431.461 94.4375 431.43 94.1797 431.43C93.0391 431.43 92.25 431.945 91.9297 432.828H91.8047V431.578H90.4453V440ZM104.484 440.148C106.508 440.148 107.641 439.062 107.984 437.539L108 437.453L106.656 437.461L106.641 437.508C106.328 438.445 105.609 438.945 104.477 438.945C102.977 438.945 102.008 437.703 102.008 435.766V435.75C102.008 433.852 102.961 432.633 104.477 432.633C105.688 432.633 106.438 433.305 106.648 434.133L106.656 434.156H108.008L108 434.109C107.75 432.609 106.523 431.43 104.477 431.43C102.117 431.43 100.617 433.133 100.617 435.75V435.766C100.617 438.438 102.125 440.148 104.484 440.148ZM113.453 440.148C115.852 440.148 117.336 438.492 117.336 435.797V435.781C117.336 433.078 115.852 431.43 113.453 431.43C111.055 431.43 109.57 433.078 109.57 435.781V435.797C109.57 438.492 111.055 440.148 113.453 440.148ZM113.453 438.945C111.859 438.945 110.961 437.781 110.961 435.797V435.781C110.961 433.789 111.859 432.633 113.453 432.633C115.047 432.633 115.945 433.789 115.945 435.781V435.797C115.945 437.781 115.047 438.945 113.453 438.945ZM120.008 440H121.367V432.703H123.281V431.578H121.367V430.68C121.367 429.758 121.758 429.281 122.727 429.281C122.969 429.281 123.195 429.289 123.359 429.32V428.234C123.078 428.18 122.781 428.156 122.453 428.156C120.852 428.156 120.008 428.961 120.008 430.641V431.578H118.609V432.703H120.008V440ZM125.805 440H127.164V432.703H129.078V431.578H127.164V430.68C127.164 429.758 127.555 429.281 128.523 429.281C128.766 429.281 128.992 429.289 129.156 429.32V428.234C128.875 428.18 128.578 428.156 128.25 428.156C126.648 428.156 125.805 428.961 125.805 430.641V431.578H124.406V432.703H125.805V440ZM134.117 440.148C136.102 440.148 137.305 439.023 137.594 437.883L137.609 437.82H136.25L136.219 437.891C135.992 438.398 135.289 438.938 134.148 438.938C132.648 438.938 131.688 437.922 131.648 436.18H137.711V435.648C137.711 433.133 136.32 431.43 134.031 431.43C131.742 431.43 130.258 433.211 130.258 435.812V435.82C130.258 438.461 131.711 440.148 134.117 440.148ZM134.023 432.641C135.266 432.641 136.188 433.43 136.328 435.094H131.672C131.82 433.492 132.773 432.641 134.023 432.641ZM143.258 440.148C145.242 440.148 146.445 439.023 146.734 437.883L146.75 437.82H145.391L145.359 437.891C145.133 438.398 144.43 438.938 143.289 438.938C141.789 438.938 140.828 437.922 140.789 436.18H146.852V435.648C146.852 433.133 145.461 431.43 143.172 431.43C140.883 431.43 139.398 433.211 139.398 435.812V435.82C139.398 438.461 140.852 440.148 143.258 440.148ZM143.164 432.641C144.406 432.641 145.328 433.43 145.469 435.094H140.812C140.961 433.492 141.914 432.641 143.164 432.641ZM156.922 440.148C159.32 440.148 160.805 438.492 160.805 435.797V435.781C160.805 433.078 159.32 431.43 156.922 431.43C154.523 431.43 153.039 433.078 153.039 435.781V435.797C153.039 438.492 154.523 440.148 156.922 440.148ZM156.922 438.945C155.328 438.945 154.43 437.781 154.43 435.797V435.781C154.43 433.789 155.328 432.633 156.922 432.633C158.516 432.633 159.414 433.789 159.414 435.781V435.797C159.414 437.781 158.516 438.945 156.922 438.945ZM162.914 440H164.273V435.016C164.273 433.539 165.125 432.633 166.469 432.633C167.812 432.633 168.438 433.359 168.438 434.875V440H169.797V434.547C169.797 432.547 168.742 431.43 166.852 431.43C165.609 431.43 164.82 431.953 164.398 432.844H164.273V431.578H162.914V440ZM172.336 440H173.695V428.234H172.336V440ZM177.023 429.953C177.539 429.953 177.961 429.531 177.961 429.016C177.961 428.5 177.539 428.078 177.023 428.078C176.508 428.078 176.086 428.5 176.086 429.016C176.086 429.531 176.508 429.953 177.023 429.953ZM176.336 440H177.695V431.578H176.336V440ZM180.258 440H181.617V435.016C181.617 433.539 182.469 432.633 183.812 432.633C185.156 432.633 185.781 433.359 185.781 434.875V440H187.141V434.547C187.141 432.547 186.086 431.43 184.195 431.43C182.953 431.43 182.164 431.953 181.742 432.844H181.617V431.578H180.258V440ZM193.039 440.148C195.023 440.148 196.227 439.023 196.516 437.883L196.531 437.82H195.172L195.141 437.891C194.914 438.398 194.211 438.938 193.07 438.938C191.57 438.938 190.609 437.922 190.57 436.18H196.633V435.648C196.633 433.133 195.242 431.43 192.953 431.43C190.664 431.43 189.18 433.211 189.18 435.812V435.82C189.18 438.461 190.633 440.148 193.039 440.148ZM192.945 432.641C194.188 432.641 195.109 433.43 195.25 435.094H190.594C190.742 433.492 191.695 432.641 192.945 432.641ZM205.555 440.148C206.688 440.148 207.57 439.656 208.102 438.758H208.227V440H209.586V434.234C209.586 432.484 208.438 431.43 206.383 431.43C204.586 431.43 203.305 432.32 203.086 433.641L203.078 433.688H204.438L204.445 433.664C204.664 433.008 205.328 432.633 206.336 432.633C207.594 432.633 208.227 433.195 208.227 434.234V435L205.812 435.148C203.852 435.266 202.742 436.133 202.742 437.633V437.648C202.742 439.18 203.953 440.148 205.555 440.148ZM204.133 437.617V437.602C204.133 436.766 204.695 436.312 205.977 436.234L208.227 436.094V436.859C208.227 438.062 207.219 438.969 205.836 438.969C204.859 438.969 204.133 438.469 204.133 437.617ZM212.07 440H213.43V435.016C213.43 433.539 214.281 432.633 215.625 432.633C216.969 432.633 217.594 433.359 217.594 434.875V440H218.953V434.547C218.953 432.547 217.898 431.43 216.008 431.43C214.766 431.43 213.977 431.953 213.555 432.844H213.43V431.578H212.07V440ZM224.523 440.148C225.695 440.148 226.633 439.594 227.148 438.656H227.273V440H228.633V428.234H227.273V432.906H227.148C226.688 432.008 225.68 431.43 224.523 431.43C222.383 431.43 220.992 433.141 220.992 435.781V435.797C220.992 438.422 222.391 440.148 224.523 440.148ZM224.836 438.945C223.297 438.945 222.383 437.758 222.383 435.797V435.781C222.383 433.82 223.297 432.633 224.836 432.633C226.367 432.633 227.305 433.836 227.305 435.781V435.797C227.305 437.742 226.367 438.945 224.836 438.945ZM235.742 442.812H237.102V438.672H237.227C237.688 439.57 238.695 440.148 239.852 440.148C241.992 440.148 243.383 438.438 243.383 435.797V435.781C243.383 433.156 241.984 431.43 239.852 431.43C238.68 431.43 237.742 431.984 237.227 432.922H237.102V431.578H235.742V442.812ZM239.539 438.945C238.008 438.945 237.07 437.742 237.07 435.797V435.781C237.07 433.836 238.008 432.633 239.539 432.633C241.078 432.633 241.992 433.82 241.992 435.781V435.797C241.992 437.758 241.078 438.945 239.539 438.945ZM246.227 429.953C246.742 429.953 247.164 429.531 247.164 429.016C247.164 428.5 246.742 428.078 246.227 428.078C245.711 428.078 245.289 428.5 245.289 429.016C245.289 429.531 245.711 429.953 246.227 429.953ZM245.539 440H246.898V431.578H245.539V440ZM252.906 440.148C254.93 440.148 256.062 439.062 256.406 437.539L256.422 437.453L255.078 437.461L255.062 437.508C254.75 438.445 254.031 438.945 252.898 438.945C251.398 438.945 250.43 437.703 250.43 435.766V435.75C250.43 433.852 251.383 432.633 252.898 432.633C254.109 432.633 254.859 433.305 255.07 434.133L255.078 434.156H256.43L256.422 434.109C256.172 432.609 254.945 431.43 252.898 431.43C250.539 431.43 249.039 433.133 249.039 435.75V435.766C249.039 438.438 250.547 440.148 252.906 440.148ZM258.492 440H259.852V436.805L260.641 436.039L263.797 440H265.508L261.594 435.117L265.266 431.578H263.617L259.977 435.258H259.852V428.234H258.492V440ZM272.32 429.953C272.836 429.953 273.258 429.531 273.258 429.016C273.258 428.5 272.836 428.078 272.32 428.078C271.805 428.078 271.383 428.5 271.383 429.016C271.383 429.531 271.805 429.953 272.32 429.953ZM271.633 440H272.992V431.578H271.633V440ZM278.547 440.062C278.812 440.062 279.07 440.031 279.336 439.984V438.828C279.086 438.852 278.953 438.859 278.711 438.859C277.836 438.859 277.492 438.461 277.492 437.469V432.703H279.336V431.578H277.492V429.398H276.086V431.578H274.758V432.703H276.086V437.812C276.086 439.422 276.812 440.062 278.547 440.062ZM288.688 440.148C289.922 440.148 290.773 439.641 291.188 438.742H291.312V440H292.672V431.578H291.312V436.562C291.312 438.039 290.523 438.945 289.039 438.945C287.695 438.945 287.148 438.219 287.148 436.703V431.578H285.789V437.031C285.789 439.023 286.773 440.148 288.688 440.148ZM295.211 442.812H296.57V438.672H296.695C297.156 439.57 298.164 440.148 299.32 440.148C301.461 440.148 302.852 438.438 302.852 435.797V435.781C302.852 433.156 301.453 431.43 299.32 431.43C298.148 431.43 297.211 431.984 296.695 432.922H296.57V431.578H295.211V442.812ZM299.008 438.945C297.477 438.945 296.539 437.742 296.539 435.797V435.781C296.539 433.836 297.477 432.633 299.008 432.633C300.547 432.633 301.461 433.82 301.461 435.781V435.797C301.461 437.758 300.547 438.945 299.008 438.945ZM311.789 440.148C312.922 440.148 313.805 439.656 314.336 438.758H314.461V440H315.82V434.234C315.82 432.484 314.672 431.43 312.617 431.43C310.82 431.43 309.539 432.32 309.32 433.641L309.312 433.688H310.672L310.68 433.664C310.898 433.008 311.562 432.633 312.57 432.633C313.828 432.633 314.461 433.195 314.461 434.234V435L312.047 435.148C310.086 435.266 308.977 436.133 308.977 437.633V437.648C308.977 439.18 310.188 440.148 311.789 440.148ZM310.367 437.617V437.602C310.367 436.766 310.93 436.312 312.211 436.234L314.461 436.094V436.859C314.461 438.062 313.453 438.969 312.07 438.969C311.094 438.969 310.367 438.469 310.367 437.617ZM321.297 440.062C321.562 440.062 321.82 440.031 322.086 439.984V438.828C321.836 438.852 321.703 438.859 321.461 438.859C320.586 438.859 320.242 438.461 320.242 437.469V432.703H322.086V431.578H320.242V429.398H318.836V431.578H317.508V432.703H318.836V437.812C318.836 439.422 319.562 440.062 321.297 440.062ZM331.609 440.062C331.875 440.062 332.133 440.031 332.398 439.984V438.828C332.148 438.852 332.016 438.859 331.773 438.859C330.898 438.859 330.555 438.461 330.555 437.469V432.703H332.398V431.578H330.555V429.398H329.148V431.578H327.82V432.703H329.148V437.812C329.148 439.422 329.875 440.062 331.609 440.062ZM334.508 440H335.867V435.016C335.867 433.539 336.719 432.633 338.062 432.633C339.406 432.633 340.031 433.359 340.031 434.875V440H341.391V434.547C341.391 432.547 340.336 431.43 338.445 431.43C337.203 431.43 336.414 431.953 335.992 432.844H335.867V428.234H334.508V440ZM347.289 440.148C349.273 440.148 350.477 439.023 350.766 437.883L350.781 437.82H349.422L349.391 437.891C349.164 438.398 348.461 438.938 347.32 438.938C345.82 438.938 344.859 437.922 344.82 436.18H350.883V435.648C350.883 433.133 349.492 431.43 347.203 431.43C344.914 431.43 343.43 433.211 343.43 435.812V435.82C343.43 438.461 344.883 440.148 347.289 440.148ZM347.195 432.641C348.438 432.641 349.359 433.43 349.5 435.094H344.844C344.992 433.492 345.945 432.641 347.195 432.641ZM90.1719 464.148C92.1953 464.148 93.3281 463.062 93.6719 461.539L93.6875 461.453L92.3438 461.461L92.3281 461.508C92.0156 462.445 91.2969 462.945 90.1641 462.945C88.6641 462.945 87.6953 461.703 87.6953 459.766V459.75C87.6953 457.852 88.6484 456.633 90.1641 456.633C91.375 456.633 92.125 457.305 92.3359 458.133L92.3438 458.156H93.6953L93.6875 458.109C93.4375 456.609 92.2109 455.43 90.1641 455.43C87.8047 455.43 86.3047 457.133 86.3047 459.75V459.766C86.3047 462.438 87.8125 464.148 90.1719 464.148ZM99.1406 464.148C101.539 464.148 103.023 462.492 103.023 459.797V459.781C103.023 457.078 101.539 455.43 99.1406 455.43C96.7422 455.43 95.2578 457.078 95.2578 459.781V459.797C95.2578 462.492 96.7422 464.148 99.1406 464.148ZM99.1406 462.945C97.5469 462.945 96.6484 461.781 96.6484 459.797V459.781C96.6484 457.789 97.5469 456.633 99.1406 456.633C100.734 456.633 101.633 457.789 101.633 459.781V459.797C101.633 461.781 100.734 462.945 99.1406 462.945ZM105.695 464H107.055V456.703H108.969V455.578H107.055V454.68C107.055 453.758 107.445 453.281 108.414 453.281C108.656 453.281 108.883 453.289 109.047 453.32V452.234C108.766 452.18 108.469 452.156 108.141 452.156C106.539 452.156 105.695 452.961 105.695 454.641V455.578H104.297V456.703H105.695V464ZM111.492 464H112.852V456.703H114.766V455.578H112.852V454.68C112.852 453.758 113.242 453.281 114.211 453.281C114.453 453.281 114.68 453.289 114.844 453.32V452.234C114.562 452.18 114.266 452.156 113.938 452.156C112.336 452.156 111.492 452.961 111.492 454.641V455.578H110.094V456.703H111.492V464ZM119.805 464.148C121.789 464.148 122.992 463.023 123.281 461.883L123.297 461.82H121.938L121.906 461.891C121.68 462.398 120.977 462.938 119.836 462.938C118.336 462.938 117.375 461.922 117.336 460.18H123.398V459.648C123.398 457.133 122.008 455.43 119.719 455.43C117.43 455.43 115.945 457.211 115.945 459.812V459.82C115.945 462.461 117.398 464.148 119.805 464.148ZM119.711 456.641C120.953 456.641 121.875 457.43 122.016 459.094H117.359C117.508 457.492 118.461 456.641 119.711 456.641ZM128.945 464.148C130.93 464.148 132.133 463.023 132.422 461.883L132.438 461.82H131.078L131.047 461.891C130.82 462.398 130.117 462.938 128.977 462.938C127.477 462.938 126.516 461.922 126.477 460.18H132.539V459.648C132.539 457.133 131.148 455.43 128.859 455.43C126.57 455.43 125.086 457.211 125.086 459.812V459.82C125.086 462.461 126.539 464.148 128.945 464.148ZM128.852 456.641C130.094 456.641 131.016 457.43 131.156 459.094H126.5C126.648 457.492 127.602 456.641 128.852 456.641ZM142.039 464.148C143.953 464.148 145.414 463.109 145.414 461.609V461.594C145.414 460.391 144.648 459.703 143.062 459.32L141.766 459.008C140.773 458.766 140.352 458.406 140.352 457.836V457.82C140.352 457.078 141.086 456.562 142.086 456.562C143.102 456.562 143.758 457.023 143.938 457.688H145.273C145.086 456.312 143.859 455.43 142.094 455.43C140.305 455.43 138.961 456.484 138.961 457.883V457.891C138.961 459.102 139.672 459.789 141.25 460.164L142.555 460.477C143.594 460.727 144.023 461.125 144.023 461.695V461.711C144.023 462.477 143.219 463.016 142.086 463.016C141.008 463.016 140.336 462.555 140.109 461.852H138.719C138.875 463.242 140.164 464.148 142.039 464.148ZM147.602 464H148.961V459.016C148.961 457.539 149.812 456.633 151.156 456.633C152.5 456.633 153.125 457.359 153.125 458.875V464H154.484V458.547C154.484 456.547 153.43 455.43 151.539 455.43C150.297 455.43 149.508 455.953 149.086 456.844H148.961V452.234H147.602V464ZM160.406 464.148C162.805 464.148 164.289 462.492 164.289 459.797V459.781C164.289 457.078 162.805 455.43 160.406 455.43C158.008 455.43 156.523 457.078 156.523 459.781V459.797C156.523 462.492 158.008 464.148 160.406 464.148ZM160.406 462.945C158.812 462.945 157.914 461.781 157.914 459.797V459.781C157.914 457.789 158.812 456.633 160.406 456.633C162 456.633 162.898 457.789 162.898 459.781V459.797C162.898 461.781 162 462.945 160.406 462.945ZM166.398 466.812H167.758V462.672H167.883C168.344 463.57 169.352 464.148 170.508 464.148C172.648 464.148 174.039 462.438 174.039 459.797V459.781C174.039 457.156 172.641 455.43 170.508 455.43C169.336 455.43 168.398 455.984 167.883 456.922H167.758V455.578H166.398V466.812ZM170.195 462.945C168.664 462.945 167.727 461.742 167.727 459.797V459.781C167.727 457.836 168.664 456.633 170.195 456.633C171.734 456.633 172.648 457.82 172.648 459.781V459.797C172.648 461.758 171.734 462.945 170.195 462.945ZM184.109 464.148C186.133 464.148 187.266 463.062 187.609 461.539L187.625 461.453L186.281 461.461L186.266 461.508C185.953 462.445 185.234 462.945 184.102 462.945C182.602 462.945 181.633 461.703 181.633 459.766V459.75C181.633 457.852 182.586 456.633 184.102 456.633C185.312 456.633 186.062 457.305 186.273 458.133L186.281 458.156H187.633L187.625 458.109C187.375 456.609 186.148 455.43 184.102 455.43C181.742 455.43 180.242 457.133 180.242 459.75V459.766C180.242 462.438 181.75 464.148 184.109 464.148ZM189.695 464H191.055V452.234H189.695V464ZM197.125 464.148C199.523 464.148 201.008 462.492 201.008 459.797V459.781C201.008 457.078 199.523 455.43 197.125 455.43C194.727 455.43 193.242 457.078 193.242 459.781V459.797C193.242 462.492 194.727 464.148 197.125 464.148ZM197.125 462.945C195.531 462.945 194.633 461.781 194.633 459.797V459.781C194.633 457.789 195.531 456.633 197.125 456.633C198.719 456.633 199.617 457.789 199.617 459.781V459.797C199.617 461.781 198.719 462.945 197.125 462.945ZM206.008 464.148C207.922 464.148 209.383 463.109 209.383 461.609V461.594C209.383 460.391 208.617 459.703 207.031 459.32L205.734 459.008C204.742 458.766 204.32 458.406 204.32 457.836V457.82C204.32 457.078 205.055 456.562 206.055 456.562C207.07 456.562 207.727 457.023 207.906 457.688H209.242C209.055 456.312 207.828 455.43 206.062 455.43C204.273 455.43 202.93 456.484 202.93 457.883V457.891C202.93 459.102 203.641 459.789 205.219 460.164L206.523 460.477C207.562 460.727 207.992 461.125 207.992 461.695V461.711C207.992 462.477 207.188 463.016 206.055 463.016C204.977 463.016 204.305 462.555 204.078 461.852H202.688C202.844 463.242 204.133 464.148 206.008 464.148ZM214.93 464.148C216.914 464.148 218.117 463.023 218.406 461.883L218.422 461.82H217.062L217.031 461.891C216.805 462.398 216.102 462.938 214.961 462.938C213.461 462.938 212.5 461.922 212.461 460.18H218.523V459.648C218.523 457.133 217.133 455.43 214.844 455.43C212.555 455.43 211.07 457.211 211.07 459.812V459.82C211.07 462.461 212.523 464.148 214.93 464.148ZM214.836 456.641C216.078 456.641 217 457.43 217.141 459.094H212.484C212.633 457.492 213.586 456.641 214.836 456.641ZM223.523 464.148C225.438 464.148 226.898 463.109 226.898 461.609V461.594C226.898 460.391 226.133 459.703 224.547 459.32L223.25 459.008C222.258 458.766 221.836 458.406 221.836 457.836V457.82C221.836 457.078 222.57 456.562 223.57 456.562C224.586 456.562 225.242 457.023 225.422 457.688H226.758C226.57 456.312 225.344 455.43 223.578 455.43C221.789 455.43 220.445 456.484 220.445 457.883V457.891C220.445 459.102 221.156 459.789 222.734 460.164L224.039 460.477C225.078 460.727 225.508 461.125 225.508 461.695V461.711C225.508 462.477 224.703 463.016 223.57 463.016C222.492 463.016 221.82 462.555 221.594 461.852H220.203C220.359 463.242 221.648 464.148 223.523 464.148ZM231.922 464.062C232.188 464.062 232.445 464.031 232.711 463.984V462.828C232.461 462.852 232.328 462.859 232.086 462.859C231.211 462.859 230.867 462.461 230.867 461.469V456.703H232.711V455.578H230.867V453.398H229.461V455.578H228.133V456.703H229.461V461.812C229.461 463.422 230.188 464.062 231.922 464.062ZM242.234 464.062C242.5 464.062 242.758 464.031 243.023 463.984V462.828C242.773 462.852 242.641 462.859 242.398 462.859C241.523 462.859 241.18 462.461 241.18 461.469V456.703H243.023V455.578H241.18V453.398H239.773V455.578H238.445V456.703H239.773V461.812C239.773 463.422 240.5 464.062 242.234 464.062ZM248.391 464.148C250.789 464.148 252.273 462.492 252.273 459.797V459.781C252.273 457.078 250.789 455.43 248.391 455.43C245.992 455.43 244.508 457.078 244.508 459.781V459.797C244.508 462.492 245.992 464.148 248.391 464.148ZM248.391 462.945C246.797 462.945 245.898 461.781 245.898 459.797V459.781C245.898 457.789 246.797 456.633 248.391 456.633C249.984 456.633 250.883 457.789 250.883 459.781V459.797C250.883 461.781 249.984 462.945 248.391 462.945ZM259.602 466.953C261.094 466.953 261.789 466.406 262.484 464.516L265.773 455.578H264.344L262.039 462.508H261.914L259.602 455.578H258.148L261.266 464.008L261.109 464.508C260.805 465.477 260.336 465.828 259.562 465.828C259.375 465.828 259.164 465.82 259 465.789V466.906C259.188 466.938 259.422 466.953 259.602 466.953ZM270.719 464.148C273.117 464.148 274.602 462.492 274.602 459.797V459.781C274.602 457.078 273.117 455.43 270.719 455.43C268.32 455.43 266.836 457.078 266.836 459.781V459.797C266.836 462.492 268.32 464.148 270.719 464.148ZM270.719 462.945C269.125 462.945 268.227 461.781 268.227 459.797V459.781C268.227 457.789 269.125 456.633 270.719 456.633C272.312 456.633 273.211 457.789 273.211 459.781V459.797C273.211 461.781 272.312 462.945 270.719 462.945ZM279.531 464.148C280.766 464.148 281.617 463.641 282.031 462.742H282.156V464H283.516V455.578H282.156V460.562C282.156 462.039 281.367 462.945 279.883 462.945C278.539 462.945 277.992 462.219 277.992 460.703V455.578H276.633V461.031C276.633 463.023 277.617 464.148 279.531 464.148ZM287.164 464.078C287.727 464.078 288.18 463.617 288.18 463.062C288.18 462.5 287.727 462.047 287.164 462.047C286.609 462.047 286.148 462.5 286.148 463.062C286.148 463.617 286.609 464.078 287.164 464.078ZM75.0781 488H76.4688V479.258H76.5938L82.7109 488H84.0781V476.727H82.6875V485.5H82.5625L76.4453 476.727H75.0781V488ZM90.2422 488.148C92.6406 488.148 94.125 486.492 94.125 483.797V483.781C94.125 481.078 92.6406 479.43 90.2422 479.43C87.8438 479.43 86.3594 481.078 86.3594 483.781V483.797C86.3594 486.492 87.8438 488.148 90.2422 488.148ZM90.2422 486.945C88.6484 486.945 87.75 485.781 87.75 483.797V483.781C87.75 481.789 88.6484 480.633 90.2422 480.633C91.8359 480.633 92.7344 481.789 92.7344 483.781V483.797C92.7344 485.781 91.8359 486.945 90.2422 486.945ZM97.5469 488H98.9062L100.781 481.484H100.906L102.789 488H104.156L106.516 479.578H105.164L103.508 486.312H103.383L101.5 479.578H100.211L98.3281 486.312H98.2031L96.5469 479.578H95.1875L97.5469 488ZM112.891 488H114.25V476.234H112.891V488ZM120.297 488.148C122.281 488.148 123.484 487.023 123.773 485.883L123.789 485.82H122.43L122.398 485.891C122.172 486.398 121.469 486.938 120.328 486.938C118.828 486.938 117.867 485.922 117.828 484.18H123.891V483.648C123.891 481.133 122.5 479.43 120.211 479.43C117.922 479.43 116.438 481.211 116.438 483.812V483.82C116.438 486.461 117.891 488.148 120.297 488.148ZM120.203 480.641C121.445 480.641 122.367 481.43 122.508 483.094H117.852C118 481.492 118.953 480.641 120.203 480.641ZM128.992 488.062C129.258 488.062 129.516 488.031 129.781 487.984V486.828C129.531 486.852 129.398 486.859 129.156 486.859C128.281 486.859 127.938 486.461 127.938 485.469V480.703H129.781V479.578H127.938V477.398H126.531V479.578H125.203V480.703H126.531V485.812C126.531 487.422 127.258 488.062 128.992 488.062ZM132.359 481.172H133.484L133.648 476.727H132.195L132.359 481.172ZM139.453 488.148C141.367 488.148 142.828 487.109 142.828 485.609V485.594C142.828 484.391 142.062 483.703 140.477 483.32L139.18 483.008C138.188 482.766 137.766 482.406 137.766 481.836V481.82C137.766 481.078 138.5 480.562 139.5 480.562C140.516 480.562 141.172 481.023 141.352 481.688H142.688C142.5 480.312 141.273 479.43 139.508 479.43C137.719 479.43 136.375 480.484 136.375 481.883V481.891C136.375 483.102 137.086 483.789 138.664 484.164L139.969 484.477C141.008 484.727 141.438 485.125 141.438 485.695V485.711C141.438 486.477 140.633 487.016 139.5 487.016C138.422 487.016 137.75 486.555 137.523 485.852H136.133C136.289 487.242 137.578 488.148 139.453 488.148ZM152.43 488.062C152.695 488.062 152.953 488.031 153.219 487.984V486.828C152.969 486.852 152.836 486.859 152.594 486.859C151.719 486.859 151.375 486.461 151.375 485.469V480.703H153.219V479.578H151.375V477.398H149.969V479.578H148.641V480.703H149.969V485.812C149.969 487.422 150.695 488.062 152.43 488.062ZM158.562 488.148C160.547 488.148 161.75 487.023 162.039 485.883L162.055 485.82H160.695L160.664 485.891C160.438 486.398 159.734 486.938 158.594 486.938C157.094 486.938 156.133 485.922 156.094 484.18H162.156V483.648C162.156 481.133 160.766 479.43 158.477 479.43C156.188 479.43 154.703 481.211 154.703 483.812V483.82C154.703 486.461 156.156 488.148 158.562 488.148ZM158.469 480.641C159.711 480.641 160.633 481.43 160.773 483.094H156.117C156.266 481.492 157.219 480.641 158.469 480.641ZM164.344 488H165.703V476.234H164.344V488ZM168.391 488H169.75V476.234H168.391V488ZM177.578 490.953C179.07 490.953 179.766 490.406 180.461 488.516L183.75 479.578H182.32L180.016 486.508H179.891L177.578 479.578H176.125L179.242 488.008L179.086 488.508C178.781 489.477 178.312 489.828 177.539 489.828C177.352 489.828 177.141 489.82 176.977 489.789V490.906C177.164 490.938 177.398 490.953 177.578 490.953ZM188.695 488.148C191.094 488.148 192.578 486.492 192.578 483.797V483.781C192.578 481.078 191.094 479.43 188.695 479.43C186.297 479.43 184.812 481.078 184.812 483.781V483.797C184.812 486.492 186.297 488.148 188.695 488.148ZM188.695 486.945C187.102 486.945 186.203 485.781 186.203 483.797V483.781C186.203 481.789 187.102 480.633 188.695 480.633C190.289 480.633 191.188 481.789 191.188 483.781V483.797C191.188 485.781 190.289 486.945 188.695 486.945ZM197.508 488.148C198.742 488.148 199.594 487.641 200.008 486.742H200.133V488H201.492V479.578H200.133V484.562C200.133 486.039 199.344 486.945 197.859 486.945C196.516 486.945 195.969 486.219 195.969 484.703V479.578H194.609V485.031C194.609 487.023 195.594 488.148 197.508 488.148ZM208.609 488H209.969V483.016C209.969 481.539 210.82 480.633 212.164 480.633C213.508 480.633 214.133 481.359 214.133 482.875V488H215.492V482.547C215.492 480.547 214.438 479.43 212.547 479.43C211.305 479.43 210.516 479.953 210.094 480.844H209.969V476.234H208.609V488ZM221.414 488.148C223.812 488.148 225.297 486.492 225.297 483.797V483.781C225.297 481.078 223.812 479.43 221.414 479.43C219.016 479.43 217.531 481.078 217.531 483.781V483.797C217.531 486.492 219.016 488.148 221.414 488.148ZM221.414 486.945C219.82 486.945 218.922 485.781 218.922 483.797V483.781C218.922 481.789 219.82 480.633 221.414 480.633C223.008 480.633 223.906 481.789 223.906 483.781V483.797C223.906 485.781 223.008 486.945 221.414 486.945ZM228.719 488H230.078L231.953 481.484H232.078L233.961 488H235.328L237.688 479.578H236.336L234.68 486.312H234.555L232.672 479.578H231.383L229.5 486.312H229.375L227.719 479.578H226.359L228.719 488ZM244.703 477.953C245.219 477.953 245.641 477.531 245.641 477.016C245.641 476.5 245.219 476.078 244.703 476.078C244.188 476.078 243.766 476.5 243.766 477.016C243.766 477.531 244.188 477.953 244.703 477.953ZM244.016 488H245.375V479.578H244.016V488ZM250.93 488.062C251.195 488.062 251.453 488.031 251.719 487.984V486.828C251.469 486.852 251.336 486.859 251.094 486.859C250.219 486.859 249.875 486.461 249.875 485.469V480.703H251.719V479.578H249.875V477.398H248.469V479.578H247.141V480.703H248.469V485.812C248.469 487.422 249.195 488.062 250.93 488.062ZM259.875 488H261.234L263.109 481.484H263.234L265.117 488H266.484L268.844 479.578H267.492L265.836 486.312H265.711L263.828 479.578H262.539L260.656 486.312H260.531L258.875 479.578H257.516L259.875 488ZM273.789 488.148C276.188 488.148 277.672 486.492 277.672 483.797V483.781C277.672 481.078 276.188 479.43 273.789 479.43C271.391 479.43 269.906 481.078 269.906 483.781V483.797C269.906 486.492 271.391 488.148 273.789 488.148ZM273.789 486.945C272.195 486.945 271.297 485.781 271.297 483.797V483.781C271.297 481.789 272.195 480.633 273.789 480.633C275.383 480.633 276.281 481.789 276.281 483.781V483.797C276.281 485.781 275.383 486.945 273.789 486.945ZM279.781 488H281.141V482.781C281.141 481.547 282.062 480.727 283.359 480.727C283.656 480.727 283.914 480.758 284.195 480.805V479.484C284.062 479.461 283.773 479.43 283.516 479.43C282.375 479.43 281.586 479.945 281.266 480.828H281.141V479.578H279.781V488ZM285.953 488H287.312V484.805L288.102 484.039L291.258 488H292.969L289.055 483.117L292.727 479.578H291.078L287.438 483.258H287.312V476.234H285.953V488ZM297.141 488.148C299.055 488.148 300.516 487.109 300.516 485.609V485.594C300.516 484.391 299.75 483.703 298.164 483.32L296.867 483.008C295.875 482.766 295.453 482.406 295.453 481.836V481.82C295.453 481.078 296.188 480.562 297.188 480.562C298.203 480.562 298.859 481.023 299.039 481.688H300.375C300.188 480.312 298.961 479.43 297.195 479.43C295.406 479.43 294.062 480.484 294.062 481.883V481.891C294.062 483.102 294.773 483.789 296.352 484.164L297.656 484.477C298.695 484.727 299.125 485.125 299.125 485.695V485.711C299.125 486.477 298.32 487.016 297.188 487.016C296.109 487.016 295.438 486.555 295.211 485.852H293.82C293.977 487.242 295.266 488.148 297.141 488.148Z" fill="#636466"/>
<rect x="110" y="560" width="155" height="48" rx="12" fill="#FF5712"/>
<path d="M170.391 590H172.336V582.234H172.461L178 590H179.742V578.727H177.805V586.492H177.68L172.141 578.727H170.391V590ZM185.984 590.172C188.305 590.172 189.445 588.836 189.719 587.734L189.742 587.664H187.891L187.867 587.719C187.68 588.109 187.078 588.641 186.023 588.641C184.703 588.641 183.875 587.75 183.852 586.219H189.82V585.578C189.82 583 188.32 581.297 185.891 581.297C183.461 581.297 181.906 583.055 181.906 585.742V585.75C181.906 588.469 183.445 590.172 185.984 590.172ZM185.914 582.82C187 582.82 187.789 583.516 187.922 584.914H183.867C184.016 583.555 184.828 582.82 185.914 582.82ZM190.773 590H192.867L194.609 587.031H194.742L196.492 590H198.68L195.891 585.68L198.648 581.461H196.516L194.828 584.422H194.695L193 581.461H190.75L193.539 585.766L190.773 590ZM203.75 590.039C204.125 590.039 204.484 590.008 204.766 589.953V588.453C204.531 588.477 204.383 588.484 204.109 588.484C203.297 588.484 202.961 588.125 202.961 587.273V582.969H204.766V581.461H202.961V579.367H200.984V581.461H199.656V582.969H200.984V587.734C200.984 589.383 201.789 590.039 203.75 590.039Z" fill="white"/>
<defs>
<linearGradient id="paint0_linear_4_853" x1="168.811" y1="380.687" x2="65.0742" y2="125.3" gradientUnits="userSpaceOnUse">
<stop stop-color="#FAC7FF"/>
<stop offset="1" stop-color="#FFD2BE"/>
</linearGradient>
<linearGradient id="paint1_linear_4_853" x1="295.33" y1="83.6798" x2="307.294" y2="162.727" gradientUnits="userSpaceOnUse">
<stop stop-color="#FAC7FF"/>
<stop offset="1" stop-color="#FFD2BE"/>
</linearGradient>
</defs>
</svg>
