<svg width="375" height="667" viewBox="0 0 375 667" fill="none" xmlns="http://www.w3.org/2000/svg">
<rect width="375" height="667" fill="white"/>
<path d="M162.268 106.341C93.221 114.104 54.1003 153.566 81.3867 231.708C108.673 309.849 171.99 273.401 245.672 260.996C319.354 248.59 342.513 195.28 312.23 150.984C283.854 109.477 231.316 98.578 162.268 106.341Z" fill="url(#paint0_linear_4_879)"/>
<path d="M48.3299 326.999C45.1196 340.975 65.2576 351.11 78.712 351.274C92.1663 351.437 96.985 339.19 99.2788 323.896C101.572 308.602 88.721 299.248 74.2103 300.989C60.6133 302.619 51.5403 313.022 48.3299 326.999Z" fill="url(#paint1_linear_4_879)"/>
<path d="M167.262 158.989L160.775 154.451L153.646 151.898L147.66 150.94L143.372 150.448C149.285 150.333 155.192 151.584 160.499 154.261C163.007 155.526 165.262 157.129 167.262 158.989ZM186.599 164.749C190.469 173.082 192.283 182.393 191.684 191.567C191 202.04 187.191 212.385 182.298 221.568C179.052 227.659 175.193 233.316 170.999 238.731L160.585 251.192C154.994 257.524 149.23 263.717 143.805 270.123C143.786 270.101 143.769 270.08 143.751 270.06C143.507 269.772 143.265 269.484 143.02 269.198C140.61 266.373 138.144 263.588 135.664 260.813C135.642 260.772 135.609 260.735 135.567 260.705C130.16 254.658 124.687 248.654 119.57 242.38L109.576 228.815C108.341 226.911 107.154 224.971 106.029 222.982C100.837 213.796 97.0536 203.495 95.9006 192.959C94.8843 183.672 96.692 174.151 100.369 165.617C107.738 148.517 123.937 134.978 143.114 135.729C143.161 135.731 143.208 135.731 143.255 135.733C143.314 135.743 143.379 135.748 143.459 135.744C143.481 135.743 143.503 135.743 143.525 135.742C143.532 135.742 143.538 135.742 143.545 135.742C143.596 135.745 143.647 135.744 143.698 135.747C143.75 135.75 143.804 135.743 143.859 135.731C150.559 135.437 156.873 136.874 162.583 139.588C165.441 141.106 168.244 142.839 170.834 144.684C177.534 149.877 182.965 156.922 186.599 164.749ZM174.307 165.9C168.19 155.075 156.163 149.668 144.141 149.741C143.569 149.745 142.998 149.756 142.427 149.784C141.966 149.807 141.506 149.84 141.046 149.879L141.027 149.84C140.333 149.875 139.564 149.925 138.762 149.994C128.069 150.28 118.706 155.76 113.303 165.162C107.811 174.72 106.889 186.765 109.905 197.273C113.077 208.325 121.174 217.158 132.244 220.454C136.022 221.579 140.01 222.029 143.998 221.965C144.416 221.959 144.834 221.948 145.251 221.931C148.593 221.788 151.918 221.296 155.103 220.538C156.703 220.157 158.268 219.663 159.788 219.069C161.25 218.636 162.463 218.146 163.199 217.593C163.311 217.509 163.429 217.418 163.55 217.323C167.489 215.185 170.958 212.246 173.613 208.51C182.034 196.658 181.241 178.171 174.307 165.9ZM167.184 214.076C169.3 212.356 171.097 210.362 172.588 208.167C170.914 210.248 168.971 212.332 167.184 214.076ZM176.743 175.046L178.032 181.265C177.746 179.145 177.311 177.061 176.743 175.046ZM132.782 219.715C129.374 218.38 125.695 216.481 122.662 214.533C125.699 216.87 129.135 218.607 132.782 219.715ZM96.8982 204.393C96.1328 201.703 95.5195 198.97 95.0938 196.213C95.2897 198.714 95.9708 201.537 96.8982 204.393ZM272.55 153.345C271.745 162.072 267.978 169.595 263.048 176.503L250.023 191.799L245.075 197.36C245.057 197.338 245.04 197.318 245.022 197.298C244.986 197.255 244.949 197.212 244.913 197.17C239.538 190.875 233.656 184.766 228.71 178.122L228.573 177.939C223.371 170.914 219.231 163.283 217.861 154.193C215.472 138.336 227.552 119.889 244.463 120.302C244.576 120.304 244.689 120.308 244.802 120.312C244.836 120.316 244.876 120.317 244.916 120.316C244.918 120.316 244.919 120.316 244.921 120.316C244.959 120.318 244.996 120.318 245.033 120.32C245.075 120.322 245.116 120.317 245.16 120.31C262.219 119.615 274.01 137.522 272.55 153.345ZM265.211 142.612C263.193 134.165 256.399 128.162 247.612 128.24C246.83 128.154 246.045 128.11 245.261 128.102C244.649 128.096 244.039 128.118 243.429 128.159C242.999 128.188 242.572 128.229 242.146 128.282C241.011 128.378 239.761 128.542 238.756 128.825C238.037 129.026 236.994 129.442 235.822 130.035C233.517 131.076 231.4 132.534 229.622 134.429C224.313 140.086 223.1 149.184 224.93 156.517C227.068 165.083 235.071 169.754 243.39 170.214C243.945 170.261 244.473 170.3 244.901 170.329C244.901 170.329 245.052 170.299 245.316 170.245C250.245 170.132 255.135 168.539 258.837 165.397C261.149 163.435 262.865 160.953 264.03 158.21C264.031 158.21 264.031 158.208 264.032 158.207C266.094 153.35 266.419 147.674 265.211 142.612Z" fill="#2A2A2B"/>
<path fill-rule="evenodd" clip-rule="evenodd" d="M174.308 165.9C181.241 178.171 182.035 196.658 173.613 208.509C170.958 212.245 167.488 215.184 163.551 217.323C162.338 217.982 161.081 218.564 159.789 219.069C158.269 219.664 156.704 220.158 155.103 220.538C151.919 221.296 148.593 221.789 145.251 221.931C144.834 221.949 144.417 221.959 143.999 221.966C140.011 222.029 136.022 221.579 132.244 220.454C121.175 217.158 113.077 208.325 109.905 197.274C106.889 186.765 107.812 174.721 113.304 165.162C118.706 155.76 128.07 150.28 138.763 149.994C139.171 149.983 139.581 149.978 139.994 149.982C140.345 149.943 140.695 149.909 141.048 149.879C141.507 149.84 141.967 149.808 142.428 149.785C142.998 149.757 143.57 149.745 144.141 149.742C156.164 149.668 168.191 155.075 174.308 165.9ZM132.782 219.715C134.593 220.264 136.454 220.662 138.344 220.9C147.232 222.02 157.403 220.685 165.005 215.682C165.768 215.18 166.49 214.641 167.183 214.077C169.3 212.357 171.097 210.363 172.588 208.168C177.75 200.574 179.296 190.588 178.032 181.266C177.746 179.146 177.311 177.062 176.743 175.047C176.504 174.201 176.246 173.366 175.961 172.548C174.15 167.351 171.21 162.661 167.261 158.99C165.261 157.131 163.006 155.528 160.498 154.263C155.191 151.585 149.284 150.334 143.371 150.449C142.17 150.472 140.968 150.548 139.771 150.684C139.717 150.69 139.672 150.69 139.629 150.69C139.627 150.69 139.623 150.69 139.62 150.69H139.608C131.065 150.583 122.954 153.966 117.515 160.682C112.529 166.837 109.912 174.708 109.494 182.584C108.894 193.896 112.616 205.968 121.389 213.505C121.804 213.861 122.23 214.201 122.662 214.533C125.699 216.871 129.135 218.607 132.782 219.715ZM175.594 189.207C175.252 196.176 173.174 203.279 168.362 208.494C167.115 209.845 165.739 211.022 164.273 212.055C164.272 212.063 164.272 212.071 164.272 212.078C164.272 212.082 164.272 212.085 164.272 212.088C164.262 212.322 163.914 212.496 163.595 212.527C158.54 215.864 152.436 217.481 146.361 217.847C134.047 218.588 122.264 213.837 116.281 202.543C111.139 192.838 110.711 180.508 115.153 170.454C119.705 160.151 129.155 153.828 140.425 153.929C148.892 152.984 157.991 154.999 164.626 160.552C172.925 167.497 176.111 178.649 175.594 189.207ZM150.273 216.726C154.895 216.003 159.323 214.426 163.075 211.895C163.187 207.042 161.519 201.015 156.898 198.617C154.686 197.47 152.256 197.245 149.819 197.021C148.056 196.858 146.29 196.695 144.601 196.181C143.401 200.558 135.476 201.363 134.061 196.891C132.78 198.768 130.647 199.772 128.538 200.765C125.536 202.178 122.581 203.57 122.196 207.426C122.165 207.736 121.807 207.92 121.488 207.93C123.492 210.181 125.843 212.113 128.51 213.57C135.133 217.188 142.899 217.88 150.273 216.726ZM137.74 180.928C136.703 180.397 135.773 180.983 135.275 181.966C134.717 183.064 134.511 184.575 135.211 185.668C135.594 186.266 136.131 186.709 136.742 186.973C137.018 186.926 137.286 186.974 137.317 187.162C137.988 187.318 138.713 187.269 139.399 186.98C139.665 186.869 140.806 186.801 140.081 187.105C139.227 187.464 138.197 187.735 137.202 187.726C136.855 189.03 136.091 190.058 134.901 190.695C134.892 190.703 134.883 190.711 134.874 190.718C134.868 190.723 134.863 190.728 134.857 190.733C134.878 191.593 134.929 192.452 134.98 193.311C135.033 194.198 135.086 195.086 135.106 195.975C135.108 195.98 135.113 195.983 135.113 195.989C135.881 200.419 143.076 200.482 143.538 195.8C143.491 195.781 143.444 195.763 143.397 195.744C143.304 195.707 143.211 195.67 143.119 195.628C142.847 195.503 143.004 195.298 143.272 195.152C143.272 195.147 143.271 195.142 143.27 195.138C143.268 195.131 143.267 195.125 143.267 195.117C143.252 192.673 146.293 191.416 148.764 190.395C149.651 190.028 150.465 189.692 151.038 189.342C155.975 186.325 155.304 179.094 154.672 173.891C152.191 177.23 146.297 177.168 143.41 174.181C143.418 174.359 143.427 174.537 143.436 174.715C143.609 178.255 143.783 181.799 139.983 183.431C139.715 183.661 138.861 183.744 138.866 183.616C138.904 182.637 138.713 181.425 137.74 180.928ZM135.546 180.662C135.546 180.662 135.404 180.761 135.221 180.981C135.524 180.77 135.852 180.601 136.197 180.476C135.818 180.561 135.546 180.662 135.546 180.662ZM159.415 199.133C162.82 202.192 164.248 206.555 164.286 211.025C167.017 208.94 169.329 206.301 170.991 203.036C174.481 196.173 175.116 188.008 173.881 180.479C172.47 171.87 168.324 163.718 160.739 159.04C154.622 155.268 147.331 153.85 140.225 154.654C140.172 154.66 140.13 154.659 140.088 154.659H140.086C140.084 154.659 140.082 154.659 140.08 154.659C140.078 154.659 140.075 154.659 140.073 154.659H140.05C130.387 154.549 121.954 159.599 117.415 168.16C112.145 178.1 111.909 190.912 116.87 201.028C117.984 203.3 119.367 205.443 120.996 207.37C121.346 204.342 123.202 202.338 125.868 200.993C126.444 200.703 127.054 200.432 127.67 200.159C130.136 199.067 132.707 197.927 133.663 195.236C133.7 195.134 133.772 195.052 133.864 194.991C133.839 194.492 133.809 193.994 133.779 193.496C133.737 192.807 133.695 192.118 133.668 191.429C132.376 190.882 131.359 188.611 130.67 187.073C130.521 186.741 130.388 186.444 130.271 186.205C129.104 183.833 127.907 181.379 127.173 178.829C125.887 174.364 129.395 168.505 134.203 170.143H134.239C134.239 170.143 134.33 169.98 134.492 169.706C134.954 164.251 140.081 164.689 144.842 165.095C147.001 165.28 149.085 165.458 150.624 165.076C150.661 165.067 150.695 165.063 150.729 165.059C151.934 163.806 153.28 162.587 154.886 162.181C157.173 161.604 159.391 162.691 160.644 164.705C163.178 168.779 160.107 172.841 155.782 172.856C155.796 172.968 155.81 173.082 155.825 173.197C156.394 177.76 157.246 184.588 153.873 188.101C152.507 189.524 150.691 190.351 148.923 191.156C148.877 191.177 148.831 191.198 148.784 191.219C148.587 191.31 148.372 191.402 148.148 191.498C146.546 192.187 144.455 193.087 144.466 194.974C144.466 195.039 144.434 195.099 144.385 195.154C146.351 195.977 148.518 196.169 150.679 196.361C153.821 196.64 156.948 196.917 159.415 199.133ZM264.029 158.212C262.865 160.954 261.148 163.436 258.837 165.398C255.134 168.54 250.245 170.133 245.316 170.247C244.673 170.261 244.031 170.251 243.389 170.215C235.07 169.755 227.067 165.084 224.929 156.518C223.1 149.185 224.313 140.087 229.621 134.43C231.4 132.536 233.516 131.077 235.821 130.037C237.817 129.135 239.957 128.554 242.145 128.283C242.571 128.23 242.999 128.189 243.428 128.16C244.038 128.119 244.649 128.096 245.261 128.103C246.045 128.111 246.83 128.155 247.612 128.241C256.398 128.162 263.192 134.166 265.21 142.613C266.419 147.675 266.094 153.35 264.031 158.208C264.031 158.21 264.03 158.211 264.029 158.212ZM226.889 140.888C224.292 148.364 224.57 158.507 230.686 164.282C236.593 169.86 247.143 171.178 254.384 167.503C259.751 164.78 263.191 159.404 264.277 153.554C266.414 142.04 260.113 128.832 247.154 128.949C247.081 128.949 247.025 128.942 246.977 128.932C238.355 128.055 229.839 132.389 226.889 140.888ZM247.349 130.518C261.401 130.409 267.289 147.097 261.408 158.377C258.803 163.376 254.083 166.784 248.502 167.603C241.034 168.7 232.49 166.514 228.607 159.543C225.072 153.196 225.714 143.501 229.976 137.669C233.979 132.194 240.729 129.798 247.349 130.518ZM257.536 162.065C257.567 162.079 257.601 162.091 257.636 162.099C255.935 163.886 253.845 165.231 251.514 166.079C249.457 166.911 247.213 167.368 244.863 167.368C242.13 167.368 239.54 166.749 237.22 165.642C236.533 165.362 235.864 165.039 235.22 164.672C235.27 164.657 235.319 164.638 235.365 164.617C235.087 164.441 234.814 164.257 234.546 164.066C234.544 164.131 234.543 164.196 234.542 164.263C233.867 163.832 233.221 163.352 232.616 162.811C231.277 161.615 230.251 160.166 229.486 158.579C227.836 155.822 226.886 152.586 226.886 149.124C226.886 139.048 234.935 130.88 244.863 130.88C246.29 130.88 247.677 131.048 249.008 131.367C254.456 132.039 258.308 135.487 260.44 140.01C261.967 142.692 262.841 145.804 262.841 149.124C262.841 153.05 261.619 156.686 259.54 159.662C259.214 160.178 258.863 160.669 258.487 161.135C258.482 161.106 258.476 161.077 258.471 161.048C258.172 161.399 257.86 161.738 257.536 162.065ZM245.061 198.71C245.058 198.712 245.056 198.714 245.051 198.717C244.041 199.295 242.963 199.832 241.873 200.376C239.143 201.737 236.334 203.137 234.316 205.316C230.762 209.155 235.18 211.952 238.516 213.68C239.138 214.002 239.787 214.318 240.446 214.639C243.19 215.975 246.11 217.396 248.019 219.713C250.5 222.725 250.112 226.433 248.28 229.719C246.864 232.26 244.153 233.899 241.724 235.332C240.748 235.908 239.746 236.458 238.742 237.008C236.386 238.3 234.016 239.599 231.934 241.273C229.494 243.236 227.468 246.322 229.812 249.266C231.672 251.604 234.799 252.272 237.619 252.874C237.888 252.932 238.154 252.988 238.417 253.046C238.618 253.09 238.823 253.135 239.029 253.179C241.836 253.787 245.076 254.488 247.096 256.629C249.476 259.151 250.541 263.676 247.256 265.868C247.016 266.028 245.806 266.129 246.325 265.783C248.897 264.068 248.421 260.469 246.865 258.165C245.745 256.505 244.047 255.454 242.18 254.803C240.715 254.292 239.181 253.969 237.648 253.646C235.634 253.222 233.619 252.798 231.758 251.947C229.512 250.92 227.244 248.866 227.579 246.114C227.915 243.345 230.511 241.407 232.672 239.99C233.941 239.159 235.445 238.358 237.013 237.522C242.445 234.629 248.66 231.319 248.632 224.861C248.615 220.935 245.58 218.51 242.428 216.739C241.547 216.243 240.534 215.778 239.485 215.297C236.824 214.075 233.938 212.751 232.429 210.567C229.205 205.899 237.422 201.907 242.11 199.629C243.027 199.184 243.808 198.804 244.344 198.498C244.377 198.478 244.422 198.461 244.471 198.447C244.453 198.426 244.435 198.404 244.417 198.383L244.403 198.366C244.177 198.489 243.881 198.594 243.743 198.584C239.14 198.273 234.289 199.329 229.877 200.534C226.14 201.555 222.379 202.823 218.999 204.75C216.571 206.135 213.522 208.14 212.843 211.08C212.176 213.972 214.025 216.664 216.176 218.414C216.464 218.648 216.904 218.923 217.397 219.232C218.747 220.076 220.494 221.169 220.596 222.346C220.76 224.231 217.582 225.523 215.89 226.211C215.676 226.297 215.487 226.374 215.331 226.442C212.406 227.704 209.694 228.726 206.541 229.232C204.003 229.639 201.404 229.899 198.795 230.16C193.517 230.689 188.198 231.222 183.257 232.98C179.931 234.163 176.946 236.412 176.086 240.081C175.4 243.007 177.961 244.109 180.242 245.016C180.401 245.079 180.563 245.142 180.728 245.207C182.686 245.973 185.045 246.895 185.949 248.9C186.772 250.723 186.766 252.673 185.292 254.164C181.681 257.814 175.285 258.63 170.365 259.258C170.183 259.281 170.002 259.304 169.824 259.327C166.778 259.719 163.718 259.913 160.66 260.108C158.198 260.264 155.737 260.421 153.283 260.68C150.247 264.072 147.231 267.475 144.307 270.948C144.276 271.007 144.224 271.064 144.155 271.113C144.099 271.153 144.034 271.189 143.964 271.218C143.937 271.228 143.907 271.236 143.877 271.244C143.612 271.332 143.305 271.339 143.169 271.176C140.449 267.944 137.634 264.759 134.79 261.583C123.668 262.475 112.547 263.367 101.426 264.259L101.416 264.26C100.603 264.325 100.813 263.378 101.508 263.322C107.344 262.854 113.18 262.386 119.017 261.918C124.015 261.517 129.014 261.116 134.013 260.715C133.321 259.943 132.628 259.172 131.934 258.4C119.535 244.604 107.032 230.693 99.9906 213.331C98.8132 210.427 97.7614 207.438 96.896 204.393C96.1314 201.704 95.5173 198.97 95.0917 196.213C94.4953 192.351 94.2684 188.442 94.5461 184.539C95.1784 175.669 97.8866 166.911 102.441 159.271C111.198 144.578 126.411 134.136 143.881 134.973C164.881 133.981 182.459 149.326 189.459 168.443C192.505 176.761 193.815 185.853 192.55 194.668C191.078 204.93 187.368 214.837 182.227 223.805C174.923 236.548 165.163 247.431 155.41 258.306C154.874 258.904 154.337 259.502 153.801 260.101C155.827 259.897 157.862 259.78 159.896 259.664C161.671 259.562 163.447 259.461 165.216 259.301C168.796 258.977 172.403 258.575 175.912 257.776L176.069 257.74C178.739 257.133 182.031 256.384 184.021 254.373C185.66 252.716 185.779 250.101 184.153 248.324C182.928 246.987 181.287 246.342 179.646 245.697C178.87 245.392 178.095 245.087 177.364 244.71C175.439 243.717 174.19 242.189 174.995 239.934C175.993 237.144 177.893 234.791 180.578 233.525C185.93 231.001 192.08 230.37 198.01 229.761C199.353 229.624 200.685 229.487 201.994 229.33C202.52 229.266 203.059 229.209 203.604 229.15C206.306 228.86 209.176 228.551 211.61 227.467C211.773 227.394 212.085 227.279 212.492 227.128C214.856 226.251 220.456 224.173 219.24 222.232C218.558 221.145 217.403 220.375 216.251 219.608C215.369 219.02 214.489 218.434 213.825 217.708C212.216 215.947 210.91 213.424 211.73 210.998C213.59 205.499 221.13 202.779 226.072 201.161C231.734 199.307 238.065 197.68 244.089 197.998C242.155 195.727 240.155 193.506 238.154 191.285C233.814 186.465 229.47 181.643 225.794 176.292C220.679 168.849 216.376 159.881 216.383 150.651C216.392 134.839 228.64 118.82 245.336 119.549C261.923 118.893 274.462 135.189 273.891 151.066C273.305 167.356 262.291 179.687 251.864 191.36C249.764 193.71 247.689 196.034 245.727 198.358C245.696 198.416 245.646 198.472 245.578 198.52C245.522 198.561 245.455 198.597 245.383 198.627C245.282 198.668 245.17 198.698 245.061 198.71ZM143.775 270.088C143.785 270.099 143.794 270.111 143.804 270.122C147.28 266.018 150.895 262.002 154.514 257.98C156.544 255.724 158.576 253.467 160.585 251.192C164.175 247.127 167.691 243.004 171 238.73C175.193 233.315 179.053 227.658 182.298 221.567C187.192 212.384 191 202.039 191.684 191.566C192.283 182.392 190.469 173.081 186.6 164.748C182.965 156.922 177.535 149.877 170.833 144.683C168.261 142.69 165.501 140.975 162.583 139.588C156.872 136.873 150.559 135.436 143.859 135.731C143.804 135.742 143.749 135.75 143.697 135.747C143.672 135.745 143.646 135.745 143.621 135.744C143.595 135.744 143.57 135.743 143.544 135.742C143.537 135.741 143.532 135.741 143.525 135.741C143.514 135.742 143.503 135.742 143.492 135.742C143.481 135.742 143.47 135.743 143.459 135.743C143.379 135.748 143.313 135.742 143.254 135.733C143.227 135.732 143.201 135.731 143.174 135.73C143.154 135.73 143.134 135.729 143.114 135.729C123.936 134.977 107.737 148.516 100.369 165.616C96.6914 174.15 94.8838 183.671 95.9 192.959C97.053 203.495 100.836 213.796 106.029 222.982C107.153 224.971 108.34 226.911 109.576 228.815C112.64 233.538 116.018 238.025 119.569 242.38C123.924 247.719 128.536 252.862 133.146 258.003C133.953 258.903 134.761 259.803 135.566 260.704C135.609 260.735 135.641 260.771 135.663 260.813C138.144 263.588 140.61 266.372 143.019 269.197C143.177 269.382 143.335 269.568 143.492 269.754C143.578 269.856 143.664 269.957 143.75 270.059C143.759 270.069 143.767 270.078 143.775 270.088ZM228.574 177.939L228.711 178.121C232.058 182.618 235.835 186.87 239.592 191.1C241.386 193.12 243.176 195.135 244.913 197.17C244.949 197.213 244.986 197.256 245.023 197.299C245.027 197.304 245.032 197.31 245.037 197.316C245.05 197.33 245.062 197.345 245.075 197.36L245.223 197.534C247.066 195.372 249.001 193.213 250.956 191.032C255.138 186.366 259.408 181.602 263.047 176.503C267.977 169.595 271.745 162.072 272.549 153.345C274.01 137.523 262.218 119.615 245.161 120.31C245.117 120.317 245.075 120.321 245.034 120.319C245.013 120.318 244.992 120.318 244.971 120.317C244.955 120.317 244.938 120.316 244.922 120.316H244.917C244.877 120.316 244.837 120.315 244.802 120.312C244.69 120.307 244.577 120.304 244.464 120.301C227.553 119.889 215.472 138.335 217.862 154.193C219.232 163.283 223.372 170.914 228.574 177.939Z" fill="#2A2A2B"/>
<path d="M272.747 150.666C272.747 150.666 258.958 152.248 250.142 150.666C249.464 152.474 249.916 165.585 261.671 164.907C273.425 164.229 272.747 150.666 272.747 150.666Z" stroke="#2A2A2B" stroke-width="0.904202"/>
<path d="M272.295 154.961C272.596 154.509 274.013 153.113 275.46 152.932C277.268 152.706 277.494 159.035 274.781 160.166C272.611 161.07 271.089 159.864 270.939 158.809" stroke="#2A2A2B" stroke-width="0.904202"/>
<path d="M258.779 140.267C259.005 141.624 256.067 143.884 256.519 145.918C256.88 147.546 257.724 148.706 258.101 149.083" stroke="#2A2A2B" stroke-width="0.904202"/>
<path d="M262.396 144.11C261.944 147.049 263.875 148.706 264.252 149.083" stroke="#2A2A2B" stroke-width="0.904202"/>
<path d="M36.9688 416H38.375V405.992H42.0078V404.727H33.3359V405.992H36.9688V416ZM44.0859 416H45.4453V411.016C45.4453 409.539 46.2969 408.633 47.6406 408.633C48.9844 408.633 49.6094 409.359 49.6094 410.875V416H50.9688V410.547C50.9688 408.547 49.9141 407.43 48.0234 407.43C46.7812 407.43 45.9922 407.953 45.5703 408.844H45.4453V404.234H44.0859V416ZM56.8672 416.148C58.8516 416.148 60.0547 415.023 60.3438 413.883L60.3594 413.82H59L58.9688 413.891C58.7422 414.398 58.0391 414.938 56.8984 414.938C55.3984 414.938 54.4375 413.922 54.3984 412.18H60.4609V411.648C60.4609 409.133 59.0703 407.43 56.7812 407.43C54.4922 407.43 53.0078 409.211 53.0078 411.812V411.82C53.0078 414.461 54.4609 416.148 56.8672 416.148ZM56.7734 408.641C58.0156 408.641 58.9375 409.43 59.0781 411.094H54.4219C54.5703 409.492 55.5234 408.641 56.7734 408.641ZM67.0703 416H68.4297V410.781C68.4297 409.594 69.2656 408.633 70.3672 408.633C71.4297 408.633 72.1172 409.281 72.1172 410.281V416H73.4766V410.586C73.4766 409.516 74.25 408.633 75.4219 408.633C76.6094 408.633 77.1797 409.25 77.1797 410.492V416H78.5391V410.18C78.5391 408.414 77.5781 407.43 75.8594 407.43C74.6953 407.43 73.7344 408.016 73.2812 408.906H73.1562C72.7656 408.031 71.9688 407.43 70.8281 407.43C69.7266 407.43 68.9297 407.953 68.5547 408.859H68.4297V407.578H67.0703V416ZM83.3047 416.148C84.4375 416.148 85.3203 415.656 85.8516 414.758H85.9766V416H87.3359V410.234C87.3359 408.484 86.1875 407.43 84.1328 407.43C82.3359 407.43 81.0547 408.32 80.8359 409.641L80.8281 409.688H82.1875L82.1953 409.664C82.4141 409.008 83.0781 408.633 84.0859 408.633C85.3438 408.633 85.9766 409.195 85.9766 410.234V411L83.5625 411.148C81.6016 411.266 80.4922 412.133 80.4922 413.633V413.648C80.4922 415.18 81.7031 416.148 83.3047 416.148ZM81.8828 413.617V413.602C81.8828 412.766 82.4453 412.312 83.7266 412.234L85.9766 412.094V412.859C85.9766 414.062 84.9688 414.969 83.5859 414.969C82.6094 414.969 81.8828 414.469 81.8828 413.617ZM89.8203 418.812H91.1797V414.672H91.3047C91.7656 415.57 92.7734 416.148 93.9297 416.148C96.0703 416.148 97.4609 414.438 97.4609 411.797V411.781C97.4609 409.156 96.0625 407.43 93.9297 407.43C92.7578 407.43 91.8203 407.984 91.3047 408.922H91.1797V407.578H89.8203V418.812ZM93.6172 414.945C92.0859 414.945 91.1484 413.742 91.1484 411.797V411.781C91.1484 409.836 92.0859 408.633 93.6172 408.633C95.1562 408.633 96.0703 409.82 96.0703 411.781V411.797C96.0703 413.758 95.1562 414.945 93.6172 414.945ZM106.977 416.148C108.891 416.148 110.352 415.109 110.352 413.609V413.594C110.352 412.391 109.586 411.703 108 411.32L106.703 411.008C105.711 410.766 105.289 410.406 105.289 409.836V409.82C105.289 409.078 106.023 408.562 107.023 408.562C108.039 408.562 108.695 409.023 108.875 409.688H110.211C110.023 408.312 108.797 407.43 107.031 407.43C105.242 407.43 103.898 408.484 103.898 409.883V409.891C103.898 411.102 104.609 411.789 106.188 412.164L107.492 412.477C108.531 412.727 108.961 413.125 108.961 413.695V413.711C108.961 414.477 108.156 415.016 107.023 415.016C105.945 415.016 105.273 414.555 105.047 413.852H103.656C103.812 415.242 105.102 416.148 106.977 416.148ZM112.539 416H113.898V411.016C113.898 409.539 114.75 408.633 116.094 408.633C117.438 408.633 118.062 409.359 118.062 410.875V416H119.422V410.547C119.422 408.547 118.367 407.43 116.477 407.43C115.234 407.43 114.445 407.953 114.023 408.844H113.898V404.234H112.539V416ZM125.344 416.148C127.742 416.148 129.227 414.492 129.227 411.797V411.781C129.227 409.078 127.742 407.43 125.344 407.43C122.945 407.43 121.461 409.078 121.461 411.781V411.797C121.461 414.492 122.945 416.148 125.344 416.148ZM125.344 414.945C123.75 414.945 122.852 413.781 122.852 411.797V411.781C122.852 409.789 123.75 408.633 125.344 408.633C126.938 408.633 127.836 409.789 127.836 411.781V411.797C127.836 413.781 126.938 414.945 125.344 414.945ZM132.648 416H134.008L135.883 409.484H136.008L137.891 416H139.258L141.617 407.578H140.266L138.609 414.312H138.484L136.602 407.578H135.312L133.43 414.312H133.305L131.648 407.578H130.289L132.648 416ZM146.07 416.148C147.984 416.148 149.445 415.109 149.445 413.609V413.594C149.445 412.391 148.68 411.703 147.094 411.32L145.797 411.008C144.805 410.766 144.383 410.406 144.383 409.836V409.82C144.383 409.078 145.117 408.562 146.117 408.562C147.133 408.562 147.789 409.023 147.969 409.688H149.305C149.117 408.312 147.891 407.43 146.125 407.43C144.336 407.43 142.992 408.484 142.992 409.883V409.891C142.992 411.102 143.703 411.789 145.281 412.164L146.586 412.477C147.625 412.727 148.055 413.125 148.055 413.695V413.711C148.055 414.477 147.25 415.016 146.117 415.016C145.039 415.016 144.367 414.555 144.141 413.852H142.75C142.906 415.242 144.195 416.148 146.07 416.148ZM159.047 416.062C159.312 416.062 159.57 416.031 159.836 415.984V414.828C159.586 414.852 159.453 414.859 159.211 414.859C158.336 414.859 157.992 414.461 157.992 413.469V408.703H159.836V407.578H157.992V405.398H156.586V407.578H155.258V408.703H156.586V413.812C156.586 415.422 157.312 416.062 159.047 416.062ZM161.945 416H163.305V411.016C163.305 409.539 164.156 408.633 165.5 408.633C166.844 408.633 167.469 409.359 167.469 410.875V416H168.828V410.547C168.828 408.547 167.773 407.43 165.883 407.43C164.641 407.43 163.852 407.953 163.43 408.844H163.305V404.234H161.945V416ZM174.727 416.148C176.711 416.148 177.914 415.023 178.203 413.883L178.219 413.82H176.859L176.828 413.891C176.602 414.398 175.898 414.938 174.758 414.938C173.258 414.938 172.297 413.922 172.258 412.18H178.32V411.648C178.32 409.133 176.93 407.43 174.641 407.43C172.352 407.43 170.867 409.211 170.867 411.812V411.82C170.867 414.461 172.32 416.148 174.727 416.148ZM174.633 408.641C175.875 408.641 176.797 409.43 176.938 411.094H172.281C172.43 409.492 173.383 408.641 174.633 408.641ZM184.93 416H186.289V411.016C186.289 409.539 187.141 408.633 188.484 408.633C189.828 408.633 190.453 409.359 190.453 410.875V416H191.812V410.547C191.812 408.547 190.758 407.43 188.867 407.43C187.625 407.43 186.836 407.953 186.414 408.844H186.289V407.578H184.93V416ZM197.711 416.148C199.695 416.148 200.898 415.023 201.188 413.883L201.203 413.82H199.844L199.812 413.891C199.586 414.398 198.883 414.938 197.742 414.938C196.242 414.938 195.281 413.922 195.242 412.18H201.305V411.648C201.305 409.133 199.914 407.43 197.625 407.43C195.336 407.43 193.852 409.211 193.852 411.812V411.82C193.852 414.461 195.305 416.148 197.711 416.148ZM197.617 408.641C198.859 408.641 199.781 409.43 199.922 411.094H195.266C195.414 409.492 196.367 408.641 197.617 408.641ZM205.727 416.148C206.859 416.148 207.742 415.656 208.273 414.758H208.398V416H209.758V410.234C209.758 408.484 208.609 407.43 206.555 407.43C204.758 407.43 203.477 408.32 203.258 409.641L203.25 409.688H204.609L204.617 409.664C204.836 409.008 205.5 408.633 206.508 408.633C207.766 408.633 208.398 409.195 208.398 410.234V411L205.984 411.148C204.023 411.266 202.914 412.133 202.914 413.633V413.648C202.914 415.18 204.125 416.148 205.727 416.148ZM204.305 413.617V413.602C204.305 412.766 204.867 412.312 206.148 412.234L208.398 412.094V412.859C208.398 414.062 207.391 414.969 206.008 414.969C205.031 414.969 204.305 414.469 204.305 413.617ZM212.242 416H213.602V410.781C213.602 409.547 214.523 408.727 215.82 408.727C216.117 408.727 216.375 408.758 216.656 408.805V407.484C216.523 407.461 216.234 407.43 215.977 407.43C214.836 407.43 214.047 407.945 213.727 408.828H213.602V407.578H212.242V416ZM221.539 416.148C223.523 416.148 224.727 415.023 225.016 413.883L225.031 413.82H223.672L223.641 413.891C223.414 414.398 222.711 414.938 221.57 414.938C220.07 414.938 219.109 413.922 219.07 412.18H225.133V411.648C225.133 409.133 223.742 407.43 221.453 407.43C219.164 407.43 217.68 409.211 217.68 411.812V411.82C217.68 414.461 219.133 416.148 221.539 416.148ZM221.445 408.641C222.688 408.641 223.609 409.43 223.75 411.094H219.094C219.242 409.492 220.195 408.641 221.445 408.641ZM230.133 416.148C232.047 416.148 233.508 415.109 233.508 413.609V413.594C233.508 412.391 232.742 411.703 231.156 411.32L229.859 411.008C228.867 410.766 228.445 410.406 228.445 409.836V409.82C228.445 409.078 229.18 408.562 230.18 408.562C231.195 408.562 231.852 409.023 232.031 409.688H233.367C233.18 408.312 231.953 407.43 230.188 407.43C228.398 407.43 227.055 408.484 227.055 409.883V409.891C227.055 411.102 227.766 411.789 229.344 412.164L230.648 412.477C231.688 412.727 232.117 413.125 232.117 413.695V413.711C232.117 414.477 231.312 415.016 230.18 415.016C229.102 415.016 228.43 414.555 228.203 413.852H226.812C226.969 415.242 228.258 416.148 230.133 416.148ZM238.531 416.062C238.797 416.062 239.055 416.031 239.32 415.984V414.828C239.07 414.852 238.938 414.859 238.695 414.859C237.82 414.859 237.477 414.461 237.477 413.469V408.703H239.32V407.578H237.477V405.398H236.07V407.578H234.742V408.703H236.07V413.812C236.07 415.422 236.797 416.062 238.531 416.062ZM249.297 416.148C251.32 416.148 252.453 415.062 252.797 413.539L252.812 413.453L251.469 413.461L251.453 413.508C251.141 414.445 250.422 414.945 249.289 414.945C247.789 414.945 246.82 413.703 246.82 411.766V411.75C246.82 409.852 247.773 408.633 249.289 408.633C250.5 408.633 251.25 409.305 251.461 410.133L251.469 410.156H252.82L252.812 410.109C252.562 408.609 251.336 407.43 249.289 407.43C246.93 407.43 245.43 409.133 245.43 411.75V411.766C245.43 414.438 246.938 416.148 249.297 416.148ZM258.266 416.148C260.664 416.148 262.148 414.492 262.148 411.797V411.781C262.148 409.078 260.664 407.43 258.266 407.43C255.867 407.43 254.383 409.078 254.383 411.781V411.797C254.383 414.492 255.867 416.148 258.266 416.148ZM258.266 414.945C256.672 414.945 255.773 413.781 255.773 411.797V411.781C255.773 409.789 256.672 408.633 258.266 408.633C259.859 408.633 260.758 409.789 260.758 411.781V411.797C260.758 413.781 259.859 414.945 258.266 414.945ZM264.82 416H266.18V408.703H268.094V407.578H266.18V406.68C266.18 405.758 266.57 405.281 267.539 405.281C267.781 405.281 268.008 405.289 268.172 405.32V404.234C267.891 404.18 267.594 404.156 267.266 404.156C265.664 404.156 264.82 404.961 264.82 406.641V407.578H263.422V408.703H264.82V416ZM270.617 416H271.977V408.703H273.891V407.578H271.977V406.68C271.977 405.758 272.367 405.281 273.336 405.281C273.578 405.281 273.805 405.289 273.969 405.32V404.234C273.688 404.18 273.391 404.156 273.062 404.156C271.461 404.156 270.617 404.961 270.617 406.641V407.578H269.219V408.703H270.617V416ZM278.93 416.148C280.914 416.148 282.117 415.023 282.406 413.883L282.422 413.82H281.062L281.031 413.891C280.805 414.398 280.102 414.938 278.961 414.938C277.461 414.938 276.5 413.922 276.461 412.18H282.523V411.648C282.523 409.133 281.133 407.43 278.844 407.43C276.555 407.43 275.07 409.211 275.07 411.812V411.82C275.07 414.461 276.523 416.148 278.93 416.148ZM278.836 408.641C280.078 408.641 281 409.43 281.141 411.094H276.484C276.633 409.492 277.586 408.641 278.836 408.641ZM288.07 416.148C290.055 416.148 291.258 415.023 291.547 413.883L291.562 413.82H290.203L290.172 413.891C289.945 414.398 289.242 414.938 288.102 414.938C286.602 414.938 285.641 413.922 285.602 412.18H291.664V411.648C291.664 409.133 290.273 407.43 287.984 407.43C285.695 407.43 284.211 409.211 284.211 411.812V411.82C284.211 414.461 285.664 416.148 288.07 416.148ZM287.977 408.641C289.219 408.641 290.141 409.43 290.281 411.094H285.625C285.773 409.492 286.727 408.641 287.977 408.641ZM301.164 416.148C303.078 416.148 304.539 415.109 304.539 413.609V413.594C304.539 412.391 303.773 411.703 302.188 411.32L300.891 411.008C299.898 410.766 299.477 410.406 299.477 409.836V409.82C299.477 409.078 300.211 408.562 301.211 408.562C302.227 408.562 302.883 409.023 303.062 409.688H304.398C304.211 408.312 302.984 407.43 301.219 407.43C299.43 407.43 298.086 408.484 298.086 409.883V409.891C298.086 411.102 298.797 411.789 300.375 412.164L301.68 412.477C302.719 412.727 303.148 413.125 303.148 413.695V413.711C303.148 414.477 302.344 415.016 301.211 415.016C300.133 415.016 299.461 414.555 299.234 413.852H297.844C298 415.242 299.289 416.148 301.164 416.148ZM306.727 416H308.086V411.016C308.086 409.539 308.938 408.633 310.281 408.633C311.625 408.633 312.25 409.359 312.25 410.875V416H313.609V410.547C313.609 408.547 312.555 407.43 310.664 407.43C309.422 407.43 308.633 407.953 308.211 408.844H308.086V404.234H306.727V416ZM319.531 416.148C321.93 416.148 323.414 414.492 323.414 411.797V411.781C323.414 409.078 321.93 407.43 319.531 407.43C317.133 407.43 315.648 409.078 315.648 411.781V411.797C315.648 414.492 317.133 416.148 319.531 416.148ZM319.531 414.945C317.938 414.945 317.039 413.781 317.039 411.797V411.781C317.039 409.789 317.938 408.633 319.531 408.633C321.125 408.633 322.023 409.789 322.023 411.781V411.797C322.023 413.781 321.125 414.945 319.531 414.945ZM325.523 418.812H326.883V414.672H327.008C327.469 415.57 328.477 416.148 329.633 416.148C331.773 416.148 333.164 414.438 333.164 411.797V411.781C333.164 409.156 331.766 407.43 329.633 407.43C328.461 407.43 327.523 407.984 327.008 408.922H326.883V407.578H325.523V418.812ZM329.32 414.945C327.789 414.945 326.852 413.742 326.852 411.797V411.781C326.852 409.836 327.789 408.633 329.32 408.633C330.859 408.633 331.773 409.82 331.773 411.781V411.797C331.773 413.758 330.859 414.945 329.32 414.945ZM338.18 416.148C340.094 416.148 341.555 415.109 341.555 413.609V413.594C341.555 412.391 340.789 411.703 339.203 411.32L337.906 411.008C336.914 410.766 336.492 410.406 336.492 409.836V409.82C336.492 409.078 337.227 408.562 338.227 408.562C339.242 408.562 339.898 409.023 340.078 409.688H341.414C341.227 408.312 340 407.43 338.234 407.43C336.445 407.43 335.102 408.484 335.102 409.883V409.891C335.102 411.102 335.812 411.789 337.391 412.164L338.695 412.477C339.734 412.727 340.164 413.125 340.164 413.695V413.711C340.164 414.477 339.359 415.016 338.227 415.016C337.148 415.016 336.477 414.555 336.25 413.852H334.859C335.016 415.242 336.305 416.148 338.18 416.148ZM28.4219 440.062C28.6875 440.062 28.9453 440.031 29.2109 439.984V438.828C28.9609 438.852 28.8281 438.859 28.5859 438.859C27.7109 438.859 27.3672 438.461 27.3672 437.469V432.703H29.2109V431.578H27.3672V429.398H25.9609V431.578H24.6328V432.703H25.9609V437.812C25.9609 439.422 26.6875 440.062 28.4219 440.062ZM34.5781 440.148C36.9766 440.148 38.4609 438.492 38.4609 435.797V435.781C38.4609 433.078 36.9766 431.43 34.5781 431.43C32.1797 431.43 30.6953 433.078 30.6953 435.781V435.797C30.6953 438.492 32.1797 440.148 34.5781 440.148ZM34.5781 438.945C32.9844 438.945 32.0859 437.781 32.0859 435.797V435.781C32.0859 433.789 32.9844 432.633 34.5781 432.633C36.1719 432.633 37.0703 433.789 37.0703 435.781V435.797C37.0703 437.781 36.1719 438.945 34.5781 438.945ZM45.7891 442.953C47.2812 442.953 47.9766 442.406 48.6719 440.516L51.9609 431.578H50.5312L48.2266 438.508H48.1016L45.7891 431.578H44.3359L47.4531 440.008L47.2969 440.508C46.9922 441.477 46.5234 441.828 45.75 441.828C45.5625 441.828 45.3516 441.82 45.1875 441.789V442.906C45.375 442.938 45.6094 442.953 45.7891 442.953ZM56.9062 440.148C59.3047 440.148 60.7891 438.492 60.7891 435.797V435.781C60.7891 433.078 59.3047 431.43 56.9062 431.43C54.5078 431.43 53.0234 433.078 53.0234 435.781V435.797C53.0234 438.492 54.5078 440.148 56.9062 440.148ZM56.9062 438.945C55.3125 438.945 54.4141 437.781 54.4141 435.797V435.781C54.4141 433.789 55.3125 432.633 56.9062 432.633C58.5 432.633 59.3984 433.789 59.3984 435.781V435.797C59.3984 437.781 58.5 438.945 56.9062 438.945ZM65.7188 440.148C66.9531 440.148 67.8047 439.641 68.2188 438.742H68.3438V440H69.7031V431.578H68.3438V436.562C68.3438 438.039 67.5547 438.945 66.0703 438.945C64.7266 438.945 64.1797 438.219 64.1797 436.703V431.578H62.8203V437.031C62.8203 439.023 63.8047 440.148 65.7188 440.148ZM71.8984 442.867H72.9062L74.1328 438.422H72.5781L71.8984 442.867ZM84.9375 440.148C86.9609 440.148 88.0938 439.062 88.4375 437.539L88.4531 437.453L87.1094 437.461L87.0938 437.508C86.7812 438.445 86.0625 438.945 84.9297 438.945C83.4297 438.945 82.4609 437.703 82.4609 435.766V435.75C82.4609 433.852 83.4141 432.633 84.9297 432.633C86.1406 432.633 86.8906 433.305 87.1016 434.133L87.1094 434.156H88.4609L88.4531 434.109C88.2031 432.609 86.9766 431.43 84.9297 431.43C82.5703 431.43 81.0703 433.133 81.0703 435.75V435.766C81.0703 438.438 82.5781 440.148 84.9375 440.148ZM90.5234 440H91.8828V435.016C91.8828 433.539 92.7344 432.633 94.0781 432.633C95.4219 432.633 96.0469 433.359 96.0469 434.875V440H97.4062V434.547C97.4062 432.547 96.3516 431.43 94.4609 431.43C93.2188 431.43 92.4297 431.953 92.0078 432.844H91.8828V428.234H90.5234V440ZM103.328 440.148C105.727 440.148 107.211 438.492 107.211 435.797V435.781C107.211 433.078 105.727 431.43 103.328 431.43C100.93 431.43 99.4453 433.078 99.4453 435.781V435.797C99.4453 438.492 100.93 440.148 103.328 440.148ZM103.328 438.945C101.734 438.945 100.836 437.781 100.836 435.797V435.781C100.836 433.789 101.734 432.633 103.328 432.633C104.922 432.633 105.82 433.789 105.82 435.781V435.797C105.82 437.781 104.922 438.945 103.328 438.945ZM112.781 440.148C115.18 440.148 116.664 438.492 116.664 435.797V435.781C116.664 433.078 115.18 431.43 112.781 431.43C110.383 431.43 108.898 433.078 108.898 435.781V435.797C108.898 438.492 110.383 440.148 112.781 440.148ZM112.781 438.945C111.188 438.945 110.289 437.781 110.289 435.797V435.781C110.289 433.789 111.188 432.633 112.781 432.633C114.375 432.633 115.273 433.789 115.273 435.781V435.797C115.273 437.781 114.375 438.945 112.781 438.945ZM121.664 440.148C123.578 440.148 125.039 439.109 125.039 437.609V437.594C125.039 436.391 124.273 435.703 122.688 435.32L121.391 435.008C120.398 434.766 119.977 434.406 119.977 433.836V433.82C119.977 433.078 120.711 432.562 121.711 432.562C122.727 432.562 123.383 433.023 123.562 433.688H124.898C124.711 432.312 123.484 431.43 121.719 431.43C119.93 431.43 118.586 432.484 118.586 433.883V433.891C118.586 435.102 119.297 435.789 120.875 436.164L122.18 436.477C123.219 436.727 123.648 437.125 123.648 437.695V437.711C123.648 438.477 122.844 439.016 121.711 439.016C120.633 439.016 119.961 438.555 119.734 437.852H118.344C118.5 439.242 119.789 440.148 121.664 440.148ZM130.586 440.148C132.57 440.148 133.773 439.023 134.062 437.883L134.078 437.82H132.719L132.688 437.891C132.461 438.398 131.758 438.938 130.617 438.938C129.117 438.938 128.156 437.922 128.117 436.18H134.18V435.648C134.18 433.133 132.789 431.43 130.5 431.43C128.211 431.43 126.727 433.211 126.727 435.812V435.82C126.727 438.461 128.18 440.148 130.586 440.148ZM130.492 432.641C131.734 432.641 132.656 433.43 132.797 435.094H128.141C128.289 433.492 129.242 432.641 130.492 432.641ZM143.781 440.062C144.047 440.062 144.305 440.031 144.57 439.984V438.828C144.32 438.852 144.188 438.859 143.945 438.859C143.07 438.859 142.727 438.461 142.727 437.469V432.703H144.57V431.578H142.727V429.398H141.32V431.578H139.992V432.703H141.32V437.812C141.32 439.422 142.047 440.062 143.781 440.062ZM146.68 440H148.039V435.016C148.039 433.539 148.891 432.633 150.234 432.633C151.578 432.633 152.203 433.359 152.203 434.875V440H153.562V434.547C153.562 432.547 152.508 431.43 150.617 431.43C149.375 431.43 148.586 431.953 148.164 432.844H148.039V428.234H146.68V440ZM159.461 440.148C161.445 440.148 162.648 439.023 162.938 437.883L162.953 437.82H161.594L161.562 437.891C161.336 438.398 160.633 438.938 159.492 438.938C157.992 438.938 157.031 437.922 156.992 436.18H163.055V435.648C163.055 433.133 161.664 431.43 159.375 431.43C157.086 431.43 155.602 433.211 155.602 435.812V435.82C155.602 438.461 157.055 440.148 159.461 440.148ZM159.367 432.641C160.609 432.641 161.531 433.43 161.672 435.094H157.016C157.164 433.492 158.117 432.641 159.367 432.641ZM169.664 440H171.023V434.781C171.023 433.594 171.859 432.633 172.961 432.633C174.023 432.633 174.711 433.281 174.711 434.281V440H176.07V434.586C176.07 433.516 176.844 432.633 178.016 432.633C179.203 432.633 179.773 433.25 179.773 434.492V440H181.133V434.18C181.133 432.414 180.172 431.43 178.453 431.43C177.289 431.43 176.328 432.016 175.875 432.906H175.75C175.359 432.031 174.562 431.43 173.422 431.43C172.32 431.43 171.523 431.953 171.148 432.859H171.023V431.578H169.664V440ZM187.047 440.148C189.445 440.148 190.93 438.492 190.93 435.797V435.781C190.93 433.078 189.445 431.43 187.047 431.43C184.648 431.43 183.164 433.078 183.164 435.781V435.797C183.164 438.492 184.648 440.148 187.047 440.148ZM187.047 438.945C185.453 438.945 184.555 437.781 184.555 435.797V435.781C184.555 433.789 185.453 432.633 187.047 432.633C188.641 432.633 189.539 433.789 189.539 435.781V435.797C189.539 437.781 188.641 438.945 187.047 438.945ZM195.93 440.148C197.844 440.148 199.305 439.109 199.305 437.609V437.594C199.305 436.391 198.539 435.703 196.953 435.32L195.656 435.008C194.664 434.766 194.242 434.406 194.242 433.836V433.82C194.242 433.078 194.977 432.562 195.977 432.562C196.992 432.562 197.648 433.023 197.828 433.688H199.164C198.977 432.312 197.75 431.43 195.984 431.43C194.195 431.43 192.852 432.484 192.852 433.883V433.891C192.852 435.102 193.562 435.789 195.141 436.164L196.445 436.477C197.484 436.727 197.914 437.125 197.914 437.695V437.711C197.914 438.477 197.109 439.016 195.977 439.016C194.898 439.016 194.227 438.555 194 437.852H192.609C192.766 439.242 194.055 440.148 195.93 440.148ZM204.328 440.062C204.594 440.062 204.852 440.031 205.117 439.984V438.828C204.867 438.852 204.734 438.859 204.492 438.859C203.617 438.859 203.273 438.461 203.273 437.469V432.703H205.117V431.578H203.273V429.398H201.867V431.578H200.539V432.703H201.867V437.812C201.867 439.422 202.594 440.062 204.328 440.062ZM215.094 440.148C217.117 440.148 218.25 439.062 218.594 437.539L218.609 437.453L217.266 437.461L217.25 437.508C216.938 438.445 216.219 438.945 215.086 438.945C213.586 438.945 212.617 437.703 212.617 435.766V435.75C212.617 433.852 213.57 432.633 215.086 432.633C216.297 432.633 217.047 433.305 217.258 434.133L217.266 434.156H218.617L218.609 434.109C218.359 432.609 217.133 431.43 215.086 431.43C212.727 431.43 211.227 433.133 211.227 435.75V435.766C211.227 438.438 212.734 440.148 215.094 440.148ZM224.062 440.148C226.461 440.148 227.945 438.492 227.945 435.797V435.781C227.945 433.078 226.461 431.43 224.062 431.43C221.664 431.43 220.18 433.078 220.18 435.781V435.797C220.18 438.492 221.664 440.148 224.062 440.148ZM224.062 438.945C222.469 438.945 221.57 437.781 221.57 435.797V435.781C221.57 433.789 222.469 432.633 224.062 432.633C225.656 432.633 226.555 433.789 226.555 435.781V435.797C226.555 437.781 225.656 438.945 224.062 438.945ZM230.055 440H231.414V435.016C231.414 433.539 232.266 432.633 233.609 432.633C234.953 432.633 235.578 433.359 235.578 434.875V440H236.938V434.547C236.938 432.547 235.883 431.43 233.992 431.43C232.75 431.43 231.961 431.953 231.539 432.844H231.414V431.578H230.055V440ZM241.469 440H242.844L245.961 431.578H244.523L242.219 438.516H242.094L239.789 431.578H238.352L241.469 440ZM250.883 440.148C252.867 440.148 254.07 439.023 254.359 437.883L254.375 437.82H253.016L252.984 437.891C252.758 438.398 252.055 438.938 250.914 438.938C249.414 438.938 248.453 437.922 248.414 436.18H254.477V435.648C254.477 433.133 253.086 431.43 250.797 431.43C248.508 431.43 247.023 433.211 247.023 435.812V435.82C247.023 438.461 248.477 440.148 250.883 440.148ZM250.789 432.641C252.031 432.641 252.953 433.43 253.094 435.094H248.438C248.586 433.492 249.539 432.641 250.789 432.641ZM256.586 440H257.945V435.016C257.945 433.539 258.797 432.633 260.141 432.633C261.484 432.633 262.109 433.359 262.109 434.875V440H263.469V434.547C263.469 432.547 262.414 431.43 260.523 431.43C259.281 431.43 258.492 431.953 258.07 432.844H257.945V431.578H256.586V440ZM266.648 429.953C267.164 429.953 267.586 429.531 267.586 429.016C267.586 428.5 267.164 428.078 266.648 428.078C266.133 428.078 265.711 428.5 265.711 429.016C265.711 429.531 266.133 429.953 266.648 429.953ZM265.961 440H267.32V431.578H265.961V440ZM273.32 440.148C275.305 440.148 276.508 439.023 276.797 437.883L276.812 437.82H275.453L275.422 437.891C275.195 438.398 274.492 438.938 273.352 438.938C271.852 438.938 270.891 437.922 270.852 436.18H276.914V435.648C276.914 433.133 275.523 431.43 273.234 431.43C270.945 431.43 269.461 433.211 269.461 435.812V435.82C269.461 438.461 270.914 440.148 273.32 440.148ZM273.227 432.641C274.469 432.641 275.391 433.43 275.531 435.094H270.875C271.023 433.492 271.977 432.641 273.227 432.641ZM279.023 440H280.383V435.016C280.383 433.539 281.234 432.633 282.578 432.633C283.922 432.633 284.547 433.359 284.547 434.875V440H285.906V434.547C285.906 432.547 284.852 431.43 282.961 431.43C281.719 431.43 280.93 431.953 280.508 432.844H280.383V431.578H279.023V440ZM291.359 440.062C291.625 440.062 291.883 440.031 292.148 439.984V438.828C291.898 438.852 291.766 438.859 291.523 438.859C290.648 438.859 290.305 438.461 290.305 437.469V432.703H292.148V431.578H290.305V429.398H288.898V431.578H287.57V432.703H288.898V437.812C288.898 439.422 289.625 440.062 291.359 440.062ZM302.141 440.148C304.539 440.148 306.023 438.492 306.023 435.797V435.781C306.023 433.078 304.539 431.43 302.141 431.43C299.742 431.43 298.258 433.078 298.258 435.781V435.797C298.258 438.492 299.742 440.148 302.141 440.148ZM302.141 438.945C300.547 438.945 299.648 437.781 299.648 435.797V435.781C299.648 433.789 300.547 432.633 302.141 432.633C303.734 432.633 304.633 433.789 304.633 435.781V435.797C304.633 437.781 303.734 438.945 302.141 438.945ZM308.133 440H309.492V435.016C309.492 433.539 310.344 432.633 311.688 432.633C313.031 432.633 313.656 433.359 313.656 434.875V440H315.016V434.547C315.016 432.547 313.961 431.43 312.07 431.43C310.828 431.43 310.039 431.953 309.617 432.844H309.492V431.578H308.133V440ZM320.914 440.148C322.898 440.148 324.102 439.023 324.391 437.883L324.406 437.82H323.047L323.016 437.891C322.789 438.398 322.086 438.938 320.945 438.938C319.445 438.938 318.484 437.922 318.445 436.18H324.508V435.648C324.508 433.133 323.117 431.43 320.828 431.43C318.539 431.43 317.055 433.211 317.055 435.812V435.82C317.055 438.461 318.508 440.148 320.914 440.148ZM320.82 432.641C322.062 432.641 322.984 433.43 323.125 435.094H318.469C318.617 433.492 319.57 432.641 320.82 432.641ZM331.68 440H333.039V432.703H334.953V431.578H333.039V430.68C333.039 429.758 333.43 429.281 334.398 429.281C334.641 429.281 334.867 429.289 335.031 429.32V428.234C334.75 428.18 334.453 428.156 334.125 428.156C332.523 428.156 331.68 428.961 331.68 430.641V431.578H330.281V432.703H331.68V440ZM340.016 440.148C342.414 440.148 343.898 438.492 343.898 435.797V435.781C343.898 433.078 342.414 431.43 340.016 431.43C337.617 431.43 336.133 433.078 336.133 435.781V435.797C336.133 438.492 337.617 440.148 340.016 440.148ZM340.016 438.945C338.422 438.945 337.523 437.781 337.523 435.797V435.781C337.523 433.789 338.422 432.633 340.016 432.633C341.609 432.633 342.508 433.789 342.508 435.781V435.797C342.508 437.781 341.609 438.945 340.016 438.945ZM346.008 440H347.367V434.781C347.367 433.547 348.289 432.727 349.586 432.727C349.883 432.727 350.141 432.758 350.422 432.805V431.484C350.289 431.461 350 431.43 349.742 431.43C348.602 431.43 347.812 431.945 347.492 432.828H347.367V431.578H346.008V440ZM28.7109 466.953C30.2031 466.953 30.8984 466.406 31.5938 464.516L34.8828 455.578H33.4531L31.1484 462.508H31.0234L28.7109 455.578H27.2578L30.375 464.008L30.2188 464.508C29.9141 465.477 29.4453 465.828 28.6719 465.828C28.4844 465.828 28.2734 465.82 28.1094 465.789V466.906C28.2969 466.938 28.5312 466.953 28.7109 466.953ZM39.8281 464.148C42.2266 464.148 43.7109 462.492 43.7109 459.797V459.781C43.7109 457.078 42.2266 455.43 39.8281 455.43C37.4297 455.43 35.9453 457.078 35.9453 459.781V459.797C35.9453 462.492 37.4297 464.148 39.8281 464.148ZM39.8281 462.945C38.2344 462.945 37.3359 461.781 37.3359 459.797V459.781C37.3359 457.789 38.2344 456.633 39.8281 456.633C41.4219 456.633 42.3203 457.789 42.3203 459.781V459.797C42.3203 461.781 41.4219 462.945 39.8281 462.945ZM48.6406 464.148C49.875 464.148 50.7266 463.641 51.1406 462.742H51.2656V464H52.625V455.578H51.2656V460.562C51.2656 462.039 50.4766 462.945 48.9922 462.945C47.6484 462.945 47.1016 462.219 47.1016 460.703V455.578H45.7422V461.031C45.7422 463.023 46.7266 464.148 48.6406 464.148ZM56.2734 464.078C56.8359 464.078 57.2891 463.617 57.2891 463.062C57.2891 462.5 56.8359 462.047 56.2734 462.047C55.7188 462.047 55.2578 462.5 55.2578 463.062C55.2578 463.617 55.7188 464.078 56.2734 464.078ZM67.5156 464H68.9219V453.992H72.5547V452.727H63.8828V453.992H67.5156V464ZM74.6328 464H75.9922V459.016C75.9922 457.539 76.8438 456.633 78.1875 456.633C79.5312 456.633 80.1562 457.359 80.1562 458.875V464H81.5156V458.547C81.5156 456.547 80.4609 455.43 78.5703 455.43C77.3281 455.43 76.5391 455.953 76.1172 456.844H75.9922V452.234H74.6328V464ZM87.4141 464.148C89.3984 464.148 90.6016 463.023 90.8906 461.883L90.9062 461.82H89.5469L89.5156 461.891C89.2891 462.398 88.5859 462.938 87.4453 462.938C85.9453 462.938 84.9844 461.922 84.9453 460.18H91.0078V459.648C91.0078 457.133 89.6172 455.43 87.3281 455.43C85.0391 455.43 83.5547 457.211 83.5547 459.812V459.82C83.5547 462.461 85.0078 464.148 87.4141 464.148ZM87.3203 456.641C88.5625 456.641 89.4844 457.43 89.625 459.094H84.9688C85.1172 457.492 86.0703 456.641 87.3203 456.641ZM99.9297 464.148C101.062 464.148 101.945 463.656 102.477 462.758H102.602V464H103.961V458.234C103.961 456.484 102.812 455.43 100.758 455.43C98.9609 455.43 97.6797 456.32 97.4609 457.641L97.4531 457.688H98.8125L98.8203 457.664C99.0391 457.008 99.7031 456.633 100.711 456.633C101.969 456.633 102.602 457.195 102.602 458.234V459L100.188 459.148C98.2266 459.266 97.1172 460.133 97.1172 461.633V461.648C97.1172 463.18 98.3281 464.148 99.9297 464.148ZM98.5078 461.617V461.602C98.5078 460.766 99.0703 460.312 100.352 460.234L102.602 460.094V460.859C102.602 462.062 101.594 462.969 100.211 462.969C99.2344 462.969 98.5078 462.469 98.5078 461.617ZM106.445 466.812H107.805V462.672H107.93C108.391 463.57 109.398 464.148 110.555 464.148C112.695 464.148 114.086 462.438 114.086 459.797V459.781C114.086 457.156 112.688 455.43 110.555 455.43C109.383 455.43 108.445 455.984 107.93 456.922H107.805V455.578H106.445V466.812ZM110.242 462.945C108.711 462.945 107.773 461.742 107.773 459.797V459.781C107.773 457.836 108.711 456.633 110.242 456.633C111.781 456.633 112.695 457.82 112.695 459.781V459.797C112.695 461.758 111.781 462.945 110.242 462.945ZM116.211 466.812H117.57V462.672H117.695C118.156 463.57 119.164 464.148 120.32 464.148C122.461 464.148 123.852 462.438 123.852 459.797V459.781C123.852 457.156 122.453 455.43 120.32 455.43C119.148 455.43 118.211 455.984 117.695 456.922H117.57V455.578H116.211V466.812ZM120.008 462.945C118.477 462.945 117.539 461.742 117.539 459.797V459.781C117.539 457.836 118.477 456.633 120.008 456.633C121.547 456.633 122.461 457.82 122.461 459.781V459.797C122.461 461.758 121.547 462.945 120.008 462.945ZM132.102 464H133.461L135.336 457.484H135.461L137.344 464H138.711L141.07 455.578H139.719L138.062 462.312H137.938L136.055 455.578H134.766L132.883 462.312H132.758L131.102 455.578H129.742L132.102 464ZM143.586 453.953C144.102 453.953 144.523 453.531 144.523 453.016C144.523 452.5 144.102 452.078 143.586 452.078C143.07 452.078 142.648 452.5 142.648 453.016C142.648 453.531 143.07 453.953 143.586 453.953ZM142.898 464H144.258V455.578H142.898V464ZM146.898 464H148.258V452.234H146.898V464ZM150.945 464H152.305V452.234H150.945V464ZM162.406 464.062C162.672 464.062 162.93 464.031 163.195 463.984V462.828C162.945 462.852 162.812 462.859 162.57 462.859C161.695 462.859 161.352 462.461 161.352 461.469V456.703H163.195V455.578H161.352V453.398H159.945V455.578H158.617V456.703H159.945V461.812C159.945 463.422 160.672 464.062 162.406 464.062ZM168.539 464.148C170.523 464.148 171.727 463.023 172.016 461.883L172.031 461.82H170.672L170.641 461.891C170.414 462.398 169.711 462.938 168.57 462.938C167.07 462.938 166.109 461.922 166.07 460.18H172.133V459.648C172.133 457.133 170.742 455.43 168.453 455.43C166.164 455.43 164.68 457.211 164.68 459.812V459.82C164.68 462.461 166.133 464.148 168.539 464.148ZM168.445 456.641C169.688 456.641 170.609 457.43 170.75 459.094H166.094C166.242 457.492 167.195 456.641 168.445 456.641ZM174.32 464H175.68V452.234H174.32V464ZM178.367 464H179.727V452.234H178.367V464ZM187.555 466.953C189.047 466.953 189.742 466.406 190.438 464.516L193.727 455.578H192.297L189.992 462.508H189.867L187.555 455.578H186.102L189.219 464.008L189.062 464.508C188.758 465.477 188.289 465.828 187.516 465.828C187.328 465.828 187.117 465.82 186.953 465.789V466.906C187.141 466.938 187.375 466.953 187.555 466.953ZM198.672 464.148C201.07 464.148 202.555 462.492 202.555 459.797V459.781C202.555 457.078 201.07 455.43 198.672 455.43C196.273 455.43 194.789 457.078 194.789 459.781V459.797C194.789 462.492 196.273 464.148 198.672 464.148ZM198.672 462.945C197.078 462.945 196.18 461.781 196.18 459.797V459.781C196.18 457.789 197.078 456.633 198.672 456.633C200.266 456.633 201.164 457.789 201.164 459.781V459.797C201.164 461.781 200.266 462.945 198.672 462.945ZM207.484 464.148C208.719 464.148 209.57 463.641 209.984 462.742H210.109V464H211.469V455.578H210.109V460.562C210.109 462.039 209.32 462.945 207.836 462.945C206.492 462.945 205.945 462.219 205.945 460.703V455.578H204.586V461.031C204.586 463.023 205.57 464.148 207.484 464.148ZM218.586 464H219.945V459.016C219.945 457.539 220.797 456.633 222.141 456.633C223.484 456.633 224.109 457.359 224.109 458.875V464H225.469V458.547C225.469 456.547 224.414 455.43 222.523 455.43C221.281 455.43 220.492 455.953 220.07 456.844H219.945V452.234H218.586V464ZM231.391 464.148C233.789 464.148 235.273 462.492 235.273 459.797V459.781C235.273 457.078 233.789 455.43 231.391 455.43C228.992 455.43 227.508 457.078 227.508 459.781V459.797C227.508 462.492 228.992 464.148 231.391 464.148ZM231.391 462.945C229.797 462.945 228.898 461.781 228.898 459.797V459.781C228.898 457.789 229.797 456.633 231.391 456.633C232.984 456.633 233.883 457.789 233.883 459.781V459.797C233.883 461.781 232.984 462.945 231.391 462.945ZM238.695 464H240.055L241.93 457.484H242.055L243.938 464H245.305L247.664 455.578H246.312L244.656 462.312H244.531L242.648 455.578H241.359L239.477 462.312H239.352L237.695 455.578H236.336L238.695 464ZM254.039 464H255.398V452.234H254.039V464ZM261.469 464.148C263.867 464.148 265.352 462.492 265.352 459.797V459.781C265.352 457.078 263.867 455.43 261.469 455.43C259.07 455.43 257.586 457.078 257.586 459.781V459.797C257.586 462.492 259.07 464.148 261.469 464.148ZM261.469 462.945C259.875 462.945 258.977 461.781 258.977 459.797V459.781C258.977 457.789 259.875 456.633 261.469 456.633C263.062 456.633 263.961 457.789 263.961 459.781V459.797C263.961 461.781 263.062 462.945 261.469 462.945ZM267.461 464H268.82V459.016C268.82 457.539 269.672 456.633 271.016 456.633C272.359 456.633 272.984 457.359 272.984 458.875V464H274.344V458.547C274.344 456.547 273.289 455.43 271.398 455.43C270.156 455.43 269.367 455.953 268.945 456.844H268.82V455.578H267.461V464ZM280.273 466.969C282.57 466.969 284.023 465.766 284.023 463.883V455.578H282.664V456.969H282.57C282.055 456.016 281.133 455.43 279.945 455.43C277.742 455.43 276.383 457.141 276.383 459.5V459.516C276.383 461.875 277.734 463.562 279.914 463.562C281.07 463.562 282.023 463.039 282.555 462.109H282.68V463.812C282.68 465.055 281.781 465.766 280.273 465.766C279.062 465.766 278.312 465.312 278.164 464.672L278.156 464.664H276.75L276.734 464.672C276.945 466.055 278.242 466.969 280.273 466.969ZM280.211 462.359C278.648 462.359 277.773 461.188 277.773 459.516V459.5C277.773 457.828 278.648 456.633 280.211 456.633C281.766 456.633 282.711 457.828 282.711 459.5V459.516C282.711 461.188 281.773 462.359 280.211 462.359ZM294.047 464.062C294.312 464.062 294.57 464.031 294.836 463.984V462.828C294.586 462.852 294.453 462.859 294.211 462.859C293.336 462.859 292.992 462.461 292.992 461.469V456.703H294.836V455.578H292.992V453.398H291.586V455.578H290.258V456.703H291.586V461.812C291.586 463.422 292.312 464.062 294.047 464.062ZM300.203 464.148C302.602 464.148 304.086 462.492 304.086 459.797V459.781C304.086 457.078 302.602 455.43 300.203 455.43C297.805 455.43 296.32 457.078 296.32 459.781V459.797C296.32 462.492 297.805 464.148 300.203 464.148ZM300.203 462.945C298.609 462.945 297.711 461.781 297.711 459.797V459.781C297.711 457.789 298.609 456.633 300.203 456.633C301.797 456.633 302.695 457.789 302.695 459.781V459.797C302.695 461.781 301.797 462.945 300.203 462.945ZM314.164 466.969C316.461 466.969 317.914 465.766 317.914 463.883V455.578H316.555V456.969H316.461C315.945 456.016 315.023 455.43 313.836 455.43C311.633 455.43 310.273 457.141 310.273 459.5V459.516C310.273 461.875 311.625 463.562 313.805 463.562C314.961 463.562 315.914 463.039 316.445 462.109H316.57V463.812C316.57 465.055 315.672 465.766 314.164 465.766C312.953 465.766 312.203 465.312 312.055 464.672L312.047 464.664H310.641L310.625 464.672C310.836 466.055 312.133 466.969 314.164 466.969ZM314.102 462.359C312.539 462.359 311.664 461.188 311.664 459.516V459.5C311.664 457.828 312.539 456.633 314.102 456.633C315.656 456.633 316.602 457.828 316.602 459.5V459.516C316.602 461.188 315.664 462.359 314.102 462.359ZM323.906 464.148C326.305 464.148 327.789 462.492 327.789 459.797V459.781C327.789 457.078 326.305 455.43 323.906 455.43C321.508 455.43 320.023 457.078 320.023 459.781V459.797C320.023 462.492 321.508 464.148 323.906 464.148ZM323.906 462.945C322.312 462.945 321.414 461.781 321.414 459.797V459.781C321.414 457.789 322.312 456.633 323.906 456.633C325.5 456.633 326.398 457.789 326.398 459.781V459.797C326.398 461.781 325.5 462.945 323.906 462.945ZM337.391 464.062C337.656 464.062 337.914 464.031 338.18 463.984V462.828C337.93 462.852 337.797 462.859 337.555 462.859C336.68 462.859 336.336 462.461 336.336 461.469V456.703H338.18V455.578H336.336V453.398H334.93V455.578H333.602V456.703H334.93V461.812C334.93 463.422 335.656 464.062 337.391 464.062ZM343.547 464.148C345.945 464.148 347.43 462.492 347.43 459.797V459.781C347.43 457.078 345.945 455.43 343.547 455.43C341.148 455.43 339.664 457.078 339.664 459.781V459.797C339.664 462.492 341.148 464.148 343.547 464.148ZM343.547 462.945C341.953 462.945 341.055 461.781 341.055 459.797V459.781C341.055 457.789 341.953 456.633 343.547 456.633C345.141 456.633 346.039 457.789 346.039 459.781V459.797C346.039 461.781 345.141 462.945 343.547 462.945ZM182.227 477.953C182.742 477.953 183.164 477.531 183.164 477.016C183.164 476.5 182.742 476.078 182.227 476.078C181.711 476.078 181.289 476.5 181.289 477.016C181.289 477.531 181.711 477.953 182.227 477.953ZM181.539 488H182.898V479.578H181.539V488ZM188.453 488.062C188.719 488.062 188.977 488.031 189.242 487.984V486.828C188.992 486.852 188.859 486.859 188.617 486.859C187.742 486.859 187.398 486.461 187.398 485.469V480.703H189.242V479.578H187.398V477.398H185.992V479.578H184.664V480.703H185.992V485.812C185.992 487.422 186.719 488.062 188.453 488.062ZM192.383 488.078C192.945 488.078 193.398 487.617 193.398 487.062C193.398 486.5 192.945 486.047 192.383 486.047C191.828 486.047 191.367 486.5 191.367 487.062C191.367 487.617 191.828 488.078 192.383 488.078Z" fill="#636466"/>
<path d="M80.2497 384.244C83.8044 384.244 85.9333 382.525 85.9333 379.82V379.811C85.9333 377.594 84.6052 376.393 81.656 375.807L80.1618 375.504C78.5407 375.182 77.8181 374.664 77.8181 373.775V373.766C77.8181 372.76 78.7263 372.066 80.24 372.057C81.695 372.057 82.7107 372.73 82.8571 373.834L82.8669 373.951H85.6501L85.6403 373.766C85.5036 371.295 83.5017 369.664 80.24 369.664C77.115 369.664 74.8689 371.363 74.8689 373.941V373.951C74.8689 376.07 76.2751 377.398 79.0583 377.955L80.5427 378.248C82.2907 378.609 82.9841 379.088 82.9841 380.045V380.055C82.9841 381.129 81.9587 381.842 80.3278 381.842C78.7165 381.842 77.5544 381.158 77.3689 380.064L77.3493 379.957H74.5661L74.5759 380.113C74.7419 382.711 76.9001 384.244 80.2497 384.244ZM92.5879 384.215C95.5762 384.215 97.0215 382.447 97.3438 380.904L97.373 380.797H94.7559L94.7363 380.855C94.5312 381.441 93.8184 382.086 92.6465 382.086C91.1914 382.086 90.2832 381.109 90.2539 379.439H97.4609V378.561C97.4609 375.396 95.5371 373.316 92.4707 373.316C89.4043 373.316 87.4414 375.445 87.4414 378.775V378.785C87.4414 382.135 89.3848 384.215 92.5879 384.215ZM92.5195 375.445C93.7012 375.445 94.5508 376.197 94.7266 377.643H90.2832C90.4688 376.227 91.3477 375.445 92.5195 375.445ZM102.377 384.166C103.754 384.166 104.867 383.512 105.463 382.438H105.522V384H108.373V376.822C108.373 374.713 106.625 373.316 103.92 373.316C101.157 373.316 99.4964 374.703 99.3401 376.637L99.3304 376.754H101.938L101.957 376.666C102.094 375.992 102.739 375.494 103.803 375.494C104.916 375.494 105.522 376.07 105.522 376.998V377.643L102.934 377.799C100.336 377.965 98.8616 379.078 98.8616 380.982V381.002C98.8616 382.848 100.278 384.166 102.377 384.166ZM101.684 380.855V380.836C101.684 380.094 102.26 379.625 103.364 379.557L105.522 379.42V380.172C105.522 381.266 104.584 382.086 103.305 382.086C102.319 382.086 101.684 381.627 101.684 380.855ZM110.545 384H113.397V378.141C113.397 376.617 114.217 375.777 115.624 375.777C116.034 375.777 116.424 375.836 116.659 375.934V373.424C116.444 373.365 116.151 373.316 115.838 373.316C114.618 373.316 113.768 374.068 113.456 375.357H113.397V373.531H110.545V384ZM122.591 384.215C125.384 384.215 127.19 382.477 127.327 380.191V380.133H124.671L124.661 380.221C124.466 381.275 123.753 381.979 122.61 381.979C121.204 381.979 120.325 380.816 120.325 378.766V378.756C120.325 376.754 121.204 375.553 122.6 375.553C123.782 375.553 124.475 376.314 124.651 377.311L124.671 377.398H127.317V377.33C127.21 375.064 125.403 373.316 122.561 373.316C119.427 373.316 117.425 375.396 117.425 378.746V378.756C117.425 382.135 119.397 384.215 122.591 384.215ZM129.099 384H131.95V378.004C131.95 376.637 132.761 375.68 134.021 375.68C135.319 375.68 136.042 376.549 136.042 378.014V384H138.894V377.428C138.894 374.898 137.487 373.316 135.222 373.316C133.65 373.316 132.546 374.039 132.009 375.338H131.95V369.908H129.099V384ZM146.109 384H148.961V375.68H150.972V373.531H148.892V372.799C148.892 372.047 149.312 371.646 150.259 371.646C150.523 371.646 150.797 371.656 150.992 371.695V369.811C150.66 369.742 150.084 369.693 149.556 369.693C147.086 369.693 146.109 370.641 146.109 372.691V373.531H144.683V375.68H146.109V384ZM156.865 384.215C160.029 384.215 162.051 382.184 162.051 378.766V378.746C162.051 375.357 159.99 373.316 156.855 373.316C153.73 373.316 151.68 375.377 151.68 378.746V378.766C151.68 382.174 153.682 384.215 156.865 384.215ZM156.875 381.979C155.469 381.979 154.58 380.816 154.58 378.766V378.746C154.58 376.725 155.479 375.553 156.855 375.553C158.242 375.553 159.15 376.725 159.15 378.746V378.766C159.15 380.807 158.262 381.979 156.875 381.979ZM163.852 384H166.703V378.141C166.703 376.617 167.524 375.777 168.93 375.777C169.34 375.777 169.731 375.836 169.965 375.934V373.424C169.75 373.365 169.457 373.316 169.145 373.316C167.924 373.316 167.074 374.068 166.762 375.357H166.703V373.531H163.852V384ZM178.87 384.166C180.247 384.166 181.36 383.512 181.956 382.438H182.014V384H184.866V376.822C184.866 374.713 183.118 373.316 180.413 373.316C177.649 373.316 175.989 374.703 175.833 376.637L175.823 376.754H178.431L178.45 376.666C178.587 375.992 179.231 375.494 180.296 375.494C181.409 375.494 182.014 376.07 182.014 376.998V377.643L179.427 377.799C176.829 377.965 175.354 379.078 175.354 380.982V381.002C175.354 382.848 176.77 384.166 178.87 384.166ZM178.177 380.855V380.836C178.177 380.094 178.753 379.625 179.856 379.557L182.014 379.42V380.172C182.014 381.266 181.077 382.086 179.798 382.086C178.811 382.086 178.177 381.627 178.177 380.855ZM196.115 384.215C198.908 384.215 200.714 382.477 200.851 380.191V380.133H198.195L198.185 380.221C197.99 381.275 197.277 381.979 196.134 381.979C194.728 381.979 193.849 380.816 193.849 378.766V378.756C193.849 376.754 194.728 375.553 196.124 375.553C197.306 375.553 197.999 376.314 198.175 377.311L198.195 377.398H200.841V377.33C200.734 375.064 198.927 373.316 196.085 373.316C192.951 373.316 190.949 375.396 190.949 378.746V378.756C190.949 382.135 192.921 384.215 196.115 384.215ZM207.359 384.215C210.523 384.215 212.545 382.184 212.545 378.766V378.746C212.545 375.357 210.484 373.316 207.349 373.316C204.224 373.316 202.174 375.377 202.174 378.746V378.766C202.174 382.174 204.176 384.215 207.359 384.215ZM207.369 381.979C205.963 381.979 205.074 380.816 205.074 378.766V378.746C205.074 376.725 205.972 375.553 207.349 375.553C208.736 375.553 209.644 376.725 209.644 378.746V378.766C209.644 380.807 208.756 381.979 207.369 381.979ZM215.107 384H217.959V375.68H219.971V373.531H217.891V372.799C217.891 372.047 218.311 371.646 219.258 371.646C219.521 371.646 219.795 371.656 219.99 371.695V369.811C219.658 369.742 219.082 369.693 218.555 369.693C216.084 369.693 215.107 370.641 215.107 372.691V373.531H213.682V375.68H215.107V384ZM222.563 384H225.414V375.68H227.426V373.531H225.346V372.799C225.346 372.047 225.766 371.646 226.713 371.646C226.977 371.646 227.25 371.656 227.446 371.695V369.811C227.114 369.742 226.537 369.693 226.01 369.693C223.539 369.693 222.563 370.641 222.563 372.691V373.531H221.137V375.68H222.563V384ZM233.28 384.215C236.268 384.215 237.713 382.447 238.036 380.904L238.065 380.797H235.448L235.428 380.855C235.223 381.441 234.51 382.086 233.338 382.086C231.883 382.086 230.975 381.109 230.946 379.439H238.153V378.561C238.153 375.396 236.229 373.316 233.163 373.316C230.096 373.316 228.133 375.445 228.133 378.775V378.785C228.133 382.135 230.077 384.215 233.28 384.215ZM233.211 375.445C234.393 375.445 235.243 376.197 235.419 377.643H230.975C231.161 376.227 232.04 375.445 233.211 375.445ZM244.72 384.215C247.708 384.215 249.153 382.447 249.475 380.904L249.505 380.797H246.888L246.868 380.855C246.663 381.441 245.95 382.086 244.778 382.086C243.323 382.086 242.415 381.109 242.386 379.439H249.593V378.561C249.593 375.396 247.669 373.316 244.602 373.316C241.536 373.316 239.573 375.445 239.573 378.775V378.785C239.573 382.135 241.516 384.215 244.72 384.215ZM244.651 375.445C245.833 375.445 246.682 376.197 246.858 377.643H242.415C242.6 376.227 243.479 375.445 244.651 375.445ZM259.992 384.215C262.687 384.215 264.572 382.867 264.572 380.816V380.807C264.572 379.264 263.673 378.404 261.486 377.945L259.708 377.564C258.654 377.34 258.292 376.988 258.292 376.451V376.441C258.292 375.768 258.908 375.328 259.894 375.328C260.949 375.328 261.564 375.895 261.662 376.646L261.671 376.725H264.298V376.627C264.23 374.791 262.677 373.316 259.894 373.316C257.228 373.316 255.509 374.605 255.509 376.598V376.607C255.509 378.17 256.535 379.186 258.566 379.615L260.343 379.986C261.369 380.211 261.72 380.533 261.72 381.09V381.1C261.72 381.773 261.066 382.193 259.992 382.193C258.849 382.193 258.234 381.715 258.048 380.895L258.029 380.807H255.246L255.255 380.895C255.48 382.877 257.091 384.215 259.992 384.215ZM266.373 384H269.224V378.004C269.224 376.637 270.035 375.68 271.295 375.68C272.593 375.68 273.316 376.549 273.316 378.014V384H276.168V377.428C276.168 374.898 274.761 373.316 272.496 373.316C270.924 373.316 269.82 374.039 269.283 375.338H269.224V369.908H266.373V384ZM283.135 384.215C286.299 384.215 288.32 382.184 288.32 378.766V378.746C288.32 375.357 286.26 373.316 283.125 373.316C280 373.316 277.949 375.377 277.949 378.746V378.766C277.949 382.174 279.951 384.215 283.135 384.215ZM283.145 381.979C281.738 381.979 280.85 380.816 280.85 378.766V378.746C280.85 376.725 281.748 375.553 283.125 375.553C284.512 375.553 285.42 376.725 285.42 378.746V378.766C285.42 380.807 284.531 381.979 283.145 381.979ZM290.121 387.418H292.973V382.213H293.032C293.598 383.453 294.78 384.215 296.274 384.215C298.891 384.215 300.512 382.164 300.512 378.766V378.756C300.512 375.348 298.891 373.316 296.235 373.316C294.75 373.316 293.608 374.088 293.041 375.357H292.973V373.531H290.121V387.418ZM295.297 381.852C293.91 381.852 292.963 380.66 292.963 378.775V378.766C292.963 376.871 293.91 375.68 295.297 375.68C296.713 375.68 297.612 376.842 297.612 378.756V378.766C297.612 380.67 296.713 381.852 295.297 381.852Z" fill="#2A2A2B"/>
<rect opacity="0.1" x="164" y="513" width="6" height="6" rx="3" fill="#FF5712"/>
<rect x="176" y="511" width="10" height="10" rx="5" fill="#FF5712"/>
<rect opacity="0.1" x="192" y="513" width="6" height="6" rx="3" fill="#FF5712"/>
<rect opacity="0.1" x="204" y="513" width="6" height="6" rx="3" fill="#FF5712"/>
<rect x="110" y="560" width="155" height="48" rx="12" fill="#FF5712"/>
<path d="M170.391 590H172.336V582.234H172.461L178 590H179.742V578.727H177.805V586.492H177.68L172.141 578.727H170.391V590ZM185.984 590.172C188.305 590.172 189.445 588.836 189.719 587.734L189.742 587.664H187.891L187.867 587.719C187.68 588.109 187.078 588.641 186.023 588.641C184.703 588.641 183.875 587.75 183.852 586.219H189.82V585.578C189.82 583 188.32 581.297 185.891 581.297C183.461 581.297 181.906 583.055 181.906 585.742V585.75C181.906 588.469 183.445 590.172 185.984 590.172ZM185.914 582.82C187 582.82 187.789 583.516 187.922 584.914H183.867C184.016 583.555 184.828 582.82 185.914 582.82ZM190.773 590H192.867L194.609 587.031H194.742L196.492 590H198.68L195.891 585.68L198.648 581.461H196.516L194.828 584.422H194.695L193 581.461H190.75L193.539 585.766L190.773 590ZM203.75 590.039C204.125 590.039 204.484 590.008 204.766 589.953V588.453C204.531 588.477 204.383 588.484 204.109 588.484C203.297 588.484 202.961 588.125 202.961 587.273V582.969H204.766V581.461H202.961V579.367H200.984V581.461H199.656V582.969H200.984V587.734C200.984 589.383 201.789 590.039 203.75 590.039Z" fill="white"/>
<path d="M334.151 64.2393C336.448 64.2393 337.918 63.0635 337.918 61.1768V61.1699C337.918 59.707 337.07 58.873 334.999 58.4287L333.926 58.1895C332.647 57.916 332.128 57.4375 332.128 56.7061V56.6992C332.128 55.7695 332.982 55.2295 334.138 55.2295C335.334 55.2227 336.106 55.8105 336.236 56.6172L336.25 56.7061H337.733L337.727 56.6104C337.617 55.0791 336.25 53.8965 334.158 53.8965C332.066 53.8965 330.59 55.0723 330.583 56.7744V56.7812C330.583 58.2373 331.444 59.167 333.447 59.5908L334.527 59.8232C335.833 60.1035 336.366 60.5957 336.366 61.3545V61.3613C336.366 62.2773 335.471 62.9062 334.213 62.9062C332.894 62.9062 331.943 62.332 331.861 61.4365L331.854 61.3613H330.351L330.357 61.4502C330.494 63.1113 331.923 64.2393 334.151 64.2393ZM339.832 64H341.315V61.2998L341.951 60.6641L344.508 64H346.312L343.011 59.707L346.107 56.5762H344.371L341.425 59.707H341.315V53.6641H339.832V64ZM348.438 55.25C348.944 55.25 349.368 54.833 349.368 54.3271C349.368 53.8145 348.944 53.3975 348.438 53.3975C347.926 53.3975 347.509 53.8145 347.509 54.3271C347.509 54.833 347.926 55.25 348.438 55.25ZM347.693 64H349.17V56.5762H347.693V64ZM351.33 66.4746H352.813V62.8242H352.923C353.319 63.624 354.188 64.123 355.206 64.123C357.093 64.123 358.282 62.6465 358.282 60.2949V60.2812C358.282 57.9434 357.079 56.4463 355.206 56.4463C354.167 56.4463 353.354 56.9316 352.923 57.7451H352.813V56.5762H351.33V66.4746ZM354.789 62.8584C353.552 62.8584 352.786 61.8809 352.786 60.2949V60.2812C352.786 58.6953 353.552 57.7178 354.789 57.7178C356.026 57.7178 356.771 58.6816 356.771 60.2812V60.2949C356.771 61.8877 356.026 62.8584 354.789 62.8584Z" fill="#FF5712"/>
<defs>
<linearGradient id="paint0_linear_4_879" x1="395.625" y1="117.927" x2="125.017" y2="289.045" gradientUnits="userSpaceOnUse">
<stop stop-color="#FAC7FF"/>
<stop offset="1" stop-color="#FFD2BE"/>
</linearGradient>
<linearGradient id="paint1_linear_4_879" x1="71.5832" y1="281.929" x2="77.9053" y2="351.447" gradientUnits="userSpaceOnUse">
<stop stop-color="#FAC7FF"/>
<stop offset="1" stop-color="#FFD2BE"/>
</linearGradient>
</defs>
</svg>
