<svg width="375" height="667" viewBox="0 0 375 667" fill="none" xmlns="http://www.w3.org/2000/svg">
<g clip-path="url(#clip0_194_787)">
<rect width="375" height="667" fill="white"/>
<g clip-path="url(#clip1_194_787)">
<path d="M31 51.5L23.5 44L31 36.5" stroke="#2A2A2B" stroke-width="2" stroke-linecap="round" stroke-linejoin="round"/>
</g>
<path d="M160.675 52.2686C164.456 52.2686 166.734 50.4316 166.734 47.542V47.5312C166.734 45.1143 165.326 43.8037 162.104 43.1377L160.428 42.7939C158.559 42.4072 157.71 41.7627 157.71 40.667V40.6562C157.71 39.4209 158.838 38.5723 160.653 38.5615C162.394 38.5615 163.586 39.3672 163.769 40.7207L163.79 40.8496H166.443L166.433 40.667C166.272 38.0137 164.059 36.2305 160.675 36.2305C157.334 36.2305 154.939 38.0781 154.928 40.8066V40.8174C154.928 43.127 156.432 44.5449 159.483 45.1787L161.148 45.5225C163.146 45.9414 163.951 46.5645 163.951 47.7246V47.7354C163.951 49.0674 162.727 49.9375 160.772 49.9375C158.827 49.9375 157.463 49.1104 157.259 47.7783L157.237 47.6494H154.584L154.595 47.8105C154.777 50.5928 157.119 52.2686 160.675 52.2686ZM170.283 38.9805C171.121 38.9805 171.765 38.3145 171.765 37.5195C171.765 36.7031 171.121 36.0479 170.283 36.0479C169.445 36.0479 168.789 36.7031 168.789 37.5195C168.789 38.3145 169.445 38.9805 170.283 38.9805ZM168.94 52H171.615V40.6133H168.94V52ZM179.353 55.9854C182.651 55.9854 184.724 54.2559 184.724 51.6777V40.6133H182.05V42.5469H181.985C181.341 41.2363 180.094 40.377 178.483 40.377C175.604 40.377 173.746 42.5898 173.746 46.1885V46.1992C173.746 49.7441 175.583 51.9355 178.44 51.9355C180.073 51.9355 181.362 51.1621 181.996 49.9482H182.05V51.5918C182.05 53.042 181.093 53.9658 179.353 53.9658C177.957 53.9658 177.044 53.4717 176.754 52.8164L176.721 52.7305H174.09L174.111 52.8271C174.433 54.6104 176.335 55.9854 179.353 55.9854ZM179.278 49.873C177.559 49.873 176.474 48.4873 176.474 46.2422V46.2314C176.474 44.0186 177.559 42.6328 179.278 42.6328C180.932 42.6328 182.06 44.04 182.06 46.2422V46.2529C182.06 48.4658 180.943 49.873 179.278 49.873ZM187.242 52H189.917V45.3936C189.917 43.75 190.895 42.6328 192.431 42.6328C193.956 42.6328 194.708 43.5459 194.708 45.168V52H197.383V44.6309C197.383 41.9883 195.954 40.377 193.451 40.377C191.722 40.377 190.562 41.1719 189.971 42.3965H189.917V40.6133H187.242V52ZM206.006 38.9805C206.844 38.9805 207.489 38.3145 207.489 37.5195C207.489 36.7031 206.844 36.0479 206.006 36.0479C205.169 36.0479 204.513 36.7031 204.513 37.5195C204.513 38.3145 205.169 38.9805 206.006 38.9805ZM204.664 52H207.338V40.6133H204.664V52ZM209.942 52H212.617V45.3936C212.617 43.75 213.595 42.6328 215.131 42.6328C216.656 42.6328 217.408 43.5459 217.408 45.168V52H220.083V44.6309C220.083 41.9883 218.654 40.377 216.151 40.377C214.422 40.377 213.262 41.1719 212.671 42.3965H212.617V40.6133H209.942V52Z" fill="#2A2A2B"/>
<rect y="79" width="375" height="1" fill="#E4E4E4"/>
<path d="M167.279 6.33398C165.445 6.33398 164.139 7.58789 164.139 9.30469V9.31641C164.139 10.9219 165.275 12.1055 166.898 12.1055C168.059 12.1055 168.797 11.5137 169.107 10.8457H169.225C169.225 10.9102 169.219 10.9746 169.219 11.0391C169.154 12.6562 168.586 13.9688 167.244 13.9688C166.5 13.9688 165.979 13.582 165.756 12.9902L165.738 12.9316H164.25L164.262 12.9961C164.531 14.291 165.691 15.2109 167.244 15.2109C169.371 15.2109 170.654 13.5234 170.654 10.6758V10.6641C170.654 7.61719 169.084 6.33398 167.279 6.33398ZM167.273 10.9453C166.312 10.9453 165.615 10.2422 165.615 9.26367V9.25195C165.615 8.30859 166.359 7.56445 167.291 7.56445C168.229 7.56445 168.961 8.32031 168.961 9.28711V9.29883C168.961 10.2539 168.229 10.9453 167.273 10.9453ZM173.314 9.52148C173.854 9.52148 174.246 9.11133 174.246 8.5957C174.246 8.07422 173.854 7.66992 173.314 7.66992C172.781 7.66992 172.383 8.07422 172.383 8.5957C172.383 9.11133 172.781 9.52148 173.314 9.52148ZM173.314 13.8691C173.854 13.8691 174.246 13.4648 174.246 12.9434C174.246 12.4219 173.854 12.0176 173.314 12.0176C172.781 12.0176 172.383 12.4219 172.383 12.9434C172.383 13.4648 172.781 13.8691 173.314 13.8691ZM180.076 15H181.523V13.377H182.66V12.1289H181.523V6.54492H179.385C178.236 8.29102 177.035 10.2363 175.939 12.1406V13.377H180.076V15ZM177.346 12.1641V12.0762C178.166 10.6406 179.145 9.07617 180.012 7.75195H180.1V12.1641H177.346ZM186.164 15H187.676V6.54492H186.17L183.961 8.09766V9.52148L186.064 8.0332H186.164V15ZM192.756 15H194.338L195.041 12.8145H198.17L198.879 15H200.461L197.461 6.54492H195.756L192.756 15ZM196.559 8.11523H196.658L197.795 11.6484H195.422L196.559 8.11523ZM201.914 15H203.279V8.98828H203.379L205.723 15H206.754L209.098 8.98828H209.203V15H210.562V6.54492H208.828L206.291 13.0488H206.191L203.648 6.54492H201.914V15Z" fill="black"/>
<path opacity="0.35" fill-rule="evenodd" clip-rule="evenodd" d="M345.5 5.5H364.5C365.881 5.5 367 6.61929 367 8V14.5C367 15.8807 365.881 17 364.5 17H345.5C344.119 17 343 15.8807 343 14.5V8C343 6.61929 344.119 5.5 345.5 5.5ZM345.5 6.5C344.672 6.5 344 7.17157 344 8V14.5C344 15.3284 344.672 16 345.5 16H364.5C365.328 16 366 15.3284 366 14.5V8C366 7.17157 365.328 6.5 364.5 6.5H345.5Z" fill="black"/>
<path opacity="0.4" fill-rule="evenodd" clip-rule="evenodd" d="M368 8.7998C368.89 9.25498 369.5 10.1813 369.5 11.2499C369.5 12.3186 368.89 13.2449 368 13.7001V8.7998Z" fill="black"/>
<path fill-rule="evenodd" clip-rule="evenodd" d="M346 7.5H364C364.552 7.5 365 7.94772 365 8.5V14C365 14.5523 364.552 15 364 15H346C345.448 15 345 14.5523 345 14V8.5C345 7.94772 345.448 7.5 346 7.5Z" fill="black"/>
<path d="M311.219 15.3H312.273V6.84497H311.225L308.975 8.46216V9.57544L311.125 8.01685H311.219V15.3ZM317.547 15.4993C319.416 15.4993 320.541 13.7942 320.541 11.0754V11.0637C320.541 8.34497 319.416 6.64575 317.547 6.64575C315.678 6.64575 314.564 8.34497 314.564 11.0637V11.0754C314.564 13.7942 315.678 15.4993 317.547 15.4993ZM317.547 14.5793C316.334 14.5793 315.625 13.2317 315.625 11.0754V11.0637C315.625 8.90747 316.334 7.57153 317.547 7.57153C318.76 7.57153 319.48 8.90747 319.48 11.0637V11.0754C319.48 13.2317 318.76 14.5793 317.547 14.5793ZM325.105 15.4993C326.975 15.4993 328.1 13.7942 328.1 11.0754V11.0637C328.1 8.34497 326.975 6.64575 325.105 6.64575C323.236 6.64575 322.123 8.34497 322.123 11.0637V11.0754C322.123 13.7942 323.236 15.4993 325.105 15.4993ZM325.105 14.5793C323.893 14.5793 323.184 13.2317 323.184 11.0754V11.0637C323.184 8.90747 323.893 7.57153 325.105 7.57153C326.318 7.57153 327.039 8.90747 327.039 11.0637V11.0754C327.039 13.2317 326.318 14.5793 325.105 14.5793ZM331.41 11.2922C332.488 11.2922 333.145 10.4133 333.145 9.01294V9.00708C333.145 7.60669 332.488 6.73364 331.41 6.73364C330.332 6.73364 329.682 7.60669 329.682 9.00708V9.01294C329.682 10.4133 330.332 11.2922 331.41 11.2922ZM332.043 15.3L337.797 6.84497H336.848L331.094 15.3H332.043ZM331.41 10.595C330.83 10.595 330.496 10.0032 330.496 9.01294V9.00708C330.496 8.01685 330.83 7.43091 331.41 7.43091C331.99 7.43091 332.33 8.01685 332.33 9.00708V9.01294C332.33 10.0032 331.99 10.595 331.41 10.595ZM337.469 15.4114C338.547 15.4114 339.203 14.5325 339.203 13.1321V13.1262C339.203 11.7258 338.547 10.8528 337.469 10.8528C336.391 10.8528 335.74 11.7258 335.74 13.1262V13.1321C335.74 14.5325 336.391 15.4114 337.469 15.4114ZM337.469 14.7141C336.889 14.7141 336.555 14.1223 336.555 13.1321V13.1262C336.555 12.136 336.889 11.55 337.469 11.55C338.049 11.55 338.389 12.136 338.389 13.1262V13.1321C338.389 14.1223 338.049 14.7141 337.469 14.7141Z" fill="black"/>
<path fill-rule="evenodd" clip-rule="evenodd" d="M281.269 8.69225C281.1 8.46378 281 8.18107 281 7.875C281 7.11561 281.616 6.5 282.375 6.5C282.647 6.5 282.901 6.57923 283.115 6.7159C282.344 7.20596 281.707 7.88693 281.269 8.69225ZM290.37 11.255C290.37 13.6712 288.411 15.63 285.995 15.63C283.579 15.63 281.62 13.6712 281.62 11.255C281.62 8.83875 283.579 6.88 285.995 6.88C288.411 6.88 290.37 8.83875 290.37 11.255ZM286.38 11.875H284.25V11.12H285.63V8.5H286.38V11.875ZM289.625 6.5C289.35 6.5 289.095 6.58046 288.88 6.71909C289.651 7.21049 290.288 7.89306 290.725 8.70001C290.898 8.4702 291 8.18455 291 7.875C291 7.11561 290.384 6.5 289.625 6.5Z" fill="black"/>
<path fill-rule="evenodd" clip-rule="evenodd" d="M300 10.9833V10.9711L297.044 8.28354L297.716 7.5436L300 9.61963V5.11963L303.993 8.7499L301.518 10.9999L303.993 13.2499L300 16.8802V12.3347L297.716 14.4108L297.044 13.6708L300 10.9833ZM301 10.1196L302.507 8.7499L301 7.38018V10.1196ZM302.507 13.2499L301 14.6196V11.8802L302.507 13.2499Z" fill="black"/>
<g clip-path="url(#clip2_194_787)">
<path opacity="0.25" fill-rule="evenodd" clip-rule="evenodd" d="M20.5 6H21.5C22.0523 6 22.5 6.44772 22.5 7V15C22.5 15.5523 22.0523 16 21.5 16H20.5C19.9477 16 19.5 15.5523 19.5 15V7C19.5 6.44772 19.9477 6 20.5 6Z" fill="black"/>
<path fill-rule="evenodd" clip-rule="evenodd" d="M17 8H16C15.4477 8 15 8.44772 15 9V15C15 15.5523 15.4477 16 16 16H17C17.5523 16 18 15.5523 18 15V9C18 8.44772 17.5523 8 17 8ZM11.5 10H12.5C13.0523 10 13.5 10.4477 13.5 11V15C13.5 15.5523 13.0523 16 12.5 16H11.5C10.9477 16 10.5 15.5523 10.5 15V11C10.5 10.4477 10.9477 10 11.5 10ZM7 11.5H8C8.55228 11.5 9 11.9477 9 12.5V15C9 15.5523 8.55228 16 8 16H7C6.44772 16 6 15.5523 6 15V12.5C6 11.9477 6.44772 11.5 7 11.5Z" fill="black"/>
<path d="M30.0781 15H31.1328V11.3379H34.877V10.4004H31.1328V7.49414H35.2109V6.54492H30.0781V15ZM37.3055 7.46484C37.6922 7.46484 38.0086 7.14844 38.0086 6.76172C38.0086 6.375 37.6922 6.05859 37.3055 6.05859C36.9187 6.05859 36.6023 6.375 36.6023 6.76172C36.6023 7.14844 36.9187 7.46484 37.3055 7.46484ZM36.7898 15H37.8094V8.68359H36.7898V15ZM42.2828 17.2266C44.0055 17.2266 45.0953 16.3242 45.0953 14.9121V8.68359H44.0758V9.72656H44.0055C43.6187 9.01172 42.9273 8.57227 42.0367 8.57227C40.3844 8.57227 39.3648 9.85547 39.3648 11.625V11.6367C39.3648 13.4062 40.3785 14.6719 42.0133 14.6719C42.8805 14.6719 43.5953 14.2793 43.9937 13.582H44.0875V14.8594C44.0875 15.791 43.4137 16.3242 42.2828 16.3242C41.3746 16.3242 40.8121 15.9844 40.7008 15.5039L40.6949 15.498H39.6402L39.6285 15.5039C39.7867 16.541 40.7594 17.2266 42.2828 17.2266ZM42.2359 13.7695C41.0641 13.7695 40.4078 12.8906 40.4078 11.6367V11.625C40.4078 10.3711 41.0641 9.47461 42.2359 9.47461C43.402 9.47461 44.1109 10.3711 44.1109 11.625V11.6367C44.1109 12.8906 43.4078 13.7695 42.2359 13.7695ZM46.9438 15H47.9633V11.0859C47.9633 10.1953 48.5902 9.47461 49.4164 9.47461C50.2133 9.47461 50.7289 9.96094 50.7289 10.7109V15H51.7484V10.9395C51.7484 10.1367 52.3285 9.47461 53.2074 9.47461C54.098 9.47461 54.5258 9.9375 54.5258 10.8691V15H55.5453V10.6348C55.5453 9.31055 54.8246 8.57227 53.5355 8.57227C52.6625 8.57227 51.9418 9.01172 51.602 9.67969H51.5082C51.2152 9.02344 50.6176 8.57227 49.7621 8.57227C48.9359 8.57227 48.3383 8.96484 48.057 9.64453H47.9633V8.68359H46.9438V15ZM59.0695 15.1113C59.9191 15.1113 60.5812 14.7422 60.9797 14.0684H61.0734V15H62.093V10.6758C62.093 9.36328 61.2316 8.57227 59.6906 8.57227C58.343 8.57227 57.382 9.24023 57.218 10.2305L57.2121 10.2656H58.2316L58.2375 10.248C58.4016 9.75586 58.8996 9.47461 59.6555 9.47461C60.5988 9.47461 61.0734 9.89648 61.0734 10.6758V11.25L59.2629 11.3613C57.7922 11.4492 56.9602 12.0996 56.9602 13.2246V13.2363C56.9602 14.3848 57.8684 15.1113 59.0695 15.1113ZM58.0031 13.2129V13.2012C58.0031 12.5742 58.425 12.2344 59.3859 12.1758L61.0734 12.0703V12.6445C61.0734 13.5469 60.3176 14.2266 59.2805 14.2266C58.548 14.2266 58.0031 13.8516 58.0031 13.2129Z" fill="black"/>
<path fill-rule="evenodd" clip-rule="evenodd" d="M80.9828 8.52294C79.0717 6.89057 76.6574 6 74.1327 6C71.6006 6 69.1795 6.89589 67.2661 8.53708L67.1036 8.67646C66.9722 8.78918 66.9647 8.98954 67.0873 9.11176L68.2142 10.2356C68.3236 10.3447 68.4985 10.3521 68.6168 10.2527L68.7564 10.1354C70.2633 8.86943 72.1552 8.18035 74.1327 8.18035C76.1035 8.18035 77.9894 8.86472 79.494 10.1228L79.6336 10.2395C79.7519 10.3385 79.9264 10.3308 80.0356 10.2219L81.1627 9.09797C81.2855 8.97558 81.2777 8.77488 81.1459 8.66228L80.9828 8.52294ZM74.1327 9.46979C75.7236 9.46979 77.251 9.99754 78.4953 10.9749L78.6711 11.113C78.8113 11.2231 78.8236 11.4306 78.6974 11.5564L77.5667 12.6841C77.4621 12.7884 77.2966 12.8003 77.178 12.7122L77.0401 12.6098C76.1997 11.9852 75.1864 11.6501 74.1327 11.6501C73.0726 11.6501 72.0533 11.9893 71.2101 12.6211L71.0721 12.7245C70.9535 12.8133 70.7874 12.8016 70.6825 12.697L69.5522 11.5698C69.4262 11.4442 69.4382 11.2373 69.5777 11.1269L69.7526 10.9887C70.9998 10.0027 72.5342 9.46979 74.1327 9.46979ZM74.1327 12.9396C74.7722 12.9396 75.3936 13.1076 75.9411 13.4281L76.163 13.5579C76.3311 13.6563 76.3607 13.8867 76.2228 14.0242L74.3287 15.913C74.2124 16.029 74.0238 16.029 73.9074 15.913L72.0255 14.0363C71.8882 13.8994 71.9169 13.6702 72.0836 13.5711L72.303 13.4406C72.8555 13.1121 73.4848 12.9396 74.1327 12.9396Z" fill="black"/>
</g>
<path d="M214.575 153.677C211.009 152.16 206.912 151.869 203.786 149.398C201.3 147.423 199.652 144.625 198.007 141.955C194.897 136.889 191.35 132.207 184.839 132.317C177.78 132.43 170.611 136.871 164.083 132.245C159.401 128.916 156.731 123.466 152.05 120.138C146.307 116.078 140.309 118.565 134.548 121.162C130.799 122.844 126.977 124.234 122.807 123.43C118.773 122.474 115.075 120.438 112.109 117.541C107.373 113.224 103.275 106.404 96.3632 105.563C92.6342 105.111 89.286 106.881 85.8113 107.936C81.0382 109.405 76.6673 108.137 72.2784 106.128C66.4815 103.495 59.0744 99.4532 52.7836 103.111C51.5331 103.844 50.4789 104.869 49.7114 106.098C48.9438 107.328 48.4858 108.725 48.3767 110.17C48.1021 113.424 49.8027 116.095 51.8322 118.49C52.9969 119.747 54.0784 121.079 55.0696 122.477C56.333 124.56 57.0339 126.935 57.1036 129.37C57.3601 132.936 57.1036 136.575 58.4596 139.958C59.4653 142.463 61.3129 144.787 64.0735 145.408C67.5121 146.176 70.6207 144.036 73.8582 143.268C81.4291 141.46 84.6847 150.547 89.8601 154.15C92.7393 156.129 96.1495 157.193 99.6436 157.201C103.63 157.22 107.05 155.025 110.944 154.769C114.912 154.512 117.967 157.292 120.71 159.761C123.121 162.186 125.994 164.101 129.159 165.394C132.502 166.598 136.1 166.913 139.6 166.308C143.368 165.65 146.331 163.2 149.989 162.34C156.681 160.749 162.68 166.418 168.806 168.027C171.538 168.822 174.466 168.588 177.036 167.37C180.712 165.577 183.711 161.773 188.027 161.572C191.886 161.388 193.733 164.974 195.836 167.571C196.648 168.729 197.753 169.651 199.038 170.242C200.323 170.834 201.743 171.072 203.15 170.935C205.09 170.753 206.954 170.094 208.913 170.021C211.199 169.929 215.021 171.593 213.412 174.556C213.211 174.941 213.559 175.544 214.035 175.361C216.545 174.376 219.219 173.874 221.916 173.879C222.037 173.88 222.154 173.841 222.249 173.768C222.345 173.695 222.414 173.593 222.446 173.477C222.774 172.056 222.939 170.601 222.94 169.143C222.94 169.124 222.94 169.124 222.958 169.106C223.466 165.969 222.919 162.752 221.402 159.96C219.884 157.168 217.483 154.958 214.575 153.677Z" fill="#2C2B47"/>
<path d="M218.745 170.502C218.687 170.475 218.625 170.46 218.561 170.46C218.498 170.46 218.436 170.475 218.378 170.502C213.77 169.624 211.996 175.293 212.163 178.915C212.346 183.047 214.762 187.711 218.691 189.448C223.703 191.642 225.422 184.712 225.495 181.109C225.603 178.861 225.012 176.634 223.803 174.734C222.594 172.835 220.827 171.357 218.745 170.502Z" fill="#FEDFFD"/>
<path d="M230.065 174.946C222.456 176.775 214.855 178.603 207.26 180.432C207.168 180.458 207.085 180.508 207.018 180.576C206.951 180.644 206.903 180.729 206.879 180.821C206.854 180.914 206.855 181.011 206.88 181.103C206.905 181.195 206.954 181.279 207.022 181.347C207.799 182.154 208.739 182.787 209.78 183.203C210.82 183.619 211.938 183.809 213.057 183.76C215.471 183.468 216.769 181.255 217.702 179.262C217.737 179.188 217.756 179.107 217.757 179.024C218.653 178.804 219.565 178.585 220.463 178.366C220.481 178.384 220.481 178.402 220.501 178.421C221.322 179.268 222.361 179.871 223.503 180.164C224.645 180.458 225.847 180.43 226.974 180.084C229.095 179.371 229.846 177.653 230.668 175.751C230.725 175.658 230.752 175.551 230.747 175.443C230.742 175.335 230.704 175.231 230.639 175.144C230.574 175.057 230.485 174.992 230.382 174.957C230.28 174.922 230.169 174.918 230.065 174.946Z" fill="#2C2B47"/>
<path d="M324.777 428.651C323.222 408.48 317.754 388.528 311.939 369.213C311.609 368.133 311.28 367.036 310.951 365.957C310.786 365.427 310.695 364.421 310.273 364.019C310.109 363.903 309.922 363.822 309.724 363.782C308.968 363.615 308.194 363.539 307.42 363.556C303.963 363.337 300.508 363.227 297.051 363.117C284.213 362.697 271.357 362.422 258.501 362.13C241.511 361.745 224.516 361.355 207.515 360.959C191.184 360.557 174.858 360.154 158.54 359.587C156.766 359.533 155.01 359.46 153.237 359.405C153.118 359.407 153.002 359.447 152.906 359.52C152.811 359.592 152.741 359.693 152.706 359.808C145.83 378.259 136.503 395.687 130.049 414.304C128.366 418.938 127.044 423.695 126.094 428.532C126.074 428.613 126.073 428.698 126.091 428.78C126.108 428.861 126.143 428.938 126.194 429.005C126.245 429.071 126.31 429.126 126.384 429.164C126.458 429.202 126.54 429.224 126.624 429.227H316.199C318.752 429.355 321.309 429.355 323.862 429.227C323.977 429.218 324.094 429.218 324.21 429.227C324.298 429.23 324.386 429.212 324.465 429.173C324.563 429.126 324.645 429.052 324.7 428.959C324.756 428.866 324.783 428.759 324.777 428.651Z" fill="#2C2B47"/>
<path d="M341.674 281.911C340.284 268.816 337.358 255.741 331.122 244.037C325.506 233.16 316.726 224.24 305.94 218.452C293.98 212.198 280.393 209.345 267.294 206.492C238.179 200.164 208.554 196.47 178.872 193.983C150.526 191.61 121.559 189.411 93.3778 194.477C71.3044 198.432 44.4578 207.516 35.0223 230.028C30.3215 241.239 31.3645 253.967 35.6619 265.122C40.2339 276.987 48.4637 286.921 57.7534 295.406C67.3358 304.166 77.9804 311.866 88.5504 319.345C99.3216 326.953 110.623 334.012 122.931 338.876C128.289 340.999 138.823 343.558 139.353 343.759C139.902 343.101 146.741 329.747 150.143 322.854C147.203 337.143 145.145 351.599 143.98 366.141C143.961 366.36 203.69 374.517 233.589 375.102C248.512 375.394 263.428 375.131 278.337 374.311C282.029 374.11 285.723 373.872 289.419 373.598C291.321 373.452 293.242 373.196 295.126 373.146C295.461 373.099 295.802 373.13 296.122 373.238C296.443 373.346 296.734 373.527 296.972 373.767C297.521 374.219 297.996 374.755 298.563 375.193C302.249 377.938 306.775 379.315 311.365 379.089C315.87 379.025 320.272 377.729 324.093 375.34C328.354 372.561 331.133 368.172 333.072 363.562C335.355 357.844 337.231 351.971 338.686 345.989C340.443 339.186 341.63 332.249 342.234 325.25C343.475 310.82 343.287 296.303 341.674 281.911Z" fill="#FFC200"/>
<path d="M330.921 334.926C329.367 321.978 327.702 309.049 323.953 296.523C320.503 284.982 315.663 273.904 309.54 263.531C306.091 257.709 302.254 252.124 298.056 246.816C296.739 245.152 294.416 247.494 295.714 249.158C310.274 267.694 320.132 289.479 324.445 312.653C325.835 320.04 326.731 327.502 327.627 334.963C327.867 337.011 331.159 337.048 330.921 334.926Z" fill="#FEDFFD"/>
<path d="M277.155 328.983C272.583 312.305 269.091 295.187 268.651 277.833C268.349 268.26 269.172 258.685 271.102 249.304C273.535 249.322 275.961 249.322 278.38 249.34C278.809 249.329 279.217 249.15 279.516 248.843C279.816 248.536 279.984 248.123 279.984 247.694C279.984 247.265 279.816 246.853 279.516 246.545C279.217 246.238 278.809 246.059 278.38 246.048C275.692 246.03 273.004 246.012 270.315 246.012C270.017 245.997 269.721 246.073 269.466 246.23C269.212 246.387 269.011 246.617 268.889 246.89C268.665 246.981 268.469 247.128 268.318 247.317C268.167 247.506 268.068 247.731 268.029 247.969C264.281 265.451 264.811 283.429 267.609 301.004C269.06 309.816 270.952 318.55 273.278 327.173C275.202 334.876 277.646 342.44 280.594 349.813C283.794 357.938 288.448 365.412 294.328 371.868C295.79 373.422 298.113 371.077 296.668 369.527C286.116 358.371 281.124 343.504 277.155 328.983Z" fill="#FEDFFD"/>
<path d="M156.823 311.848C156.776 311.67 156.709 311.497 156.622 311.335C142.759 288.106 125.133 267.341 104.464 249.889C98.723 245.042 92.7555 240.47 86.5616 236.173C84.8237 234.948 83.1592 237.82 84.8971 239.026C106.656 254.201 125.751 272.876 141.406 294.291C145.813 300.326 149.934 306.568 153.768 313.018C153.805 313.091 153.86 313.146 153.896 313.219C152.54 316.347 151.335 319.565 149.764 322.598C148.794 324.481 151.628 326.145 152.616 324.261C154.372 320.897 155.652 317.312 157.206 313.838C157.357 313.508 157.402 313.138 157.333 312.782C157.264 312.425 157.086 312.099 156.823 311.848Z" fill="#FEDFFD"/>
<path d="M172.952 357.128C171.414 347.717 169.35 338.399 166.771 329.217C165.838 325.889 164.705 322.377 162.07 320.129C159.766 318.153 155.414 317.367 153.348 315.157C143.71 334.925 131.036 352.006 126.228 368.227C124.917 372.293 124.178 376.521 124.034 380.791C123.955 382.02 124.174 383.249 124.672 384.376C124.928 384.935 125.34 385.407 125.86 385.735C126.379 386.063 126.983 386.233 127.598 386.224C127.934 386.181 128.255 386.061 128.537 385.874C128.82 385.687 129.055 385.437 129.225 385.144C129.074 387.846 129.377 390.554 130.121 393.155C130.199 393.622 130.37 394.068 130.625 394.467C130.879 394.866 131.212 395.21 131.602 395.477C132.109 395.688 132.67 395.735 133.205 395.61C133.74 395.485 134.222 395.196 134.583 394.782C135.29 393.939 135.808 392.953 136.101 391.893C135.486 394.612 135.399 397.425 135.845 400.177C135.898 400.962 136.112 401.728 136.474 402.426C136.835 403.125 137.337 403.741 137.948 404.237C138.794 404.662 139.756 404.795 140.686 404.616C141.615 404.438 142.46 403.957 143.088 403.249C144.317 401.8 145.126 400.041 145.428 398.164C145.74 396.302 146.311 394.492 147.123 392.788C147.159 394.548 147.604 396.276 148.421 397.835C148.843 398.61 149.511 399.221 150.319 399.572C151.128 399.923 152.03 399.994 152.884 399.773C154.31 399.243 155.078 397.726 155.681 396.336C161.106 383.614 163.461 369.795 162.558 355.995C163.213 361.908 164.438 367.745 166.215 373.423C166.78 375.069 167.953 376.989 169.654 376.7C170.165 376.539 170.632 376.265 171.022 375.898C171.411 375.53 171.713 375.079 171.903 374.579C174.58 369.289 173.903 362.979 172.952 357.128Z" fill="#FEDFFD"/>
<path d="M268.853 154.719H227.834C227.253 154.721 226.696 154.953 226.284 155.364C225.873 155.775 225.642 156.332 225.64 156.914V237.947C225.642 238.529 225.873 239.086 226.284 239.497C226.696 239.908 227.253 240.14 227.834 240.142H268.853C269.435 240.14 269.992 239.908 270.403 239.497C270.814 239.086 271.046 238.529 271.048 237.947V156.914C271.046 156.332 270.814 155.775 270.403 155.364C269.992 154.953 269.435 154.721 268.853 154.719Z" fill="#5A80F9" stroke="#5A80F9" stroke-width="0.162" stroke-miterlimit="10"/>
<path d="M298.127 211.938C298.035 207.129 297.761 201.953 294.835 198.132C292.236 194.711 288.032 192.974 284.027 191.401C269.822 185.809 256.656 178.292 241.401 178.987C239.938 179.061 235.987 178.951 235.457 181.932C235.399 183.175 235.752 184.403 236.463 185.425C237.67 187.089 239.681 187.492 241.565 187.857C246.595 188.808 251.618 189.765 256.635 190.728C247.692 190.966 238.164 191.369 230.794 196.453C229.477 197.367 228.105 198.701 228.655 200.408C228.792 200.812 229.018 201.18 229.315 201.487C229.612 201.793 229.974 202.03 230.373 202.181C231.802 202.68 233.354 202.706 234.798 202.254C241.09 200.571 247.381 200.316 255.446 198.212C249.557 201.577 244.473 202.529 239.408 205.546C237.176 206.881 234.012 208.618 232.239 210.518C231.238 211.482 230.523 212.703 230.172 214.048C229.77 215.51 231.654 217.065 233.135 216.828C239.518 215.897 245.748 214.119 251.66 211.541C250.856 212.182 249.996 212.84 248.948 213.59C245.869 215.557 243.548 218.509 242.364 221.966C242.256 222.317 242.222 222.686 242.263 223.051C242.304 223.416 242.42 223.769 242.602 224.088C243.48 225.605 245.217 225.295 246.625 224.892C253.538 222.917 259.921 219.04 266.028 215.273C266.219 221.324 268.261 227.171 271.881 232.024C274.294 235.075 277.53 237.912 277.934 241.771C278.189 244.186 277.275 246.582 277.369 248.995C283.789 249.178 290.202 249.093 296.608 248.739L297.173 248.575C298.058 237.087 298.333 223.481 298.127 211.938Z" fill="#FEDFFD"/>
<path d="M248.352 160.005C247.943 160.005 247.543 160.127 247.203 160.354C246.863 160.581 246.598 160.904 246.442 161.281C246.286 161.659 246.245 162.075 246.325 162.476C246.404 162.877 246.601 163.245 246.891 163.534C247.18 163.823 247.548 164.02 247.949 164.099C248.35 164.179 248.766 164.138 249.143 163.981C249.521 163.825 249.844 163.56 250.071 163.22C250.298 162.88 250.419 162.48 250.418 162.071C250.419 161.8 250.365 161.531 250.262 161.28C250.158 161.029 250.006 160.801 249.814 160.609C249.622 160.417 249.394 160.265 249.143 160.162C248.892 160.058 248.623 160.005 248.352 160.005Z" fill="#FEDFFD"/>
<path d="M264.007 203.072C259.313 205.063 254.879 207.618 250.803 210.68C249.687 211.521 250.785 213.423 251.918 212.582C256.003 209.534 260.436 206.98 265.122 204.974C266.42 204.426 265.305 202.524 264.007 203.072Z" fill="#2C2B47"/>
<path d="M263.476 194.696C260.186 195.098 256.996 196.089 254.058 197.623C252.796 198.281 253.911 200.183 255.173 199.525C257.765 198.166 260.575 197.274 263.476 196.891C264.865 196.727 264.885 194.536 263.476 194.696Z" fill="#2C2B47"/>
<path d="M262.159 190.694C260.245 189.843 258.162 189.443 256.07 189.523C254.662 189.597 254.643 191.791 256.07 191.718C257.777 191.626 259.483 191.92 261.062 192.578C262.342 193.143 263.457 191.259 262.159 190.694Z" fill="#2C2B47"/>
<path d="M141.114 368.083C137.874 375.956 135.739 384.239 134.767 392.697C134.602 394.105 136.801 394.087 136.962 392.697C137.94 384.44 140.045 376.355 143.216 368.668C143.769 367.369 141.643 366.802 141.114 368.083Z" fill="#2C2B47"/>
<path d="M149.965 368.796C147.295 377.942 145.904 387.413 145.831 396.94C145.831 397.231 145.947 397.511 146.153 397.716C146.358 397.922 146.637 398.038 146.928 398.038C147.219 398.038 147.499 397.922 147.704 397.716C147.91 397.511 148.026 397.231 148.026 396.94C148.095 387.611 149.455 378.337 152.068 369.381C152.14 369.104 152.101 368.809 151.958 368.561C151.815 368.313 151.58 368.13 151.304 368.054C151.028 367.977 150.733 368.012 150.483 368.15C150.232 368.289 150.046 368.521 149.965 368.796Z" fill="#2C2B47"/>
<path d="M135.865 361.298C132.167 368.621 129.608 376.465 128.276 384.559C128.056 385.949 130.177 386.534 130.397 385.144C131.678 377.236 134.164 369.57 137.766 362.413C138.407 361.151 136.504 360.036 135.865 361.298Z" fill="#2C2B47"/>
<path d="M314.901 181.654C313.289 181.137 311.83 180.228 310.656 179.009C309.481 177.79 308.628 176.299 308.172 174.668C308.13 174.538 308.042 174.428 307.925 174.358C307.807 174.289 307.667 174.266 307.533 174.293C307.399 174.32 307.28 174.396 307.199 174.506C307.117 174.616 307.08 174.752 307.092 174.888C307.009 174.949 306.945 175.034 306.909 175.132C306.873 175.23 306.867 175.336 306.891 175.437C307.312 177.21 307.75 179.149 307.037 180.905C306.237 182.443 304.942 183.668 303.361 184.38C303.25 184.449 303.168 184.556 303.128 184.681C303.088 184.806 303.094 184.941 303.145 185.061C303.196 185.182 303.288 185.281 303.404 185.34C303.521 185.4 303.655 185.416 303.783 185.385C307.64 184.197 309.743 189.847 311.207 192.407C311.275 192.52 311.382 192.604 311.507 192.644C311.633 192.685 311.768 192.679 311.89 192.628C312.011 192.578 312.111 192.485 312.17 192.367C312.229 192.25 312.244 192.115 312.212 191.987C311.637 190.357 311.419 188.623 311.573 186.902C311.902 184.853 313.329 183.664 315.03 182.659C315.12 182.602 315.192 182.521 315.238 182.425C315.284 182.328 315.301 182.221 315.287 182.115C315.274 182.009 315.23 181.91 315.162 181.828C315.093 181.746 315.003 181.686 314.901 181.654Z" fill="#BBE7FF"/>
<path d="M225.877 122.862C225.396 122.107 225.108 121.245 225.038 120.352C224.968 119.46 225.118 118.564 225.475 117.742C225.694 117.211 225.053 116.938 224.651 117.177C224.559 117.177 224.47 117.202 224.392 117.251C224.314 117.3 224.252 117.369 224.213 117.452C223.936 118.116 223.539 118.724 223.042 119.244C222.626 119.609 222.125 119.864 221.585 119.986C221.045 120.107 220.483 120.091 219.951 119.939C219.403 119.866 218.909 120.652 219.531 120.945C221.397 121.823 220.427 124.621 220.171 126.156C220.079 126.721 220.903 127.199 221.176 126.578C222.036 124.675 223.06 123.414 225.401 123.706C225.822 123.74 226.059 123.192 225.877 122.862Z" fill="#BBE7FF"/>
<path d="M291.475 112.292C290.176 111.425 289.112 110.25 288.378 108.872C287.644 107.493 287.263 105.954 287.269 104.393C287.266 104.257 287.213 104.128 287.121 104.028C287.029 103.929 286.905 103.867 286.77 103.853C286.635 103.839 286.5 103.875 286.39 103.953C286.28 104.032 286.202 104.148 286.172 104.28C286.079 104.319 285.999 104.385 285.944 104.47C285.888 104.554 285.859 104.653 285.86 104.754C285.929 106.319 285.595 107.875 284.891 109.274C283.922 110.847 282.13 111.34 280.465 111.797C280.34 111.835 280.232 111.917 280.161 112.027C280.09 112.138 280.061 112.27 280.078 112.4C280.096 112.53 280.159 112.649 280.257 112.736C280.355 112.824 280.481 112.874 280.612 112.877C284.306 112.84 284.744 118.271 285.421 120.978C285.459 121.103 285.541 121.211 285.651 121.282C285.761 121.353 285.893 121.382 286.023 121.365C286.153 121.347 286.272 121.284 286.36 121.186C286.447 121.088 286.497 120.963 286.5 120.832C286.432 119.393 286.605 117.952 287.012 116.571C287.725 114.613 289.426 113.773 291.328 113.261C291.43 113.236 291.522 113.181 291.592 113.104C291.663 113.026 291.709 112.929 291.725 112.826C291.741 112.722 291.725 112.616 291.681 112.521C291.636 112.426 291.564 112.347 291.475 112.292Z" fill="#BBE7FF"/>
<path d="M243.435 179.792C242.795 178.348 240.691 178.292 239.01 178.603C238.462 178.605 237.917 178.697 237.4 178.878C237.235 178.924 237.083 179.008 236.956 179.123C236.829 179.238 236.73 179.381 236.668 179.541C236.606 179.701 236.582 179.873 236.598 180.043C236.614 180.214 236.67 180.378 236.76 180.524C237.455 181.323 238.417 181.843 239.466 181.986C240.723 182.225 244.384 181.95 243.435 179.792Z" fill="#FB0E39"/>
<path d="M234.637 195.849C233.338 194.862 231.36 195.941 230.009 197.074C229.591 197.302 229.214 197.599 228.894 197.952C228.771 198.072 228.678 198.22 228.622 198.383C228.566 198.545 228.548 198.719 228.571 198.89C228.595 199.06 228.657 199.223 228.754 199.365C228.852 199.507 228.981 199.625 229.131 199.708C230.137 200.08 231.245 200.066 232.241 199.671C233.466 199.269 236.521 197.275 234.637 195.849Z" fill="#FB0E39"/>
<path d="M236.3 210.625C234.765 209.766 232.972 210.936 231.82 212.271C231.435 212.533 231.106 212.869 230.851 213.259C229.495 215.655 233.558 215.599 234.806 215.067C236.337 214.424 238.532 211.869 236.3 210.625Z" fill="#FB0E39"/>
<path d="M246.798 218.781C245.207 218.329 243.781 219.733 242.975 221.196C242.63 221.532 242.384 221.955 242.262 222.421C241.768 224.871 245.462 223.994 246.523 223.226C247.859 222.221 249.12 219.458 246.798 218.781Z" fill="#FB0E39"/>
<path d="M173.19 371.008C173.044 369.636 171.947 368.557 170.519 369.162C170.473 369.179 170.43 369.203 170.392 369.234C170.186 369.269 169.993 369.362 169.838 369.502C169.683 369.642 169.57 369.823 169.514 370.025C168.892 371.157 168.661 372.462 168.856 373.738C168.901 374.112 169.023 374.473 169.215 374.797C169.408 375.121 169.665 375.402 169.971 375.621C170.052 375.781 170.167 375.922 170.308 376.032C170.45 376.142 170.614 376.219 170.79 376.258C170.965 376.296 171.147 376.295 171.321 376.255C171.496 376.214 171.66 376.135 171.8 376.023C173.116 375.196 173.337 372.362 173.19 371.008Z" fill="#FB0E39"/>
<path d="M151.34 392.551C151.11 392.498 150.871 392.497 150.64 392.547C150.409 392.598 150.192 392.699 150.005 392.844C149.938 392.82 149.867 392.81 149.796 392.816C149.725 392.821 149.655 392.842 149.593 392.877C149.531 392.911 149.476 392.959 149.434 393.016C149.391 393.074 149.362 393.139 149.347 393.209C148.813 395.145 149.014 397.21 149.912 399.006C150.552 400.085 151.869 400.872 153.02 399.994C155.182 398.403 154.025 393.008 151.34 392.551Z" fill="#FB0E39"/>
<path d="M140.821 397.269C140.577 397.053 140.284 396.898 139.968 396.82C139.651 396.741 139.32 396.741 139.003 396.819C138.687 396.897 138.393 397.05 138.149 397.267C137.905 397.483 137.717 397.755 137.601 398.06C137.268 398.86 137.121 399.725 137.172 400.59C137.223 401.455 137.47 402.297 137.894 403.053C138.011 403.281 138.152 403.496 138.316 403.693C138.955 404.823 140.199 405.687 141.442 404.771C143.875 403.012 142.997 398.787 140.821 397.269Z" fill="#FB0E39"/>
<path d="M133.945 390.851C133.744 389.424 132.499 386.644 130.58 387.595C130.163 387.843 129.827 388.206 129.613 388.641C129.399 389.076 129.315 389.564 129.373 390.045C129.226 391.948 129.391 394.617 131.407 395.331C133.726 396.136 134.146 392.277 133.945 390.851Z" fill="#FB0E39"/>
<path d="M127.708 379.439C127.58 379.133 127.377 378.863 127.118 378.655C126.859 378.446 126.553 378.306 126.226 378.246C125.899 378.186 125.562 378.209 125.247 378.311C124.931 378.414 124.645 378.595 124.417 378.836C124.209 379.07 124.065 379.353 123.996 379.658C123.674 380.603 123.556 381.605 123.651 382.599C123.745 383.592 124.05 384.554 124.544 385.421C125.478 386.865 126.94 386.299 127.581 384.927C127.977 384.07 128.192 383.141 128.214 382.196C128.236 381.252 128.064 380.314 127.708 379.439Z" fill="#FB0E39"/>
<g filter="url(#filter0_d_194_787)">
<path d="M0 416C0 407.163 7.16344 400 16 400H359C367.837 400 375 407.163 375 416V667H0V416Z" fill="white"/>
<rect x="169" y="406" width="36" height="4" rx="2" fill="#EEEEEE"/>
</g>
<rect x="16" y="456" width="343" height="48" rx="6" fill="white" stroke="#B7B7B7"/>
<g filter="url(#filter1_d_194_787)">
<path d="M20.856 437.216C22.8047 437.216 24.252 436.13 24.5566 434.455V434.442H23.4014L23.3887 434.455C23.103 435.508 22.1318 436.162 20.856 436.162C19.0913 436.162 17.9868 434.721 17.9868 432.43V432.417C17.9868 430.125 19.0913 428.678 20.8496 428.678C22.1128 428.678 23.0903 429.421 23.395 430.595L23.4014 430.608H24.5503L24.5566 430.595C24.2837 428.837 22.7793 427.625 20.8496 427.625C18.3613 427.625 16.8125 429.465 16.8125 432.417V432.43C16.8125 435.375 18.3677 437.216 20.856 437.216ZM29.146 437.121C31.0947 437.121 32.3008 435.775 32.3008 433.585V433.572C32.3008 431.376 31.0947 430.037 29.146 430.037C27.1973 430.037 25.9912 431.376 25.9912 433.572V433.585C25.9912 435.775 27.1973 437.121 29.146 437.121ZM29.146 436.143C27.8511 436.143 27.1211 435.197 27.1211 433.585V433.572C27.1211 431.954 27.8511 431.014 29.146 431.014C30.4409 431.014 31.1709 431.954 31.1709 433.572V433.585C31.1709 435.197 30.4409 436.143 29.146 436.143ZM36.541 437.121C37.4932 437.121 38.2549 436.67 38.6738 435.908H38.7754V437H39.8799V427.44H38.7754V431.236H38.6738C38.2993 430.506 37.4805 430.037 36.541 430.037C34.8018 430.037 33.6719 431.427 33.6719 433.572V433.585C33.6719 435.718 34.8081 437.121 36.541 437.121ZM36.7949 436.143C35.5444 436.143 34.8018 435.178 34.8018 433.585V433.572C34.8018 431.979 35.5444 431.014 36.7949 431.014C38.0391 431.014 38.8008 431.992 38.8008 433.572V433.585C38.8008 435.166 38.0391 436.143 36.7949 436.143ZM44.793 437.121C46.4053 437.121 47.3828 436.207 47.6177 435.28L47.6304 435.229H46.5259L46.5005 435.286C46.3164 435.699 45.7451 436.137 44.8184 436.137C43.5996 436.137 42.8188 435.312 42.7871 433.896H47.7129V433.464C47.7129 431.42 46.583 430.037 44.7231 430.037C42.8633 430.037 41.6572 431.484 41.6572 433.598V433.604C41.6572 435.75 42.8379 437.121 44.793 437.121ZM44.7168 431.021C45.7261 431.021 46.4751 431.662 46.5894 433.014H42.8062C42.9268 431.712 43.7012 431.021 44.7168 431.021Z" fill="#2A2A2B"/>
<path d="M24.5566 434.455L25.5405 434.633L25.5566 434.545V434.455H24.5566ZM24.5566 434.442H25.5566V433.442H24.5566V434.442ZM23.4014 434.442V433.442H22.9872L22.6943 433.735L23.4014 434.442ZM23.3887 434.455L22.6816 433.747L22.4932 433.936L22.4235 434.193L23.3887 434.455ZM23.395 430.595L22.4271 430.846L22.4535 430.948L22.5006 431.042L23.395 430.595ZM23.4014 430.608L22.5069 431.055L22.7833 431.608H23.4014V430.608ZM24.5503 430.608V431.608H25.1683L25.4447 431.055L24.5503 430.608ZM24.5566 430.595L25.4511 431.042L25.5937 430.757L25.5448 430.442L24.5566 430.595ZM20.856 438.216C23.1917 438.216 25.1332 436.874 25.5405 434.633L23.5728 434.276C23.3707 435.387 22.4177 436.216 20.856 436.216V438.216ZM25.5566 434.455V434.442H23.5566V434.455H25.5566ZM24.5566 433.442H23.4014V435.442H24.5566V433.442ZM22.6943 433.735L22.6816 433.747L24.0958 435.162L24.1085 435.149L22.6943 433.735ZM22.4235 434.193C22.2813 434.717 21.785 435.162 20.856 435.162V437.162C22.4787 437.162 23.9247 436.299 24.3538 434.716L22.4235 434.193ZM20.856 435.162C20.276 435.162 19.8551 434.94 19.5527 434.546C19.2286 434.124 18.9868 433.428 18.9868 432.43H16.9868C16.9868 433.723 17.2972 434.893 17.9666 435.764C18.6576 436.664 19.6713 437.162 20.856 437.162V435.162ZM18.9868 432.43V432.417H16.9868V432.43H18.9868ZM18.9868 432.417C18.9868 431.419 19.2286 430.72 19.5531 430.296C19.856 429.9 20.2756 429.678 20.8496 429.678V427.678C19.6653 427.678 18.6535 428.18 17.9646 429.081C17.2972 429.953 16.9868 431.124 16.9868 432.417H18.9868ZM20.8496 429.678C21.6773 429.678 22.2418 430.132 22.4271 430.846L24.363 430.344C23.9389 428.71 22.5483 427.678 20.8496 427.678V429.678ZM22.5006 431.042L22.5069 431.055L24.2958 430.161L24.2894 430.148L22.5006 431.042ZM23.4014 431.608H24.5503V429.608H23.4014V431.608ZM25.4447 431.055L25.4511 431.042L23.6622 430.148L23.6559 430.161L25.4447 431.055ZM25.5448 430.442C25.1878 428.142 23.2151 426.625 20.8496 426.625V428.625C22.3435 428.625 23.3796 429.532 23.5685 430.749L25.5448 430.442ZM20.8496 426.625C19.3398 426.625 18.0394 427.193 17.133 428.27C16.2433 429.326 15.8125 430.775 15.8125 432.417H17.8125C17.8125 431.107 18.1561 430.16 18.6629 429.558C19.153 428.976 19.8711 428.625 20.8496 428.625V426.625ZM15.8125 432.417V432.43H17.8125V432.417H15.8125ZM15.8125 432.43C15.8125 434.069 16.2456 435.517 17.1372 436.573C18.045 437.647 19.3464 438.216 20.856 438.216V436.216C19.8772 436.216 19.1569 435.864 18.665 435.282C18.157 434.681 17.8125 433.735 17.8125 432.43H15.8125ZM29.146 438.121C30.3629 438.121 31.4386 437.692 32.1999 436.84C32.9492 436.001 33.3008 434.857 33.3008 433.585H31.3008C31.3008 434.503 31.0493 435.126 30.7084 435.508C30.3795 435.876 29.8779 436.121 29.146 436.121V438.121ZM33.3008 433.585V433.572H31.3008V433.585H33.3008ZM33.3008 433.572C33.3008 432.297 32.9496 431.153 32.1995 430.314C31.4375 429.462 30.3614 429.037 29.146 429.037V431.037C29.8793 431.037 30.3806 431.281 30.7088 431.648C31.049 432.028 31.3008 432.651 31.3008 433.572H33.3008ZM29.146 429.037C27.9305 429.037 26.8545 429.462 26.0925 430.314C25.3424 431.153 24.9912 432.297 24.9912 433.572H26.9912C26.9912 432.651 27.243 432.028 27.5831 431.648C27.9114 431.281 28.4127 431.037 29.146 431.037V429.037ZM24.9912 433.572V433.585H26.9912V433.572H24.9912ZM24.9912 433.585C24.9912 434.857 25.3427 436.001 26.0921 436.84C26.8534 437.692 27.9291 438.121 29.146 438.121V436.121C28.4141 436.121 27.9125 435.876 27.5836 435.508C27.2427 435.126 26.9912 434.503 26.9912 433.585H24.9912ZM29.146 435.143C28.7662 435.143 28.5659 435.018 28.4341 434.851C28.2754 434.649 28.1211 434.257 28.1211 433.585H26.1211C26.1211 434.525 26.3318 435.413 26.8618 436.087C27.4187 436.795 28.2309 437.143 29.146 437.143V435.143ZM28.1211 433.585V433.572H26.1211V433.585H28.1211ZM28.1211 433.572C28.1211 432.896 28.2757 432.505 28.4335 432.305C28.5643 432.139 28.764 432.014 29.146 432.014V430.014C28.233 430.014 27.4203 430.359 26.8624 431.067C26.3315 431.741 26.1211 432.63 26.1211 433.572H28.1211ZM29.146 432.014C29.528 432.014 29.7277 432.139 29.8585 432.305C30.0163 432.505 30.1709 432.896 30.1709 433.572H32.1709C32.1709 432.63 31.9605 431.741 31.4296 431.067C30.8717 430.359 30.0589 430.014 29.146 430.014V432.014ZM30.1709 433.572V433.585H32.1709V433.572H30.1709ZM30.1709 433.585C30.1709 434.257 30.0166 434.649 29.8579 434.851C29.7261 435.018 29.5258 435.143 29.146 435.143V437.143C30.0611 437.143 30.8733 436.795 31.4302 436.087C31.9602 435.413 32.1709 434.525 32.1709 433.585H30.1709ZM38.6738 435.908V434.908H38.0826L37.7976 435.426L38.6738 435.908ZM38.7754 435.908H39.7754V434.908H38.7754V435.908ZM38.7754 437H37.7754V438H38.7754V437ZM39.8799 437V438H40.8799V437H39.8799ZM39.8799 427.44H40.8799V426.44H39.8799V427.44ZM38.7754 427.44V426.44H37.7754V427.44H38.7754ZM38.7754 431.236V432.236H39.7754V431.236H38.7754ZM38.6738 431.236L37.7841 431.693L38.0629 432.236H38.6738V431.236ZM36.541 438.121C37.8383 438.121 38.9461 437.488 39.55 436.39L37.7976 435.426C37.5636 435.852 37.148 436.121 36.541 436.121V438.121ZM38.6738 436.908H38.7754V434.908H38.6738V436.908ZM37.7754 435.908V437H39.7754V435.908H37.7754ZM38.7754 438H39.8799V436H38.7754V438ZM40.8799 437V427.44H38.8799V437H40.8799ZM39.8799 426.44H38.7754V428.44H39.8799V426.44ZM37.7754 427.44V431.236H39.7754V427.44H37.7754ZM38.7754 430.236H38.6738V432.236H38.7754V430.236ZM39.5636 430.78C38.9945 429.671 37.8015 429.037 36.541 429.037V431.037C37.1594 431.037 37.6041 431.342 37.7841 431.693L39.5636 430.78ZM36.541 429.037C35.3808 429.037 34.3742 429.512 33.6779 430.37C32.998 431.207 32.6719 432.333 32.6719 433.572H34.6719C34.6719 432.666 34.9107 432.024 35.2306 431.63C35.534 431.256 35.962 431.037 36.541 431.037V429.037ZM32.6719 433.572V433.585H34.6719V433.572H32.6719ZM32.6719 433.585C32.6719 434.82 33.0008 435.945 33.6799 436.783C34.3749 437.639 35.3802 438.121 36.541 438.121V436.121C35.9689 436.121 35.5397 435.9 35.2333 435.523C34.911 435.125 34.6719 434.482 34.6719 433.585H32.6719ZM36.7949 435.143C36.4544 435.143 36.2575 435.026 36.1192 434.848C35.9564 434.638 35.8018 434.241 35.8018 433.585H33.8018C33.8018 434.522 34.0185 435.404 34.5396 436.075C35.0853 436.778 35.8849 437.143 36.7949 437.143V435.143ZM35.8018 433.585V433.572H33.8018V433.585H35.8018ZM35.8018 433.572C35.8018 432.916 35.9564 432.519 36.1192 432.309C36.2575 432.131 36.4544 432.014 36.7949 432.014V430.014C35.8849 430.014 35.0853 430.38 34.5396 431.082C34.0185 431.753 33.8018 432.635 33.8018 433.572H35.8018ZM36.7949 432.014C37.1277 432.014 37.3315 432.131 37.477 432.317C37.6446 432.531 37.8008 432.929 37.8008 433.572H39.8008C39.8008 432.635 39.5761 431.754 39.0518 431.084C38.5054 430.386 37.7063 430.014 36.7949 430.014V432.014ZM37.8008 433.572V433.585H39.8008V433.572H37.8008ZM37.8008 433.585C37.8008 434.228 37.6446 434.626 37.477 434.84C37.3315 435.026 37.1277 435.143 36.7949 435.143V437.143C37.7063 437.143 38.5054 436.771 39.0518 436.073C39.5761 435.403 39.8008 434.523 39.8008 433.585H37.8008ZM47.6177 435.28L48.587 435.525L48.5878 435.522L47.6177 435.28ZM47.6304 435.229L48.6005 435.472L48.9111 434.229H47.6304V435.229ZM46.5259 435.229V434.229H45.876L45.6121 434.823L46.5259 435.229ZM46.5005 435.286L47.4137 435.694L47.4143 435.692L46.5005 435.286ZM42.7871 433.896V432.896H41.7644L41.7874 433.918L42.7871 433.896ZM47.7129 433.896V434.896H48.7129V433.896H47.7129ZM46.5894 433.014V434.014H47.6774L47.5858 432.929L46.5894 433.014ZM42.8062 433.014L41.8104 432.921L41.7092 434.014H42.8062V433.014ZM44.793 438.121C46.8037 438.121 48.2258 436.951 48.587 435.525L46.6483 435.034C46.5398 435.462 46.0068 436.121 44.793 436.121V438.121ZM48.5878 435.522L48.6005 435.472L46.6602 434.986L46.6475 435.037L48.5878 435.522ZM47.6304 434.229H46.5259V436.229H47.6304V434.229ZM45.6121 434.823L45.5867 434.88L47.4143 435.692L47.4397 435.635L45.6121 434.823ZM45.5873 434.879C45.5987 434.853 45.4435 435.137 44.8184 435.137V437.137C46.0468 437.137 47.0341 436.544 47.4137 435.694L45.5873 434.879ZM44.8184 435.137C44.446 435.137 44.2293 435.018 44.0946 434.871C43.9484 434.712 43.7988 434.408 43.7869 433.874L41.7874 433.918C41.8071 434.8 42.0638 435.616 42.6206 436.223C43.1889 436.843 43.9719 437.137 44.8184 437.137V435.137ZM42.7871 434.896H47.7129V432.896H42.7871V434.896ZM48.7129 433.896V433.464H46.7129V433.896H48.7129ZM48.7129 433.464C48.7129 432.265 48.381 431.158 47.6751 430.334C46.9543 429.492 45.9199 429.037 44.7231 429.037V431.037C45.3862 431.037 45.8467 431.273 46.1559 431.634C46.4798 432.013 46.7129 432.619 46.7129 433.464H48.7129ZM44.7231 429.037C43.514 429.037 42.4645 429.517 41.7319 430.376C41.0121 431.219 40.6572 432.356 40.6572 433.598H42.6572C42.6572 432.725 42.9054 432.082 43.2536 431.673C43.5889 431.28 44.0724 431.037 44.7231 431.037V429.037ZM40.6572 433.598V433.604H42.6572V433.598H40.6572ZM40.6572 433.604C40.6572 434.853 41.0019 435.99 41.7424 436.829C42.4961 437.682 43.5675 438.121 44.793 438.121V436.121C44.0633 436.121 43.5669 435.873 43.2415 435.505C42.9029 435.121 42.6572 434.5 42.6572 433.604H40.6572ZM44.7168 432.021C45.0018 432.021 45.1703 432.105 45.2799 432.215C45.3982 432.334 45.5497 432.587 45.5929 433.098L47.5858 432.929C47.5148 432.089 47.2347 431.344 46.6975 430.805C46.1517 430.256 45.441 430.021 44.7168 430.021V432.021ZM46.5894 432.014H42.8062V434.014H46.5894V432.014ZM43.8019 433.106C43.8457 432.633 43.9972 432.372 44.1329 432.236C44.262 432.107 44.4461 432.021 44.7168 432.021V430.021C43.9719 430.021 43.2609 430.28 42.7187 430.822C42.1832 431.358 41.8872 432.093 41.8104 432.921L43.8019 433.106Z" fill="black"/>
</g>
<rect x="16" y="579" width="343" height="56" rx="12" fill="#B7B7B7"/>
<path d="M160.311 615.269C164.092 615.269 166.369 613.432 166.369 610.542V610.531C166.369 608.114 164.962 606.804 161.739 606.138L160.063 605.794C158.194 605.407 157.346 604.763 157.346 603.667V603.656C157.346 602.421 158.474 601.572 160.289 601.562C162.029 601.562 163.222 602.367 163.404 603.721L163.426 603.85H166.079L166.068 603.667C165.907 601.014 163.694 599.23 160.311 599.23C156.97 599.23 154.574 601.078 154.563 603.807V603.817C154.563 606.127 156.067 607.545 159.118 608.179L160.783 608.522C162.781 608.941 163.587 609.564 163.587 610.725V610.735C163.587 612.067 162.362 612.938 160.407 612.938C158.463 612.938 157.099 612.11 156.895 610.778L156.873 610.649H154.22L154.23 610.811C154.413 613.593 156.755 615.269 160.311 615.269ZM169.918 601.98C170.756 601.98 171.401 601.314 171.401 600.52C171.401 599.703 170.756 599.048 169.918 599.048C169.08 599.048 168.425 599.703 168.425 600.52C168.425 601.314 169.08 601.98 169.918 601.98ZM168.575 615H171.25V603.613H168.575V615ZM178.989 618.985C182.287 618.985 184.36 617.256 184.36 614.678V603.613H181.685V605.547H181.621C180.976 604.236 179.73 603.377 178.119 603.377C175.24 603.377 173.381 605.59 173.381 609.188V609.199C173.381 612.744 175.218 614.936 178.076 614.936C179.709 614.936 180.998 614.162 181.631 612.948H181.685V614.592C181.685 616.042 180.729 616.966 178.989 616.966C177.592 616.966 176.679 616.472 176.389 615.816L176.357 615.73H173.725L173.747 615.827C174.069 617.61 175.97 618.985 178.989 618.985ZM178.914 612.873C177.195 612.873 176.11 611.487 176.11 609.242V609.231C176.11 607.019 177.195 605.633 178.914 605.633C180.568 605.633 181.696 607.04 181.696 609.242V609.253C181.696 611.466 180.579 612.873 178.914 612.873ZM186.878 615H189.553V608.394C189.553 606.75 190.53 605.633 192.066 605.633C193.592 605.633 194.344 606.546 194.344 608.168V615H197.018V607.631C197.018 604.988 195.59 603.377 193.087 603.377C191.357 603.377 190.197 604.172 189.606 605.396H189.553V603.613H186.878V615ZM205.642 601.98C206.48 601.98 207.124 601.314 207.124 600.52C207.124 599.703 206.48 599.048 205.642 599.048C204.804 599.048 204.149 599.703 204.149 600.52C204.149 601.314 204.804 601.98 205.642 601.98ZM204.299 615H206.974V603.613H204.299V615ZM209.578 615H212.253V608.394C212.253 606.75 213.23 605.633 214.766 605.633C216.292 605.633 217.044 606.546 217.044 608.168V615H219.718V607.631C219.718 604.988 218.29 603.377 215.787 603.377C214.057 603.377 212.897 604.172 212.306 605.396H212.253V603.613H209.578V615Z" fill="white"/>
</g>
<defs>
<filter id="filter0_d_194_787" x="-16" y="384" width="407" height="299" filterUnits="userSpaceOnUse" color-interpolation-filters="sRGB">
<feFlood flood-opacity="0" result="BackgroundImageFix"/>
<feColorMatrix in="SourceAlpha" type="matrix" values="0 0 0 0 0 0 0 0 0 0 0 0 0 0 0 0 0 0 127 0" result="hardAlpha"/>
<feOffset/>
<feGaussianBlur stdDeviation="8"/>
<feColorMatrix type="matrix" values="0 0 0 0 0 0 0 0 0 0 0 0 0 0 0 0 0 0 0.08 0"/>
<feBlend mode="normal" in2="BackgroundImageFix" result="effect1_dropShadow_194_787"/>
<feBlend mode="normal" in="SourceGraphic" in2="effect1_dropShadow_194_787" result="shape"/>
</filter>
<filter id="filter1_d_194_787" x="12.8125" y="427.44" width="38.9004" height="17.7754" filterUnits="userSpaceOnUse" color-interpolation-filters="sRGB">
<feFlood flood-opacity="0" result="BackgroundImageFix"/>
<feColorMatrix in="SourceAlpha" type="matrix" values="0 0 0 0 0 0 0 0 0 0 0 0 0 0 0 0 0 0 127 0" result="hardAlpha"/>
<feOffset dy="4"/>
<feGaussianBlur stdDeviation="2"/>
<feComposite in2="hardAlpha" operator="out"/>
<feColorMatrix type="matrix" values="0 0 0 0 0 0 0 0 0 0 0 0 0 0 0 0 0 0 0.25 0"/>
<feBlend mode="normal" in2="BackgroundImageFix" result="effect1_dropShadow_194_787"/>
<feBlend mode="normal" in="SourceGraphic" in2="effect1_dropShadow_194_787" result="shape"/>
</filter>
<clipPath id="clip0_194_787">
<rect width="375" height="667" fill="white"/>
</clipPath>
<clipPath id="clip1_194_787">
<rect width="24" height="24" fill="white" transform="translate(16 32)"/>
</clipPath>
<clipPath id="clip2_194_787">
<rect width="78" height="16" fill="white" transform="translate(4 4)"/>
</clipPath>
</defs>
</svg>
