<svg width="375" height="667" viewBox="0 0 375 667" fill="none" xmlns="http://www.w3.org/2000/svg">
<g clip-path="url(#clip0_194_746)">
<rect width="375" height="667" fill="white"/>
<g clip-path="url(#clip1_194_746)">
<path d="M31 51.5L23.5 44L31 36.5" stroke="#2A2A2B" stroke-width="2" stroke-linecap="round" stroke-linejoin="round"/>
</g>
<path d="M160.675 52.2686C164.456 52.2686 166.734 50.4316 166.734 47.542V47.5312C166.734 45.1143 165.326 43.8037 162.104 43.1377L160.428 42.7939C158.559 42.4072 157.71 41.7627 157.71 40.667V40.6562C157.71 39.4209 158.838 38.5723 160.653 38.5615C162.394 38.5615 163.586 39.3672 163.769 40.7207L163.79 40.8496H166.443L166.433 40.667C166.272 38.0137 164.059 36.2305 160.675 36.2305C157.334 36.2305 154.939 38.0781 154.928 40.8066V40.8174C154.928 43.127 156.432 44.5449 159.483 45.1787L161.148 45.5225C163.146 45.9414 163.951 46.5645 163.951 47.7246V47.7354C163.951 49.0674 162.727 49.9375 160.772 49.9375C158.827 49.9375 157.463 49.1104 157.259 47.7783L157.237 47.6494H154.584L154.595 47.8105C154.777 50.5928 157.119 52.2686 160.675 52.2686ZM170.283 38.9805C171.121 38.9805 171.765 38.3145 171.765 37.5195C171.765 36.7031 171.121 36.0479 170.283 36.0479C169.445 36.0479 168.789 36.7031 168.789 37.5195C168.789 38.3145 169.445 38.9805 170.283 38.9805ZM168.94 52H171.615V40.6133H168.94V52ZM179.353 55.9854C182.651 55.9854 184.724 54.2559 184.724 51.6777V40.6133H182.05V42.5469H181.985C181.341 41.2363 180.094 40.377 178.483 40.377C175.604 40.377 173.746 42.5898 173.746 46.1885V46.1992C173.746 49.7441 175.583 51.9355 178.44 51.9355C180.073 51.9355 181.362 51.1621 181.996 49.9482H182.05V51.5918C182.05 53.042 181.093 53.9658 179.353 53.9658C177.957 53.9658 177.044 53.4717 176.754 52.8164L176.721 52.7305H174.09L174.111 52.8271C174.433 54.6104 176.335 55.9854 179.353 55.9854ZM179.278 49.873C177.559 49.873 176.474 48.4873 176.474 46.2422V46.2314C176.474 44.0186 177.559 42.6328 179.278 42.6328C180.932 42.6328 182.06 44.04 182.06 46.2422V46.2529C182.06 48.4658 180.943 49.873 179.278 49.873ZM187.242 52H189.917V45.3936C189.917 43.75 190.895 42.6328 192.431 42.6328C193.956 42.6328 194.708 43.5459 194.708 45.168V52H197.383V44.6309C197.383 41.9883 195.954 40.377 193.451 40.377C191.722 40.377 190.562 41.1719 189.971 42.3965H189.917V40.6133H187.242V52ZM206.006 38.9805C206.844 38.9805 207.489 38.3145 207.489 37.5195C207.489 36.7031 206.844 36.0479 206.006 36.0479C205.169 36.0479 204.513 36.7031 204.513 37.5195C204.513 38.3145 205.169 38.9805 206.006 38.9805ZM204.664 52H207.338V40.6133H204.664V52ZM209.942 52H212.617V45.3936C212.617 43.75 213.595 42.6328 215.131 42.6328C216.656 42.6328 217.408 43.5459 217.408 45.168V52H220.083V44.6309C220.083 41.9883 218.654 40.377 216.151 40.377C214.422 40.377 213.262 41.1719 212.671 42.3965H212.617V40.6133H209.942V52Z" fill="#2A2A2B"/>
<rect y="79" width="375" height="1" fill="#E4E4E4"/>
<path d="M167.279 6.33398C165.445 6.33398 164.139 7.58789 164.139 9.30469V9.31641C164.139 10.9219 165.275 12.1055 166.898 12.1055C168.059 12.1055 168.797 11.5137 169.107 10.8457H169.225C169.225 10.9102 169.219 10.9746 169.219 11.0391C169.154 12.6562 168.586 13.9688 167.244 13.9688C166.5 13.9688 165.979 13.582 165.756 12.9902L165.738 12.9316H164.25L164.262 12.9961C164.531 14.291 165.691 15.2109 167.244 15.2109C169.371 15.2109 170.654 13.5234 170.654 10.6758V10.6641C170.654 7.61719 169.084 6.33398 167.279 6.33398ZM167.273 10.9453C166.312 10.9453 165.615 10.2422 165.615 9.26367V9.25195C165.615 8.30859 166.359 7.56445 167.291 7.56445C168.229 7.56445 168.961 8.32031 168.961 9.28711V9.29883C168.961 10.2539 168.229 10.9453 167.273 10.9453ZM173.314 9.52148C173.854 9.52148 174.246 9.11133 174.246 8.5957C174.246 8.07422 173.854 7.66992 173.314 7.66992C172.781 7.66992 172.383 8.07422 172.383 8.5957C172.383 9.11133 172.781 9.52148 173.314 9.52148ZM173.314 13.8691C173.854 13.8691 174.246 13.4648 174.246 12.9434C174.246 12.4219 173.854 12.0176 173.314 12.0176C172.781 12.0176 172.383 12.4219 172.383 12.9434C172.383 13.4648 172.781 13.8691 173.314 13.8691ZM180.076 15H181.523V13.377H182.66V12.1289H181.523V6.54492H179.385C178.236 8.29102 177.035 10.2363 175.939 12.1406V13.377H180.076V15ZM177.346 12.1641V12.0762C178.166 10.6406 179.145 9.07617 180.012 7.75195H180.1V12.1641H177.346ZM186.164 15H187.676V6.54492H186.17L183.961 8.09766V9.52148L186.064 8.0332H186.164V15ZM192.756 15H194.338L195.041 12.8145H198.17L198.879 15H200.461L197.461 6.54492H195.756L192.756 15ZM196.559 8.11523H196.658L197.795 11.6484H195.422L196.559 8.11523ZM201.914 15H203.279V8.98828H203.379L205.723 15H206.754L209.098 8.98828H209.203V15H210.562V6.54492H208.828L206.291 13.0488H206.191L203.648 6.54492H201.914V15Z" fill="black"/>
<path opacity="0.35" fill-rule="evenodd" clip-rule="evenodd" d="M345.5 5.5H364.5C365.881 5.5 367 6.61929 367 8V14.5C367 15.8807 365.881 17 364.5 17H345.5C344.119 17 343 15.8807 343 14.5V8C343 6.61929 344.119 5.5 345.5 5.5ZM345.5 6.5C344.672 6.5 344 7.17157 344 8V14.5C344 15.3284 344.672 16 345.5 16H364.5C365.328 16 366 15.3284 366 14.5V8C366 7.17157 365.328 6.5 364.5 6.5H345.5Z" fill="black"/>
<path opacity="0.4" fill-rule="evenodd" clip-rule="evenodd" d="M368 8.7998C368.89 9.25498 369.5 10.1813 369.5 11.2499C369.5 12.3186 368.89 13.2449 368 13.7001V8.7998Z" fill="black"/>
<path fill-rule="evenodd" clip-rule="evenodd" d="M346 7.5H364C364.552 7.5 365 7.94772 365 8.5V14C365 14.5523 364.552 15 364 15H346C345.448 15 345 14.5523 345 14V8.5C345 7.94772 345.448 7.5 346 7.5Z" fill="black"/>
<path d="M311.219 15.3H312.273V6.84497H311.225L308.975 8.46216V9.57544L311.125 8.01685H311.219V15.3ZM317.547 15.4993C319.416 15.4993 320.541 13.7942 320.541 11.0754V11.0637C320.541 8.34497 319.416 6.64575 317.547 6.64575C315.678 6.64575 314.564 8.34497 314.564 11.0637V11.0754C314.564 13.7942 315.678 15.4993 317.547 15.4993ZM317.547 14.5793C316.334 14.5793 315.625 13.2317 315.625 11.0754V11.0637C315.625 8.90747 316.334 7.57153 317.547 7.57153C318.76 7.57153 319.48 8.90747 319.48 11.0637V11.0754C319.48 13.2317 318.76 14.5793 317.547 14.5793ZM325.105 15.4993C326.975 15.4993 328.1 13.7942 328.1 11.0754V11.0637C328.1 8.34497 326.975 6.64575 325.105 6.64575C323.236 6.64575 322.123 8.34497 322.123 11.0637V11.0754C322.123 13.7942 323.236 15.4993 325.105 15.4993ZM325.105 14.5793C323.893 14.5793 323.184 13.2317 323.184 11.0754V11.0637C323.184 8.90747 323.893 7.57153 325.105 7.57153C326.318 7.57153 327.039 8.90747 327.039 11.0637V11.0754C327.039 13.2317 326.318 14.5793 325.105 14.5793ZM331.41 11.2922C332.488 11.2922 333.145 10.4133 333.145 9.01294V9.00708C333.145 7.60669 332.488 6.73364 331.41 6.73364C330.332 6.73364 329.682 7.60669 329.682 9.00708V9.01294C329.682 10.4133 330.332 11.2922 331.41 11.2922ZM332.043 15.3L337.797 6.84497H336.848L331.094 15.3H332.043ZM331.41 10.595C330.83 10.595 330.496 10.0032 330.496 9.01294V9.00708C330.496 8.01685 330.83 7.43091 331.41 7.43091C331.99 7.43091 332.33 8.01685 332.33 9.00708V9.01294C332.33 10.0032 331.99 10.595 331.41 10.595ZM337.469 15.4114C338.547 15.4114 339.203 14.5325 339.203 13.1321V13.1262C339.203 11.7258 338.547 10.8528 337.469 10.8528C336.391 10.8528 335.74 11.7258 335.74 13.1262V13.1321C335.74 14.5325 336.391 15.4114 337.469 15.4114ZM337.469 14.7141C336.889 14.7141 336.555 14.1223 336.555 13.1321V13.1262C336.555 12.136 336.889 11.55 337.469 11.55C338.049 11.55 338.389 12.136 338.389 13.1262V13.1321C338.389 14.1223 338.049 14.7141 337.469 14.7141Z" fill="black"/>
<path fill-rule="evenodd" clip-rule="evenodd" d="M281.269 8.69225C281.1 8.46378 281 8.18107 281 7.875C281 7.11561 281.616 6.5 282.375 6.5C282.647 6.5 282.901 6.57923 283.115 6.7159C282.344 7.20596 281.707 7.88693 281.269 8.69225ZM290.37 11.255C290.37 13.6712 288.411 15.63 285.995 15.63C283.579 15.63 281.62 13.6712 281.62 11.255C281.62 8.83875 283.579 6.88 285.995 6.88C288.411 6.88 290.37 8.83875 290.37 11.255ZM286.38 11.875H284.25V11.12H285.63V8.5H286.38V11.875ZM289.625 6.5C289.35 6.5 289.095 6.58046 288.88 6.71909C289.651 7.21049 290.288 7.89306 290.725 8.70001C290.898 8.4702 291 8.18455 291 7.875C291 7.11561 290.384 6.5 289.625 6.5Z" fill="black"/>
<path fill-rule="evenodd" clip-rule="evenodd" d="M300 10.9833V10.9711L297.044 8.28354L297.716 7.5436L300 9.61963V5.11963L303.993 8.7499L301.518 10.9999L303.993 13.2499L300 16.8802V12.3347L297.716 14.4108L297.044 13.6708L300 10.9833ZM301 10.1196L302.507 8.7499L301 7.38018V10.1196ZM302.507 13.2499L301 14.6196V11.8802L302.507 13.2499Z" fill="black"/>
<g clip-path="url(#clip2_194_746)">
<path opacity="0.25" fill-rule="evenodd" clip-rule="evenodd" d="M20.5 6H21.5C22.0523 6 22.5 6.44772 22.5 7V15C22.5 15.5523 22.0523 16 21.5 16H20.5C19.9477 16 19.5 15.5523 19.5 15V7C19.5 6.44772 19.9477 6 20.5 6Z" fill="black"/>
<path fill-rule="evenodd" clip-rule="evenodd" d="M17 8H16C15.4477 8 15 8.44772 15 9V15C15 15.5523 15.4477 16 16 16H17C17.5523 16 18 15.5523 18 15V9C18 8.44772 17.5523 8 17 8ZM11.5 10H12.5C13.0523 10 13.5 10.4477 13.5 11V15C13.5 15.5523 13.0523 16 12.5 16H11.5C10.9477 16 10.5 15.5523 10.5 15V11C10.5 10.4477 10.9477 10 11.5 10ZM7 11.5H8C8.55228 11.5 9 11.9477 9 12.5V15C9 15.5523 8.55228 16 8 16H7C6.44772 16 6 15.5523 6 15V12.5C6 11.9477 6.44772 11.5 7 11.5Z" fill="black"/>
<path d="M30.0781 15H31.1328V11.3379H34.877V10.4004H31.1328V7.49414H35.2109V6.54492H30.0781V15ZM37.3055 7.46484C37.6922 7.46484 38.0086 7.14844 38.0086 6.76172C38.0086 6.375 37.6922 6.05859 37.3055 6.05859C36.9187 6.05859 36.6023 6.375 36.6023 6.76172C36.6023 7.14844 36.9187 7.46484 37.3055 7.46484ZM36.7898 15H37.8094V8.68359H36.7898V15ZM42.2828 17.2266C44.0055 17.2266 45.0953 16.3242 45.0953 14.9121V8.68359H44.0758V9.72656H44.0055C43.6187 9.01172 42.9273 8.57227 42.0367 8.57227C40.3844 8.57227 39.3648 9.85547 39.3648 11.625V11.6367C39.3648 13.4062 40.3785 14.6719 42.0133 14.6719C42.8805 14.6719 43.5953 14.2793 43.9937 13.582H44.0875V14.8594C44.0875 15.791 43.4137 16.3242 42.2828 16.3242C41.3746 16.3242 40.8121 15.9844 40.7008 15.5039L40.6949 15.498H39.6402L39.6285 15.5039C39.7867 16.541 40.7594 17.2266 42.2828 17.2266ZM42.2359 13.7695C41.0641 13.7695 40.4078 12.8906 40.4078 11.6367V11.625C40.4078 10.3711 41.0641 9.47461 42.2359 9.47461C43.402 9.47461 44.1109 10.3711 44.1109 11.625V11.6367C44.1109 12.8906 43.4078 13.7695 42.2359 13.7695ZM46.9438 15H47.9633V11.0859C47.9633 10.1953 48.5902 9.47461 49.4164 9.47461C50.2133 9.47461 50.7289 9.96094 50.7289 10.7109V15H51.7484V10.9395C51.7484 10.1367 52.3285 9.47461 53.2074 9.47461C54.098 9.47461 54.5258 9.9375 54.5258 10.8691V15H55.5453V10.6348C55.5453 9.31055 54.8246 8.57227 53.5355 8.57227C52.6625 8.57227 51.9418 9.01172 51.602 9.67969H51.5082C51.2152 9.02344 50.6176 8.57227 49.7621 8.57227C48.9359 8.57227 48.3383 8.96484 48.057 9.64453H47.9633V8.68359H46.9438V15ZM59.0695 15.1113C59.9191 15.1113 60.5812 14.7422 60.9797 14.0684H61.0734V15H62.093V10.6758C62.093 9.36328 61.2316 8.57227 59.6906 8.57227C58.343 8.57227 57.382 9.24023 57.218 10.2305L57.2121 10.2656H58.2316L58.2375 10.248C58.4016 9.75586 58.8996 9.47461 59.6555 9.47461C60.5988 9.47461 61.0734 9.89648 61.0734 10.6758V11.25L59.2629 11.3613C57.7922 11.4492 56.9602 12.0996 56.9602 13.2246V13.2363C56.9602 14.3848 57.8684 15.1113 59.0695 15.1113ZM58.0031 13.2129V13.2012C58.0031 12.5742 58.425 12.2344 59.3859 12.1758L61.0734 12.0703V12.6445C61.0734 13.5469 60.3176 14.2266 59.2805 14.2266C58.548 14.2266 58.0031 13.8516 58.0031 13.2129Z" fill="black"/>
<path fill-rule="evenodd" clip-rule="evenodd" d="M80.9828 8.52294C79.0717 6.89057 76.6574 6 74.1327 6C71.6006 6 69.1795 6.89589 67.2661 8.53708L67.1036 8.67646C66.9722 8.78918 66.9647 8.98954 67.0873 9.11176L68.2142 10.2356C68.3236 10.3447 68.4985 10.3521 68.6168 10.2527L68.7564 10.1354C70.2633 8.86943 72.1552 8.18035 74.1327 8.18035C76.1035 8.18035 77.9894 8.86472 79.494 10.1228L79.6336 10.2395C79.7519 10.3385 79.9264 10.3308 80.0356 10.2219L81.1627 9.09797C81.2855 8.97558 81.2777 8.77488 81.1459 8.66228L80.9828 8.52294ZM74.1327 9.46979C75.7236 9.46979 77.251 9.99754 78.4953 10.9749L78.6711 11.113C78.8113 11.2231 78.8236 11.4306 78.6974 11.5564L77.5667 12.6841C77.4621 12.7884 77.2966 12.8003 77.178 12.7122L77.0401 12.6098C76.1997 11.9852 75.1864 11.6501 74.1327 11.6501C73.0726 11.6501 72.0533 11.9893 71.2101 12.6211L71.0721 12.7245C70.9535 12.8133 70.7874 12.8016 70.6825 12.697L69.5522 11.5698C69.4262 11.4442 69.4382 11.2373 69.5777 11.1269L69.7526 10.9887C70.9998 10.0027 72.5342 9.46979 74.1327 9.46979ZM74.1327 12.9396C74.7722 12.9396 75.3936 13.1076 75.9411 13.4281L76.163 13.5579C76.3311 13.6563 76.3607 13.8867 76.2228 14.0242L74.3287 15.913C74.2124 16.029 74.0238 16.029 73.9074 15.913L72.0255 14.0363C71.8882 13.8994 71.9169 13.6702 72.0836 13.5711L72.303 13.4406C72.8555 13.1121 73.4848 12.9396 74.1327 12.9396Z" fill="black"/>
</g>
<path d="M214.575 153.677C211.009 152.16 206.912 151.869 203.786 149.398C201.3 147.423 199.652 144.625 198.007 141.955C194.897 136.889 191.35 132.207 184.839 132.317C177.78 132.43 170.611 136.871 164.083 132.245C159.401 128.916 156.731 123.466 152.05 120.138C146.307 116.078 140.309 118.565 134.548 121.162C130.799 122.844 126.977 124.234 122.808 123.43C118.773 122.474 115.075 120.438 112.109 117.541C107.373 113.224 103.275 106.404 96.3633 105.563C92.6343 105.111 89.2861 106.881 85.8113 107.936C81.0382 109.405 76.6674 108.137 72.2784 106.128C66.4815 103.495 59.0744 99.4532 52.7837 103.111C51.5332 103.844 50.4789 104.869 49.7114 106.098C48.9439 107.328 48.4859 108.725 48.3767 110.17C48.1021 113.424 49.8027 116.095 51.8322 118.49C52.997 119.747 54.0784 121.079 55.0697 122.477C56.3331 124.56 57.0339 126.935 57.1037 129.37C57.3602 132.936 57.1037 136.575 58.4597 139.958C59.4654 142.463 61.3129 144.787 64.0735 145.408C67.5121 146.176 70.6207 144.036 73.8582 143.268C81.4292 141.46 84.6847 150.547 89.8601 154.15C92.7393 156.129 96.1495 157.193 99.6437 157.201C103.63 157.22 107.05 155.025 110.944 154.769C114.912 154.512 117.967 157.292 120.71 159.761C123.121 162.186 125.994 164.101 129.159 165.394C132.502 166.598 136.1 166.913 139.6 166.308C143.368 165.65 146.331 163.2 149.989 162.34C156.682 160.749 162.68 166.418 168.806 168.027C171.538 168.822 174.466 168.588 177.036 167.37C180.712 165.577 183.711 161.773 188.027 161.572C191.886 161.388 193.733 164.974 195.836 167.571C196.648 168.729 197.753 169.651 199.038 170.242C200.323 170.834 201.743 171.072 203.151 170.935C205.09 170.753 206.954 170.094 208.914 170.021C211.2 169.929 215.021 171.593 213.412 174.556C213.211 174.941 213.559 175.544 214.035 175.361C216.545 174.376 219.219 173.874 221.916 173.879C222.037 173.88 222.154 173.841 222.249 173.768C222.345 173.695 222.414 173.593 222.446 173.477C222.774 172.056 222.939 170.601 222.94 169.143C222.94 169.124 222.94 169.124 222.958 169.106C223.466 165.969 222.919 162.752 221.402 159.96C219.884 157.168 217.483 154.958 214.575 153.677Z" fill="#2C2B47"/>
<path d="M218.744 170.502C218.687 170.475 218.625 170.46 218.561 170.46C218.498 170.46 218.435 170.475 218.378 170.502C213.77 169.624 211.996 175.293 212.163 178.915C212.346 183.047 214.762 187.711 218.691 189.448C223.703 191.642 225.422 184.712 225.495 181.109C225.603 178.861 225.012 176.634 223.803 174.734C222.594 172.835 220.827 171.357 218.744 170.502Z" fill="#FEDFFD"/>
<path d="M230.065 174.946C222.456 176.775 214.855 178.603 207.26 180.432C207.168 180.458 207.085 180.508 207.018 180.576C206.951 180.644 206.903 180.729 206.879 180.821C206.854 180.914 206.855 181.011 206.88 181.103C206.905 181.195 206.954 181.279 207.022 181.347C207.799 182.154 208.739 182.787 209.78 183.203C210.82 183.619 211.938 183.809 213.057 183.76C215.471 183.468 216.769 181.255 217.702 179.262C217.737 179.188 217.756 179.107 217.757 179.024C218.653 178.804 219.565 178.585 220.463 178.366C220.481 178.384 220.481 178.402 220.501 178.421C221.322 179.268 222.361 179.871 223.503 180.164C224.646 180.458 225.847 180.43 226.974 180.084C229.095 179.371 229.846 177.653 230.668 175.751C230.725 175.658 230.752 175.551 230.747 175.443C230.742 175.335 230.704 175.231 230.639 175.144C230.574 175.057 230.485 174.992 230.382 174.957C230.28 174.922 230.169 174.918 230.065 174.946Z" fill="#2C2B47"/>
<path d="M324.777 428.651C323.222 408.48 317.754 388.528 311.939 369.213C311.609 368.133 311.28 367.036 310.951 365.957C310.786 365.427 310.695 364.421 310.273 364.019C310.109 363.903 309.922 363.822 309.724 363.782C308.968 363.615 308.194 363.539 307.42 363.556C303.963 363.337 300.508 363.227 297.051 363.117C284.213 362.697 271.357 362.422 258.501 362.13C241.511 361.745 224.516 361.355 207.515 360.959C191.184 360.557 174.858 360.154 158.54 359.587C156.766 359.533 155.01 359.46 153.237 359.405C153.118 359.407 153.002 359.447 152.906 359.52C152.811 359.592 152.741 359.693 152.706 359.808C145.83 378.259 136.503 395.687 130.049 414.304C128.366 418.938 127.044 423.695 126.094 428.532C126.074 428.613 126.073 428.698 126.091 428.78C126.108 428.861 126.143 428.938 126.194 429.005C126.245 429.071 126.31 429.126 126.384 429.164C126.458 429.202 126.54 429.224 126.624 429.227H316.199C318.752 429.355 321.309 429.355 323.862 429.227C323.977 429.218 324.094 429.218 324.21 429.227C324.298 429.23 324.386 429.212 324.465 429.173C324.563 429.126 324.645 429.052 324.7 428.959C324.756 428.866 324.783 428.759 324.777 428.651Z" fill="#2C2B47"/>
<path d="M341.674 281.911C340.284 268.816 337.358 255.741 331.122 244.037C325.506 233.16 316.726 224.24 305.94 218.452C293.98 212.198 280.393 209.345 267.294 206.492C238.179 200.164 208.554 196.47 178.872 193.983C150.526 191.61 121.559 189.411 93.3778 194.477C71.3044 198.432 44.4578 207.516 35.0223 230.028C30.3215 241.239 31.3645 253.967 35.6619 265.122C40.2339 276.987 48.4637 286.921 57.7534 295.406C67.3358 304.166 77.9804 311.866 88.5504 319.345C99.3216 326.953 110.623 334.012 122.931 338.876C128.289 340.999 138.823 343.558 139.353 343.759C139.902 343.101 146.741 329.747 150.143 322.854C147.203 337.143 145.145 351.599 143.98 366.141C143.961 366.36 203.69 374.517 233.589 375.102C248.512 375.394 263.428 375.131 278.337 374.311C282.029 374.11 285.723 373.872 289.419 373.598C291.321 373.452 293.242 373.196 295.126 373.146C295.461 373.099 295.802 373.13 296.122 373.238C296.443 373.346 296.734 373.527 296.972 373.767C297.521 374.219 297.996 374.755 298.563 375.193C302.249 377.938 306.775 379.315 311.365 379.089C315.87 379.025 320.272 377.729 324.093 375.34C328.354 372.561 331.133 368.172 333.072 363.562C335.355 357.844 337.231 351.971 338.686 345.989C340.443 339.186 341.63 332.249 342.234 325.25C343.475 310.82 343.287 296.303 341.674 281.911Z" fill="#FFC200"/>
<path d="M330.921 334.926C329.367 321.978 327.702 309.049 323.953 296.523C320.503 284.982 315.663 273.904 309.54 263.531C306.091 257.709 302.254 252.124 298.056 246.816C296.739 245.152 294.416 247.494 295.714 249.158C310.274 267.694 320.132 289.479 324.445 312.653C325.835 320.04 326.731 327.502 327.627 334.963C327.867 337.011 331.159 337.048 330.921 334.926Z" fill="#FEDFFD"/>
<path d="M277.155 328.983C272.583 312.305 269.091 295.187 268.651 277.833C268.349 268.26 269.172 258.685 271.102 249.304C273.535 249.322 275.961 249.322 278.38 249.34C278.809 249.329 279.217 249.15 279.516 248.843C279.816 248.536 279.984 248.123 279.984 247.694C279.984 247.265 279.816 246.853 279.516 246.545C279.217 246.238 278.809 246.059 278.38 246.048C275.692 246.03 273.004 246.012 270.315 246.012C270.017 245.997 269.721 246.073 269.466 246.23C269.212 246.387 269.011 246.617 268.889 246.89C268.665 246.981 268.469 247.128 268.318 247.317C268.167 247.506 268.068 247.731 268.029 247.969C264.281 265.451 264.811 283.429 267.609 301.004C269.059 309.816 270.952 318.55 273.278 327.173C275.202 334.876 277.646 342.44 280.594 349.813C283.794 357.938 288.448 365.412 294.328 371.868C295.79 373.422 298.113 371.077 296.668 369.527C286.116 358.371 281.124 343.504 277.155 328.983Z" fill="#FEDFFD"/>
<path d="M156.823 311.848C156.776 311.67 156.709 311.497 156.622 311.335C142.759 288.106 125.133 267.341 104.464 249.889C98.723 245.042 92.7555 240.47 86.5616 236.173C84.8237 234.948 83.1592 237.82 84.8971 239.026C106.656 254.201 125.751 272.876 141.406 294.291C145.813 300.326 149.934 306.568 153.768 313.018C153.805 313.091 153.86 313.146 153.896 313.219C152.54 316.347 151.335 319.565 149.764 322.598C148.794 324.481 151.628 326.145 152.616 324.261C154.372 320.897 155.652 317.312 157.206 313.838C157.357 313.508 157.402 313.138 157.333 312.782C157.264 312.425 157.086 312.099 156.823 311.848Z" fill="#FEDFFD"/>
<path d="M172.952 357.128C171.414 347.717 169.35 338.399 166.771 329.217C165.838 325.889 164.705 322.377 162.071 320.129C159.766 318.153 155.414 317.367 153.348 315.157C143.71 334.925 131.036 352.006 126.228 368.227C124.917 372.293 124.178 376.521 124.034 380.791C123.955 382.02 124.174 383.249 124.672 384.376C124.928 384.935 125.34 385.407 125.86 385.735C126.379 386.063 126.983 386.233 127.598 386.224C127.934 386.181 128.255 386.061 128.537 385.874C128.82 385.687 129.055 385.437 129.225 385.144C129.074 387.846 129.377 390.554 130.121 393.155C130.199 393.622 130.37 394.068 130.625 394.467C130.879 394.866 131.212 395.21 131.602 395.477C132.109 395.688 132.67 395.735 133.205 395.61C133.74 395.485 134.222 395.196 134.583 394.782C135.29 393.939 135.808 392.953 136.101 391.893C135.486 394.612 135.399 397.425 135.845 400.177C135.898 400.962 136.112 401.728 136.474 402.426C136.835 403.125 137.338 403.741 137.948 404.237C138.794 404.662 139.756 404.795 140.686 404.616C141.615 404.438 142.46 403.957 143.088 403.249C144.317 401.8 145.126 400.041 145.428 398.164C145.74 396.302 146.311 394.492 147.123 392.788C147.159 394.548 147.604 396.276 148.421 397.835C148.843 398.61 149.511 399.221 150.319 399.572C151.128 399.923 152.03 399.994 152.884 399.773C154.31 399.243 155.078 397.726 155.681 396.336C161.106 383.614 163.461 369.795 162.558 355.995C163.213 361.908 164.438 367.745 166.215 373.423C166.78 375.069 167.953 376.989 169.654 376.7C170.165 376.539 170.632 376.265 171.022 375.898C171.411 375.53 171.713 375.079 171.903 374.579C174.58 369.289 173.903 362.979 172.952 357.128Z" fill="#FEDFFD"/>
<path d="M268.853 154.719H227.834C227.253 154.721 226.696 154.953 226.284 155.364C225.873 155.775 225.642 156.332 225.64 156.914V237.947C225.642 238.529 225.873 239.086 226.284 239.497C226.696 239.908 227.253 240.14 227.834 240.142H268.853C269.435 240.14 269.992 239.908 270.403 239.497C270.814 239.086 271.046 238.529 271.048 237.947V156.914C271.046 156.332 270.814 155.775 270.403 155.364C269.992 154.953 269.435 154.721 268.853 154.719Z" fill="#5A80F9" stroke="#5A80F9" stroke-width="0.162" stroke-miterlimit="10"/>
<path d="M298.127 211.938C298.035 207.129 297.761 201.953 294.835 198.132C292.236 194.711 288.032 192.974 284.027 191.401C269.822 185.809 256.656 178.292 241.401 178.987C239.938 179.061 235.987 178.951 235.457 181.932C235.399 183.175 235.752 184.403 236.463 185.425C237.67 187.089 239.681 187.492 241.565 187.857C246.595 188.808 251.618 189.765 256.635 190.728C247.692 190.966 238.164 191.369 230.794 196.453C229.477 197.367 228.105 198.701 228.655 200.408C228.792 200.812 229.018 201.18 229.315 201.487C229.612 201.793 229.974 202.03 230.373 202.181C231.802 202.68 233.354 202.706 234.798 202.254C241.09 200.571 247.381 200.316 255.446 198.212C249.557 201.577 244.473 202.529 239.408 205.546C237.176 206.881 234.012 208.618 232.239 210.518C231.238 211.482 230.523 212.703 230.172 214.048C229.77 215.51 231.654 217.065 233.135 216.828C239.518 215.897 245.748 214.119 251.66 211.541C250.856 212.182 249.996 212.84 248.948 213.59C245.869 215.557 243.548 218.509 242.364 221.966C242.256 222.317 242.222 222.686 242.263 223.051C242.304 223.416 242.42 223.769 242.602 224.088C243.48 225.605 245.217 225.295 246.625 224.892C253.538 222.917 259.921 219.04 266.028 215.273C266.219 221.324 268.261 227.171 271.881 232.024C274.294 235.075 277.53 237.912 277.934 241.771C278.189 244.186 277.275 246.582 277.369 248.995C283.789 249.178 290.202 249.093 296.608 248.739L297.173 248.575C298.058 237.087 298.333 223.481 298.127 211.938Z" fill="#FEDFFD"/>
<path d="M248.352 160.005C247.943 160.005 247.543 160.127 247.203 160.354C246.863 160.581 246.598 160.904 246.442 161.281C246.286 161.659 246.245 162.075 246.325 162.476C246.404 162.877 246.601 163.245 246.891 163.534C247.18 163.823 247.548 164.02 247.949 164.099C248.35 164.179 248.766 164.138 249.143 163.981C249.521 163.825 249.844 163.56 250.071 163.22C250.298 162.88 250.419 162.48 250.418 162.071C250.419 161.8 250.365 161.531 250.262 161.28C250.158 161.029 250.006 160.801 249.814 160.609C249.622 160.417 249.394 160.265 249.143 160.162C248.892 160.058 248.623 160.005 248.352 160.005Z" fill="#FEDFFD"/>
<path d="M264.007 203.072C259.313 205.063 254.879 207.618 250.803 210.68C249.687 211.521 250.785 213.423 251.918 212.582C256.003 209.534 260.436 206.98 265.122 204.974C266.42 204.426 265.305 202.524 264.007 203.072Z" fill="#2C2B47"/>
<path d="M263.476 194.696C260.186 195.098 256.996 196.089 254.058 197.623C252.796 198.281 253.911 200.183 255.173 199.525C257.765 198.166 260.575 197.274 263.476 196.891C264.865 196.727 264.885 194.536 263.476 194.696Z" fill="#2C2B47"/>
<path d="M262.159 190.694C260.245 189.843 258.162 189.443 256.07 189.523C254.662 189.597 254.643 191.791 256.07 191.718C257.777 191.626 259.483 191.92 261.062 192.578C262.342 193.143 263.457 191.259 262.159 190.694Z" fill="#2C2B47"/>
<path d="M141.114 368.083C137.874 375.956 135.739 384.239 134.767 392.697C134.602 394.105 136.801 394.087 136.962 392.697C137.94 384.44 140.045 376.355 143.216 368.668C143.769 367.369 141.643 366.802 141.114 368.083Z" fill="#2C2B47"/>
<path d="M149.965 368.796C147.295 377.942 145.904 387.413 145.831 396.94C145.831 397.231 145.947 397.511 146.153 397.716C146.358 397.922 146.637 398.038 146.928 398.038C147.219 398.038 147.499 397.922 147.704 397.716C147.91 397.511 148.026 397.231 148.026 396.94C148.095 387.611 149.455 378.337 152.068 369.381C152.14 369.104 152.101 368.809 151.958 368.561C151.815 368.313 151.58 368.13 151.304 368.054C151.028 367.977 150.733 368.012 150.483 368.15C150.232 368.289 150.046 368.521 149.965 368.796Z" fill="#2C2B47"/>
<path d="M135.865 361.298C132.167 368.621 129.608 376.465 128.276 384.559C128.056 385.949 130.177 386.534 130.397 385.144C131.678 377.236 134.164 369.57 137.766 362.413C138.407 361.151 136.504 360.036 135.865 361.298Z" fill="#2C2B47"/>
<path d="M314.901 181.654C313.289 181.137 311.83 180.228 310.656 179.009C309.481 177.79 308.628 176.299 308.172 174.668C308.13 174.538 308.042 174.428 307.925 174.358C307.807 174.289 307.667 174.266 307.533 174.293C307.399 174.32 307.28 174.396 307.199 174.506C307.117 174.616 307.08 174.752 307.092 174.888C307.009 174.949 306.945 175.034 306.909 175.132C306.873 175.23 306.867 175.336 306.891 175.437C307.312 177.21 307.75 179.149 307.037 180.905C306.237 182.443 304.942 183.668 303.361 184.38C303.25 184.449 303.168 184.556 303.128 184.681C303.088 184.806 303.094 184.941 303.145 185.061C303.196 185.182 303.288 185.281 303.404 185.34C303.521 185.4 303.655 185.416 303.783 185.385C307.64 184.197 309.743 189.847 311.207 192.407C311.275 192.52 311.382 192.604 311.507 192.644C311.633 192.685 311.768 192.679 311.89 192.628C312.011 192.578 312.111 192.485 312.17 192.367C312.229 192.25 312.244 192.115 312.212 191.987C311.637 190.357 311.419 188.623 311.573 186.902C311.902 184.853 313.329 183.664 315.03 182.659C315.12 182.602 315.192 182.521 315.238 182.425C315.284 182.328 315.301 182.221 315.287 182.115C315.274 182.009 315.23 181.91 315.162 181.828C315.093 181.746 315.003 181.686 314.901 181.654Z" fill="#BBE7FF"/>
<path d="M225.877 122.862C225.396 122.107 225.108 121.245 225.038 120.352C224.968 119.46 225.118 118.564 225.475 117.742C225.694 117.211 225.053 116.938 224.651 117.177C224.559 117.177 224.47 117.202 224.392 117.251C224.314 117.3 224.252 117.369 224.213 117.452C223.936 118.116 223.539 118.724 223.042 119.244C222.626 119.609 222.125 119.864 221.585 119.986C221.045 120.107 220.483 120.091 219.951 119.939C219.403 119.866 218.909 120.652 219.531 120.945C221.397 121.823 220.427 124.621 220.171 126.156C220.079 126.721 220.903 127.199 221.176 126.578C222.036 124.675 223.06 123.414 225.401 123.706C225.822 123.74 226.059 123.192 225.877 122.862Z" fill="#BBE7FF"/>
<path d="M291.475 112.292C290.176 111.425 289.112 110.25 288.378 108.872C287.644 107.493 287.263 105.954 287.269 104.393C287.266 104.257 287.213 104.128 287.121 104.028C287.029 103.929 286.905 103.867 286.77 103.853C286.635 103.839 286.5 103.875 286.39 103.953C286.28 104.032 286.202 104.148 286.172 104.28C286.079 104.319 285.999 104.385 285.944 104.47C285.888 104.554 285.859 104.653 285.86 104.754C285.929 106.319 285.595 107.875 284.891 109.274C283.922 110.847 282.13 111.34 280.465 111.797C280.34 111.835 280.232 111.917 280.161 112.027C280.09 112.138 280.061 112.27 280.078 112.4C280.096 112.53 280.159 112.649 280.257 112.736C280.355 112.824 280.481 112.874 280.612 112.877C284.306 112.84 284.744 118.271 285.421 120.978C285.459 121.103 285.541 121.211 285.651 121.282C285.761 121.353 285.893 121.382 286.023 121.365C286.153 121.347 286.272 121.284 286.36 121.186C286.447 121.088 286.497 120.963 286.5 120.832C286.432 119.393 286.605 117.952 287.012 116.571C287.725 114.613 289.426 113.773 291.328 113.261C291.43 113.236 291.522 113.181 291.592 113.104C291.663 113.026 291.709 112.929 291.725 112.826C291.741 112.722 291.725 112.616 291.681 112.521C291.636 112.426 291.564 112.347 291.475 112.292Z" fill="#BBE7FF"/>
<path d="M243.435 179.792C242.795 178.348 240.691 178.292 239.01 178.603C238.462 178.605 237.917 178.697 237.4 178.878C237.235 178.924 237.083 179.008 236.956 179.123C236.829 179.238 236.73 179.381 236.668 179.541C236.606 179.701 236.582 179.873 236.598 180.043C236.614 180.214 236.67 180.378 236.76 180.524C237.455 181.323 238.417 181.843 239.466 181.986C240.723 182.225 244.384 181.95 243.435 179.792Z" fill="#FB0E39"/>
<path d="M234.637 195.849C233.338 194.862 231.36 195.941 230.009 197.074C229.591 197.302 229.214 197.599 228.894 197.952C228.771 198.072 228.678 198.22 228.622 198.383C228.566 198.545 228.548 198.719 228.571 198.89C228.595 199.06 228.657 199.223 228.754 199.365C228.852 199.507 228.981 199.625 229.131 199.708C230.137 200.08 231.245 200.066 232.241 199.671C233.466 199.269 236.521 197.275 234.637 195.849Z" fill="#FB0E39"/>
<path d="M236.3 210.625C234.765 209.766 232.972 210.936 231.82 212.271C231.435 212.533 231.106 212.869 230.851 213.259C229.495 215.655 233.558 215.599 234.806 215.067C236.337 214.424 238.532 211.869 236.3 210.625Z" fill="#FB0E39"/>
<path d="M246.798 218.781C245.207 218.329 243.781 219.733 242.975 221.196C242.63 221.532 242.384 221.955 242.262 222.421C241.768 224.871 245.462 223.994 246.523 223.226C247.859 222.221 249.12 219.458 246.798 218.781Z" fill="#FB0E39"/>
<path d="M173.19 371.008C173.044 369.636 171.947 368.557 170.519 369.162C170.473 369.179 170.43 369.203 170.392 369.234C170.186 369.269 169.993 369.362 169.838 369.502C169.683 369.642 169.57 369.823 169.514 370.025C168.892 371.157 168.661 372.462 168.856 373.738C168.901 374.112 169.023 374.473 169.215 374.797C169.408 375.121 169.665 375.402 169.971 375.621C170.052 375.781 170.167 375.922 170.308 376.032C170.45 376.142 170.614 376.219 170.79 376.258C170.965 376.296 171.147 376.295 171.321 376.255C171.496 376.214 171.66 376.135 171.8 376.023C173.116 375.196 173.337 372.362 173.19 371.008Z" fill="#FB0E39"/>
<path d="M151.34 392.551C151.11 392.498 150.871 392.497 150.64 392.547C150.409 392.598 150.192 392.699 150.005 392.844C149.938 392.82 149.867 392.81 149.796 392.816C149.725 392.821 149.655 392.842 149.593 392.877C149.531 392.911 149.476 392.959 149.434 393.016C149.391 393.074 149.362 393.139 149.347 393.209C148.813 395.145 149.014 397.21 149.912 399.006C150.552 400.085 151.869 400.872 153.02 399.994C155.182 398.403 154.025 393.008 151.34 392.551Z" fill="#FB0E39"/>
<path d="M140.821 397.269C140.577 397.053 140.284 396.898 139.968 396.82C139.651 396.741 139.32 396.741 139.003 396.819C138.686 396.897 138.393 397.05 138.149 397.267C137.905 397.483 137.717 397.755 137.601 398.06C137.268 398.86 137.121 399.725 137.172 400.59C137.223 401.455 137.47 402.297 137.894 403.053C138.011 403.281 138.152 403.496 138.316 403.693C138.955 404.823 140.199 405.687 141.442 404.771C143.875 403.012 142.997 398.787 140.821 397.269Z" fill="#FB0E39"/>
<path d="M133.945 390.851C133.744 389.424 132.499 386.644 130.58 387.595C130.163 387.843 129.827 388.206 129.613 388.641C129.399 389.076 129.315 389.564 129.373 390.045C129.226 391.948 129.391 394.617 131.407 395.331C133.726 396.136 134.146 392.277 133.945 390.851Z" fill="#FB0E39"/>
<path d="M127.708 379.439C127.58 379.133 127.377 378.863 127.118 378.655C126.859 378.446 126.553 378.306 126.226 378.246C125.899 378.186 125.562 378.209 125.247 378.311C124.931 378.414 124.645 378.595 124.417 378.836C124.209 379.07 124.065 379.353 123.996 379.658C123.674 380.603 123.556 381.605 123.651 382.599C123.745 383.592 124.05 384.554 124.544 385.421C125.478 386.865 126.94 386.299 127.581 384.927C127.977 384.07 128.192 383.141 128.214 382.196C128.236 381.252 128.064 380.314 127.708 379.439Z" fill="#FB0E39"/>
<g filter="url(#filter0_d_194_746)">
<path d="M0 416C0 407.163 7.16344 400 16 400H359C367.837 400 375 407.163 375 416V667H0V416Z" fill="white"/>
<rect x="169" y="406" width="36" height="4" rx="2" fill="#EEEEEE"/>
</g>
<rect x="16" y="456" width="343" height="48" rx="6" fill="white" stroke="#B7B7B7"/>
<path d="M17.168 437H18.3105V433.731H20.6211C22.3413 433.731 23.5601 432.519 23.5601 430.779V430.767C23.5601 429.027 22.3413 427.84 20.6211 427.84H17.168V437ZM20.3291 428.856C21.6367 428.856 22.3921 429.573 22.3921 430.779V430.792C22.3921 431.998 21.6367 432.715 20.3291 432.715H18.3105V428.856H20.3291ZM25.3564 437H26.4609V432.95C26.4609 431.75 27.1528 431.014 28.2446 431.014C29.3364 431.014 29.8442 431.604 29.8442 432.836V437H30.9487V432.569C30.9487 430.944 30.0918 430.037 28.5557 430.037C27.5464 430.037 26.9053 430.462 26.5625 431.186H26.4609V427.44H25.3564V437ZM35.7603 437.121C37.709 437.121 38.915 435.775 38.915 433.585V433.572C38.915 431.376 37.709 430.037 35.7603 430.037C33.8115 430.037 32.6055 431.376 32.6055 433.572V433.585C32.6055 435.775 33.8115 437.121 35.7603 437.121ZM35.7603 436.143C34.4653 436.143 33.7354 435.197 33.7354 433.585V433.572C33.7354 431.954 34.4653 431.014 35.7603 431.014C37.0552 431.014 37.7852 431.954 37.7852 433.572V433.585C37.7852 435.197 37.0552 436.143 35.7603 436.143ZM40.6289 437H41.7334V432.95C41.7334 431.75 42.4253 431.014 43.5171 431.014C44.6089 431.014 45.1167 431.604 45.1167 432.836V437H46.2212V432.569C46.2212 430.944 45.3643 430.037 43.8281 430.037C42.8188 430.037 42.1777 430.462 41.835 431.186H41.7334V430.157H40.6289V437ZM51.0137 437.121C52.626 437.121 53.6035 436.207 53.8384 435.28L53.8511 435.229H52.7466L52.7212 435.286C52.5371 435.699 51.9658 436.137 51.0391 436.137C49.8203 436.137 49.0396 435.312 49.0078 433.896H53.9336V433.464C53.9336 431.42 52.8037 430.037 50.9438 430.037C49.084 430.037 47.8779 431.484 47.8779 433.598V433.604C47.8779 435.75 49.0586 437.121 51.0137 437.121ZM50.9375 431.021C51.9468 431.021 52.6958 431.662 52.8101 433.014H49.0269C49.1475 431.712 49.9219 431.021 50.9375 431.021Z" fill="#2A2A2B"/>
<rect x="16.75" y="528.75" width="14.5" height="14.5" rx="3.25" stroke="#B7B7B7" stroke-width="1.5"/>
<path d="M41.6123 532.837C42.0312 532.837 42.374 532.494 42.374 532.075C42.374 531.656 42.0312 531.313 41.6123 531.313C41.1934 531.313 40.8506 531.656 40.8506 532.075C40.8506 532.494 41.1934 532.837 41.6123 532.837ZM41.0537 541H42.1582V534.157H41.0537V541ZM44.2339 535.452H45.0527L46.0493 531.84H44.7861L44.2339 535.452ZM48.0996 541H49.2041V536.76C49.2041 535.795 49.8833 535.014 50.7783 535.014C51.6416 535.014 52.2002 535.541 52.2002 536.354V541H53.3047V536.601C53.3047 535.731 53.9331 535.014 54.8853 535.014C55.8501 535.014 56.3135 535.516 56.3135 536.525V541H57.418V536.271C57.418 534.836 56.6372 534.037 55.2407 534.037C54.2949 534.037 53.5142 534.513 53.146 535.236H53.0444C52.7271 534.525 52.0796 534.037 51.1528 534.037C50.2578 534.037 49.6104 534.462 49.3057 535.198H49.2041V534.157H48.0996V541ZM64.9463 541.121C65.8667 541.121 66.584 540.721 67.0156 539.991H67.1172V541H68.2217V536.315C68.2217 534.894 67.2886 534.037 65.6191 534.037C64.1592 534.037 63.1182 534.76 62.9404 535.833L62.9341 535.871H64.0386L64.0449 535.852C64.2227 535.319 64.7622 535.014 65.5811 535.014C66.603 535.014 67.1172 535.471 67.1172 536.315V536.938L65.1558 537.058C63.5625 537.153 62.6611 537.858 62.6611 539.077V539.089C62.6611 540.333 63.645 541.121 64.9463 541.121ZM63.791 539.064V539.051C63.791 538.372 64.248 538.004 65.2891 537.94L67.1172 537.826V538.448C67.1172 539.426 66.2983 540.162 65.1748 540.162C64.3813 540.162 63.791 539.756 63.791 539.064ZM73.0586 543.412C74.9248 543.412 76.1055 542.435 76.1055 540.905V534.157H75.001V535.287H74.9248C74.5059 534.513 73.7568 534.037 72.792 534.037C71.002 534.037 69.8975 535.427 69.8975 537.344V537.356C69.8975 539.273 70.9956 540.645 72.7666 540.645C73.7061 540.645 74.4805 540.219 74.9121 539.464H75.0137V540.848C75.0137 541.857 74.2837 542.435 73.0586 542.435C72.0747 542.435 71.4653 542.066 71.3447 541.546L71.3384 541.54H70.1958L70.1831 541.546C70.3545 542.669 71.4082 543.412 73.0586 543.412ZM73.0078 539.667C71.7383 539.667 71.0273 538.715 71.0273 537.356V537.344C71.0273 535.985 71.7383 535.014 73.0078 535.014C74.271 535.014 75.0391 535.985 75.0391 537.344V537.356C75.0391 538.715 74.2773 539.667 73.0078 539.667ZM78.1621 541H79.2666V536.76C79.2666 535.757 80.0156 535.09 81.0693 535.09C81.3105 535.09 81.52 535.116 81.7485 535.154V534.081C81.6406 534.062 81.4058 534.037 81.1963 534.037C80.2695 534.037 79.6284 534.456 79.3682 535.173H79.2666V534.157H78.1621V541ZM85.7158 541.121C87.3281 541.121 88.3057 540.207 88.5405 539.28L88.5532 539.229H87.4487L87.4233 539.286C87.2393 539.699 86.668 540.137 85.7412 540.137C84.5225 540.137 83.7417 539.312 83.71 537.896H88.6357V537.464C88.6357 535.42 87.5059 534.037 85.646 534.037C83.7861 534.037 82.5801 535.484 82.5801 537.598V537.604C82.5801 539.75 83.7607 541.121 85.7158 541.121ZM85.6396 535.021C86.6489 535.021 87.3979 535.662 87.5122 537.014H83.729C83.8496 535.712 84.624 535.021 85.6396 535.021ZM93.1426 541.121C94.7549 541.121 95.7324 540.207 95.9673 539.28L95.98 539.229H94.8755L94.8501 539.286C94.666 539.699 94.0947 540.137 93.168 540.137C91.9492 540.137 91.1685 539.312 91.1367 537.896H96.0625V537.464C96.0625 535.42 94.9326 534.037 93.0728 534.037C91.2129 534.037 90.0068 535.484 90.0068 537.598V537.604C90.0068 539.75 91.1875 541.121 93.1426 541.121ZM93.0664 535.021C94.0757 535.021 94.8247 535.662 94.939 537.014H91.1558C91.2764 535.712 92.0508 535.021 93.0664 535.021ZM102.753 541H103.857L105.381 535.706H105.482L107.012 541H108.123L110.04 534.157H108.942L107.596 539.629H107.495L105.965 534.157H104.917L103.388 539.629H103.286L101.94 534.157H100.836L102.753 541ZM112.084 532.837C112.503 532.837 112.846 532.494 112.846 532.075C112.846 531.656 112.503 531.313 112.084 531.313C111.665 531.313 111.322 531.656 111.322 532.075C111.322 532.494 111.665 532.837 112.084 532.837ZM111.525 541H112.63V534.157H111.525V541ZM117.143 541.051C117.359 541.051 117.568 541.025 117.784 540.987V540.048C117.581 540.067 117.473 540.073 117.276 540.073C116.565 540.073 116.286 539.75 116.286 538.943V535.071H117.784V534.157H116.286V532.386H115.144V534.157H114.064V535.071H115.144V539.223C115.144 540.53 115.734 541.051 117.143 541.051ZM119.498 541H120.603V536.95C120.603 535.75 121.294 535.014 122.386 535.014C123.478 535.014 123.986 535.604 123.986 536.836V541H125.09V536.569C125.09 534.944 124.233 534.037 122.697 534.037C121.688 534.037 121.047 534.462 120.704 535.186H120.603V531.44H119.498V541Z" fill="#2A2A2B"/>
<path d="M130.746 543.285H131.851V539.921H131.952C132.327 540.651 133.146 541.121 134.085 541.121C135.824 541.121 136.954 539.73 136.954 537.585V537.572C136.954 535.439 135.818 534.037 134.085 534.037C133.133 534.037 132.371 534.487 131.952 535.249H131.851V534.157H130.746V543.285ZM133.831 540.143C132.587 540.143 131.825 539.166 131.825 537.585V537.572C131.825 535.992 132.587 535.014 133.831 535.014C135.082 535.014 135.824 535.979 135.824 537.572V537.585C135.824 539.178 135.082 540.143 133.831 540.143ZM138.681 541H139.785V536.76C139.785 535.757 140.534 535.09 141.588 535.09C141.829 535.09 142.039 535.116 142.267 535.154V534.081C142.159 534.062 141.924 534.037 141.715 534.037C140.788 534.037 140.147 534.456 139.887 535.173H139.785V534.157H138.681V541ZM144.216 532.837C144.635 532.837 144.978 532.494 144.978 532.075C144.978 531.656 144.635 531.313 144.216 531.313C143.797 531.313 143.454 531.656 143.454 532.075C143.454 532.494 143.797 532.837 144.216 532.837ZM143.657 541H144.762V534.157H143.657V541ZM148.78 541H149.897L152.43 534.157H151.262L149.389 539.794H149.288L147.415 534.157H146.247L148.78 541ZM155.515 541.121C156.435 541.121 157.152 540.721 157.584 539.991H157.686V541H158.79V536.315C158.79 534.894 157.857 534.037 156.188 534.037C154.728 534.037 153.687 534.76 153.509 535.833L153.502 535.871H154.607L154.613 535.852C154.791 535.319 155.331 535.014 156.149 535.014C157.171 535.014 157.686 535.471 157.686 536.315V536.938L155.724 537.058C154.131 537.153 153.229 537.858 153.229 539.077V539.089C153.229 540.333 154.213 541.121 155.515 541.121ZM154.359 539.064V539.051C154.359 538.372 154.816 538.004 155.857 537.94L157.686 537.826V538.448C157.686 539.426 156.867 540.162 155.743 540.162C154.95 540.162 154.359 539.756 154.359 539.064ZM163.608 541.121C165.252 541.121 166.172 540.238 166.452 539L166.464 538.931L165.373 538.937L165.36 538.975C165.106 539.737 164.522 540.143 163.602 540.143C162.383 540.143 161.596 539.134 161.596 537.56V537.547C161.596 536.004 162.37 535.014 163.602 535.014C164.585 535.014 165.195 535.56 165.366 536.233L165.373 536.252H166.471L166.464 536.214C166.261 534.995 165.265 534.037 163.602 534.037C161.685 534.037 160.466 535.42 160.466 537.547V537.56C160.466 539.73 161.691 541.121 163.608 541.121ZM168.667 543.399C169.879 543.399 170.444 542.955 171.009 541.419L173.682 534.157H172.52L170.647 539.788H170.546L168.667 534.157H167.486L170.019 541.006L169.892 541.413C169.645 542.2 169.264 542.485 168.635 542.485C168.483 542.485 168.312 542.479 168.178 542.454V543.361C168.331 543.387 168.521 543.399 168.667 543.399ZM178.798 543.285H179.902V539.921H180.004C180.378 540.651 181.197 541.121 182.137 541.121C183.876 541.121 185.006 539.73 185.006 537.585V537.572C185.006 535.439 183.87 534.037 182.137 534.037C181.185 534.037 180.423 534.487 180.004 535.249H179.902V534.157H178.798V543.285ZM181.883 540.143C180.639 540.143 179.877 539.166 179.877 537.585V537.572C179.877 535.992 180.639 535.014 181.883 535.014C183.133 535.014 183.876 535.979 183.876 537.572V537.585C183.876 539.178 183.133 540.143 181.883 540.143ZM189.544 541.121C191.493 541.121 192.699 539.775 192.699 537.585V537.572C192.699 535.376 191.493 534.037 189.544 534.037C187.596 534.037 186.39 535.376 186.39 537.572V537.585C186.39 539.775 187.596 541.121 189.544 541.121ZM189.544 540.143C188.25 540.143 187.52 539.197 187.52 537.585V537.572C187.52 535.954 188.25 535.014 189.544 535.014C190.839 535.014 191.569 535.954 191.569 537.572V537.585C191.569 539.197 190.839 540.143 189.544 540.143ZM194.477 541H195.581V531.44H194.477V541ZM198.285 532.837C198.704 532.837 199.047 532.494 199.047 532.075C199.047 531.656 198.704 531.313 198.285 531.313C197.866 531.313 197.523 531.656 197.523 532.075C197.523 532.494 197.866 532.837 198.285 532.837ZM197.727 541H198.831V534.157H197.727V541ZM203.712 541.121C205.356 541.121 206.277 540.238 206.556 539L206.569 538.931L205.477 538.937L205.464 538.975C205.21 539.737 204.626 540.143 203.706 540.143C202.487 540.143 201.7 539.134 201.7 537.56V537.547C201.7 536.004 202.475 535.014 203.706 535.014C204.69 535.014 205.299 535.56 205.471 536.233L205.477 536.252H206.575L206.569 536.214C206.366 534.995 205.369 534.037 203.706 534.037C201.789 534.037 200.57 535.42 200.57 537.547V537.56C200.57 539.73 201.795 541.121 203.712 541.121ZM208.771 543.399C209.984 543.399 210.549 542.955 211.114 541.419L213.786 534.157H212.625L210.752 539.788H210.65L208.771 534.157H207.591L210.124 541.006L209.997 541.413C209.749 542.2 209.368 542.485 208.74 542.485C208.587 542.485 208.416 542.479 208.283 542.454V543.361C208.435 543.387 208.625 543.399 208.771 543.399ZM247.6 541.121C248.603 541.121 249.295 540.708 249.631 539.978H249.733V541H250.837V534.157H249.733V538.207C249.733 539.407 249.092 540.143 247.886 540.143C246.794 540.143 246.35 539.553 246.35 538.321V534.157H245.245V538.588C245.245 540.207 246.045 541.121 247.6 541.121ZM255.249 541.121C256.804 541.121 257.991 540.276 257.991 539.058V539.045C257.991 538.067 257.369 537.509 256.081 537.198L255.027 536.944C254.221 536.747 253.878 536.455 253.878 535.992V535.979C253.878 535.376 254.475 534.957 255.287 534.957C256.112 534.957 256.646 535.332 256.792 535.871H257.877C257.725 534.754 256.728 534.037 255.293 534.037C253.84 534.037 252.748 534.894 252.748 536.03V536.036C252.748 537.02 253.326 537.579 254.608 537.883L255.668 538.137C256.512 538.34 256.861 538.664 256.861 539.127V539.14C256.861 539.762 256.208 540.2 255.287 540.2C254.411 540.2 253.865 539.826 253.681 539.254H252.551C252.678 540.384 253.726 541.121 255.249 541.121ZM262.498 541.121C264.11 541.121 265.088 540.207 265.323 539.28L265.335 539.229H264.231L264.206 539.286C264.021 539.699 263.45 540.137 262.523 540.137C261.305 540.137 260.524 539.312 260.492 537.896H265.418V537.464C265.418 535.42 264.288 534.037 262.428 534.037C260.568 534.037 259.362 535.484 259.362 537.598V537.604C259.362 539.75 260.543 541.121 262.498 541.121ZM262.422 535.021C263.431 535.021 264.18 535.662 264.294 537.014H260.511C260.632 535.712 261.406 535.021 262.422 535.021ZM267.132 541H268.236V536.76C268.236 535.757 268.985 535.09 270.039 535.09C270.28 535.09 270.49 535.116 270.718 535.154V534.081C270.61 534.062 270.375 534.037 270.166 534.037C269.239 534.037 268.598 534.456 268.338 535.173H268.236V534.157H267.132V541ZM277.618 541.121C278.539 541.121 279.256 540.721 279.688 539.991H279.789V541H280.894V536.315C280.894 534.894 279.96 534.037 278.291 534.037C276.831 534.037 275.79 534.76 275.612 535.833L275.606 535.871H276.71L276.717 535.852C276.895 535.319 277.434 535.014 278.253 535.014C279.275 535.014 279.789 535.471 279.789 536.315V536.938L277.828 537.058C276.234 537.153 275.333 537.858 275.333 539.077V539.089C275.333 540.333 276.317 541.121 277.618 541.121ZM276.463 539.064V539.051C276.463 538.372 276.92 538.004 277.961 537.94L279.789 537.826V538.448C279.789 539.426 278.97 540.162 277.847 540.162C277.053 540.162 276.463 539.756 276.463 539.064ZM285.73 543.412C287.597 543.412 288.777 542.435 288.777 540.905V534.157H287.673V535.287H287.597C287.178 534.513 286.429 534.037 285.464 534.037C283.674 534.037 282.569 535.427 282.569 537.344V537.356C282.569 539.273 283.667 540.645 285.438 540.645C286.378 540.645 287.152 540.219 287.584 539.464H287.686V540.848C287.686 541.857 286.956 542.435 285.73 542.435C284.747 542.435 284.137 542.066 284.017 541.546L284.01 541.54H282.868L282.855 541.546C283.026 542.669 284.08 543.412 285.73 543.412ZM285.68 539.667C284.41 539.667 283.699 538.715 283.699 537.356V537.344C283.699 535.985 284.41 535.014 285.68 535.014C286.943 535.014 287.711 535.985 287.711 537.344V537.356C287.711 538.715 286.949 539.667 285.68 539.667ZM290.834 541H291.938V536.76C291.938 535.757 292.688 535.09 293.741 535.09C293.982 535.09 294.192 535.116 294.42 535.154V534.081C294.312 534.062 294.078 534.037 293.868 534.037C292.941 534.037 292.3 534.456 292.04 535.173H291.938V534.157H290.834V541ZM298.388 541.121C300 541.121 300.978 540.207 301.212 539.28L301.225 539.229H300.121L300.095 539.286C299.911 539.699 299.34 540.137 298.413 540.137C297.194 540.137 296.414 539.312 296.382 537.896H301.308V537.464C301.308 535.42 300.178 534.037 298.318 534.037C296.458 534.037 295.252 535.484 295.252 537.598V537.604C295.252 539.75 296.433 541.121 298.388 541.121ZM298.312 535.021C299.321 535.021 300.07 535.662 300.184 537.014H296.401C296.521 535.712 297.296 535.021 298.312 535.021ZM305.814 541.121C307.427 541.121 308.404 540.207 308.639 539.28L308.652 539.229H307.547L307.522 539.286C307.338 539.699 306.767 540.137 305.84 540.137C304.621 540.137 303.84 539.312 303.809 537.896H308.734V537.464C308.734 535.42 307.604 534.037 305.745 534.037C303.885 534.037 302.679 535.484 302.679 537.598V537.604C302.679 539.75 303.859 541.121 305.814 541.121ZM305.738 535.021C306.748 535.021 307.497 535.662 307.611 537.014H303.828C303.948 535.712 304.723 535.021 305.738 535.021ZM310.448 541H311.553V536.76C311.553 535.795 312.232 535.014 313.127 535.014C313.99 535.014 314.549 535.541 314.549 536.354V541H315.653V536.601C315.653 535.731 316.282 535.014 317.234 535.014C318.199 535.014 318.662 535.516 318.662 536.525V541H319.767V536.271C319.767 534.836 318.986 534.037 317.589 534.037C316.644 534.037 315.863 534.513 315.495 535.236H315.393C315.076 534.525 314.428 534.037 313.501 534.037C312.606 534.037 311.959 534.462 311.654 535.198H311.553V534.157H310.448V541ZM324.553 541.121C326.165 541.121 327.143 540.207 327.377 539.28L327.39 539.229H326.286L326.26 539.286C326.076 539.699 325.505 540.137 324.578 540.137C323.359 540.137 322.579 539.312 322.547 537.896H327.473V537.464C327.473 535.42 326.343 534.037 324.483 534.037C322.623 534.037 321.417 535.484 321.417 537.598V537.604C321.417 539.75 322.598 541.121 324.553 541.121ZM324.477 535.021C325.486 535.021 326.235 535.662 326.349 537.014H322.566C322.687 535.712 323.461 535.021 324.477 535.021ZM329.187 541H330.291V536.95C330.291 535.75 330.983 535.014 332.075 535.014C333.167 535.014 333.674 535.604 333.674 536.836V541H334.779V536.569C334.779 534.944 333.922 534.037 332.386 534.037C331.376 534.037 330.735 534.462 330.393 535.186H330.291V534.157H329.187V541ZM339.209 541.051C339.425 541.051 339.635 541.025 339.851 540.987V540.048C339.647 540.067 339.54 540.073 339.343 540.073C338.632 540.073 338.353 539.75 338.353 538.943V535.071H339.851V534.157H338.353V532.386H337.21V534.157H336.131V535.071H337.21V539.223C337.21 540.53 337.8 541.051 339.209 541.051Z" fill="#3478F0"/>
<path d="M220.781 541.121C221.702 541.121 222.419 540.721 222.851 539.991H222.952V541H224.057V536.315C224.057 534.894 223.124 534.037 221.454 534.037C219.994 534.037 218.953 534.76 218.775 535.833L218.769 535.871H219.874L219.88 535.852C220.058 535.319 220.597 535.014 221.416 535.014C222.438 535.014 222.952 535.471 222.952 536.315V536.938L220.991 537.058C219.397 537.153 218.496 537.858 218.496 539.077V539.089C218.496 540.333 219.48 541.121 220.781 541.121ZM219.626 539.064V539.051C219.626 538.372 220.083 538.004 221.124 537.94L222.952 537.826V538.448C222.952 539.426 222.133 540.162 221.01 540.162C220.216 540.162 219.626 539.756 219.626 539.064ZM226.075 541H227.18V536.95C227.18 535.75 227.872 535.014 228.963 535.014C230.055 535.014 230.563 535.604 230.563 536.836V541H231.667V536.569C231.667 534.944 230.811 534.037 229.274 534.037C228.265 534.037 227.624 534.462 227.281 535.186H227.18V534.157H226.075V541ZM236.193 541.121C237.146 541.121 237.907 540.67 238.326 539.908H238.428V541H239.532V531.44H238.428V535.236H238.326C237.952 534.506 237.133 534.037 236.193 534.037C234.454 534.037 233.324 535.427 233.324 537.572V537.585C233.324 539.718 234.46 541.121 236.193 541.121ZM236.447 540.143C235.197 540.143 234.454 539.178 234.454 537.585V537.572C234.454 535.979 235.197 535.014 236.447 535.014C237.691 535.014 238.453 535.992 238.453 537.572V537.585C238.453 539.166 237.691 540.143 236.447 540.143Z" fill="black"/>
<rect x="16" y="579" width="343" height="56" rx="12" fill="#B7B7B7"/>
<path d="M149.61 615.269C153.177 615.269 155.809 613.066 156.206 609.887L156.228 609.779H153.51L153.478 609.887C152.973 611.799 151.587 612.862 149.61 612.862C146.914 612.862 145.174 610.692 145.174 607.244V607.233C145.174 603.796 146.903 601.637 149.61 601.637C151.63 601.637 152.994 602.743 153.445 604.516L153.499 604.72H156.217L156.206 604.612C155.798 601.454 153.177 599.23 149.61 599.23C145.163 599.23 142.338 602.281 142.338 607.233V607.244C142.338 612.196 145.152 615.269 149.61 615.269ZM163.429 615.226C166.77 615.226 168.94 613.002 168.94 609.307V609.285C168.94 605.611 166.738 603.377 163.418 603.377C160.11 603.377 157.918 605.633 157.918 609.285V609.307C157.918 612.991 160.077 615.226 163.429 615.226ZM163.44 613.066C161.732 613.066 160.647 611.702 160.647 609.307V609.285C160.647 606.922 161.753 605.547 163.418 605.547C165.116 605.547 166.211 606.911 166.211 609.285V609.307C166.211 611.691 165.126 613.066 163.44 613.066ZM170.985 615H173.66V608.394C173.66 606.75 174.637 605.633 176.173 605.633C177.699 605.633 178.451 606.546 178.451 608.168V615H181.126V607.631C181.126 604.988 179.697 603.377 177.194 603.377C175.464 603.377 174.304 604.172 173.713 605.396H173.66V603.613H170.985V615ZM187.833 615.226C188.37 615.226 188.843 615.172 189.154 615.129V613.12C188.972 613.131 188.767 613.163 188.51 613.163C187.532 613.163 187.038 612.809 187.038 611.691V605.676H189.154V603.613H187.038V600.724H184.32V603.613H182.709V605.676H184.32V611.917C184.32 614.259 185.448 615.226 187.833 615.226ZM192.735 601.98C193.573 601.98 194.218 601.314 194.218 600.52C194.218 599.703 193.573 599.048 192.735 599.048C191.898 599.048 191.242 599.703 191.242 600.52C191.242 601.314 191.898 601.98 192.735 601.98ZM191.393 615H194.068V603.613H191.393V615ZM196.671 615H199.346V608.394C199.346 606.75 200.324 605.633 201.86 605.633C203.385 605.633 204.137 606.546 204.137 608.168V615H206.812V607.631C206.812 604.988 205.383 603.377 202.88 603.377C201.151 603.377 199.991 604.172 199.4 605.396H199.346V603.613H196.671V615ZM213.165 615.226C214.884 615.226 216.054 614.431 216.645 613.217H216.699V615H219.374V603.613H216.699V610.209C216.699 611.863 215.721 612.97 214.185 612.97C212.66 612.97 211.908 612.057 211.908 610.445V603.613H209.233V610.972C209.233 613.614 210.662 615.226 213.165 615.226ZM226.908 615.226C229.884 615.226 231.56 613.464 231.914 611.713L231.946 611.595H229.443L229.422 611.67C229.164 612.433 228.294 613.142 226.962 613.142C225.222 613.142 224.126 611.96 224.083 609.962H232.054V609.103C232.054 605.665 230.034 603.377 226.779 603.377C223.524 603.377 221.43 605.74 221.43 609.328V609.339C221.43 612.959 223.492 615.226 226.908 615.226ZM226.812 605.472C228.229 605.472 229.261 606.374 229.454 608.179H224.115C224.33 606.428 225.394 605.472 226.812 605.472Z" fill="white"/>
</g>
<defs>
<filter id="filter0_d_194_746" x="-16" y="384" width="407" height="299" filterUnits="userSpaceOnUse" color-interpolation-filters="sRGB">
<feFlood flood-opacity="0" result="BackgroundImageFix"/>
<feColorMatrix in="SourceAlpha" type="matrix" values="0 0 0 0 0 0 0 0 0 0 0 0 0 0 0 0 0 0 127 0" result="hardAlpha"/>
<feOffset/>
<feGaussianBlur stdDeviation="8"/>
<feColorMatrix type="matrix" values="0 0 0 0 0 0 0 0 0 0 0 0 0 0 0 0 0 0 0.08 0"/>
<feBlend mode="normal" in2="BackgroundImageFix" result="effect1_dropShadow_194_746"/>
<feBlend mode="normal" in="SourceGraphic" in2="effect1_dropShadow_194_746" result="shape"/>
</filter>
<clipPath id="clip0_194_746">
<rect width="375" height="667" fill="white"/>
</clipPath>
<clipPath id="clip1_194_746">
<rect width="24" height="24" fill="white" transform="translate(16 32)"/>
</clipPath>
<clipPath id="clip2_194_746">
<rect width="78" height="16" fill="white" transform="translate(4 4)"/>
</clipPath>
</defs>
</svg>
