<svg width="375" height="667" viewBox="0 0 375 667" fill="none" xmlns="http://www.w3.org/2000/svg">
<rect width="375" height="667" fill="url(#paint0_linear_4_936)"/>
<g filter="url(#filter0_i_4_936)">
<rect x="130" y="215" width="115.449" height="115.449" rx="28.8621" fill="url(#paint1_linear_4_936)"/>
</g>
<g filter="url(#filter1_bd_4_936)">
<path fill-rule="evenodd" clip-rule="evenodd" d="M222.35 266.66C220.763 264.682 217.6 263.492 215.444 263.274C211.735 252.572 198.659 247.47 184.176 247.47C167.832 247.47 151.105 253.798 152.524 269.722C153.913 285.207 171.1 298.496 184.063 298.496C192.367 298.496 202.692 293.844 209.462 286.728C212.15 286.15 216.953 284.234 220.094 281.143C222.072 279.201 224.422 276.827 224.585 273.182C224.75 269.734 222.847 267.264 222.35 266.66ZM219.9 272.988C219.621 276.043 216.698 277.748 216.43 277.887C215.983 278.121 215.514 278.31 215.029 278.45C216.073 276.013 216.619 273.392 216.634 270.741C216.634 270.206 216.614 269.674 216.581 269.146C218.677 270.036 220.043 271.412 219.9 272.988ZM157.536 265.732C157.536 257.728 169.278 251.24 183.766 251.24L183.762 251.247C196.962 251.247 207.879 256.628 209.709 263.634C210.083 265.026 210.083 266.492 209.709 267.883C207.834 274.873 196.931 280.235 183.762 280.235C181.304 280.236 178.851 280.042 176.424 279.654L163.955 284.412L165.929 276.362C160.768 273.717 157.536 269.936 157.536 265.732Z" fill="white"/>
</g>
<path d="M130.169 377.435C130.169 374.919 130.731 372.671 131.854 370.692C133.002 368.689 134.554 367.138 136.508 366.039C138.486 364.915 140.697 364.353 143.14 364.353C145.998 364.353 148.502 365.086 150.652 366.552C152.801 368.018 154.304 370.045 155.159 372.634H149.259C148.673 371.413 147.842 370.497 146.768 369.886C145.717 369.276 144.496 368.97 143.103 368.97C141.613 368.97 140.282 369.324 139.109 370.033C137.961 370.717 137.057 371.694 136.398 372.964C135.763 374.235 135.445 375.725 135.445 377.435C135.445 379.12 135.763 380.61 136.398 381.905C137.057 383.175 137.961 384.165 139.109 384.873C140.282 385.557 141.613 385.899 143.103 385.899C144.496 385.899 145.717 385.594 146.768 384.983C147.842 384.348 148.673 383.419 149.259 382.198H155.159C154.304 384.812 152.801 386.852 150.652 388.317C148.526 389.759 146.022 390.479 143.14 390.479C140.697 390.479 138.486 389.93 136.508 388.83C134.554 387.707 133.002 386.155 131.854 384.177C130.731 382.198 130.169 379.951 130.169 377.435Z" fill="#2A2A2B"/>
<path d="M167.18 390.589C165.226 390.589 163.467 390.162 161.904 389.307C160.34 388.427 159.107 387.194 158.203 385.606C157.323 384.018 156.884 382.186 156.884 380.109C156.884 378.033 157.336 376.201 158.239 374.613C159.168 373.025 160.426 371.804 162.014 370.949C163.601 370.07 165.372 369.63 167.327 369.63C169.281 369.63 171.052 370.07 172.64 370.949C174.228 371.804 175.473 373.025 176.377 374.613C177.305 376.201 177.77 378.033 177.77 380.109C177.77 382.186 177.293 384.018 176.341 385.606C175.412 387.194 174.142 388.427 172.53 389.307C170.942 390.162 169.159 390.589 167.18 390.589ZM167.18 386.119C168.108 386.119 168.975 385.899 169.782 385.459C170.612 384.995 171.272 384.311 171.76 383.407C172.249 382.503 172.493 381.404 172.493 380.109C172.493 378.18 171.98 376.702 170.954 375.676C169.953 374.625 168.719 374.1 167.253 374.1C165.788 374.1 164.554 374.625 163.552 375.676C162.575 376.702 162.087 378.18 162.087 380.109C162.087 382.039 162.563 383.529 163.516 384.58C164.493 385.606 165.714 386.119 167.18 386.119Z" fill="#2A2A2B"/>
<path d="M189.008 374.173H185.453V390.259H180.25V374.173H177.942V369.96H180.25V368.934C180.25 366.442 180.958 364.61 182.375 363.437C183.792 362.265 185.93 361.715 188.788 361.788V366.112C187.542 366.088 186.675 366.295 186.186 366.735C185.698 367.175 185.453 367.969 185.453 369.117V369.96H189.008V374.173Z" fill="#2A2A2B"/>
<path d="M201.639 374.173H198.085V390.259H192.882V374.173H190.573V369.96H192.882V368.934C192.882 366.442 193.59 364.61 195.007 363.437C196.424 362.265 198.561 361.715 201.419 361.788V366.112C200.173 366.088 199.306 366.295 198.818 366.735C198.329 367.175 198.085 367.969 198.085 369.117V369.96H201.639V374.173Z" fill="#2A2A2B"/>
<path d="M222.46 379.67C222.46 380.403 222.411 381.062 222.313 381.648H207.473C207.596 383.114 208.109 384.262 209.012 385.093C209.916 385.923 211.028 386.339 212.347 386.339C214.252 386.339 215.608 385.52 216.414 383.884H221.947C221.361 385.838 220.237 387.45 218.576 388.72C216.915 389.966 214.875 390.589 212.457 390.589C210.502 390.589 208.744 390.162 207.18 389.307C205.641 388.427 204.432 387.194 203.553 385.606C202.698 384.018 202.27 382.186 202.27 380.109C202.27 378.009 202.698 376.164 203.553 374.577C204.408 372.989 205.605 371.767 207.144 370.912C208.683 370.057 210.454 369.63 212.457 369.63C214.387 369.63 216.109 370.045 217.623 370.876C219.162 371.706 220.347 372.891 221.178 374.43C222.033 375.944 222.46 377.691 222.46 379.67ZM217.147 378.204C217.122 376.885 216.646 375.835 215.718 375.053C214.79 374.247 213.654 373.844 212.31 373.844C211.04 373.844 209.965 374.235 209.086 375.016C208.231 375.773 207.705 376.836 207.51 378.204H217.147Z" fill="#2A2A2B"/>
<path d="M244.617 379.67C244.617 380.403 244.568 381.062 244.47 381.648H229.63C229.753 383.114 230.266 384.262 231.169 385.093C232.073 385.923 233.185 386.339 234.504 386.339C236.409 386.339 237.765 385.52 238.571 383.884H244.104C243.518 385.838 242.394 387.45 240.733 388.72C239.072 389.966 237.032 390.589 234.614 390.589C232.659 390.589 230.901 390.162 229.337 389.307C227.798 388.427 226.589 387.194 225.71 385.606C224.855 384.018 224.427 382.186 224.427 380.109C224.427 378.009 224.855 376.164 225.71 374.577C226.565 372.989 227.762 371.767 229.301 370.912C230.84 370.057 232.611 369.63 234.614 369.63C236.544 369.63 238.266 370.045 239.78 370.876C241.319 371.706 242.504 372.891 243.335 374.43C244.19 375.944 244.617 377.691 244.617 379.67ZM239.304 378.204C239.279 376.885 238.803 375.835 237.875 375.053C236.947 374.247 235.811 373.844 234.467 373.844C233.197 373.844 232.122 374.235 231.243 375.016C230.388 375.773 229.862 376.836 229.667 378.204H239.304Z" fill="#2A2A2B"/>
<path fill-rule="evenodd" clip-rule="evenodd" d="M215.537 346C214.688 346 214 346.688 214 347.537V359.836C214 360.685 214.688 361.373 215.537 361.373H243.209C244.058 361.373 244.746 360.685 244.746 359.836V353.686V347.537C244.746 346.688 244.058 346 243.209 346H215.537ZM220.684 351.315L220.931 349.901H219.202L218.955 351.315H218.251L218.041 352.544H218.745L218.283 355.366C218.234 355.895 218.342 356.313 218.609 356.622C218.875 356.93 219.276 357.088 219.812 357.095C220.141 357.102 220.451 357.058 220.742 356.963L220.868 355.681C220.64 355.702 220.49 355.711 220.416 355.707C220.227 355.7 220.108 355.651 220.059 355.56C220.013 355.469 220.003 355.334 220.027 355.156L220.469 352.544H221.378L221.593 351.315H220.684ZM226.053 351.593C225.681 351.344 225.242 351.217 224.734 351.21C223.914 351.196 223.228 351.465 222.674 352.019C222.124 352.572 221.805 353.315 221.718 354.247C221.669 354.783 221.732 355.27 221.907 355.707C222.086 356.145 222.359 356.487 222.727 356.732C223.095 356.974 223.531 357.098 224.035 357.105C224.844 357.119 225.524 356.858 226.074 356.322C226.624 355.786 226.948 355.082 227.046 354.21L227.056 354.094C227.105 353.555 227.042 353.064 226.867 352.623C226.696 352.182 226.424 351.838 226.053 351.593ZM223.431 354.557L223.447 354.247C223.503 353.662 223.632 353.234 223.835 352.965C224.042 352.691 224.305 352.56 224.624 352.571C224.865 352.578 225.047 352.676 225.17 352.865C225.296 353.05 225.356 353.301 225.349 353.616L225.328 354.094C225.219 355.219 224.825 355.77 224.145 355.749C223.62 355.735 223.382 355.338 223.431 354.557ZM232.751 356.842C233.301 356.657 233.719 356.396 234.007 356.059L234.501 352.912H231.458L231.238 354.178H232.483L232.246 355.371C231.924 355.585 231.549 355.688 231.122 355.681C230.414 355.671 230.034 355.243 229.982 354.399C229.954 354.049 229.989 353.558 230.087 352.928C230.202 352.189 230.418 351.621 230.733 351.225C231.048 350.826 231.448 350.635 231.931 350.653C232.257 350.663 232.507 350.763 232.683 350.952C232.861 351.141 232.963 351.441 232.987 351.851L234.711 351.856C234.658 351.015 234.403 350.372 233.944 349.928C233.485 349.483 232.828 349.253 231.973 349.239C230.996 349.222 230.169 349.56 229.493 350.253C228.821 350.947 228.404 351.887 228.243 353.075L228.201 353.39C228.113 354.098 228.164 354.734 228.353 355.298C228.542 355.862 228.857 356.301 229.299 356.616C229.74 356.932 230.281 357.093 230.922 357.1C231.591 357.11 232.201 357.025 232.751 356.842ZM239.638 351.593C239.267 351.344 238.827 351.217 238.319 351.21C237.5 351.196 236.813 351.465 236.26 352.019C235.71 352.572 235.391 353.315 235.303 354.247C235.254 354.783 235.317 355.27 235.492 355.707C235.671 356.145 235.944 356.487 236.312 356.732C236.68 356.974 237.116 357.098 237.62 357.105C238.43 357.119 239.109 356.858 239.659 356.322C240.209 355.786 240.533 355.082 240.631 354.21L240.642 354.094C240.691 353.555 240.628 353.064 240.453 352.623C240.281 352.182 240.009 351.838 239.638 351.593ZM237.016 354.557L237.032 354.247C237.088 353.662 237.218 353.234 237.421 352.965C237.627 352.691 237.89 352.56 238.209 352.571C238.451 352.578 238.633 352.676 238.755 352.865C238.882 353.05 238.941 353.301 238.934 353.616L238.913 354.094C238.804 355.219 238.41 355.77 237.731 355.749C237.205 355.735 236.967 355.338 237.016 354.557Z" fill="#E84F10"/>
<defs>
<filter id="filter0_i_4_936" x="130" y="215" width="115.449" height="115.449" filterUnits="userSpaceOnUse" color-interpolation-filters="sRGB">
<feFlood flood-opacity="0" result="BackgroundImageFix"/>
<feBlend mode="normal" in="SourceGraphic" in2="BackgroundImageFix" result="shape"/>
<feColorMatrix in="SourceAlpha" type="matrix" values="0 0 0 0 0 0 0 0 0 0 0 0 0 0 0 0 0 0 127 0" result="hardAlpha"/>
<feOffset/>
<feGaussianBlur stdDeviation="1.58702"/>
<feComposite in2="hardAlpha" operator="arithmetic" k2="-1" k3="1"/>
<feColorMatrix type="matrix" values="0 0 0 0 0.754167 0 0 0 0 0.218117 0 0 0 0 0 0 0 0 0.5 0"/>
<feBlend mode="normal" in2="shape" result="effect1_innerShadow_4_936"/>
</filter>
<filter id="filter1_bd_4_936" x="123.578" y="218.608" width="129.88" height="108.751" filterUnits="userSpaceOnUse" color-interpolation-filters="sRGB">
<feFlood flood-opacity="0" result="BackgroundImageFix"/>
<feGaussianBlur in="BackgroundImageFix" stdDeviation="3.60777"/>
<feComposite in2="SourceAlpha" operator="in" result="effect1_backgroundBlur_4_936"/>
<feColorMatrix in="SourceAlpha" type="matrix" values="0 0 0 0 0 0 0 0 0 0 0 0 0 0 0 0 0 0 127 0" result="hardAlpha"/>
<feOffset/>
<feGaussianBlur stdDeviation="14.4311"/>
<feColorMatrix type="matrix" values="0 0 0 0 0 0 0 0 0 0 0 0 0 0 0 0 0 0 0.16 0"/>
<feBlend mode="normal" in2="effect1_backgroundBlur_4_936" result="effect2_dropShadow_4_936"/>
<feBlend mode="normal" in="SourceGraphic" in2="effect2_dropShadow_4_936" result="shape"/>
</filter>
<linearGradient id="paint0_linear_4_936" x1="0" y1="0" x2="375" y2="667" gradientUnits="userSpaceOnUse">
<stop stop-color="#FFD1BF"/>
<stop offset="0.9999" stop-color="#FCCAEB"/>
</linearGradient>
<linearGradient id="paint1_linear_4_936" x1="187.724" y1="215" x2="187.724" y2="330.449" gradientUnits="userSpaceOnUse">
<stop stop-color="#FF8350"/>
<stop offset="1" stop-color="#E34200"/>
</linearGradient>
</defs>
</svg>
