<svg width="48" height="48" viewBox="0 0 48 48" fill="none" xmlns="http://www.w3.org/2000/svg">
<g filter="url(#filter0_d_1_1325)">
<circle cx="24.0001" cy="23.9999" r="15.9999" fill="white"/>
</g>
<path fill-rule="evenodd" clip-rule="evenodd" d="M23.9999 39.9997C32.8364 39.9997 39.9997 32.8364 39.9997 23.9999C39.9997 15.1634 32.8364 8 23.9999 8C15.1634 8 8 15.1634 8 23.9999C8 32.8364 15.1634 39.9997 23.9999 39.9997ZM24 34C29.5228 34 34 29.5228 34 24C34 18.4772 29.5228 14 24 14C18.4772 14 14 18.4772 14 24C14 29.5228 18.4772 34 24 34Z" fill="#FF5712"/>
<path d="M30.6666 32.5V30.8333C30.6666 29.9493 30.3155 29.1014 29.6903 28.4763C29.0652 27.8512 28.2174 27.5 27.3333 27.5H20.6666C19.7826 27.5 18.9347 27.8512 18.3096 28.4763C17.6845 29.1014 17.3333 29.9493 17.3333 30.8333V32.5" stroke="#FF5712" stroke-width="1.33333" stroke-linecap="round" stroke-linejoin="round"/>
<path d="M24 24.1667C25.841 24.1667 27.3334 22.6743 27.3334 20.8333C27.3334 18.9924 25.841 17.5 24 17.5C22.1591 17.5 20.6667 18.9924 20.6667 20.8333C20.6667 22.6743 22.1591 24.1667 24 24.1667Z" stroke="#FF5712" stroke-width="1.33333" stroke-linecap="round" stroke-linejoin="round"/>
<defs>
<filter id="filter0_d_1_1325" x="0.000247955" y="6.48499e-05" width="47.9996" height="47.9996" filterUnits="userSpaceOnUse" color-interpolation-filters="sRGB">
<feFlood flood-opacity="0" result="BackgroundImageFix"/>
<feColorMatrix in="SourceAlpha" type="matrix" values="0 0 0 0 0 0 0 0 0 0 0 0 0 0 0 0 0 0 127 0" result="hardAlpha"/>
<feOffset/>
<feGaussianBlur stdDeviation="3.99997"/>
<feColorMatrix type="matrix" values="0 0 0 0 0 0 0 0 0 0 0 0 0 0 0 0 0 0 0.3 0"/>
<feBlend mode="normal" in2="BackgroundImageFix" result="effect1_dropShadow_1_1325"/>
<feBlend mode="normal" in="SourceGraphic" in2="effect1_dropShadow_1_1325" result="shape"/>
</filter>
</defs>
</svg>
